<svg height="512" viewBox="0 0 512 512" width="512" xmlns="http://www.w3.org/2000/svg"><g id="flat"><path d="m412 168a20 20 0 0 0 -20 20v-24a20 20 0 0 0 -40 0v16a20 20 0 0 0 -40 0v32a20 20 0 0 0 -40 0v133.06a74.7 74.7 0 0 0 21.88 52.82l2.12 2.12v64h112v-64l24-56.88v-155.12a20 20 0 0 0 -20-20z" fill="#c7463b"/><path d="m220 96a20 20 0 0 0 -20 20v-32a20 20 0 0 0 -40 0v-16a20 20 0 0 0 -40 0v24a20 20 0 0 0 -40 0v155.12l24 56.88v64h112v-64l2.12-2.12a74.7 74.7 0 0 0 21.88-52.82v-133.06a20 20 0 0 0 -20-20z" fill="#c7463b"/><path d="m160 168h-40v-100a20 20 0 0 1 20-20 20 20 0 0 1 20 20z" fill="#dc4d41"/><path d="m240 168h-40v-52a20 20 0 0 1 20-20 20 20 0 0 1 20 20z" fill="#dc4d41"/><path d="m168 304h40a0 0 0 0 1 0 0v64a0 0 0 0 1 0 0h-40a32 32 0 0 1 -32-32 32 32 0 0 1 32-32z" fill="#ae3d34"/><path d="m240 192v16h-64a8 8 0 0 1 0-16z" fill="#b64036"/><path d="m136 208h-56a8 8 0 0 1 0-16h56a8 8 0 0 1 0 16z" fill="#b64036"/><g fill="#dc4d41"><path d="m96 200-32.22-37.59a22.454 22.454 0 0 0 -32.926-1.264 22.454 22.454 0 0 0 -1.021 30.663l42.167 48.191a77.254 77.254 0 0 0 22.627 54.627l9.373 9.373h48v-39.432a65.223 65.223 0 0 0 -56-64.568z"/><path d="m176 304h40a0 0 0 0 1 0 0v64a0 0 0 0 1 0 0h-40a32 32 0 0 1 -32-32 32 32 0 0 1 32-32z"/><path d="m352 264h40v-100a20 20 0 0 0 -20-20 20 20 0 0 0 -20 20z"/><path d="m272 264h40v-52a20 20 0 0 0 -20-20 20 20 0 0 0 -20 20z"/></g><path d="m336 400h40a0 0 0 0 1 0 0v64a0 0 0 0 1 0 0h-40a32 32 0 0 1 -32-32 32 32 0 0 1 32-32z" fill="#ae3d34" transform="matrix(-1 0 0 -1 680 864)"/><path d="m272 288v16h64a8 8 0 0 0 0-16z" fill="#b64036"/><path d="m376 304h56a8 8 0 0 0 0-16h-56a8 8 0 0 0 0 16z" fill="#b64036"/><path d="m416 296 32.22-37.59a22.454 22.454 0 0 1 32.926-1.264 22.454 22.454 0 0 1 1.021 30.663l-42.167 48.191a77.254 77.254 0 0 1 -22.627 54.627l-9.373 9.373h-48v-39.432a65.223 65.223 0 0 1 56-64.568z" fill="#dc4d41"/><path d="m328 400h40a0 0 0 0 1 0 0v64a0 0 0 0 1 0 0h-40a32 32 0 0 1 -32-32 32 32 0 0 1 32-32z" fill="#dc4d41" transform="matrix(-1 0 0 -1 664 864)"/><path d="m176 328h16v16h-16z" fill="#ebebeb"/><path d="m320.277 424h16v16h-16z" fill="#ebebeb"/></g></svg>