<svg height="512" viewBox="0 0 512 512" width="512" xmlns="http://www.w3.org/2000/svg"><g id="flat"><path d="m376.84 184v200l-2.16 7.54-13.84 48.46h-208.84l-13.86-48.51-2.14-7.49v-200l48-112 16-40h112.84l16 40z" fill="#428dc5"/><path d="m184 72-28.342 6.3a90 90 0 0 0 -62.292 50.358l-61.256 133.647a79.992 79.992 0 0 0 -7.184 37.138l6.348 133.318a16 16 0 0 0 15.982 15.239h55.283a9 9 0 0 0 8.989-9.449l-15.528-150.551 40-104z" fill="#e4e4e2"/><path d="m152 440h88v48h-88z" fill="#dbdbdb"/><path d="m48 448h56v40h-56z" fill="#cbcbcb"/><path d="m328.835 72 28.342 6.3a90 90 0 0 1 62.292 50.358l61.256 133.649a79.992 79.992 0 0 1 7.184 37.138l-6.348 133.318a16 16 0 0 1 -15.982 15.237h-55.279a9 9 0 0 1 -8.989-9.449l14.689-150.551-39.165-104z" fill="#e4e4e2"/><path d="m240 440h120.84v48h-120.84z" fill="#ebebeb"/><path d="m408.835 448h56v40h-56z" fill="#cbcbcb"/><path d="m248 104h16v336h-16z" fill="#3b7eb0"/><path d="m152 456h64v16h-64z" fill="#a83b32"/><path d="m264 456h96.84v16h-96.84z" fill="#b94137"/><path d="m290.44 64h-68.04l33.6 48z" fill="#2d5f85"/><path d="m312.84 32h-112.84l22.4 32h67.7z" fill="#a83b32"/><path d="m200 288a117.06 117.06 0 0 1 -48.92 95.06l-1.01.72q-5.775 4.125-11.93 7.71l-2.14-7.49v-9.99c1.61-1.05 3.21-2.13 4.77-3.25l1.01-.72a101 101 0 0 0 42.22-82.04z" fill="#3775a4"/><path d="m376.84 374v10l-2.16 7.54c-4.42-2.66-8.75-5.5-12.93-8.48a117.06 117.06 0 0 1 -48.92-95.06h16a101.028 101.028 0 0 0 42.22 82.04q2.85 2.04 5.79 3.96z" fill="#3775a4"/><g fill="#b94137"><path d="m200 32 56 80-32 16-40-56z"/><path d="m312.835 32-56.835 80 32.835 16 40-56z"/></g></g></svg>