<svg height="512" viewBox="0 0 64 64" width="512" xmlns="http://www.w3.org/2000/svg"><path d="m34 14v47h-15l-9-43 4-11h13a7 7 0 0 0 7 7z" fill="#5aaae7"/><path d="m14 3h6v4h-6z" fill="#a7a9ac"/><path d="m28 3h6v4h-6z" fill="#a7a9ac"/><path d="m28 3v4h-1-7v-4z" fill="#bcbec0"/><path d="m46.982 32.593h3.536v11.314h-3.536z" fill="#e6e7e8" transform="matrix(.707 -.707 .707 .707 -12.768 45.675)"/><path d="m34 7v7a7 7 0 0 1 -7-7z" fill="#d1d3d4"/><path d="m24 13v4a4 4 0 0 1 -8 0v-4z" fill="#1e81ce"/><path d="m51.5 43.5-17.5 17.5v-16l9.5-9.5z" fill="#3d9ae2"/><path d="m36 43v16l-2 2v-16z" fill="#1e81ce"/><path d="m34 7v5a5 5 0 0 1 -5-5z" fill="#e6e7e8"/><path d="m24 12h-8a1 1 0 0 0 -1 1v4a5 5 0 0 0 10 0v-4a1 1 0 0 0 -1-1zm-1 5a3 3 0 0 1 -6 0v-3h6z"/><path d="m54.707 40.293-8-8a1 1 0 0 0 -1.414 0l-10.293 10.293v-39.586a1 1 0 0 0 -1-1h-20a1 1 0 0 0 -1 1v3.823l-3.94 10.835a1.008 1.008 0 0 0 -.039.547l9 43a1 1 0 0 0 .979.795h15a1 1 0 0 0 .707-.293l20-20a1 1 0 0 0 0-1.414zm-21.707-34.293h-4v-2h4zm0 6.91a6.008 6.008 0 0 1 -4.91-4.91h4.91zm-12-6.91v-2h6v2zm-6-2h4v2h-4zm4.812 56-8.775-41.926 3.663-10.074h11.369a8.008 8.008 0 0 0 6.931 6.931v45.069zm15.188-14.586 8.5-8.5 6.586 6.586-15.086 15.086zm16.5-3.328-6.586-6.586 1.086-1.086 6.586 6.586z"/><path d="m29 17h2v2h-2z"/><path d="m29 21h2v2h-2z"/><path d="m29 25h2v2h-2z"/></svg>