<svg height="512pt" viewBox="-16 0 512 512" width="512pt" xmlns="http://www.w3.org/2000/svg"><path d="m448.898438 214.675781h30.1875v43.5625h-30.1875zm0 0" fill="#ff9500"/><path d="m337.292969 230.367188h30.1875v43.566406h-30.1875zm0 0" fill="#ff9500"/><path d="m0 214.316406h30.1875v43.921875h-30.1875zm0 0" fill="#ffbc36"/><path d="m111.40625 230.367188h30.1875v43.566406h-30.1875zm0 0" fill="#ffbc36"/><path d="m224.386719 195.214844v267.226562c0 27.324219 21.878906 49.558594 48.773437 49.558594 26.890625 0 48.769532-22.230469 48.769532-49.558594v-21.015625h-30.1875v21.015625c0 10.679688-8.335938 19.371094-18.585938 19.371094-10.246094 0-18.582031-8.691406-18.582031-19.371094v-267.226562z" fill="#e0aea2"/><path d="m224.386719 195.214844v267.226562c0 27.324219 21.878906 49.558594 48.773437 49.558594 26.890625 0 48.769532-22.230469 48.769532-49.558594v-21.015625h-30.1875v21.015625c0 10.679688-8.335938 19.371094-18.585938 19.371094-10.246094 0-18.582031-8.691406-18.582031-19.371094v-267.226562z" fill="#e0aea2"/><path d="m291.742188 441.425781v21.015625c0 10.679688-8.335938 19.371094-18.585938 19.371094-10.246094 0-18.582031-8.691406-18.582031-19.371094v-267.226562h-15.039063v303.074218c8.757813 8.484376 20.597656 13.710938 33.625 13.710938 26.890625 0 48.769532-22.230469 48.769532-49.558594v-21.015625zm0 0" fill="#bc7e6f"/><path d="m224.441406 227.347656h30.1875v43.566406h-30.1875zm0 0" fill="#ffbc36"/><path d="m479.085938 212.613281v14.640625l-68.488282 12.558594c-14.046875 2.566406-28.375 4.207031-42.785156 4.902344-5.34375.261718-10.695312.390625-16.050781.390625-4.71875 0-9.429688-.101563-14.136719-.300781-15.003906-.632813-29.945312-2.292969-44.566406-4.972657l-.132813-.019531c-12.566406-2.304688-25.398437-3.78125-38.296875-4.425781-10.054687-.503907-20.148437-.503907-30.1875 0-12.902344.644531-25.722656 2.121093-38.289062 4.425781-14.664063 2.6875-29.644532 4.347656-44.699219 4.992188-10.054687.421874-20.136719.402343-30.1875-.089844-14.410156-.695313-28.75-2.335938-42.789063-4.902344l-68.47265575-12.558594v-12.941406c0-102.667969 98.61328175-187.054688 223.01562475-193.957031 2.40625-.128907 4.8125-.238281 7.234375-.3125 3.039063-.097657 6.101563-.148438 9.167969-.148438h.121094c3.101562 0 6.1875.050781 9.269531.140625 2.402344.070313 4.796875.171875 7.183594.300782 57.15625 3.101562 110.457031 22.28125 151.582031 54.8125 46.109375 36.476562 71.507813 85.289062 71.507813 137.464843zm0 0" fill="#ff636e"/><path d="m224.441406 0h30.1875v34.988281h-30.1875zm0 0" fill="#ffbc36"/><path d="m367.8125 244.714844c-5.34375.261718-10.695312.390625-16.050781.390625-4.71875 0-9.429688-.101563-14.136719-.300781 0 0 8-53.996094-1.328125-93.632813-10.585937-44.949219-38.027344-80.8125-81.667969-98.917969v183.132813c-10.054687-.503907-20.148437-.503907-30.1875 0v-183.132813c-43.632812 18.105469-71.0625 53.96875-81.648437 98.917969-9.339844 39.636719-1.339844 93.632813-1.339844 93.632813-10.054687.421874-20.136719.402343-30.1875-.089844 0 0-7.589844-58.023438 1.871094-99.308594 9.691406-42.34375 31.949219-99.5 109.882812-125.050781 2.40625-.128907 4.8125-.238281 7.234375-.3125 3.039063-.097657 6.101563-.148438 9.167969-.148438h.121094c3.101562 0 6.1875.050781 9.269531.140625 2.402344.070313 4.796875.171875 7.183594.300782 77.984375 25.539062 100.253906 82.726562 109.945312 125.070312 9.457032 41.285156 1.871094 99.308594 1.871094 99.308594zm0 0" fill="#f03049"/><path d="m239.542969 0h15.085937v34.988281h-15.085937zm0 0" fill="#ff9500"/><path d="m407.578125 75.148438c-41.125-32.53125-94.425781-51.710938-151.582031-54.8125-2.386719-.128907-4.78125-.230469-7.183594-.300782-3.082031-.089844-6.167969-.140625-9.269531-.140625v215.113281c5.03125 0 10.0625.125 15.085937.378907 12.898438.644531 25.730469 2.121093 38.296875 4.425781l.132813.019531c14.621094 2.679688 29.5625 4.339844 44.566406 4.972657 4.707031.199218 9.417969.300781 14.136719.300781 5.355469 0 10.707031-.128907 16.050781-.390625 14.410156-.695313 28.738281-2.335938 42.785156-4.902344l68.488282-12.558594v-14.640625c0-52.175781-25.398438-100.988281-71.507813-137.464843zm0 0" fill="#ff636e"/><path d="m239.542969 227.347656h15.085937v43.566406h-15.085937zm0 0" fill="#ff9500"/><path d="m365.941406 145.40625c-9.691406-42.34375-31.960937-99.53125-109.945312-125.070312-2.386719-.128907-4.78125-.230469-7.183594-.300782-3.082031-.089844-6.167969-.140625-9.269531-.140625v215.113281c5.03125 0 10.0625.125 15.085937.378907v-183.132813c43.640625 18.105469 71.082032 53.96875 81.667969 98.917969 9.328125 39.636719 1.328125 93.632813 1.328125 93.632813 4.707031.199218 9.417969.300781 14.136719.300781 5.355469 0 10.707031-.128907 16.050781-.390625 0 0 7.585938-58.023438-1.871094-99.308594zm0 0" fill="#bd002f"/></svg>