<?xml version="1.0" encoding="iso-8859-1"?>
<!-- Generator: Adobe Illustrator 19.0.0, SVG Export Plug-In . SVG Version: 6.00 Build 0)  -->
<svg version="1.1" id="Capa_1" xmlns="http://www.w3.org/2000/svg" xmlns:xlink="http://www.w3.org/1999/xlink" x="0px" y="0px"
	 viewBox="0 0 512 512" style="enable-background:new 0 0 512 512;" xml:space="preserve">
<path style="fill:#A53C29;" d="M105.915,471.072v24.957c0,5.666,4.636,10.302,10.302,10.302h279.566
	c5.666,0,10.302-4.636,10.302-10.302v-24.957H105.915z"/>
<path style="opacity:0.1;fill:#210035;enable-background:new    ;" d="M138.173,496.029v-24.957h-32.258v24.957
	c0,5.666,4.636,10.302,10.302,10.302h32.258C142.809,506.331,138.173,501.695,138.173,496.029z"/>
<path style="fill:#F07C3C;" d="M464.222,210.198c-21.757-59.294-44.476-92.755-53.232-104.387c-0.304-0.404-0.662-0.758-1.054-1.063
	c0.977,4.094,1.509,8.358,1.509,12.747v124.341c16.668,48.613,35.183,124.043,40.221,227.76c0.149,3.036,2.652,5.421,5.69,5.421
	h48.945c1.558,0,3.045-0.636,4.121-1.761c1.074-1.127,1.642-2.642,1.571-4.197C507.51,371.458,491.436,284.363,464.222,210.198z"/>
<path style="fill:#B3CCE2;" d="M510.402,441.546c0.634,9.075,1.165,18.246,1.592,27.514c0.07,1.556-0.497,3.07-1.571,4.197
	c-1.076,1.125-2.564,1.761-4.121,1.761h-48.945c-3.038,0-5.541-2.385-5.69-5.421c-0.467-9.6-1.059-18.934-1.744-28.051H510.402z"/>
<path style="fill:#F07C3C;" d="M100.555,117.496c0-4.389,0.532-8.653,1.509-12.747c-0.392,0.305-0.75,0.658-1.054,1.063
	c-8.756,11.632-31.475,45.093-53.231,104.387C20.563,284.363,4.49,371.458,0.006,469.06c-0.07,1.556,0.497,3.07,1.571,4.197
	c1.076,1.125,2.563,1.761,4.121,1.761h48.943c3.04,0,5.543-2.385,5.692-5.421c5.038-103.717,23.553-179.147,40.221-227.76
	L100.555,117.496L100.555,117.496z"/>
<path style="fill:#B3CCE2;" d="M1.598,441.546c-0.634,9.075-1.165,18.246-1.592,27.514c-0.07,1.556,0.497,3.07,1.571,4.197
	c1.076,1.125,2.563,1.761,4.121,1.761h48.943c3.04,0,5.543-2.385,5.692-5.421c0.465-9.6,1.059-18.934,1.744-28.051H1.598z"/>
<path style="opacity:0.1;fill:#210035;enable-background:new    ;" d="M100.555,161.396v-43.899c0-4.389,0.532-8.653,1.509-12.747
	c-0.392,0.305-0.75,0.658-1.054,1.063c-8.756,11.632-31.475,45.093-53.231,104.387C20.563,284.363,4.49,371.458,0.006,469.06
	c-0.07,1.556,0.497,3.07,1.571,4.197c1.076,1.125,2.563,1.761,4.121,1.761H37.93c-1.558,0-3.045-0.636-4.121-1.761
	c-1.074-1.127-1.642-2.642-1.571-4.197c4.484-97.602,20.558-184.696,47.772-258.861C86.923,191.361,93.929,175.143,100.555,161.396z
	"/>
<path style="fill:#ABB53C;" d="M388.801,70.874c-6.89,7.899-17.017,12.905-28.296,12.905h-4.643c-0.646,0-1.276,0.209-1.795,0.596
	c-32.518,24.276-91.39,43.011-97.871,45.028c-0.054,0.006-0.108,0.014-0.162,0.023c-0.093-0.017-0.188-0.028-0.28-0.036
	c-6.686-2.084-65.393-20.799-97.831-45.016c-0.519-0.387-1.148-0.596-1.795-0.596h-4.632c-11.28,0-21.408-5.006-28.299-12.904
	c-15.548,9.714-25.92,26.976-25.92,46.621v351.729c0,2.981,2.417,5.398,5.398,5.398h306.648c2.982,0,5.398-2.417,5.398-5.398
	V117.496C414.723,97.851,404.35,80.589,388.801,70.874z"/>
<path style="opacity:0.1;fill:#210035;enable-background:new    ;" d="M129.287,469.225V117.496
	c0-13.272,4.732-25.462,12.597-34.969c-7.354-1.948-13.825-6.08-18.686-11.652c-15.548,9.714-25.92,26.976-25.92,46.621v351.729
	c0,2.981,2.417,5.398,5.398,5.398h32.01C131.704,474.623,129.287,472.206,129.287,469.225z"/>
<rect x="242.23" y="117.62" style="fill:#FFFFFF;" width="27.533" height="357"/>
<path style="fill:#F07C3C;" d="M401.06,46.222c0,22.4-18.157,40.558-40.556,40.558H151.496c-22.398,0-40.559-18.157-40.559-40.558
	l0,0c0-22.396,18.16-40.553,40.559-40.553h209.009C382.903,5.669,401.06,23.826,401.06,46.222L401.06,46.222z"/>
<path style="fill:#931909;" d="M318.937,47.066c1.61-2.359,3.409-4.497,5.346-6.42H187.805c1.91,1.923,3.676,4.061,5.248,6.42
	l62.399,85.315c0.361,0.063,0.726,0.063,1.087,0.002L318.937,47.066z"/>
<rect x="241.22" y="40.646" style="fill:#FFFFFF;" width="29.561" height="29.559"/>
<g>
	<path style="fill:#A53C29;" d="M193.053,47.066l62.45,85.387c0,0-111.213-33.69-120.932-72.045
		C124.853,22.053,173.632,17.915,193.053,47.066z"/>
	<path style="fill:#A53C29;" d="M318.937,47.066l-62.45,85.387c0,0,111.213-33.69,120.932-72.045
		C387.135,22.053,338.833,17.915,318.937,47.066z"/>
</g>
<g>
	<path style="fill:#F07C3C;" d="M158.283,411.56c0,2.833-2.317,5.151-5.15,5.151h-24.252c-2.833,0-5.15-2.318-5.15-5.151v-80.396
		c0-2.833,2.317-5.151,5.15-5.151h24.252c2.833,0,5.15,2.318,5.15,5.151V411.56z"/>
	<path style="fill:#F07C3C;" d="M388.269,411.56c0,2.833-2.317,5.151-5.15,5.151h-24.252c-2.833,0-5.15-2.318-5.15-5.151v-80.396
		c0-2.833,2.317-5.151,5.15-5.151h24.252c2.833,0,5.15,2.318,5.15,5.151V411.56z"/>
</g>
<g>
	<circle style="fill:#A53C29;" cx="303.39" cy="182.86" r="12.362"/>
	<circle style="fill:#A53C29;" cx="303.39" cy="259.09" r="12.362"/>
	<circle style="fill:#A53C29;" cx="303.39" cy="335.33" r="12.362"/>
	<circle style="fill:#A53C29;" cx="303.39" cy="411.56" r="12.362"/>
</g>
<g>
</g>
<g>
</g>
<g>
</g>
<g>
</g>
<g>
</g>
<g>
</g>
<g>
</g>
<g>
</g>
<g>
</g>
<g>
</g>
<g>
</g>
<g>
</g>
<g>
</g>
<g>
</g>
<g>
</g>
</svg>
