<svg height="512" viewBox="0 0 512 512" width="512" xmlns="http://www.w3.org/2000/svg"><g id="flat"><path d="m54.071 192a7.989 7.989 0 0 1 -6.4-3.188l-17.178-22.821a49 49 0 0 1 -7.293-44.891l1.21-3.628a8 8 0 0 1 9.528-5.231l.956.239a48.913 48.913 0 0 1 37.106 47.52v16a8.008 8.008 0 0 1 -9.938 7.764 8 8 0 0 1 -7.991 8.236zm-16.771-61.738a33 33 0 0 0 5.985 26.117l12.715 16.89v-13.269a32.934 32.934 0 0 0 -18.7-29.738z" fill="#5b4d3f"/><path d="m488 378.06a41.543 41.543 0 0 1 -28.41 39.41l-22.56 7.52a292.569 292.569 0 0 1 -92.49 15.01h-64.54l-37.07-8.24c-.63-.14-1.25-.27-1.88-.39a100.636 100.636 0 0 0 -65.05 8.63h-74.42a304.1 304.1 0 0 1 -42.95-3.05l-2.95-.42a36.887 36.887 0 0 1 -31.68-36.53l24-24-2.17-6.5a72.024 72.024 0 0 1 -2.53-35.65l8.78-48.3 3.92-21.55-2.79-30.66-5.21-57.34 72-56 56 16 32-24 16 32s.46 2.77 1.16 6.98a217.991 217.991 0 0 0 8.99 35.39q2.685 7.83 5.99 15.45 4.275 9.885 9.53 19.37c1.23 2.23 2.5 4.43 3.81 6.62l.6.99c1.27 2.12 2.57 4.21 3.92 6.27a209.639 209.639 0 0 0 14.53 19.83q5.085 6.18 10.64 11.96a211.642 211.642 0 0 0 18.31 16.98q6.27 5.175 12.94 9.87 4.185 2.94 8.51 5.69l45.07 28.6 71.91 7.19 8.09.81 6.6 1.32a41.555 41.555 0 0 1 33.4 40.74z" fill="#937c65"/><path d="m488 378.06a41.543 41.543 0 0 1 -28.41 39.41l-22.56 7.52a292.569 292.569 0 0 1 -92.49 15.01h-64.54l-37.07-8.24c-.63-.14-1.25-.27-1.88-.39l38.95-23.37 100.82-6.72a61.205 61.205 0 0 0 34.19-13.29 66.569 66.569 0 0 0 24.99-51.99l-.09-.81 8.09.81 6.6 1.32a41.555 41.555 0 0 1 33.4 40.74z" fill="#5b4d3f"/><path d="m280 408-13.33 8-25.62 15.37a100.636 100.636 0 0 0 -65.05 8.63h-74.42a304.1 304.1 0 0 1 -42.95-3.05l-2.95-.42a36.9 36.9 0 0 1 -31.68-36.53l24-24h200z" fill="#746250"/><g fill="#7c6956"><path d="m314.42 293.71-53.04 48.21a7.985 7.985 0 0 1 -5.38 2.08h-99.47a8 8 0 1 1 0-16h32.46l83.54-73.1q5.085 6.18 10.64 11.96l-69.88 61.14h39.62l48.57-44.16q6.27 5.175 12.94 9.87z"/><path d="m240.14 201.82-126.72 92.92a7.995 7.995 0 0 1 -11.18-1.72 8 8 0 0 1 1.72-11.18l130.19-95.47q2.685 7.83 5.99 15.45z"/><path d="m258 235.07-108.75 89.55a8 8 0 1 1 -10.17-12.35l110.59-91.08c1.23 2.23 2.5 4.43 3.81 6.62l.6.99c1.27 2.12 2.57 4.21 3.92 6.27z"/></g><path d="m208 112-72 56-16 40-64 24-2.79 1.34-2.07-22.78-1.51-16.63-1.63-17.93 72-56 56 16z" fill="#c18125"/><path d="m98.97 191.43-47.83 19.13-1.51-16.63 43.4-17.36a8 8 0 0 1 5.94 14.86z" fill="#ac7421"/><path d="m184.006 192a8 8 0 0 1 -3.584-15.157l16-8a8 8 0 1 1 7.156 14.31l-16 8a7.976 7.976 0 0 1 -3.572.847z" fill="#7c6956"/><path d="m120 408a8 8 0 0 1 -8 8h-84.35a36.687 36.687 0 0 1 -3.65-16h88a8 8 0 0 1 8 8z" fill="#6a5949"/><path d="m160 416h-16a8 8 0 0 1 0-16h16a8 8 0 0 1 0 16z" fill="#6a5949"/><path d="m280 408-13.33 8h-74.67a8 8 0 0 1 0-16h80z" fill="#6a5949"/><path d="m184 376h-136l-2.17-6.5a72.024 72.024 0 0 1 -2.53-35.65l8.78-48.3 35.92-21.55 64 48z" fill="#5b4d3f"/></g></svg>