<svg id="Capa_1" enable-background="new 0 0 512 512" height="512" viewBox="0 0 512 512" width="512" xmlns="http://www.w3.org/2000/svg"><g><g><path d="m301.71 204.779v80.89c0 12.084-1.442 24.024-4.244 35.583-3.925-.34-7.901-.515-11.909-.515-76.532 0-138.57 62.037-138.57 138.57 0 6.253.412 12.414 1.226 18.451-2.977.34-5.975.515-8.973.515-19.975 0-39.95-7.623-55.187-22.86-30.483-30.483-30.483-79.901 0-110.384l48.635-48.635c8.344-8.345 13.032-19.656 13.032-31.462v-60.152h155.99z" fill="#24d1f8"/><path d="m147.214 467.043c.185 3.606.525 7.18.999 10.714-2.977.34-5.975.515-8.973.515-5.429 0-10.858-.567-16.194-1.69 8.417-1.782 16.596-4.965 24.168-9.539z" fill="#21c1f8"/><path d="m301.71 204.779v80.89c0 12.084-1.442 24.024-4.244 35.583-3.925-.34-7.901-.515-11.909-.515-7.046 0-13.969.525-20.737 1.545 2.956-11.878 4.491-24.168 4.491-36.613v-80.89z" fill="#21c1f8"/><path d="m298.855 314.918c-5.774 29.303-20.151 56.478-41.611 77.871l-62.887 62.705c-14.8 14.752-34.037 22.335-53.399 22.759-1.665-8.565-2.531-17.418-2.531-26.473 0-76.533 62.04-138.573 138.574-138.573 7.439-.002 14.733.585 21.854 1.711z" fill="#1891cd"/><path d="m298.855 314.918c-5.774 29.303-20.151 56.478-41.611 77.871l-62.887 62.705c-14.8 14.752-34.037 22.335-53.399 22.759-.462-2.387-.866-4.802-1.203-7.237 8.035-3.734 15.561-8.911 22.201-15.522l62.897-62.705c21.787-21.719 36.27-49.396 41.861-79.208 3.397-.25 6.823-.375 10.287-.375 7.439-.001 14.733.586 21.854 1.712z" fill="#127cac"/><path d="m145.72 119.254h155.99v93.901h-155.99z" fill="#fb6a3b"/><path d="m269.311 119.254h32.399v93.901h-32.399z" fill="#fb5532"/><path d="m301.713 9.623v117.884h-155.991v-117.884c0-5.312 4.311-9.623 9.623-9.623h136.745c5.312 0 9.623 4.311 9.623 9.623z" fill="#fcc16d"/><path d="m301.713 9.623v117.884h-32.401v-117.884c0-5.312-4.311-9.623-9.623-9.623h32.401c5.312 0 9.623 4.311 9.623 9.623z" fill="#fca62f"/><g><g><path d="m168.292 47.629-22.574 19.5 22.717 19.333c1.935 1.647 4.782 1.636 6.705-.025l22.574-19.5-22.717-19.333c-1.935-1.647-4.782-1.637-6.705.025z" fill="#f2fbff"/><path d="m220.289 47.437-22.574 19.5 22.717 19.333c1.935 1.647 4.782 1.636 6.705-.025l22.574-19.5-22.717-19.333c-1.935-1.646-4.782-1.636-6.705.025z" fill="#24d1f8"/><path d="m301.713 66.554-22.583 19.498c-1.923 1.66-4.769 1.671-6.704.024l-22.716-19.33 22.574-19.498c1.923-1.661 4.769-1.671 6.704-.025z" fill="#f2fbff"/><path d="m301.713 66.554-22.582 19.497c-1.923 1.661-4.771 1.671-6.705.023l-3.114-2.651v-33.604l2.971-2.568c1.923-1.662 4.77-1.673 6.706-.027z" fill="#c9f0fd"/></g></g><g><path d="m145.722 150.11h155.988v15.453h-155.988z" fill="#f4492c"/></g></g><g><path d="m450.809 235.633v83.764c0 12.506-1.545 24.858-4.543 36.798-3.389-.258-6.809-.381-10.261-.381-76.543 0-138.58 62.037-138.58 138.57 0 5.738.35 11.404 1.03 16.957-3.358.443-6.737.659-10.116.659-19.975 0-39.951-7.623-55.187-22.86-30.483-30.483-30.483-79.901 0-110.384l48.635-48.635c8.344-8.345 13.032-19.656 13.032-31.462v-63.026z" fill="#24d1f8"/><path d="m297.549 499.998c.144 3.822.443 7.603.906 11.342-3.358.443-6.737.659-10.116.659-5.44 0-10.868-.567-16.195-1.69 8.88-1.884 17.493-5.314 25.405-10.311z" fill="#21c1f8"/><path d="m450.809 235.633v83.764c0 12.506-1.545 24.858-4.543 36.798-3.389-.258-6.809-.381-10.261-.381-7.664 0-15.175.618-22.499 1.813 3.224-12.372 4.903-25.219 4.903-38.23v-83.764z" fill="#21c1f8"/><path d="m447.949 348.647c-5.774 29.303-20.151 56.478-41.611 77.871l-62.887 62.705c-14.8 14.752-34.037 22.335-53.399 22.759-1.665-8.565-2.531-17.418-2.531-26.473 0-76.533 62.04-138.573 138.574-138.573 7.438-.002 14.733.585 21.854 1.711z" fill="#1891cd"/><path d="m447.949 348.647c-5.774 29.303-20.151 56.478-41.611 77.871l-62.887 62.705c-14.8 14.752-34.037 22.335-53.399 22.759-.462-2.387-.866-4.802-1.203-7.237 8.035-3.734 15.561-8.911 22.201-15.522l62.897-62.705c21.787-21.719 36.27-49.396 41.861-79.208 3.397-.25 6.823-.375 10.287-.375 7.438-.001 14.733.586 21.854 1.712z" fill="#127cac"/><path d="m294.818 150.108h155.99v96.775h-155.99z" fill="#fb6a3b"/><path d="m418.409 150.108h32.399v96.775h-32.399z" fill="#fb5532"/><path d="m450.807 43.352v117.884h-155.991v-117.884c0-5.312 4.311-9.623 9.623-9.623h136.745c5.312 0 9.623 4.311 9.623 9.623z" fill="#fcc16d"/><path d="m450.807 43.352v117.884h-32.401v-117.884c0-5.312-4.311-9.623-9.623-9.623h32.401c5.312 0 9.623 4.311 9.623 9.623z" fill="#fca62f"/><g><g><path d="m317.386 81.358-22.574 19.5 22.717 19.333c1.935 1.647 4.782 1.636 6.705-.025l22.574-19.5-22.717-19.333c-1.935-1.647-4.782-1.637-6.705.025z" fill="#f2fbff"/><path d="m369.383 81.166-22.574 19.5 22.717 19.333c1.935 1.647 4.782 1.636 6.705-.025l22.574-19.5-22.717-19.333c-1.935-1.646-4.782-1.636-6.705.025z" fill="#24d1f8"/><path d="m450.807 100.283-22.583 19.498c-1.923 1.66-4.769 1.671-6.704.024l-22.716-19.33 22.574-19.498c1.923-1.661 4.769-1.671 6.704-.025z" fill="#f2fbff"/><path d="m450.807 100.283-22.582 19.497c-1.923 1.661-4.771 1.671-6.705.023l-3.114-2.651v-33.604l2.971-2.568c1.923-1.662 4.77-1.673 6.706-.027z" fill="#c9f0fd"/></g></g><g><path d="m294.815 183.839h155.988v15.453h-155.988z" fill="#f4492c"/></g></g></g></svg>