<svg id="Capa_1" enable-background="new 0 0 512 512" height="512" viewBox="0 0 512 512" width="512" xmlns="http://www.w3.org/2000/svg"><g><g><g><path d="m510.177 266.474h-51.334v204.409h-116.864v-73.946c0-23.746-9.622-45.235-25.188-60.791-15.556-15.566-37.056-25.188-60.791-25.188-47.481 0-85.979 38.498-85.979 85.979v73.946h-115.226v-204.409h-52.972c3.946-33.131 14.227-64.325 29.587-92.325h23.385v-8.489c10.498-16.081 22.86-30.833 36.798-43.937h328.823c1.803 1.69 3.575 3.41 5.316 5.151 12.486 12.496 23.612 26.352 33.11 41.341v5.934h21.747c15.361 28.001 25.642 59.195 29.588 92.325z" fill="#c9f0fd"/><path d="m455.546 136.739-5.017 2.452c-11.754 5.738-24.374 8.653-37.519 8.653h-.587c-4.224 12.125-15.772 20.861-29.319 20.861h-16.143c-6.552 0-11.888 5.419-11.888 12.074v.886c0 32.41-26.362 58.772-58.772 58.772h-1.071c-25.806 0-47.852-16.421-56.227-39.373v40.836c0 13.032-5.068 25.291-14.289 34.501-9.189 9.22-21.448 14.299-34.501 14.299-26.898 0-48.789-21.891-48.789-48.8v-62.965c0-18.873-15.36-34.233-34.243-34.233-14.546 0-28.557-3.101-41.64-9.23l-5.81-2.72c46.955-56.021 117.46-91.635 196.269-91.635 70.691 0 134.686 28.649 181.023 74.987 6.532 6.532 12.723 13.423 18.523 20.635z" fill="#9ce6fb"/><g><g><g><path d="m64.448 399.146v71.732h-54.448c-5.523 0-10-4.477-10-10v-61.732z" fill="#9ce6fb"/><path d="m192.15 399.151h127.7v71.728h-127.7z" fill="#dff6fd"/><path d="m512 399.146v61.732c0 5.523-4.477 10-10 10h-54.448v-71.732z" fill="#68dbf9"/><path d="m465.755 399.146h46.245v61.732c0 5.523-4.477 10-10 10h-36.245z" fill="#24d1f8"/></g><g><path d="m64.489 127.24v56.732h-38.188c10.188-20.634 23.065-39.703 38.188-56.732z" fill="#9ce6fb"/><path d="m192.16 112.241v71.732h-127.671v-56.733c4.605-5.192 9.426-10.199 14.433-14.999z" fill="#dff6fd"/><path d="m78.922 112.241h113.238v71.732h-50.736v-5.038c0-18.873-15.36-34.233-34.243-34.233-14.546 0-28.557-3.101-41.64-9.23l-1.051-.494v-7.737c4.604-5.193 9.425-10.199 14.432-15z" fill="#c9f0fd"/><path d="m447.511 127.24v56.732h-127.671v-71.732h113.237c1.329 1.277 2.648 2.565 3.946 3.863 3.606 3.607 7.109 7.315 10.488 11.137z" fill="#dff6fd"/><path d="m447.511 127.24v56.732h-8.056c-12.465-25.26-28.979-48.161-48.686-67.868-1.298-1.298-2.617-2.586-3.946-3.863h46.255c1.329 1.277 2.648 2.565 3.946 3.863 3.605 3.606 7.108 7.314 10.487 11.136z" fill="#c9f0fd"/><path d="m447.511 127.24v13.341c-10.889 4.821-22.468 7.263-34.501 7.263h-.587c-4.224 12.125-15.772 20.861-29.319 20.861h-16.143c-6.552 0-11.888 5.419-11.888 12.074v.886c0 .773-.01 1.545-.052 2.308h-35.181v-71.732h113.237c1.329 1.277 2.648 2.565 3.946 3.863 3.606 3.606 7.109 7.314 10.488 11.136z" fill="#c9f0fd"/><path d="m485.699 183.972h-38.189v-56.732c15.124 17.029 28.001 36.098 38.189 56.732z" fill="#24d1f8"/></g><g><path d="m128.319 183.972h127.681v71.721h-127.681z" fill="#9ce6fb"/><path d="m256 183.972v41.764c-7.582-6.593-13.495-15.061-16.998-24.673v40.837c0 4.739-.67 9.375-1.968 13.794h-93.623c-1.298-4.378-1.988-9.004-1.988-13.794v-57.927h114.577z" fill="#68dbf9"/><path d="m256 183.972h127.681v71.721h-127.681z" fill="#68dbf9"/><path d="m355.021 183.972c-1.205 31.348-27.083 56.464-58.72 56.464h-1.071c-14.999 0-28.721-5.542-39.229-14.701v-41.764h99.02z" fill="#24d1f8"/><path d="m508.662 255.694h-124.981v-71.721h102.019c10.992 22.272 18.842 46.368 22.962 71.721z" fill="#9ce6fb"/><path d="m508.662 255.694h-46.245c-4.121-25.353-11.971-49.449-22.963-71.721h46.245c10.993 22.272 18.843 46.368 22.963 71.721z" fill="#68dbf9"/></g><g><path d="m64.489 255.694v71.732h-64.489v-30.308c0-14.103 1.143-27.939 3.338-41.424z" fill="#9ce6fb"/><path d="m64.489 255.694h127.67v71.732h-127.67z" fill="#68dbf9"/><path d="m143.412 255.694h48.748v34.964c-.649.031-1.298.041-1.947.041-22.108 0-40.837-14.793-46.801-35.005z" fill="#24d1f8"/><path d="m319.838 255.695h127.676v71.728h-127.676z" fill="#dff6fd"/><path d="m512 297.117v30.308h-64.489v-71.732h61.152c2.194 13.486 3.337 27.321 3.337 41.424z" fill="#68dbf9"/><path d="m512 297.117v30.308h-46.245v-30.308c0-14.103-1.143-27.939-3.338-41.424h46.245c2.195 13.486 3.338 27.321 3.338 41.424z" fill="#24d1f8"/></g><g><path d="m0 327.425h.598v71.721h-.598z" fill="#68dbf9"/><path d="m.6 327.423h127.7v71.728h-127.7z" fill="#dff6fd"/><path d="m205.408 327.42c-21.448 15.638-35.387 40.95-35.387 69.517v2.215h-41.722v-71.732z" fill="#9ce6fb"/><path d="m383.701 327.42v71.732h-41.722v-2.215c0-23.746-9.622-45.235-25.188-60.791-3.163-3.163-6.573-6.088-10.199-8.726z" fill="#68dbf9"/><path d="m383.701 327.425h127.701v71.721h-127.701z" fill="#9ce6fb"/><path d="m465.755 327.425h45.647v71.721h-45.647z" fill="#68dbf9"/><path d="m441.484 120.678c-8.602 4.203-18.265 6.562-28.474 6.562h-9.045c-.845 0-1.669.103-2.452.288-3.461-3.925-7.046-7.726-10.745-11.425-41.207-41.228-96.425-68.456-157.886-73.957 7.613-.68 15.329-1.03 23.117-1.03 70.691 0 134.686 28.649 181.023 74.987 1.505 1.505 2.999 3.03 4.462 4.575z" fill="#c9f0fd"/><path d="m511.402 327.425h.598v71.721h-.598z" fill="#dff6fd"/></g></g></g><path d="m356.329 395.638v75.244h-64.221v-75.007c0-9.972-4.038-18.997-10.58-25.528-6.531-6.542-15.556-10.58-25.528-10.58-19.944 0-36.108 16.164-36.108 36.108v75.007h-64.222v-75.244c0-55.403 44.926-100.319 100.329-100.319 27.702 0 52.786 11.229 70.938 29.381 18.163 18.162 29.392 43.237 29.392 70.938z" fill="#f2fbff"/><path d="m356.329 395.644v75.234h-37.365v-75.234c0-27.702-11.229-52.787-29.381-70.949-13.98-13.969-32.049-23.838-52.261-27.64 6.047-1.143 12.29-1.741 18.677-1.741 27.702 0 52.786 11.229 70.938 29.381 18.163 18.162 29.392 43.247 29.392 70.949z" fill="#dff6fd"/><path d="m208.732 470.878v-75.236c0-26.064 21.205-47.269 47.268-47.269s47.268 21.205 47.268 47.269v75.236z" fill="#1475cb"/><path d="m208.732 470.878v-74.598c0-23.872 17.481-44.54 41.165-47.522 28.773-3.623 53.371 18.812 53.371 46.884v75.236z" fill="#1475cb"/><path d="m303.265 395.642v75.236h-40.85v-75.236c0-18.757-10.985-34.985-26.846-42.622 6.195-2.969 13.124-4.643 20.431-4.643 26.064 0 47.265 21.201 47.265 47.265z" fill="#0e6ac2"/></g></g><path d="m441.484 120.678c-8.602 4.203-18.265 6.562-28.474 6.562h-9.045c-2.884 0-5.491 1.164-7.386 3.06-1.885 1.885-3.049 4.492-3.049 7.376 0 5.759-4.667 10.425-10.425 10.425h-16.143c-17.946 0-32.492 14.546-32.492 32.677v.886c0 21.078-17.091 38.168-38.168 38.168h-1.071c-21.665 0-39.229-17.565-39.229-39.24v-17.05c0-10.384-8.417-18.801-18.893-18.801h-.474c-10.075 0-18.234 8.169-18.234 18.245v78.914c0 7.778-3.152 14.835-8.252 19.934-5.099 5.11-12.146 8.262-19.934 8.262-15.566 0-28.186-12.62-28.186-28.196v-62.965c0-30.287-24.56-54.837-54.847-54.837-11.765 0-22.911-2.606-32.904-7.283 46.377-46.75 110.67-75.698 181.722-75.698 70.691 0 134.686 28.649 181.023 74.987 1.504 1.504 2.998 3.029 4.461 4.574z" fill="#f2fbff"/><path d="m441.484 120.678c-8.602 4.203-18.265 6.562-28.474 6.562h-9.045c-.845 0-1.669.103-2.452.288-3.461-3.925-7.046-7.726-10.745-11.425-41.207-41.228-96.425-68.456-157.886-73.957 7.613-.68 15.329-1.03 23.117-1.03 70.691 0 134.686 28.649 181.023 74.987 1.505 1.505 2.999 3.03 4.462 4.575z" fill="#dff6fd"/><g id="XMLID_229_"><path d="m313.454 126.331c-.013 0-.025 0-.037 0l-.107-.001c-4.267-.02-7.71-3.495-7.69-7.763.02-4.255 3.476-7.69 7.725-7.69h.037l.107.001c4.267.02 7.71 3.495 7.69 7.763-.02 4.255-3.475 7.69-7.725 7.69z" fill="#dff6fd"/></g><g id="XMLID_230_"><path d="m295.49 147.316h-.107c-4.267 0-7.726-3.459-7.726-7.726s3.459-7.726 7.726-7.726h.107c4.267 0 7.726 3.459 7.726 7.726.001 4.266-3.458 7.726-7.726 7.726z" fill="#dff6fd"/></g></g></svg>