<svg id="Capa_1" enable-background="new 0 0 512 512" height="512" viewBox="0 0 512 512" width="512" xmlns="http://www.w3.org/2000/svg"><g><g><path d="m271.731 246.43h223.611v35.809h-223.611z" fill="#c76d3d"/><path d="m271.731 201.72h223.611v80.519h-223.611z" fill="#c1633a"/><path d="m271.731 303.244h223.611v54.847h-223.611z" fill="#c76d3d"/><path d="m271.731 303.244h223.611v54.847h-223.611z" fill="#c1633a"/><path d="m271.731 379.096h223.611v35.85c0 5.728-4.646 10.374-10.384 10.374h-202.843c-5.738 0-10.384-4.646-10.384-10.374z" fill="#c76d3d"/><path d="m495.342 379.096v35.85c0 5.728-4.646 10.374-10.384 10.374h-202.843c-5.738 0-10.384-4.646-10.384-10.374v-35.85z" fill="#c1633a"/><g fill="#aa5e33"><path d="m271.731 201.72h223.611v53.971h-223.611z"/><path d="m456.288 201.72h39.054v80.519h-39.054z"/><path d="m456.288 303.244h39.054v54.847h-39.054z"/><path d="m456.288 379.096h39.054v35.85c0 5.728-4.646 10.374-10.384 10.374h-39.054c5.738 0 10.384-4.636 10.384-10.374z"/></g><g><path d="m271.739 349.561h223.606v37.88h-223.606z" fill="#9d552e"/><path d="m456.286 349.561h39.058v37.88h-39.058z" fill="#8e4d29"/><path d="m271.739 273.8h223.606v37.88h-223.606z" fill="#9d552e"/><path d="m456.286 273.8h39.058v37.88h-39.058z" fill="#8e4d29"/></g><g><g fill="#d67f4f"><path d="m294.518 241.959v.092h-263.458v-.092l64.026-64.51h135.407z"/><path d="m294.518 263.067v56.299h-93.808v-29.494c0-4.656-3.781-8.437-8.437-8.437h-59.06c-4.667 0-8.447 3.781-8.447 8.437v29.494h-93.706v-56.299z"/><path d="m31.06 340.382h93.705v55.496h-93.705z"/><path d="m200.71 340.382h93.808v55.496h-93.808z"/></g><path d="m31.06 263.067h40.826l-17.389 17.389c-6.47 6.47-14.598 10.662-23.437 12.197z" fill="#c76d3d"/><path d="m95.086 177.449h62.418l-64.602 64.602h-61.842v-.092z" fill="#c76d3d"/><path d="m294.518 241.959v.092h-61.841l-64.603-64.602h62.419z" fill="#c76d3d"/><path d="m253.692 263.067h40.826v30.957c-8.18-1.751-15.679-5.81-21.727-11.857z" fill="#c76d3d"/><g><g fill="#c76d3d"><path d="m31.06 387.441h93.705v37.88h-83.321c-5.728 0-10.384-4.636-10.384-10.374z"/><path d="m294.518 387.441v27.506c0 5.738-4.656 10.374-10.384 10.374h-83.424v-37.88z"/><path d="m31.06 311.681h93.705v37.88h-93.705z"/><path d="m200.71 311.681h93.808v37.88h-93.808z"/><path d="m294.518 241.962v31.838h-263.457v-31.838l10.572-10.643h242.313z"/></g><path d="m41.633 231.319h62l-42.481 42.481h-30.091v-31.838z" fill="#aa5e33"/><path d="m294.518 241.962v31.838h-30.091l-42.481-42.481h62z" fill="#aa5e33"/></g><g><path d="m241.871 188.909h-158.163l79.081-79.681z" fill="#c76d3d"/><path d="m241.871 188.909h-62.335l-13.104-13.104c-2.012-2.012-5.273-2.012-7.284 0l-13.104 13.104h-62.336l79.082-79.681z" fill="#aa5e33"/></g></g><g><g><g><path d="m455.4 118.368c0 12.985-10.526 23.511-23.51 23.511v5.151h-253.443v-5.151c-12.744 0-23.598-9.911-24.05-22.647-.475-13.376 10.223-24.374 23.493-24.374h254c12.984 0 23.51 10.526 23.51 23.51z" fill="#e09977"/><path d="m455.403 118.368c0 12.989-10.531 23.51-23.51 23.51v5.151h-35.585v-5.151c12.979 0 23.51-10.521 23.51-23.51s-10.531-23.51-23.51-23.51h35.585c12.978 0 23.51 10.521 23.51 23.51z" fill="#da875d"/></g><g><path d="m486.814 165.391c0 12.985-10.526 23.511-23.51 23.511v5.151h-237.746v-5.151c-12.744 0-23.598-9.911-24.05-22.647-.475-13.376 10.223-24.374 23.493-24.374h238.302c12.985 0 23.511 10.526 23.511 23.51z" fill="#d67f4f"/><path d="m486.814 165.389c0 12.989-10.531 23.51-23.51 23.51v5.151h-35.585v-5.151c12.979 0 23.51-10.521 23.51-23.51 0-12.979-10.531-23.51-23.51-23.51h35.585c12.979 0 23.51 10.531 23.51 23.51z" fill="#c76d3d"/></g><g><path d="m512 212.415c0 12.985-10.526 23.511-23.51 23.511h-218.058c-12.744 0-23.598-9.911-24.05-22.647-.475-13.376 10.223-24.374 23.493-24.374h218.615c12.984-.001 23.51 10.525 23.51 23.51z" fill="#e09977"/><path d="m512 212.419c0 12.979-10.521 23.51-23.51 23.51h-35.585c12.979 0 23.51-10.531 23.51-23.51 0-12.989-10.531-23.51-23.51-23.51h35.585c12.989 0 23.51 10.521 23.51 23.51z" fill="#da875d"/></g></g><g><path d="m287.16 267.811-120.73-120.729c-2.012-2.012-5.273-2.012-7.284 0l-119.009 119.008c-9.182 9.182-24.069 9.182-33.25 0-9.182-9.182-9.182-24.068 0-33.25l139.276-139.277c9.182-9.182 24.068-9.182 33.25 0l140.998 140.997c9.182 9.182 9.182 24.068 0 33.25-9.182 9.182-24.069 9.182-33.251.001z" fill="#ebbba5"/></g></g></g><g><path d="m414.505 358.087h-40.806c-5.609 0-10.156-4.547-10.156-10.156v-34.615c0-5.609 4.547-10.156 10.156-10.156h40.806c5.609 0 10.156 4.547 10.156 10.156v34.615c-.001 5.609-4.548 10.156-10.156 10.156z" fill="#9ce6fb"/><path d="m420.124 304.856-51.733 51.733c-2.905-1.777-4.844-4.986-4.844-8.653v-12.979l31.797-31.797h19.164c2.072 0 4.011.619 5.616 1.696z" fill="#c9f0fd"/></g><g><path d="m259.241 358.087h-13.386c-5.609 0-10.156-4.547-10.156-10.156v-34.615c0-5.609 4.547-10.156 10.156-10.156h13.386c5.609 0 10.156 4.547 10.156 10.156v34.615c0 5.609-4.547 10.156-10.156 10.156z" fill="#9ce6fb"/></g><g><path d="m79.943 358.087h-13.385c-5.609 0-10.156-4.547-10.156-10.156v-34.615c0-5.609 4.547-10.156 10.156-10.156h13.386c5.609 0 10.156 4.547 10.156 10.156v34.615c-.001 5.609-4.548 10.156-10.157 10.156z" fill="#9ce6fb"/></g><g><path d="m117.065 283.96v141.363h91.354v-141.363c0-5.609-4.547-10.156-10.156-10.156h-71.043c-5.608.001-10.155 4.548-10.155 10.156z" fill="#9d552e"/><g><path d="m167.911 339.871h-10.339c-5.609 0-10.156-4.547-10.156-10.156v-13.289c0-5.609 4.547-10.156 10.156-10.156h10.339c5.609 0 10.156 4.547 10.156 10.156v13.289c0 5.609-4.547 10.156-10.156 10.156z" fill="#9ce6fb"/></g><g id="XMLID_361_"><path d="m181.166 369.955h-.105c-4.267 0-7.726-3.459-7.726-7.726s3.459-7.726 7.726-7.726h.105c4.267 0 7.726 3.459 7.726 7.726s-3.459 7.726-7.726 7.726z" fill="#8e4d29"/></g></g></g></svg>