<svg id="Capa_1" enable-background="new 0 0 512 512" height="512" viewBox="0 0 512 512" width="512" xmlns="http://www.w3.org/2000/svg"><g><g><path d="m423.24 257.381c-50.087-11.868-106.943-18.574-167.24-18.574s-117.152 6.706-167.24 18.574c32.605-75.966 92.706-136.509 167.25-168.126 74.534 31.616 134.635 92.16 167.23 168.126z" fill="#24d1f8"/><path d="m317.677 124.302c-16.153 19.038-40.239 31.132-67.106 31.132-24.518 0-46.719-10.065-62.676-26.29 20.851-16.091 43.711-29.546 68.116-39.889 21.911 9.292 42.577 21.088 61.666 35.047z" fill="#21c1f8"/><path d="m423.24 257.381c-15.412-3.647-31.472-6.81-48.079-9.447-29.937-64.057-79.705-116.349-141.073-148.325 7.149-3.739 14.464-7.191 21.922-10.353 74.534 31.615 134.635 92.159 167.23 168.125z" fill="#21c1f8"/><path d="m441.175 311.97c-56.258-12.002-119.017-18.719-185.175-18.719s-128.917 6.717-185.175 18.719c5.12-21.881 12.403-42.887 21.582-62.779 48.182-12.671 104.038-19.924 163.593-19.924s115.411 7.253 163.593 19.924c9.179 19.892 16.462 40.898 21.582 62.779z" fill="#fcb44d"/><path d="m441.175 311.97c-14.876-3.183-30.205-5.985-45.936-8.386-5.944-22.726-14.237-44.463-24.59-64.912 17.029 2.895 33.388 6.428 48.944 10.518 9.179 19.893 16.462 40.899 21.582 62.78z" fill="#fca62f"/><path d="m449.952 388.296c0 13.557-.824 26.919-2.39 40.043h-383.124c-1.566-13.124-2.39-26.486-2.39-40.043 0-33.182 4.832-65.179 13.825-95.312 53.363-13.537 114.783-21.263 180.127-21.263s126.764 7.726 180.127 21.263c8.994 30.132 13.825 62.13 13.825 95.312z" fill="#fb6a3b"/><g><path d="m448.456 365.539c-.65 0-1.311-.083-1.97-.256-32.246-8.48-66.934-14.738-103.098-18.601-4.243-.453-7.315-4.26-6.862-8.503s4.268-7.311 8.503-6.862c36.934 3.945 72.392 10.345 105.388 19.022 4.127 1.086 6.592 5.31 5.507 9.438-.913 3.466-4.043 5.762-7.468 5.762z" fill="#fb5532"/></g><g><path d="m63.542 366.161c-3.426 0-6.555-2.295-7.467-5.763-1.085-4.127 1.38-8.352 5.507-9.438 32.998-8.678 68.455-15.078 105.388-19.022 4.246-.449 8.05 2.619 8.503 6.862s-2.619 8.05-6.862 8.503c-36.162 3.862-70.85 10.121-103.098 18.602-.659.173-1.32.256-1.971.256z" fill="#fb5532"/></g><path d="m449.952 388.296c0 13.557-.824 26.919-2.39 40.043h-43.855c1.576-13.124 2.39-26.486 2.39-40.043 0-36.891-5.975-72.329-16.988-105.346 16.256 2.854 31.956 6.212 47.017 10.034 8.995 30.132 13.826 62.13 13.826 95.312z" fill="#fb5532"/><g><g><path d="m327.816 75.139h-10.867c-4.267 0-7.726-3.459-7.726-7.726s3.459-7.726 7.726-7.726h10.867c4.267 0 7.726 3.459 7.726 7.726s-3.459 7.726-7.726 7.726z" fill="#fb9927"/></g><g><circle cx="250.566" cy="67.413" fill="#fcc16d" r="67.413"/><path d="m317.98 67.414c0 37.235-30.179 67.414-67.414 67.414-5.984 0-11.794-.783-17.314-2.245 28.84-7.632 50.1-33.918 50.1-65.168s-21.259-57.536-50.1-65.168c5.521-1.464 11.33-2.247 17.314-2.247 37.235 0 67.414 30.179 67.414 67.414z" fill="#fca62f"/></g><g><g><path d="m196.801 42.058c-1.458 0-2.932-.412-4.24-1.273l-9.036-5.946c-3.565-2.346-4.553-7.137-2.207-10.701 2.346-3.565 7.138-4.552 10.701-2.207l9.036 5.946c3.565 2.346 4.553 7.137 2.207 10.701-1.484 2.256-3.948 3.48-6.461 3.48z" fill="#fca62f"/></g><g><path d="m293.48 34.906c-1.977 0-3.955-.755-5.463-2.263-3.018-3.017-3.018-7.909 0-10.927l14.301-14.301c3.017-3.017 7.909-3.017 10.927 0s3.018 7.909 0 10.927l-14.301 14.301c-1.509 1.508-3.487 2.263-5.464 2.263z" fill="#fca62f"/></g></g><g id="XMLID_228_"><path d="m215.944 66.265c-.013 0-.025 0-.037 0l-.107-.001c-4.267-.02-7.71-3.495-7.69-7.763.02-4.255 3.476-7.69 7.725-7.69h.037l.107.001c4.267.02 7.71 3.495 7.69 7.763-.02 4.255-3.476 7.69-7.725 7.69z" fill="#fca62f"/></g><g id="XMLID_227_"><path d="m237.649 49.785h-.107c-4.267 0-7.726-3.459-7.726-7.726s3.459-7.726 7.726-7.726h.107c4.267 0 7.726 3.459 7.726 7.726s-3.459 7.726-7.726 7.726z" fill="#fca62f"/></g></g><g><g><path d="m80.893 512c-21.832.08-39.595-17.553-39.676-39.385l-.116-31.404c-.08-21.832 17.553-39.595 39.385-39.676 21.832-.08 39.595 17.553 39.676 39.385l.116 31.404c.08 21.832-17.554 39.595-39.385 39.676z" fill="#9ff7d3"/><path d="m120.156 440.925.116 31.393c.08 21.842-17.546 39.599-39.376 39.679-7.192.026-13.952-1.868-19.78-5.212 11.781-6.889 19.689-19.683 19.635-34.322l-.116-31.393c-.04-10.915-4.505-20.785-11.689-27.916-2.437-2.419-5.197-4.525-8.198-6.26 5.804-3.386 12.549-5.331 19.742-5.357 10.915-.04 20.806 4.352 27.99 11.472 7.182 7.131 11.636 17.001 11.676 27.916z" fill="#72f4c3"/></g><g><path d="m151.57 512c-21.832.08-39.595-17.553-39.676-39.385l-.116-31.404c-.08-21.832 17.553-39.595 39.385-39.676 21.832-.08 39.595 17.553 39.676 39.385l.116 31.404c.08 21.832-17.553 39.595-39.385 39.676z" fill="#20b69f"/><path d="m190.834 440.925.116 31.393c.08 21.842-17.546 39.599-39.376 39.679-7.192.026-13.952-1.868-19.78-5.212 11.781-6.889 19.689-19.683 19.635-34.322l-.116-31.393c-.04-10.915-4.505-20.785-11.689-27.916-2.437-2.419-5.197-4.525-8.198-6.26 5.804-3.386 12.549-5.331 19.742-5.357 10.915-.04 20.806 4.352 27.99 11.472 7.182 7.131 11.636 17.001 11.676 27.916z" fill="#17998c"/></g><g><path d="m221.556 511.742c-21.832.08-39.595-17.553-39.676-39.385l-.116-31.404c-.08-21.832 17.553-39.595 39.385-39.676 21.832-.08 39.595 17.553 39.676 39.385l.116 31.404c.08 21.832-17.553 39.596-39.385 39.676z" fill="#9ff7d3"/><path d="m260.824 440.667.116 31.393c.08 21.842-17.546 39.599-39.388 39.679-7.204.027-13.952-1.868-19.78-5.223 11.792-6.877 19.689-19.672 19.635-34.31l-.116-31.393c-.04-10.915-4.494-20.785-11.677-27.916-2.449-2.419-5.197-4.525-8.21-6.248 5.804-3.386 12.538-5.342 19.741-5.369 10.915-.04 20.818 4.352 28.002 11.472 7.172 7.13 11.637 17 11.677 27.915z" fill="#72f4c3"/></g><g><path d="m291.542 511.484c-21.832.08-39.595-17.553-39.676-39.385l-.116-31.404c-.08-21.832 17.553-39.595 39.385-39.676 21.832-.08 39.595 17.553 39.676 39.385l.116 31.404c.08 21.833-17.553 39.596-39.385 39.676z" fill="#20b69f"/><path d="m330.814 440.41.116 31.393c.08 21.842-17.557 39.599-39.388 39.679-7.192.026-13.952-1.868-19.78-5.212 11.781-6.889 19.689-19.683 19.635-34.322l-.116-31.393c-.04-10.915-4.505-20.785-11.677-27.916-2.449-2.419-5.208-4.525-8.21-6.26 5.804-3.386 12.549-5.331 19.742-5.357 10.915-.04 20.818 4.352 27.99 11.472 7.183 7.13 11.648 17 11.688 27.916z" fill="#17998c"/></g><g><path d="m361.528 511.227c-21.832.08-39.595-17.553-39.676-39.385l-.116-31.404c-.08-21.832 17.553-39.595 39.385-39.676 21.832-.08 39.595 17.553 39.676 39.385l.116 31.404c.08 21.832-17.553 39.595-39.385 39.676z" fill="#9ff7d3"/><path d="m400.793 440.152.116 31.393c.08 21.842-17.546 39.599-39.376 39.679-7.192.026-13.952-1.868-19.78-5.212 11.781-6.889 19.689-19.683 19.635-34.322l-.116-31.393c-.04-10.915-4.505-20.785-11.689-27.916-2.437-2.419-5.197-4.525-8.198-6.26 5.804-3.386 12.549-5.331 19.742-5.357 10.915-.04 20.806 4.352 27.99 11.472 7.182 7.131 11.636 17.001 11.676 27.916z" fill="#72f4c3"/></g><g><path d="m431.514 510.969c-21.832.08-39.595-17.553-39.676-39.385l-.116-31.404c-.08-21.832 17.553-39.595 39.385-39.676 21.832-.08 39.595 17.553 39.676 39.385l.116 31.404c.08 21.832-17.553 39.596-39.385 39.676z" fill="#20b69f"/><path d="m470.783 439.894.116 31.393c.08 21.842-17.557 39.599-39.388 39.679-7.204.027-13.952-1.868-19.781-5.223 11.792-6.877 19.689-19.672 19.635-34.31l-.116-31.393c-.04-10.915-4.494-20.785-11.677-27.916-2.449-2.419-5.197-4.525-8.21-6.248 5.804-3.386 12.538-5.342 19.742-5.369 10.915-.04 20.818 4.352 28.002 11.472 7.172 7.13 11.637 17 11.677 27.915z" fill="#17998c"/></g></g></g><g><g><path d="m193.759 317.192-21.423 18.512c-2.389 2.064-2.376 5.773.029 7.82l21.559 18.353c1.935 1.648 4.783 1.637 6.707-.025l21.423-18.512c2.389-2.064 2.376-5.773-.029-7.82l-21.559-18.353c-1.936-1.647-4.784-1.636-6.707.025z" fill="#f2fbff"/><path d="m252.566 316.976-21.423 18.512c-2.389 2.064-2.376 5.773.029 7.82l21.559 18.353c1.935 1.648 4.783 1.637 6.707-.025l21.423-18.512c2.389-2.064 2.375-5.773-.029-7.82l-21.559-18.353c-1.936-1.647-4.784-1.637-6.707.025z" fill="#24d1f8"/><path d="m311.372 316.759-21.423 18.512c-2.389 2.064-2.376 5.773.029 7.82l21.559 18.353c1.935 1.648 4.783 1.637 6.707-.025l21.423-18.512c2.389-2.064 2.376-5.773-.029-7.82l-21.559-18.353c-1.935-1.647-4.783-1.636-6.707.025z" fill="#f2fbff"/></g></g></g></svg>