<svg id="Capa_1" enable-background="new 0 0 512 512" height="512" viewBox="0 0 512 512" width="512" xmlns="http://www.w3.org/2000/svg"><g><g><g><g><path d="m324.994 123.594c0 38.105-68.995 68.995-68.995 68.995s-68.995-30.89-68.995-68.995 30.89-68.995 68.995-68.995 68.995 30.89 68.995 68.995z" fill="#0857a0"/><path d="m324.99 123.592c0 38.108-68.99 69.001-68.99 69.001s-4.019-1.796-10.108-5.054c17.699-12.564 35.896-30.223 35.896-49.789 0-37.662-30.172-68.28-67.661-68.99 11.61-8.88 26.123-14.157 41.873-14.157 38.108-.002 68.99 30.891 68.99 68.989z" fill="#05447f"/><g><path d="m160.564 70.809c-1.393 0-2.803-.383-4.067-1.183l-13.566-8.598c-3.551-2.251-4.605-6.953-2.354-10.504s6.954-4.604 10.504-2.354l13.566 8.598c3.551 2.251 4.605 6.953 2.354 10.504-1.45 2.286-3.916 3.537-6.437 3.537z" fill="#fddaa9"/></g><g><path d="m143.064 123.229h-16.087c-4.204 0-7.611-3.408-7.611-7.611 0-4.204 3.408-7.611 7.611-7.611h16.087c4.204 0 7.611 3.408 7.611 7.611s-3.408 7.611-7.611 7.611z" fill="#fddaa9"/></g><g><path d="m200.03 34.847c-3.104 0-6.018-1.912-7.148-4.996l-5.576-15.225c-1.445-3.947.582-8.319 4.53-9.765 3.946-1.444 8.319.583 9.765 4.53l5.576 15.225c1.445 3.947-.582 8.319-4.53 9.765-.863.316-1.748.466-2.617.466z" fill="#fddaa9"/></g><g><path d="m341.704 153.869c-16.721 0-30.276-13.555-30.276-30.276 0-30.564-24.865-55.428-55.428-55.428s-55.428 24.865-55.428 55.428c0 16.721-13.555 30.276-30.276 30.276s-30.276-13.555-30.276-30.276c0-63.952 52.029-115.98 115.98-115.98s115.98 52.029 115.98 115.98c0 16.721-13.555 30.276-30.276 30.276z" fill="#fee7c9"/></g><g><path d="m364.544 103.156c-3.439 0-6.558-2.347-7.395-5.838-.98-4.088 1.538-8.196 5.626-9.177l15.349-3.68c4.087-.983 8.196 1.539 9.176 5.626s-1.538 8.196-5.626 9.177l-15.349 3.68c-.597.143-1.193.212-1.781.212z" fill="#f4cfa2"/></g><g><path d="m300.213 27.234c-1.397 0-2.811-.384-4.076-1.189-3.548-2.255-4.596-6.959-2.34-10.507l7.634-12.008c2.255-3.548 6.961-4.596 10.506-2.339 3.548 2.255 4.596 6.959 2.34 10.507l-7.634 12.008c-1.45 2.28-3.914 3.528-6.43 3.528z" fill="#f4cfa2"/></g><g><path d="m371.978 123.592c0 16.725-13.549 30.273-30.273 30.273-6.657 0-12.807-2.152-17.801-5.785 7.561-5.501 12.473-14.421 12.473-24.489 0-57.898-42.655-106.023-98.178-114.609 5.805-.903 11.752-1.37 17.801-1.37 63.956.001 115.978 52.033 115.978 115.98z" fill="#fddaa9"/></g><g><g><g><path d="m398.865 432.737h39.004c4.286 0 7.76-3.474 7.76-7.76v-161.24c0-8.059-3.128-15.803-8.725-21.602l-84.603-87.654v85.851l37.316 37.316c.952.952 1.486 2.242 1.486 3.588v143.74c.001 4.287 3.476 7.761 7.762 7.761z" fill="#0e6ac2"/><path d="m445.629 263.734v161.24c0 4.292-3.472 7.763-7.763 7.763h-27.435c4.284 0 7.763-3.472 7.763-7.763v-161.24c0-8.054-3.127-15.802-8.729-21.596l-57.162-59.231v-28.424l84.605 87.655c5.594 5.794 8.721 13.541 8.721 21.596z" fill="#0857a0"/></g><g><path d="m113.134 432.737h-39.004c-4.286 0-7.76-3.474-7.76-7.76v-161.24c0-8.059 3.128-15.803 8.725-21.602l84.603-87.654v85.851l-37.316 37.316c-.952.952-1.486 2.242-1.486 3.588v143.74c-.001 4.287-3.476 7.761-7.762 7.761z" fill="#0e6ac2"/><path d="m159.696 214.021v26.309l-37.314 37.322c-.951.952-1.486 2.242-1.486 3.588v143.735c0 4.287-3.476 7.763-7.763 7.763h-26.309c4.284 0 7.763-3.472 7.763-7.763v-143.736c0-1.346.535-2.636 1.486-3.588z" fill="#0857a0"/></g></g><g><path d="m266.28 252.642v259.358h-108.012c-2.802 0-5.074-2.272-5.074-5.074v-347.144l85.756 62.374 18.734 13.619c5.399 3.927 8.596 10.199 8.596 16.867z" fill="#1475cb"/><path d="m266.28 252.642v259.358h-40.858v-259.358c0-11.63 4.983-22.743 13.528-30.486l18.734 13.619c5.399 3.927 8.596 10.199 8.596 16.867z" fill="#0e6ac2"/><path d="m266.28 252.642v26.924l-113.086-87.522v-32.262l104.49 75.993c5.399 3.927 8.596 10.199 8.596 16.867z" fill="#0e6ac2"/><path d="m266.28 253.898-113.39-87.753c-4.723-3.655-3.635-11.068 1.938-13.213l66.873-25.736c2.993-1.152 6.388-.327 8.502 2.084 9.937 11.334 36.077 48.391 36.077 124.618z" fill="#84aee1"/><g><path d="m256.162 179.419c-4.79 15.527-8.606 35.084-9.651 59.177l-14.573-11.275c2.324-29.969 8.738-52.895 15.893-69.873 2.902 6.281 5.754 13.578 8.331 21.971z" fill="#5591d6"/></g><g><path d="m358.805 159.782v347.144c0 2.802-2.272 5.074-5.074 5.074h-108.012v-259.358c0-6.668 3.197-12.94 8.596-16.867z" fill="#1475cb"/><path d="m358.805 159.782v32.262l-113.086 87.522v-26.924c0-6.668 3.197-12.94 8.596-16.867z" fill="#0e6ac2"/><path d="m254.072 247.434 105.037-81.289c4.723-3.655 3.635-11.068-1.938-13.213l-66.873-25.736c-3.009-1.158-6.409-.307-8.533 2.119-9.484 10.831-33.586 44.945-35.872 113.913-.141 4.304 4.774 6.841 8.179 4.206z" fill="#84aee1"/></g></g></g><g><g id="XMLID_245_"><path d="m275.474 284.279c-.014 0-.027 0-.04 0-4.204-.021-7.643-3.447-7.621-7.651.022-4.19 3.377-7.573 7.562-7.573h.04.097c4.204.021 7.595 3.446 7.573 7.65-.023 4.192-3.426 7.574-7.611 7.574z" fill="#0857a0"/></g><g id="XMLID_279_"><path d="m304.588 284.279c-.014 0-.027 0-.04 0-4.204-.021-7.643-3.447-7.621-7.651.022-4.19 3.377-7.573 7.562-7.573h.04.097c4.204.021 7.595 3.446 7.573 7.65-.023 4.192-3.426 7.574-7.611 7.574z" fill="#0857a0"/></g></g><g><g id="XMLID_281_"><path d="m275.474 325.185c-.014 0-.027 0-.04 0-4.204-.021-7.643-3.447-7.621-7.651.022-4.19 3.377-7.573 7.562-7.573h.04.097c4.204.021 7.595 3.446 7.573 7.65-.023 4.191-3.426 7.574-7.611 7.574z" fill="#0857a0"/></g><g id="XMLID_280_"><path d="m304.588 325.185c-.014 0-.027 0-.04 0-4.204-.021-7.643-3.447-7.621-7.651.022-4.19 3.377-7.573 7.562-7.573h.04.097c4.204.021 7.595 3.446 7.573 7.65-.023 4.191-3.426 7.574-7.611 7.574z" fill="#0857a0"/></g></g><g><g id="XMLID_283_"><path d="m275.473 366.09c-4.204 0-7.66-3.408-7.66-7.611 0-4.204 3.359-7.611 7.563-7.611h.097c4.204 0 7.611 3.408 7.611 7.611s-3.407 7.611-7.611 7.611z" fill="#0857a0"/></g><g id="XMLID_282_"><path d="m304.587 366.09c-4.204 0-7.66-3.408-7.66-7.611 0-4.204 3.359-7.611 7.563-7.611h.097c4.204 0 7.611 3.408 7.611 7.611s-3.407 7.611-7.611 7.611z" fill="#0857a0"/></g></g><g id="XMLID_284_"><path d="m170.344 104.131c-.014 0-.027 0-.04 0-4.204-.022-7.642-3.447-7.62-7.651.022-4.19 3.378-7.572 7.562-7.572h.04.096c4.204.022 7.594 3.447 7.572 7.651-.021 4.19-3.425 7.572-7.61 7.572z" fill="#fddaa9"/></g><g id="XMLID_285_"><path d="m188.461 84.568c-4.204 0-7.66-3.408-7.66-7.611 0-4.204 3.36-7.611 7.563-7.611h.096c4.204 0 7.611 3.408 7.611 7.611.001 4.203-3.407 7.611-7.61 7.611z" fill="#fddaa9"/></g><g id="XMLID_286_"><path d="m316.553 69.197c-.014 0-.027 0-.04 0-4.204-.021-7.643-3.447-7.621-7.651.022-4.19 3.377-7.573 7.562-7.573h.04.097c4.204.021 7.595 3.446 7.573 7.65-.022 4.192-3.426 7.574-7.611 7.574z" fill="#fddaa9"/></g></g></g><g><g><g><path d="m205.622 399.579h-16.389c-2.838 0-5.139 2.301-5.139 5.139v49.634c0 2.838 2.301 5.139 5.139 5.139h16.389c2.838 0 5.139-2.301 5.139-5.139v-49.634c-.001-2.839-2.301-5.139-5.139-5.139z" fill="#84aee1"/></g></g><g><g><path d="m322.766 399.579h-16.389c-2.838 0-5.139 2.301-5.139 5.139v49.634c0 2.838 2.301 5.139 5.139 5.139h16.389c2.838 0 5.139-2.301 5.139-5.139v-49.634c0-2.839-2.301-5.139-5.139-5.139z" fill="#84aee1"/></g></g></g></g><g><path d="m451.192 444.173h-49.939c-5.605 0-10.149-4.544-10.149-10.149v-24.297c0-5.605 4.544-10.149 10.149-10.149h49.939c5.605 0 10.149 4.544 10.149 10.149v24.297c-.001 5.606-4.545 10.149-10.149 10.149z" fill="#fee7c9"/><path d="m461.337 409.732v24.296c0 5.602-4.537 10.149-10.149 10.149h-27.909c5.612 0 10.149-4.547 10.149-10.149v-24.296c0-5.612-4.537-10.149-10.149-10.149h27.909c5.612.001 10.149 4.537 10.149 10.149z" fill="#fddaa9"/></g><g><path d="m110.747 444.173h-49.939c-5.605 0-10.149-4.544-10.149-10.149v-24.297c0-5.605 4.544-10.149 10.149-10.149h49.939c5.605 0 10.149 4.544 10.149 10.149v24.297c0 5.606-4.544 10.149-10.149 10.149z" fill="#fee7c9"/><path d="m120.901 409.732v24.296c0 5.602-4.547 10.149-10.149 10.149h-27.746c5.602 0 10.149-4.547 10.149-10.149v-24.296c0-5.612-4.547-10.149-10.149-10.149h27.746c5.602.001 10.149 4.537 10.149 10.149z" fill="#fddaa9"/></g></g></svg>