<svg id="Capa_1" enable-background="new 0 0 512 512" height="512" viewBox="0 0 512 512" width="512" xmlns="http://www.w3.org/2000/svg"><g><g><g><path d="m317.296 82.966h-122.592c-5.69 0-10.302-4.612-10.302-10.302v-41.316c0-5.69 4.612-10.302 10.302-10.302h122.591c5.69 0 10.302 4.612 10.302 10.302v41.315c.001 5.69-4.612 10.303-10.301 10.303z" fill="#1faaee"/><path d="m327.598 31.348v41.31c0 5.697-4.615 10.302-10.302 10.302h-34.511c5.687 0 10.302-4.605 10.302-10.302v-41.31c0-5.687-4.615-10.302-10.302-10.302h34.511c5.686.001 10.302 4.616 10.302 10.302z" fill="#1891cd"/><g><g><path d="m218.913 80.936c-4.268 0-7.726-3.459-7.726-7.726v-21.204c0-4.267 3.459-7.726 7.726-7.726s7.726 3.459 7.726 7.726v21.204c.001 4.267-3.458 7.726-7.726 7.726z" fill="#1891cd"/></g><g><path d="m256 80.936c-4.268 0-7.726-3.459-7.726-7.726v-21.204c0-4.267 3.459-7.726 7.726-7.726s7.726 3.459 7.726 7.726v21.204c0 4.267-3.458 7.726-7.726 7.726z" fill="#1891cd"/></g><g><path d="m293.087 80.936c-4.268 0-7.726-3.459-7.726-7.726v-21.204c0-4.267 3.459-7.726 7.726-7.726s7.726 3.459 7.726 7.726v21.204c0 4.267-3.459 7.726-7.726 7.726z" fill="#1891cd"/></g><g><path d="m300.813 52.004v21.201c0 4.275-3.461 7.726-7.726 7.726-1.174 0-2.287-.268-3.286-.742 2.019-1.865 3.286-4.553 3.286-7.531v-28.381c4.264 0 7.726 3.462 7.726 7.727z" fill="#127cac"/></g></g></g><g><g><path d="m493.646 490.949h-37.059c-5.762 0-10.432-4.671-10.432-10.432v-35.004h57.923v35.004c0 5.761-4.67 10.432-10.432 10.432z" fill="#f98824"/><g><g><path d="m475.117 472.867c-4.268 0-7.726-3.459-7.726-7.726v-18.877c0-4.267 3.459-7.726 7.726-7.726s7.726 3.459 7.726 7.726v18.877c0 4.266-3.459 7.726-7.726 7.726z" fill="#fb6a3b"/></g></g><path d="m449.136 450.033h52.432c5.762 0 10.432-4.671 10.432-10.432v-216.751c0-10.833-4.205-21.244-11.728-29.039l-113.729-117.83v115.408l50.652 50.652c.966.966 1.509 2.276 1.509 3.642v193.918c0 5.761 4.67 10.432 10.432 10.432z" fill="#fb6a3b"/><path d="m512 222.846v216.75c0 5.769-4.667 10.436-10.436 10.436h-36.88c5.759 0 10.436-4.667 10.436-10.436v-216.75c0-10.827-4.203-21.242-11.734-29.031l-76.841-79.623v-38.209l113.732 117.832c7.52 7.789 11.723 18.204 11.723 29.031z" fill="#fb5532"/></g><g><path d="m18.354 490.949h37.059c5.762 0 10.432-4.671 10.432-10.432v-35.004h-57.924v35.004c0 5.761 4.671 10.432 10.433 10.432z" fill="#f98824"/><g><path d="m36.883 472.867c-4.268 0-7.726-3.459-7.726-7.726v-18.877c0-4.267 3.459-7.726 7.726-7.726s7.726 3.459 7.726 7.726v18.877c.001 4.266-3.458 7.726-7.726 7.726z" fill="#fb6a3b"/></g><path d="m62.864 450.033h-52.432c-5.761 0-10.432-4.671-10.432-10.432v-216.75c0-10.833 4.205-21.244 11.728-29.039l113.729-117.83v115.408l-50.652 50.652c-.966.966-1.509 2.276-1.509 3.642v193.918c0 5.76-4.67 10.431-10.432 10.431z" fill="#fb6a3b"/><path d="m125.455 156.018v35.366l-50.65 50.66c-.966.966-1.508 2.276-1.508 3.642v193.91c0 5.763-4.672 10.436-10.436 10.436h-35.365c5.759 0 10.436-4.667 10.436-10.436v-193.91c0-1.366.543-2.676 1.508-3.642z" fill="#fb5532"/></g></g><g><g><path d="m140.119 490.949h231.762c5.762 0 10.432-4.671 10.432-10.432v-35.004h-252.626v35.004c0 5.761 4.67 10.432 10.432 10.432z" fill="#1faaee"/><path d="m382.31 445.512v35.006c0 5.759-4.667 10.436-10.425 10.436h-37.097c5.769 0 10.436-4.677 10.436-10.436v-35.006z" fill="#1891cd"/><g><g><path d="m155.042 470.721c-4.268 0-7.726-3.459-7.726-7.726v-18.114c0-4.267 3.459-7.726 7.726-7.726s7.726 3.459 7.726 7.726v18.114c.001 4.267-3.458 7.726-7.726 7.726z" fill="#1891cd"/></g><g><path d="m188.695 470.721c-4.268 0-7.726-3.459-7.726-7.726v-18.114c0-4.267 3.459-7.726 7.726-7.726s7.726 3.459 7.726 7.726v18.114c.001 4.267-3.458 7.726-7.726 7.726z" fill="#1891cd"/></g><g><path d="m222.347 470.721c-4.268 0-7.726-3.459-7.726-7.726v-18.114c0-4.267 3.459-7.726 7.726-7.726 4.268 0 7.726 3.459 7.726 7.726v18.114c0 4.267-3.458 7.726-7.726 7.726z" fill="#1891cd"/></g><g><path d="m256 470.721c-4.268 0-7.726-3.459-7.726-7.726v-18.114c0-4.267 3.459-7.726 7.726-7.726s7.726 3.459 7.726 7.726v18.114c0 4.267-3.458 7.726-7.726 7.726z" fill="#1891cd"/></g><g><path d="m289.653 470.721c-4.268 0-7.726-3.459-7.726-7.726v-18.114c0-4.267 3.459-7.726 7.726-7.726s7.726 3.459 7.726 7.726v18.114c0 4.267-3.458 7.726-7.726 7.726z" fill="#1891cd"/></g><g><path d="m323.305 470.721c-4.268 0-7.726-3.459-7.726-7.726v-18.114c0-4.267 3.459-7.726 7.726-7.726s7.726 3.459 7.726 7.726v18.114c0 4.267-3.459 7.726-7.726 7.726z" fill="#1891cd"/></g><g><path d="m356.958 470.721c-4.268 0-7.726-3.459-7.726-7.726v-18.114c0-4.267 3.459-7.726 7.726-7.726 4.268 0 7.726 3.459 7.726 7.726v18.114c0 4.267-3.459 7.726-7.726 7.726z" fill="#127cac"/></g></g></g><path d="m398.793 102.4v215.019h-285.586v-215.019c0-19.1 15.473-34.583 34.573-34.583h216.441c19.099 0 34.572 15.483 34.572 34.583z" fill="#fcb44d"/><path d="m398.793 102.4v215.019h-41.836v-215.019c0-19.1-15.484-34.583-34.573-34.583h41.836c19.1 0 34.573 15.483 34.573 34.583z" fill="#fca62f"/><path d="m113.204 308.467v128.913c0 5.69 4.612 10.302 10.302 10.302h264.989c5.69 0 10.302-4.612 10.302-10.302v-128.913z" fill="#24d1f8"/><path d="m398.793 308.467v128.917c0 5.687-4.605 10.302-10.302 10.302h-41.836c5.687 0 10.302-4.615 10.302-10.302v-128.917z" fill="#21c1f8"/></g><g><g><path d="m138.671 172.583-25.156 21.193 25.311 21.007c1.918 1.592 4.702 1.582 6.608-.024l25.156-21.193-25.311-21.007c-1.918-1.593-4.701-1.582-6.608.024z" fill="#f2fbff"/><path d="m195.747 172.373-25.156 21.193 25.311 21.007c1.918 1.592 4.702 1.582 6.608-.024l25.156-21.193-25.311-21.007c-1.918-1.593-4.702-1.583-6.608.024z" fill="#24d1f8"/><path d="m252.822 172.163-25.156 21.193 25.311 21.007c1.918 1.592 4.702 1.582 6.608-.024l25.156-21.193-25.311-21.007c-1.918-1.593-4.702-1.583-6.608.024z" fill="#f2fbff"/><path d="m309.897 171.953-25.156 21.193 25.311 21.007c1.918 1.592 4.702 1.582 6.608-.024l25.156-21.193-25.311-21.007c-1.918-1.593-4.701-1.583-6.608.024z" fill="#24d1f8"/><path d="m366.972 171.742-25.156 21.193 25.311 21.007c1.918 1.592 4.702 1.582 6.608-.024l25.156-21.193-25.311-21.007c-1.918-1.592-4.701-1.582-6.608.024z" fill="#f2fbff"/></g></g><g><path d="m113.207 247.068h285.587v15.453h-285.587z" fill="#fca62f"/></g><g><path d="m356.958 247.068h41.836v15.453h-41.836z" fill="#fb9927"/></g><g id="XMLID_292_"><path d="m255.94 149.819c-4.252 0-7.707-3.438-7.725-7.694-.018-4.267 3.427-7.741 7.693-7.759l.119-.001c4.251.009 7.741 3.427 7.76 7.694.018 4.267-3.427 7.741-7.693 7.759l-.119.001c-.012 0-.024 0-.035 0z" fill="#fca62f"/></g><g id="XMLID_293_"><path d="m313.218 149.819c-4.252 0-7.707-3.438-7.725-7.694-.018-4.267 3.427-7.741 7.694-7.759l.12-.001h.033c4.252 0 7.707 3.438 7.725 7.694.018 4.267-3.427 7.741-7.694 7.759l-.12.001c-.011 0-.022 0-.033 0z" fill="#fca62f"/></g><g id="XMLID_297_"><path d="m199.067 149.819c-4.251 0-7.707-3.438-7.725-7.694-.018-4.267 3.427-7.741 7.694-7.759l.12-.001h.033c4.252 0 7.707 3.438 7.725 7.694.018 4.267-3.427 7.741-7.694 7.759l-.12.001c-.01 0-.022 0-.033 0z" fill="#fca62f"/></g><g id="XMLID_299_"><path d="m141.992 149.819c-4.252 0-7.707-3.438-7.725-7.694-.018-4.267 3.427-7.741 7.694-7.759l.12-.001c4.269.009 7.74 3.427 7.759 7.694s-3.427 7.741-7.694 7.759l-.12.001c-.012 0-.023 0-.034 0z" fill="#fca62f"/></g><g id="XMLID_294_"><path d="m370.497 149.819c-4.251 0-7.707-3.438-7.725-7.694-.018-4.267 3.427-7.741 7.694-7.759l.12-.001h.033c4.251 0 7.707 3.438 7.725 7.694.018 4.267-3.427 7.741-7.694 7.759l-.12.001c-.011 0-.022 0-.033 0z" fill="#fb9927"/></g></g><g><path d="m172.912 421.344h-23.156c-4.268 0-7.726-3.459-7.726-7.726s3.459-7.726 7.726-7.726h23.156c4.268 0 7.726 3.459 7.726 7.726s-3.458 7.726-7.726 7.726z" fill="#21c1f8"/></g></g></svg>