<svg height="512" viewBox="0 0 64 64" width="512" xmlns="http://www.w3.org/2000/svg"><g id="Shirt-3" data-name="Shirt"><path d="m49 28.56v10a3.9 3.9 0 0 1 -3.01 1.44c-3.5 0-3.5-4-7-4s-3.5 4-7 4-3.5-4-7-4-3.49 4-6.99 4a3.875 3.875 0 0 1 -3-1.44v-10a3.875 3.875 0 0 0 3 1.44c3.5 0 3.5-4 6.99-4s3.5 4 7 4 3.5-4 7-4 3.5 4 7 4a3.9 3.9 0 0 0 3.01-1.44z" fill="#ffb655"/><path d="m41 3-9 17-9-17z" fill="#00b39d"/><path d="m49 38.56v22.44h-34v-22.44a3.875 3.875 0 0 0 3 1.44c3.5 0 3.5-4 6.99-4s3.5 4 7 4 3.5-4 7-4 3.5 4 7 4a3.9 3.9 0 0 0 3.01-1.44z" fill="#00ccb3"/><path d="m49 25v3.56a3.9 3.9 0 0 1 -3.01 1.44c-3.5 0-3.5-4-7-4s-3.5 4-7 4-3.5-4-7-4-3.49 4-6.99 4a3.875 3.875 0 0 1 -3-1.44v-2.56h-12l5-17 15-6 9 17 9-17 15 6 5 16z" fill="#00ccb3"/><g fill="#00b39d"><path d="m13 15h2v11h-2z"/><path d="m49 15h2v10h-2z"/></g></g></svg>