<svg height="512" viewBox="0 0 512 512" width="512" xmlns="http://www.w3.org/2000/svg"><g id="flat"><path d="m488 305.08a29.553 29.553 0 0 1 -20.22 28.05l-53.67 10.87-13.21 2.34a391.062 391.062 0 0 1 -68.73 6l-296.5-.32a11.156 11.156 0 0 1 -9.56-16.89l4.32-7.2a22.329 22.329 0 0 0 3.17-11.49 22.565 22.565 0 0 0 -.66-5.41q-1.215-4.83-1.95-9.74a105.837 105.837 0 0 1 .85-36.57l6.95-34.78 4.39-21.94 4.45-26.68a25.509 25.509 0 0 1 26.77-21.27 25.959 25.959 0 0 1 22.76 17.9l2.89 8.67a31.266 31.266 0 0 0 47.01 16.13l16.12-10.75a37.147 37.147 0 0 1 -2.27-50.07l18.27-21.93 4.22 5.06a309.379 309.379 0 0 0 47.32 45.84q11.745 9.18 24.36 17.2 6.21 3.975 12.63 7.63 6.33 3.615 12.81 6.93c.78.4 1.56.8 2.35 1.19l61.64 30.82 26.67 13.33 5 2 9.47 3.79c16.87 6.74 26.86 10.21 45.02 10.21a68.793 68.793 0 0 1 44.16 16.04q2.34 1.95 4.51 4.12a29.6 29.6 0 0 1 8.66 20.92z" fill="#eaeae8"/><path d="m376.18 250-29.626 19.751a34.37 34.37 0 0 1 -32.4 3.079l-93.484-39.361a28.141 28.141 0 0 1 -7.612-47.114l17.662-15.455q11.745 9.18 24.36 17.2 6.21 3.975 12.63 7.63 6.33 3.615 12.81 6.93c.78.4 1.56.8 2.35 1.19l61.64 30.82 26.67 13.33z" fill="#cbcbcb"/><g fill="#3775a4"><path d="m261.85 229.33a8 8 0 0 1 -5.657-13.657l18.67-18.673a8 8 0 0 1 11.314 11.314l-18.67 18.67a7.976 7.976 0 0 1 -5.657 2.346z"/><path d="m293.85 245.33a8 8 0 0 1 -5.657-13.657l18.66-18.66a8 8 0 0 1 11.314 11.314l-18.66 18.66a7.976 7.976 0 0 1 -5.657 2.343z"/><path d="m325.85 261.33a8 8 0 0 1 -5.657-13.657l18.66-18.66a8 8 0 0 1 11.314 11.314l-18.66 18.66a7.976 7.976 0 0 1 -5.657 2.343z"/></g><path d="m179.18 288-8 24-111.76 16.77-28.43-27.48a104.773 104.773 0 0 1 .59-35.15c.07-.48.17-.95.26-1.42l2.86-14.29 4.09-20.49 4.39 2.06 96 24z" fill="#4799cf"/><path d="m103.76 275.94a8 8 0 0 1 -7.75 6.06 8.132 8.132 0 0 1 -1.95-.24l-62.48-15.62c.07-.48.17-.95.26-1.42l2.86-14.29 63.24 15.81a7.994 7.994 0 0 1 5.82 9.7z" fill="#3775a4"/><path d="m488 305.08a29.553 29.553 0 0 1 -20.22 28.05l-53.67 10.87-13.21 2.34a391.062 391.062 0 0 1 -68.73 6l-296.5-.32a11.156 11.156 0 0 1 -9.56-16.89l4.32-7.2a22.329 22.329 0 0 0 3.17-11.49 22.565 22.565 0 0 0 -.66-5.41q-1.215-4.83-1.95-9.74a105.015 105.015 0 0 1 -1.15-12.76l74.1 14.82a445.462 445.462 0 0 0 87.34 8.65h192.72l19.18-24 71.65-7.96q2.34 1.95 4.51 4.12a29.6 29.6 0 0 1 8.66 20.92z" fill="#c7463b"/></g></svg>