<svg id="Layer_1" enable-background="new 0 0 56.69 56.69" height="512" viewBox="0 0 56.69 56.69" width="512" xmlns="http://www.w3.org/2000/svg"><path d="m38.908 13.095h-22.375c-.553 0-1-.448-1-1s.447-1 1-1h22.375c.553 0 1 .448 1 1s-.447 1-1 1zm6.75 3.643c0-.552-.447-1-1-1h-37.625c-.552 0-1 .448-1 1s.448 1 1 1h37.625c.553 0 1-.448 1-1zm-5.75 4.643c0-.552-.447-1-1-1h-31.75c-.552 0-1 .448-1 1s.448 1 1 1h31.75c.553 0 1-.447 1-1zm10.75 4.643c0-.553-.447-1-1-1h-31.75c-.553 0-1 .447-1 1s.447 1 1 1h31.75c.553 0 1-.447 1-1zm-2 4.642c0-.553-.447-1-1-1h-36.25c-.553 0-1 .447-1 1s.447 1 1 1h36.25c.553 0 1-.447 1-1zm-3.25 4.643c0-.553-.447-1-1-1h-37.5c-.552 0-1 .447-1 1s.448 1 1 1h37.5c.553 0 1-.448 1-1zm5.375 4.644c0-.553-.447-1-1-1h-29.25c-.553 0-1 .447-1 1s.447 1 1 1h29.25c.553 0 1-.447 1-1zm-2.375 4.643c0-.553-.447-1-1-1h-29.5c-.553 0-1 .447-1 1s.447 1 1 1h29.5c.553 0 1-.448 1-1z"/></svg>