<svg id="Capa_1" enable-background="new 0 0 512 512" height="512" viewBox="0 0 512 512" width="512" xmlns="http://www.w3.org/2000/svg"><g><g><path d="m0 399.461v65.177c0 6.479 5.252 11.731 11.731 11.731h119.89c6.479 0 11.731-5.252 11.731-11.731v-20.712c0-4.13 4.618-6.581 8.038-4.266l54.325 36.77c1.941 1.314 4.231 2.016 6.575 2.016h287.978c6.479 0 11.731-5.252 11.731-11.731v-67.254z" fill="#aa5e33"/><g fill="#9d552e"><path d="m0 399.461h512v33.216h-512z"/><path d="m512 399.463v67.25c0 6.48-5.254 11.734-11.734 11.734h-52.498c6.48 0 11.734-5.254 11.734-11.734v-67.25z"/></g></g><path d="m512 399.298v9.436h-313.093l-65.901-65.89c-9.22-9.22-21.726-14.402-34.769-14.402h-73.451l5.542-6.058c.865-.948 1.35-2.184 1.35-3.472v-195.043h100.288v-17.451c0-40.239 32.626-72.865 72.865-72.865h34.902c12.96 0 23.468 10.508 23.468 23.467v74.905c0 74.863 52.127 139.631 125.27 155.629l39.672 8.674c28.258 6.181 52.786 23.581 68.054 48.315l.505.814c10.003 16.216 15.298 34.893 15.298 53.941z" fill="#fcc16d"/><path d="m31.678 123.869v88.554c4.595 3.977 10.601 6.387 17.163 6.387h81.24c14.515 0 26.28-11.765 26.28-26.28v-68.662h-124.683z" fill="#fcb44d"/><path d="m512 399.298v9.436h-52.498v-9.436c0-19.048-5.295-37.725-15.298-53.94l-.505-.814c-15.267-24.735-39.796-42.134-68.054-48.315l-39.673-8.674c-73.143-15.999-125.27-80.766-125.27-155.629v-74.906c0-10.765-7.253-19.841-17.132-22.592 3.667-.577 7.428-.875 11.26-.875h34.902c12.96 0 23.468 10.508 23.468 23.467v74.905c0 74.863 52.127 139.631 125.27 155.629l39.672 8.674c28.258 6.181 52.786 23.581 68.054 48.315l.505.814c10.004 16.216 15.299 34.893 15.299 53.941z" fill="#fcb44d"/><path d="m210.878 408.735h-210.878v-24.57c0-18.44 6.902-36.211 19.357-49.799l10.971-11.981c.402-.433.721-.937.938-1.473h71.412c13.042 0 25.549 5.182 34.769 14.402z" fill="#fca62f"/><path d="m210.878 408.735h-49.984l-73.431-73.421c-9.22-9.22-21.726-14.402-34.779-14.402h49.995c13.042 0 25.549 5.182 34.769 14.402z" fill="#fb9927"/><g><circle cx="121.278" cy="232.878" fill="#fb5532" r="48.967"/><g fill="#ec462e"><path d="m155.763 198.104c-2.555 11.837-13.083 20.707-25.682 20.707h-55.723c6.037-20.192 24.755-34.903 46.914-34.903 13.455 0 25.642 5.419 34.491 14.196z"/><path d="m170.248 232.872c0 27.053-21.922 48.975-48.975 48.975-5.563 0-10.92-.927-15.906-2.648 19.233-6.604 33.058-24.848 33.058-46.327 0-21.469-13.825-39.714-33.058-46.317 4.986-1.721 10.343-2.648 15.906-2.648 27.052.001 48.975 21.923 48.975 48.965z"/></g></g><path d="m130.08 191.013h-81.243c-14.516 0-26.284-11.768-26.284-26.284v-53.497c0-6.479 5.252-11.731 11.731-11.731h110.348c6.479 0 11.731 5.252 11.731 11.731v53.497c0 14.517-11.767 26.284-26.283 26.284z" fill="#aa5e33"/><path d="m156.361 111.229v53.497c0 14.515-11.765 26.29-26.28 26.29h-34.769c14.515 0 26.29-11.775 26.29-26.29v-53.497c0-6.47-5.254-11.723-11.734-11.723h34.769c6.47-.001 11.724 5.253 11.724 11.723z" fill="#9d552e"/><g><path d="m115.127 138.559h-59.674c-4.268 0-7.726-3.459-7.726-7.726s3.459-7.726 7.726-7.726h59.674c4.268 0 7.726 3.459 7.726 7.726s-3.459 7.726-7.726 7.726z" fill="#fcc16d"/></g><g><path d="m263.892 133.924h-45.118c-8.652 0-15.665-7.014-15.665-15.665 0-8.652 7.014-15.665 15.665-15.665h45.118c8.652 0 15.665 7.014 15.665 15.665.001 8.651-7.013 15.665-15.665 15.665z" fill="#fb5532"/></g><g><path d="m272.735 191.884-44.433 7.835c-8.52 1.502-16.645-4.187-18.148-12.707-1.502-8.52 4.187-16.645 12.707-18.148l44.433-7.835c8.52-1.502 16.645 4.187 18.148 12.707 1.503 8.521-4.186 16.646-12.707 18.148z" fill="#fb5532"/></g><g><path d="m298.692 243.761-40.278 20.331c-7.724 3.899-17.145.798-21.044-6.926-3.899-7.724-.798-17.145 6.926-21.044l40.278-20.331c7.724-3.899 17.145-.798 21.044 6.926 3.899 7.724.798 17.146-6.926 21.044z" fill="#fb5532"/></g><g><path d="m342.373 279.331-27.795 35.54c-5.33 6.815-15.175 8.019-21.99 2.689-6.815-5.33-8.019-15.175-2.689-21.99l27.795-35.54c5.33-6.815 15.175-8.019 21.99-2.689 6.815 5.33 8.019 15.175 2.689 21.99z" fill="#fb5532"/></g><g><path d="m68.84 383.395h-26.775c-4.268 0-7.726-3.459-7.726-7.726s3.459-7.726 7.726-7.726h26.775c4.268 0 7.726 3.459 7.726 7.726s-3.458 7.726-7.726 7.726z" fill="#fb9927"/></g></g></svg>