<svg id="Capa_1" enable-background="new 0 0 512 512" height="512" viewBox="0 0 512 512" width="512" xmlns="http://www.w3.org/2000/svg"><g><g><g><g><path d="m493.646 473.853h-37.059c-5.762 0-10.432-4.671-10.432-10.432v-25.733h57.923v25.733c0 5.761-4.67 10.432-10.432 10.432z" fill="#127e73"/><path d="m449.136 442.209h52.432c5.762 0 10.432-4.671 10.432-10.432v-216.751c0-10.833-4.205-21.244-11.728-29.039l-113.729-117.83v115.408l50.652 50.652c.966.966 1.509 2.276 1.509 3.642v193.918c0 5.761 4.67 10.432 10.432 10.432z" fill="#20b69f"/><path d="m512 215.022v216.75c0 5.769-4.667 10.436-10.436 10.436h-36.88c5.759 0 10.436-4.667 10.436-10.436v-216.75c0-10.827-4.203-21.242-11.734-29.031l-76.841-79.623v-38.209l113.732 117.832c7.52 7.788 11.723 18.203 11.723 29.031z" fill="#17998c"/></g><g><path d="m18.354 473.853h37.059c5.762 0 10.432-4.671 10.432-10.432v-25.733h-57.924v25.733c0 5.761 4.671 10.432 10.433 10.432z" fill="#127e73"/><path d="m62.864 442.209h-52.432c-5.761 0-10.432-4.671-10.432-10.433v-216.751c0-10.833 4.205-21.244 11.728-29.039l113.729-117.83v115.408l-50.652 50.652c-.966.966-1.509 2.276-1.509 3.642v193.918c0 5.762-4.67 10.433-10.432 10.433z" fill="#20b69f"/><path d="m125.455 148.194v35.366l-50.65 50.66c-.966.966-1.508 2.276-1.508 3.642v193.91c0 5.763-4.672 10.436-10.436 10.436h-35.365c5.759 0 10.436-4.667 10.436-10.436v-193.91c0-1.366.543-2.676 1.508-3.642z" fill="#17998c"/></g></g><g><path d="m386.4 450.552v42.351c0 5.759-4.667 10.425-10.425 10.425h-239.95c-5.759 0-10.425-4.667-10.425-10.425v-42.351z" fill="#20b69f"/><path d="m386.4 450.552v42.351c0 5.759-4.667 10.425-10.425 10.425h-239.95c-5.759 0-10.425-4.667-10.425-10.425v-42.351z" fill="#20b69f"/><path d="m386.4 450.552v32.667c-.433.01-.865.021-1.298.021h-258.204c-.433 0-.865-.01-1.298-.021v-32.667z" fill="#17998c"/><g><path d="m248.274 450.552h15.453v52.776h-15.453z" fill="#127e73"/></g><g><path d="m343.202 43.734v13.708l-53.277 28.042-33.925 17.86-33.925-17.86-53.277-28.042v-13.708c0-5.592 1.502-10.87 4.162-15.429 4.465-7.678 12.195-13.301 21.49-14.845 14.762-2.462 35.574-4.788 61.55-4.788s46.788 2.326 61.55 4.788c9.295 1.544 17.025 7.167 21.49 14.845 2.66 4.559 4.162 9.838 4.162 15.429z" fill="#fc7d4b"/><g><path d="m385.103 145.237v5.151h-258.206v-5.151c-11.534 0-20.885-9.351-20.885-20.885v-37.579c0-11.534 9.351-20.885 20.885-20.885h258.205c11.534 0 20.885 9.351 20.885 20.885v37.579c.001 11.534-9.35 20.885-20.884 20.885z" fill="#9ff7d3"/><path d="m405.984 86.774v37.581c0 11.528-9.344 20.882-20.882 20.882v5.151h-38.117v-5.151c11.538 0 20.882-9.354 20.882-20.882v-37.581c0-11.538-9.344-20.882-20.882-20.882h38.117c11.538.001 20.882 9.344 20.882 20.882z" fill="#72f4c3"/><path d="m385.103 224.586v5.151h-258.206v-5.151c-11.534 0-20.885-9.351-20.885-20.885v-37.579c0-11.534 9.351-20.885 20.885-20.885h258.205c11.534 0 20.885 9.351 20.885 20.885v37.579c.001 11.534-9.35 20.885-20.884 20.885z" fill="#72f4c3"/><path d="m405.984 166.119v37.581c0 11.538-9.344 20.882-20.882 20.882v5.151h-38.117v-5.151c11.538 0 20.882-9.344 20.882-20.882v-37.581c0-11.528-9.344-20.882-20.882-20.882h38.117c11.538 0 20.882 9.354 20.882 20.882z" fill="#23f1a8"/><path d="m385.103 303.934v5.151h-258.206v-5.151c-11.534 0-20.885-9.351-20.885-20.885v-37.579c0-11.534 9.351-20.885 20.885-20.885h258.205c11.534 0 20.885 9.351 20.885 20.885v37.579c.001 11.535-9.35 20.885-20.884 20.885z" fill="#9ff7d3"/><path d="m405.984 245.474v37.571c0 11.538-9.344 20.892-20.882 20.892v5.151h-38.117v-5.151c11.538 0 20.882-9.354 20.882-20.892v-37.571c0-11.538-9.344-20.892-20.882-20.892h38.117c11.538 0 20.882 9.354 20.882 20.892z" fill="#72f4c3"/><path d="m385.103 383.283v5.151h-258.206v-5.151c-11.534 0-20.885-9.351-20.885-20.885v-37.579c0-11.534 9.351-20.885 20.885-20.885h258.205c11.534 0 20.885 9.351 20.885 20.885v37.579c.001 11.534-9.35 20.885-20.884 20.885z" fill="#72f4c3"/><path d="m405.984 324.818v37.581c0 11.538-9.344 20.882-20.882 20.882v5.153h-38.117v-5.153c11.538 0 20.882-9.344 20.882-20.882v-37.581c0-11.538-9.344-20.882-20.882-20.882h38.117c11.538.001 20.882 9.344 20.882 20.882z" fill="#23f1a8"/><path d="m385.103 462.632h-258.206c-11.534 0-20.885-9.351-20.885-20.885v-37.579c0-11.534 9.351-20.885 20.885-20.885h258.205c11.534 0 20.885 9.351 20.885 20.885v37.579c.001 11.534-9.35 20.885-20.884 20.885z" fill="#9ff7d3"/><g><path d="m405.984 404.163v37.581c0 11.538-9.344 20.892-20.882 20.892h-38.117c11.538 0 20.882-9.354 20.882-20.892v-37.581c0-11.528-9.344-20.882-20.882-20.882h38.117c11.538 0 20.882 9.354 20.882 20.882z" fill="#72f4c3"/></g></g><g><g><path d="m355.4 422.682-18.559 6.687c-2.71.976-5.699-.429-6.675-3.139l-27.554-76.476c-.976-2.71.429-5.699 3.139-6.675l18.559-6.687c2.71-.976 5.699.429 6.675 3.139l27.554 76.476c.976 2.71-.429 5.699-3.139 6.675z" fill="#20b69f"/></g><g><path d="m206.249 343.078-18.559-6.687c-2.71-.976-5.699.429-6.675 3.139l-27.554 76.476c-.976 2.71.429 5.699 3.139 6.675l18.559 6.687c2.71.976 5.699-.429 6.675-3.139l27.554-76.476c.977-2.71-.428-5.699-3.139-6.675z" fill="#20b69f"/></g></g><g><g><path d="m355.4 264.824-18.559 6.687c-2.71.976-5.699-.429-6.675-3.139l-27.554-76.476c-.976-2.71.429-5.699 3.139-6.675l18.559-6.687c2.71-.976 5.699.429 6.675 3.139l27.554 76.476c.976 2.71-.429 5.699-3.139 6.675z" fill="#20b69f"/></g><g><path d="m206.249 185.22-18.559-6.687c-2.71-.976-5.699.429-6.675 3.139l-27.554 76.476c-.976 2.71.429 5.699 3.139 6.675l18.559 6.687c2.71.976 5.699-.429 6.675-3.139l27.554-76.476c.977-2.71-.428-5.699-3.139-6.675z" fill="#20b69f"/></g></g><g><path d="m234.249 56.483v18.694c0 6.197-5.383 11.069-11.548 10.38-.209-.021-.417-.052-.626-.073-30.89-3.589-53.277-14.136-53.277-26.612v-15.138c0-5.592 1.502-10.87 4.162-15.429 8.168 8.648 27.645 15.367 51.963 17.808 5.31.532 9.326 5.039 9.326 10.37z" fill="#20b69f"/></g><g><path d="m343.202 43.734v15.137c0 12.477-22.387 23.024-53.277 26.612-.209.021-.417.052-.626.073-6.165.688-11.548-4.183-11.548-10.38v-18.693c0-5.331 4.016-9.838 9.326-10.37 24.317-2.441 43.794-9.159 51.963-17.808 2.66 4.559 4.162 9.838 4.162 15.429z" fill="#20b69f"/></g></g></g></g><path d="m277.679 104.149-13.952-5.92v-32.341h-15.453v396.743h15.453v-347.616l7.916 3.359c.985.418 2.008.616 3.015.616 3.008 0 5.867-1.767 7.116-4.71 1.666-3.928-.167-8.464-4.095-10.131z" fill="#72f4c3"/><path d="m277.679 104.149-13.952-5.92v-32.341h-15.453v396.743h15.453v-347.616l7.916 3.359c.985.418 2.008.616 3.015.616 3.008 0 5.867-1.767 7.116-4.71 1.666-3.928-.167-8.464-4.095-10.131z" fill="#23f1a8"/></g></svg>