<svg id="Capa_1" enable-background="new 0 0 512 512" height="512" viewBox="0 0 512 512" width="512" xmlns="http://www.w3.org/2000/svg"><g><g><g><g><g><path d="m391.984 153.825v111.723h-271.968v-5.151c-29.432 0-53.281-23.849-53.281-53.271 0-29.432 23.849-53.302 53.281-53.302h271.968z" fill="#d67f4f"/><g><path d="m307.138 200.593c-.618.618-15.37 15.473-39.59 26.63-17.482 8.056-35.428 12.084-53.25 12.084-15.164.01-30.246-2.915-44.885-8.767-57.793-23.097-89.997-7.953-98.527-2.751-2.029-4.832-3.379-10.034-3.894-15.473 15.113-7.675 51.025-18.966 108.159 3.873 67.405 26.95 120.438-25.899 120.964-26.434 2.998-3.039 7.891-3.08 10.93-.093 3.04 2.989 3.081 7.882.093 10.931z" fill="#c76d3d"/></g><path d="m288.852 153.825v20.748c0 12.857-10.374 23.292-23.21 23.385-12.949.082-23.55 10.425-23.55 23.375v44.215h-34.511v-52.931c0-9.921-8.035-17.956-17.956-17.956h-24.642c-6.253 0-11.311-5.069-11.311-11.311v-29.525z" fill="#c76d3d"/><path d="m278.549 145.022h-114.578c-5.69 0-10.302 4.612-10.302 10.302v9.004c0 6.25 5.066 11.316 11.316 11.316h24.644c9.915 0 17.952 8.038 17.952 17.952v71.957h34.511v-63.239c0-12.95 10.596-23.289 23.546-23.38 12.835-.09 23.212-10.522 23.212-23.378v-.233c.001-5.689-4.612-10.301-10.301-10.301z" fill="#f2fbff"/><circle cx="391.984" cy="207.117" fill="#ebbba5" r="53.286"/><path d="m445.265 207.122c0 29.422-23.849 53.281-53.281 53.281-5.924 0-11.631-.968-16.957-2.761 21.108-7.088 36.314-27.032 36.314-50.52 0-23.498-15.205-43.443-36.314-50.53 5.326-1.792 11.033-2.761 16.957-2.761 29.432-.001 53.281 23.858 53.281 53.291z" fill="#e6ac8e"/><g><path d="m391.984 240.623c-18.476 0-33.507-15.031-33.507-33.507s15.031-33.507 33.507-33.507c4.268 0 7.726 3.459 7.726 7.726s-3.459 7.726-7.726 7.726c-9.955 0-18.054 8.099-18.054 18.054s8.1 18.054 18.054 18.054c9.955 0 18.053-8.099 18.053-18.054 0-4.267 3.459-7.726 7.726-7.726s7.726 3.459 7.726 7.726c.001 18.477-15.03 33.508-33.505 33.508z" fill="#e09977"/></g></g><g><g><path d="m186.747 366.974c-29.429 0-53.286-23.857-53.286-53.286s23.857-53.286 53.286-53.286h271.968v106.571h-271.968z" fill="#aa5e33"/><circle cx="458.714" cy="313.688" fill="#e6ac8e" r="53.286"/><path d="m512 313.683c0 29.432-23.859 53.291-53.281 53.291-5.934 0-11.641-.968-16.967-2.761 21.119-7.088 36.324-27.032 36.324-50.53 0-23.488-15.205-43.432-36.324-50.52 5.326-1.792 11.033-2.761 16.967-2.761 29.422 0 53.281 23.859 53.281 53.281z" fill="#e09977"/><g><path d="m458.714 347.195c-18.475 0-33.506-15.031-33.506-33.507s15.031-33.507 33.506-33.507c4.268 0 7.726 3.459 7.726 7.726s-3.459 7.726-7.726 7.726c-9.955 0-18.053 8.099-18.053 18.054s8.099 18.054 18.053 18.054c9.955 0 18.054-8.099 18.054-18.054 0-4.267 3.459-7.726 7.726-7.726s7.726 3.459 7.726 7.726c.001 18.477-15.03 33.508-33.506 33.508z" fill="#d68f72"/></g></g><g><path d="m53.286 366.974c-29.429 0-53.286-23.857-53.286-53.286s23.857-53.286 53.286-53.286h271.968v106.571h-271.968z" fill="#c76d3d"/><path d="m211.147 260.402v84.223c0 9.53-7.726 17.256-17.256 17.256-9.53 0-17.256-7.726-17.256-17.256v-16.108c0-12.912-10.467-23.379-23.379-23.379-12.912 0-23.379-10.467-23.379-23.379v-21.357z" fill="#aa5e33"/><g><path d="m231.911 345.987c-4.267 0-7.726-3.459-7.726-7.726s3.459-7.726 7.726-7.726c26.286 0 40.386-12.543 40.525-12.67 3.159-2.869 8.045-2.639 10.914.519 2.871 3.157 2.639 8.044-.518 10.914-.75.681-18.725 16.689-50.921 16.689z" fill="#aa5e33"/></g><circle cx="325.253" cy="313.688" fill="#ebbba5" r="53.286"/><path d="m378.54 313.683c0 29.432-23.859 53.291-53.291 53.291-5.924 0-11.631-.968-16.957-2.761 21.119-7.088 36.324-27.032 36.324-50.53 0-23.488-15.206-43.432-36.324-50.52 5.326-1.792 11.033-2.761 16.957-2.761 29.432 0 53.291 23.859 53.291 53.281z" fill="#e6ac8e"/><g><path d="m325.254 347.195c-18.476 0-33.507-15.031-33.507-33.507s15.031-33.507 33.507-33.507c4.268 0 7.726 3.459 7.726 7.726s-3.459 7.726-7.726 7.726c-9.955 0-18.054 8.099-18.054 18.054s8.1 18.054 18.054 18.054c9.955 0 18.053-8.099 18.053-18.054 0-4.267 3.459-7.726 7.726-7.726s7.726 3.459 7.726 7.726c.001 18.477-15.031 33.508-33.505 33.508z" fill="#e09977"/></g></g></g></g><g><path d="m199.968 314.758c-.721.319-11.435 4.759-33.326 4.759-14.711 0-34.47-2.009-59.637-8.623-69.269-18.203-100.618-9.117-106.067-7.17 1.185-6.305 3.492-12.228 6.696-17.534 16.874-2.926 49.696-4.327 103.296 9.756 56.711 14.907 82.734 4.698 82.981 4.595 3.925-1.69 8.437.134 10.127 4.049s-.145 8.478-4.07 10.168z" fill="#aa5e33"/></g></g><g><path d="m211.147 261.895v63.099c0 9.53-7.726 17.256-17.256 17.256-9.53 0-17.256-7.726-17.256-17.256v-16.108c0-12.912-10.467-23.379-23.379-23.379-12.912 0-23.379-10.467-23.379-23.379v-.233c0-5.69 4.612-10.302 10.302-10.302h60.666c5.69 0 10.302 4.613 10.302 10.302z" fill="#f2fbff"/></g><g><path d="m165.797 366.978h-24.024c-38.003-26.074-96.466-27.753-97.136-27.774-4.265-.093-7.644-3.626-7.551-7.891.103-4.265 3.657-7.654 7.891-7.551 3.349.072 80.715 2.246 120.82 43.216z" fill="#aa5e33"/></g></g></g></svg>