<svg id="Capa_1" enable-background="new 0 0 512 512" height="512" viewBox="0 0 512 512" width="512" xmlns="http://www.w3.org/2000/svg"><g><g><g><path d="m231.108 390.863h49.781v113.525h-49.781z" fill="#da875d"/><path d="m280.889 390.863v27.351c-7.291 1.104-15.311 1.873-24.121 2.208l-.77.03-.77-.03c-8.81-.334-16.83-1.104-24.121-2.208v-27.351z" fill="#c76d3d"/><g><path d="m255.998 151.029c-25.27 15.748-127.105 85.729-169.499 214.438-1.417 4.303.176 9.036 3.911 11.602 14.415 9.904 52.132 29.421 89.594-4.675 0 0 14.744 25.455 75.994 27.789 61.25-2.333 75.994-27.789 75.994-27.789 37.463 34.097 75.179 14.579 89.594 4.675 3.734-2.566 5.328-7.298 3.911-11.602-42.394-128.709-144.229-198.69-169.499-214.438z" fill="#138b80"/><path d="m394.13 295.453c-9.711 4.527-21.792 8.202-35.492 8.202-6.886 0-13.6-.922-20.101-2.744-6.511-1.823-12.81-4.557-18.885-8.202-12.455 8.445-33.366 17.113-67.329 18.41l-.77.03-.77-.03c-33.963-1.296-54.864-9.964-67.329-18.41-12.141 7.281-25.194 10.947-38.976 10.947-10.501 0-20.06-2.157-28.323-5.205 48.667-86.316 119.378-134.659 139.844-147.418 20.232 12.607 89.536 59.978 138.131 144.42z" fill="#127e73"/><path d="m421.583 377.071c-10.724 7.372-34.348 20.06-61.173 12.02 10.987-3.058 19.888-8.243 25.397-12.02 3.737-2.572 5.326-7.301 3.909-11.605-35.472-107.713-112.584-174.293-151.61-202.373 7.615-5.478 13.772-9.498 17.893-12.06 25.265 15.746 127.105 85.729 169.503 214.434 1.417 4.303-.183 9.032-3.919 11.604z" fill="#127e73"/><path d="m251.556 72.167c-22.122 13.786-111.087 74.919-148.484 187.311-1.449 4.355.187 9.161 4.006 11.708 13.256 8.841 45.618 24.561 77.768-4.7 0 0 12.943 22.345 66.709 24.394 53.767-2.048 66.709-24.394 66.709-24.394 32.15 29.261 64.513 13.541 77.768 4.7 3.819-2.547 5.455-7.353 4.006-11.708-37.396-112.392-126.361-173.525-148.482-187.311z" fill="#23f1a8"/><path d="m372.561 198.525c-7.747 3.018-16.891 5.235-27.007 5.235-5.934 0-11.787-.79-17.498-2.329-5.711-1.549-11.281-3.848-16.627-6.886-11.422 7.372-29.943 14.653-59.107 15.757l-.77.03-.77-.03c-29.164-1.104-47.685-8.385-59.107-15.757-10.693 6.066-22.258 9.215-34.115 9.215-10.126 0-19.27-2.218-27.017-5.235 42.633-73.861 103.289-115.307 121.01-126.355 17.731 11.048 78.377 52.494 121.008 126.355z" fill="#27e19d"/><path d="m396.034 271.191c-10.086 6.724-31.219 17.427-54.905 9.286 8.05-2.562 14.673-6.309 19.129-9.286 3.818-2.552 5.448-7.362 4-11.716-30.622-92.038-95.825-149.696-130.588-175.134 7.686-5.63 13.883-9.67 17.883-12.172 22.126 13.782 111.085 74.914 148.491 187.305 1.448 4.355-.192 9.165-4.01 11.717z" fill="#27e19d"/><path d="m245.929 1.708c-25.72 17.139-94.005 69.541-124.406 159.865-1.5 4.456.276 9.34 4.233 11.879 12.216 7.838 39.816 20.161 67.24-4.798 0 0 11.362 19.616 58.559 21.414 47.198-1.798 58.559-21.414 58.559-21.414 27.424 24.959 55.024 12.636 67.24 4.798 3.957-2.539 5.733-7.423 4.233-11.879-30.4-90.324-98.685-142.726-124.405-159.865-3.411-2.273-7.842-2.273-11.253 0z" fill="#f2fbff"/><path d="m377.351 173.452c-9.529 6.116-28.414 14.956-49.274 6.704 5.478-1.975 10.086-4.516 13.498-6.704 3.959-2.542 5.732-7.423 4.233-11.878-26.379-78.367-81.263-128.188-112.138-151.195 4.709-3.516 8.858-6.406 12.262-8.675 3.407-2.271 7.831-2.273 11.239-.003 25.716 17.129 94.014 69.534 124.414 159.873 1.498 4.456-.274 9.337-4.234 11.878z" fill="#dff6fd"/></g></g><g id="XMLID_73_"><path d="m193.418 124.152c-.012 0-.025 0-.037 0h-.105c-4.204-.02-7.596-3.444-7.576-7.647.02-4.192 3.424-7.576 7.611-7.576h.037.105c4.204.02 7.596 3.444 7.576 7.647-.021 4.192-3.425 7.576-7.611 7.576z" fill="#c9f0fd"/></g><g id="XMLID_200_"><path d="m219.127 108.591c-.012 0-.025 0-.037 0h-.105c-4.204-.02-7.596-3.444-7.576-7.647.02-4.192 3.424-7.576 7.611-7.576h.037.105c4.204.02 7.596 3.444 7.576 7.647-.02 4.192-3.424 7.576-7.611 7.576z" fill="#c9f0fd"/></g><g id="XMLID_201_"><path d="m244.16 158.641h-.105c-4.204 0-7.611-3.408-7.611-7.611 0-4.204 3.408-7.611 7.611-7.611h.105c4.204 0 7.611 3.408 7.611 7.611.001 4.203-3.407 7.611-7.611 7.611z" fill="#c9f0fd"/></g></g><path d="m426.013 496.777h-65.723l3.118-14.654c.875-4.112-1.749-8.154-5.861-9.029-4.117-.875-8.155 1.749-9.029 5.861l-3.792 17.822h-3.884l-1.376-5.813c-.968-4.09-5.069-6.625-9.16-5.654-4.091.968-6.622 5.069-5.654 9.16l.546 2.306h-174.193l2.278-9.365c.994-4.084-1.512-8.201-5.597-9.195-4.085-.993-8.201 1.512-9.195 5.597l-3.153 12.962h-4.569l-2.196-17.202c-.532-4.17-4.343-7.123-8.514-6.586-4.17.532-7.119 4.344-6.586 8.514l1.95 15.274h-29.436c-4.204 0-7.611 3.408-7.611 7.611 0 4.204 3.408 7.612 7.611 7.612h340.026c4.204 0 7.612-3.408 7.612-7.612-.001-4.201-3.408-7.609-7.612-7.609z" fill="#138b80"/></g></svg>