<svg id="Capa_1" enable-background="new 0 0 512 512" height="512" viewBox="0 0 512 512" width="512" xmlns="http://www.w3.org/2000/svg"><g><g><g><path d="m329.06 331.009v90.699c0 23.119-12.94 44.38-33.623 54.711-12.422 6.201-25.625 11.062-39.448 14.381-13.812-3.319-27.016-8.18-39.438-14.381-20.673-10.331-33.612-31.593-33.612-54.711v-43.01c2.121 1.126 4.536 1.756 7.094 1.756 4.202 0 8.017-1.705 10.768-4.455 2.75-2.75 4.455-6.566 4.455-10.768v-17.131c0-7.601 6.17-13.772 13.772-13.772 3.806 0 7.246-1.543 9.732-4.029 2.405-2.405 3.928-5.704 4.029-9.347h86.223c5.552-.001 10.048 4.505 10.048 10.057z" fill="#84aee1"/><path d="m291.378 320.951v42.795c0 19.345-15.277 35.572-34.618 35.981-8.062.17-15.53-2.376-21.559-6.778-2.344-1.711-5.699-1.084-7.284 1.346-6.344 9.727-17.312 16.166-29.764 16.166-5.44 0-10.595-1.228-15.213-3.44v-28.325c2.121 1.126 4.536 1.756 7.094 1.756 4.202 0 8.017-1.705 10.768-4.455 2.75-2.75 4.455-6.566 4.455-10.768v-16.735c0-7.567 6.185-14.179 13.752-14.168 3.813.005 7.261-1.538 9.752-4.029 2.405-2.405 3.928-5.704 4.029-9.347h58.588z" fill="#5591d6"/><path d="m329.06 331.009v90.699c0 23.119-12.94 44.38-33.623 54.711-12.422 6.201-25.625 11.062-39.448 14.381-5.754-1.38-11.387-3.024-16.908-4.932 7.753-2.669 15.274-5.825 22.53-9.448 20.683-10.331 33.622-31.593 33.622-54.711v-90.699c0-5.551-4.506-10.057-10.057-10.057h33.836c5.552-.002 10.048 4.504 10.048 10.056z" fill="#5591d6"/><path d="m240.918 314.792h-47.832c-5.605 0-10.149 4.544-10.149 10.149v50.003c0 8.406 6.814 15.22 15.22 15.22 8.405 0 15.22-6.814 15.22-15.22v-17.133c0-7.605 6.165-13.771 13.771-13.771 7.605 0 13.771-6.165 13.771-13.771v-15.477z" fill="#f2fbff"/><path d="m271.081 87.553v276.805c0 8.322-6.749 15.081-15.081 15.081s-15.081-6.759-15.081-15.081v-276.805z" fill="#c0d7f0"/><path d="m271.081 87.553v49.302c-1.147.132-2.314.203-3.491.203h-23.18c-1.177 0-2.344-.071-3.491-.203v-49.302z" fill="#84aee1"/><path d="m335.117 6.774c-2.828-4.324-7.788-6.774-12.955-6.774h-132.324c-5.167 0-10.127 2.45-12.955 6.774-4.001 6.119-3.05 13.994 1.929 18.973l54.057 54.056c.952.952 1.486 2.242 1.486 3.588v23.315c0 5.553 4.502 10.055 10.055 10.055h23.18c5.553 0 10.055-4.502 10.055-10.055v-23.314c0-1.346.535-2.636 1.486-3.588l54.057-54.056c4.979-4.979 5.93-12.855 1.929-18.974zm-82.705 49.913-21.325-21.325c-1.918-1.918-.56-5.197 2.153-5.197h45.521c2.712 0 4.071 3.279 2.153 5.197l-21.325 21.325c-1.983 1.982-5.195 1.982-7.177 0z" fill="#fb6a3b"/><path d="m333.191 25.747-54.057 54.057c-.952.952-1.486 2.242-1.486 3.588v23.31c0 5.555-4.503 10.057-10.057 10.057h-23.181c-.376 0-.741-.02-1.096-.061 5.034-.548 8.961-4.81 8.961-9.996v-23.31c0-1.346.535-2.636 1.486-3.588l54.057-54.057c4.973-4.983 5.927-12.858 1.928-18.968-2.83-4.333-7.793-6.779-12.959-6.779h25.372c5.166 0 10.128 2.446 12.96 6.779 3.998 6.11 3.045 13.985-1.928 18.968z" fill="#fb5532"/></g><g><path d="m429.08 504.388c-41.076-31.076-103.355-50.898-173.08-50.898s-132.005 19.822-173.08 50.898z" fill="#f2fbff"/><g fill="#c9f0fd"><path d="m429.075 504.388h-62.505c-34.82-26.346-84.893-44.603-141.817-49.546 10.21-.893 20.642-1.35 31.248-1.35 69.72.001 132.003 19.821 173.074 50.896z"/><path d="m490.604 496.777h-411.961l4.657-29.429c.657-4.152-2.176-8.051-6.329-8.708-4.139-.655-8.05 2.176-8.708 6.328l-3.767 23.806-2.54-6.27c-1.579-3.896-6.014-5.776-9.913-4.196-3.896 1.578-5.775 6.016-4.196 9.913l3.467 8.556h-29.918c-4.204 0-7.611 3.408-7.611 7.611 0 4.204 3.407 7.612 7.611 7.612h469.207c4.204 0 7.611-3.408 7.611-7.612.001-4.203-3.406-7.611-7.61-7.611z"/></g></g></g><g><path d="m240.919 287.207h30.162v15.223h-30.162z" fill="#84aee1"/></g><g><path d="m240.919 313.34h30.162v15.223h-30.162z" fill="#84aee1"/></g></g></svg>