<svg id="Capa_1" enable-background="new 0 0 512 512" height="512" viewBox="0 0 512 512" width="512" xmlns="http://www.w3.org/2000/svg"><g><path d="m477.609 195.187c-35.529-46.533-125.014-69.77-221.609-69.934-96.595.164-186.08 23.402-221.609 69.934-12.585 16.483-21.068 44.842-21.133 63.42-.245 70.728 57.017 128.141 127.689 128.141 39.992 0 75.674-18.393 99.081-47.175 8.206-10.09 23.738-10.09 31.944 0 23.407 28.782 59.09 47.175 99.081 47.175 70.672 0 127.934-57.413 127.689-128.141-.064-18.579-8.548-46.938-21.133-63.42z" fill="#1475cb"/><path d="m498.742 258.606c.247 70.732-57.021 128.144-127.691 128.144-5.728 0-11.373-.381-16.905-1.113 62.676-8.283 111.002-62.037 110.786-127.032-.072-18.574-8.551-46.935-21.139-63.418-33.45-43.803-114.7-66.972-204.697-69.671 5.604-.165 11.239-.258 16.905-.268 96.59.165 186.082 23.406 221.613 69.939 12.577 16.484 21.066 44.845 21.128 63.419z" fill="#0e6ac2"/><path d="m371.053 350.691c-27.686 0-53.604-12.345-71.108-33.868-10.788-13.266-26.806-20.874-43.946-20.874s-33.158 7.609-43.946 20.875c-17.504 21.523-43.421 33.867-71.107 33.867-24.536 0-47.588-9.572-64.907-26.952-17.319-17.379-26.81-40.466-26.725-65.008.038-10.999 6.046-31.594 13.734-41.663 12.035-15.763 36.75-29.86 69.592-39.696 34.812-10.426 77.467-15.98 123.36-16.063 45.893.082 88.547 5.637 123.36 16.063 32.842 9.836 57.557 23.934 69.592 39.696 7.689 10.069 13.697 30.664 13.734 41.663.085 24.542-9.406 47.629-26.725 65.008-17.32 17.38-40.371 26.952-64.908 26.952z" fill="#9ce6fb"/><g fill="#c9f0fd"><path d="m437.044 205.14-124.456 124.466c-4.574-3.801-8.808-8.077-12.64-12.785-7.551-9.282-17.657-15.793-28.928-18.863l117.616-117.616c20.078 6.832 36.623 15.331 48.408 24.798z"/><path d="m458.647 237.415-110.415 110.405c-7.747-1.978-15.175-4.965-22.108-8.901l122.396-122.406c.144.185.288.371.433.556 3.822 5.007 7.221 12.61 9.694 20.346z"/><path d="m191.109 165.334-132.996 132.996c-5.81-12.208-8.849-25.672-8.798-39.6.041-11.002 6.047-31.596 13.732-41.661 12.033-15.762 36.757-29.865 69.589-39.693 17.678-5.295 37.365-9.333 58.473-12.042z"/></g><g><g><g><path d="m491.506 295.117h-28.691c-5.659 0-10.247-4.588-10.247-10.247v-48.429c0-5.659 4.588-10.247 10.247-10.247h28.691c11.318 0 20.494 9.175 20.494 20.494v27.935c0 11.318-9.175 20.494-20.494 20.494z" fill="#fcb44d"/><path d="m512 246.687v27.939c0 11.311-9.179 20.49-20.49 20.49h-26.785c11.311 0 20.49-9.179 20.49-20.49v-27.939c0-11.322-9.179-20.49-20.49-20.49h26.785c11.311 0 20.49 9.168 20.49 20.49z" fill="#fb9927"/></g><g id="XMLID_348_"><path d="m476.243 268.382c-.013 0-.025 0-.038 0h-.106c-4.267-.021-7.71-3.496-7.69-7.763.02-4.255 3.476-7.69 7.725-7.69h.038l.106.001c4.267.021 7.71 3.496 7.69 7.763-.02 4.254-3.476 7.689-7.725 7.689z" fill="#ef8a25"/></g></g><g><g><path d="m20.494 295.117h28.691c5.659 0 10.247-4.588 10.247-10.247v-48.429c0-5.659-4.588-10.247-10.247-10.247h-28.691c-11.319 0-20.494 9.176-20.494 20.494v27.935c0 11.318 9.175 20.494 20.494 20.494z" fill="#fcb44d"/><path d="m59.431 236.437v48.429c0 5.666-4.584 10.25-10.25 10.25h-26.785c5.666 0 10.25-4.584 10.25-10.25v-48.429c0-5.656-4.584-10.24-10.25-10.24h26.785c5.666 0 10.25 4.584 10.25 10.24z" fill="#fb9927"/></g><g id="XMLID_356_"><path d="m35.757 268.382c-4.249 0-7.705-3.435-7.725-7.69-.02-4.267 3.423-7.742 7.69-7.763l.106-.001h.038c4.249 0 7.705 3.435 7.725 7.69.02 4.267-3.423 7.742-7.69 7.763h-.106c-.013.001-.025.001-.038.001z" fill="#ef8a25"/></g></g></g></g></svg>