<svg id="Capa_1" enable-background="new 0 0 512 512" height="512" viewBox="0 0 512 512" width="512" xmlns="http://www.w3.org/2000/svg"><g><g><g><path d="m238.909 40.105v120.655c-22.365 12.063-37.56 35.706-37.56 62.903 0 8.581 1.514 16.813 4.286 24.436l-46.925 46.925v-254.919c0-22.149 17.956-40.105 40.094-40.105 11.074 0 21.098 4.492 28.361 11.744 7.253 7.263 11.744 17.286 11.744 28.361z" fill="#23f1a8"/></g><g><path d="m238.909 40.105v120.655c-13.166 7.098-23.849 18.224-30.411 31.719v-152.374c0-11.074-4.492-21.098-11.744-28.361-3.729-3.729-8.19-6.727-13.155-8.757 4.687-1.926 9.818-2.987 15.205-2.987 11.074 0 21.098 4.492 28.361 11.744 7.253 7.263 11.744 17.286 11.744 28.361z" fill="#27e19d"/></g><g><path d="m158.711 361.818v110.077c0 22.149 17.956 40.105 40.095 40.105 22.149 0 40.105-17.956 40.105-40.105v-190.277z" fill="#17998c"/></g><g><path d="m238.909 281.621v190.274c0 22.149-17.956 40.105-40.105 40.105-5.378 0-10.518-1.061-15.205-2.988 14.608-5.985 24.9-20.356 24.9-37.117v-159.863z" fill="#138b80"/></g><path d="m238.909 286.576v54.383l-80.2 80.2v-136.438l44.566-44.566c4.729 20.079 17.946 36.871 35.634 46.421z" fill="#fcb44d"/><g><path d="m238.909 286.576v54.383l-30.411 30.411v-116.524c6.563 13.506 17.246 24.621 30.411 31.73z" fill="#fb9927"/></g><path d="m238.911 153.538v140.002c-26.28-12.342-44.473-39.054-44.473-70.001s18.193-57.659 44.473-70.001z" fill="#fb5532"/><path d="m238.911 153.538v140.002c-12.228-5.738-22.705-14.598-30.411-25.538v-88.925c7.705-10.941 18.182-19.801 30.411-25.539z" fill="#ec462e"/></g><path d="m113.142 457.4h-3.188v-388.893c0-4.267-3.459-7.726-7.726-7.726s-7.726 3.459-7.726 7.726v388.893h-3.188c-4.267 0-7.726 3.459-7.726 7.726s3.459 7.726 7.726 7.726h3.188v15.968c0 4.267 3.459 7.726 7.726 7.726s7.726-3.459 7.726-7.726v-15.968h3.188c4.267 0 7.726-3.459 7.726-7.726.001-4.266-3.459-7.726-7.726-7.726z" fill="#fcb44d"/><path d="m102.228 128.258c-7.468 0-13.521-6.054-13.521-13.521v-78.037c0-7.468 6.054-13.521 13.521-13.521 7.468 0 13.521 6.054 13.521 13.521v78.036c0 7.468-6.054 13.522-13.521 13.522z" fill="#17998c"/><g><g><path d="m353.29 40.105v120.171c-22.86 11.919-38.457 35.83-38.457 63.387 0 8.829 1.597 17.276 4.533 25.085l-46.276 46.276v-254.919c.001-22.149 17.957-40.105 40.095-40.105 11.074 0 21.098 4.492 28.361 11.744 7.253 7.263 11.744 17.286 11.744 28.361z" fill="#23f1a8"/></g><g><path d="m353.29 40.105v120.171c-13.001 6.768-23.643 17.431-30.411 30.432v-150.603c0-11.074-4.492-21.098-11.744-28.361-3.729-3.729-8.19-6.727-13.155-8.757 4.687-1.926 9.818-2.987 15.205-2.987 11.074 0 21.098 4.492 28.361 11.744 7.253 7.263 11.744 17.286 11.744 28.361z" fill="#27e19d"/></g><g><path d="m273.09 361.818v110.077c0 22.149 17.956 40.105 40.095 40.105 22.149 0 40.105-17.956 40.105-40.105v-190.277z" fill="#17998c"/></g><g><path d="m353.29 281.621v190.274c0 22.149-17.956 40.105-40.105 40.105-5.378 0-10.518-1.061-15.206-2.988 14.608-5.985 24.9-20.356 24.9-37.117v-159.863z" fill="#138b80"/></g><path d="m353.29 287.05v53.909l-80.2 80.2v-136.438l43.834-43.834c4.977 20.089 18.441 36.819 36.366 46.163z" fill="#fcb44d"/><g><path d="m353.29 287.05v53.909l-30.411 30.411v-114.752c6.758 13.001 17.41 23.663 30.411 30.432z" fill="#fb9927"/></g><path d="m353.29 153.538v140.002c-26.28-12.342-44.473-39.054-44.473-70.001s18.193-57.659 44.473-70.001z" fill="#fb5532"/><path d="m353.29 153.538v140.002c-12.228-5.738-22.705-14.598-30.411-25.538v-88.925c7.706-10.941 18.183-19.801 30.411-25.539z" fill="#ec462e"/></g><g><g><g fill="#27e19d"><path d="m198.486 69.707h-.106c-4.267 0-7.726 3.459-7.726 7.726s3.459 7.726 7.726 7.726h.106c4.267 0 7.726-3.459 7.726-7.726s-3.458-7.726-7.726-7.726z"/><path d="m198.523 95.334-.106-.001c-.013 0-.025 0-.038 0-4.249 0-7.705 3.435-7.725 7.69-.02 4.267 3.423 7.742 7.69 7.763l.106.001h.038c4.249 0 7.705-3.435 7.725-7.69.02-4.267-3.423-7.742-7.69-7.763z"/><path d="m312.866 69.707h-.106c-4.267 0-7.726 3.459-7.726 7.726s3.459 7.726 7.726 7.726h.106c4.267 0 7.726-3.459 7.726-7.726s-3.459-7.726-7.726-7.726z"/><path d="m312.902 95.334-.106-.001c-.013 0-.025 0-.038 0-4.25 0-7.705 3.435-7.725 7.69-.02 4.267 3.423 7.742 7.69 7.763l.106.001h.038c4.25 0 7.705-3.435 7.725-7.69.02-4.267-3.422-7.742-7.69-7.763z"/></g><path d="m420.687 457.4h-3.188v-388.893c0-4.267-3.459-7.726-7.726-7.726s-7.726 3.459-7.726 7.726v388.893h-3.188c-4.267 0-7.726 3.459-7.726 7.726s3.459 7.726 7.726 7.726h3.188v15.968c0 4.267 3.459 7.726 7.726 7.726s7.726-3.459 7.726-7.726v-15.968h3.188c4.267 0 7.726-3.459 7.726-7.726 0-4.266-3.459-7.726-7.726-7.726z" fill="#fcb44d"/></g><path d="m409.772 128.258c7.468 0 13.521-6.054 13.521-13.521v-78.037c0-7.468-6.054-13.521-13.521-13.521-7.468 0-13.521 6.054-13.521 13.521v78.036c0 7.468 6.054 13.522 13.521 13.522z" fill="#17998c"/></g></g></svg>