<svg id="Capa_1" enable-background="new 0 0 512 512" height="512" viewBox="0 0 512 512" width="512" xmlns="http://www.w3.org/2000/svg"><g><path d="m470.216 165.385c-.639.412-1.288.804-1.937 1.195-57.886 34.552-112.043 75.007-159.709 122.674l-14.917 14.917c-48.954 48.954-91.707 103.791-126.723 163.521-.783 1.329-1.597 2.648-2.462 3.946l-42.474-81.765-82.662-41.65c1.442-.989 2.905-1.916 4.389-2.802 57.886-34.552 112.043-75.007 159.709-122.674l14.917-14.917c48.954-48.954 91.707-103.791 126.723-163.521.711-1.205 1.453-2.4 2.225-3.585l41.496 82.384z" fill="#fcb44d"/><path d="m470.216 165.385c-.639.412-1.288.804-1.937 1.195-57.886 34.552-112.043 75.007-159.709 122.674l-14.917 14.917c-48.954 48.954-91.707 103.791-126.723 163.521-.783 1.329-1.597 2.648-2.462 3.946l-20.027-38.549c34.15-56.784 75.327-109.045 122.2-155.918l14.917-14.917c45.029-45.019 95.838-83.61 150.128-116.874z" fill="#fb9927"/><path d="m486.585 152.106c-1.288 1.319-2.596 2.596-3.946 3.801l-83.29-43.257-42.423-84.217c.69-.742 1.401-1.473 2.122-2.194 35.294-35.284 92.695-34.985 127.598.907 33.677 34.624 33.646 90.377-.061 124.96z" fill="#23f1a8"/><path d="m486.585 152.106c-1.288 1.319-2.596 2.596-3.946 3.801l-36.911-19.172c4.904-3.338 9.55-7.211 13.856-11.631 29.463-30.236 33.192-76.625 11.188-110.95 5.656 3.626 10.982 7.963 15.875 12.991 33.676 34.625 33.645 90.378-.062 124.961z" fill="#27e19d"/><path d="m155.918 482.65c-.958 1.051-1.947 2.091-2.967 3.111-35.294 35.284-92.695 34.985-127.598-.907-33.677-34.624-33.646-90.378.062-124.961.989-1.02 1.999-2.009 3.029-2.967l84.207 42.423z" fill="#23f1a8"/><path d="m155.918 482.65c-.958 1.051-1.947 2.091-2.967 3.111-35.294 35.284-92.695 34.985-127.598-.907-4.244-4.368-7.953-9.066-11.136-14.021 34.686 22.293 81.384 18.265 111.733-12.084 4.069-4.069 7.665-8.437 10.786-13.032z" fill="#27e19d"/><g><path d="m487.059 136.798-74.029-37.828-37.828-74.029c-1.494-2.915-3.358-5.532-5.522-7.809-3.719 2.72-7.273 5.748-10.631 9.107-5.532 5.542-10.199 11.62-13.98 18.069-1.782 3.039-3.585 6.068-5.408 9.076l.309-.103 34.449 67.436c3.709 7.252 9.612 13.155 16.864 16.864l67.435 34.449-.134.422c3.214-1.978 6.449-3.935 9.694-5.872 6.562-3.915 12.723-8.736 18.306-14.474 3.029-3.101 5.779-6.377 8.262-9.797-2.276-2.163-4.882-4.028-7.787-5.511zm-315.029 321.921-34.449-67.435c-3.709-7.253-9.601-13.155-16.864-16.864l-67.436-34.45.134-.422c-3.214 1.978-6.449 3.935-9.694 5.872-6.562 3.915-12.723 8.736-18.306 14.474-3.029 3.101-5.779 6.377-8.262 9.797 2.277 2.163 4.883 4.028 7.788 5.511l74.039 37.818 37.818 74.039c1.494 2.915 3.358 5.532 5.522 7.809 3.719-2.72 7.273-5.748 10.631-9.107 5.532-5.542 10.199-11.62 13.98-18.069 1.782-3.039 3.585-6.068 5.408-9.076z" fill="#fb5532"/></g><path d="m172.03 458.719.309-.103c-1.823 3.008-3.626 6.037-5.408 9.076-3.781 6.449-8.447 12.527-13.98 18.069-3.358 3.358-6.912 6.387-10.631 9.107-2.163-2.277-4.028-4.893-5.522-7.809l-13.269-25.981c.824-.752 1.628-1.535 2.421-2.328 5.532-5.532 10.188-11.61 13.98-18.069 4.038-6.892 8.18-13.722 12.424-20.48z" fill="#ec462e"/><path d="m494.847 142.31c-2.483 3.42-5.233 6.696-8.262 9.797-5.584 5.738-11.744 10.559-18.306 14.474-3.245 1.937-6.48 3.894-9.694 5.872l.134-.422-38.374-19.604c6.923-4.368 13.897-8.653 20.933-12.857 6.552-3.904 12.712-8.726 18.306-14.464.505-.525 1.01-1.051 1.504-1.576l25.971 13.269c2.905 1.482 5.511 3.347 7.788 5.511z" fill="#ec462e"/><g><g><g><g id="XMLID_469_"><path d="m169.219 332.61c-1.986 0-3.971-.761-5.482-2.281l-.074-.075c-3.007-3.028-2.99-7.92.037-10.927 3.028-3.006 7.92-2.99 10.927.037l.074.075c3.007 3.028 2.99 7.92-.037 10.927-1.507 1.496-3.476 2.244-5.445 2.244z" fill="#fb9927"/></g><g id="XMLID_467_"><path d="m151.098 350.731c-1.995 0-3.989-.768-5.501-2.3l-.074-.075c-2.997-3.038-2.964-7.93.073-10.927 3.037-2.998 7.93-2.964 10.927.073l.074.075c2.997 3.038 2.964 7.93-.073 10.927-1.505 1.486-3.466 2.227-5.426 2.227z" fill="#fb9927"/></g></g><g><g id="XMLID_473_"><path d="m187.191 350.582c-1.986 0-3.971-.761-5.482-2.281l-.074-.075c-3.007-3.028-2.99-7.919.037-10.927 3.028-3.006 7.92-2.99 10.927.037l.074.075c3.007 3.028 2.99 7.919-.037 10.927-1.507 1.497-3.477 2.244-5.445 2.244z" fill="#fb9927"/></g><g id="XMLID_471_"><path d="m169.07 368.703c-1.986 0-3.971-.761-5.482-2.281l-.074-.075c-3.007-3.028-2.99-7.92.037-10.927 3.028-3.006 7.92-2.99 10.927.037l.074.075c3.007 3.028 2.99 7.92-.037 10.927-1.507 1.496-3.476 2.244-5.445 2.244z" fill="#fb9927"/></g></g></g><g><g><g id="XMLID_482_"><path d="m343.004 158.824c-1.986 0-3.972-.761-5.482-2.281l-.074-.075c-3.007-3.028-2.991-7.92.037-10.927 3.027-3.006 7.919-2.99 10.927.037l.074.075c3.007 3.028 2.991 7.92-.037 10.927-1.507 1.496-3.476 2.244-5.445 2.244z" fill="#fb9927"/></g><g id="XMLID_480_"><path d="m324.883 176.945c-1.986 0-3.972-.761-5.482-2.281l-.074-.075c-3.007-3.028-2.991-7.92.037-10.927 3.027-3.005 7.919-2.99 10.927.037l.074.075c3.007 3.028 2.991 7.92-.037 10.927-1.507 1.496-3.476 2.244-5.445 2.244z" fill="#fb9927"/></g></g><g><g id="XMLID_477_"><path d="m360.977 176.797c-1.986 0-3.972-.761-5.482-2.281l-.074-.075c-3.007-3.028-2.991-7.92.037-10.927 3.028-3.006 7.921-2.99 10.927.037l.074.075c3.007 3.028 2.991 7.92-.037 10.927-1.508 1.496-3.476 2.244-5.445 2.244z" fill="#fb9927"/></g><g id="XMLID_474_"><path d="m342.856 194.918c-1.986 0-3.972-.761-5.482-2.281l-.074-.075c-3.007-3.028-2.991-7.92.037-10.927 3.028-3.006 7.921-2.99 10.927.037l.074.075c3.007 3.028 2.991 7.92-.037 10.927-1.507 1.496-3.476 2.244-5.445 2.244z" fill="#fb9927"/></g></g></g></g></g></svg>