<svg id="Capa_1" enable-background="new 0 0 512 512" height="512" viewBox="0 0 512 512" width="512" xmlns="http://www.w3.org/2000/svg"><g><g><g><path d="m435.794 257.395v-11.525c0-99.382-79.901-181.256-179.283-181.533-99.372-.278-180.305 80.484-180.305 179.793v13.265c0 8.453-6.853 15.306-15.306 15.306-8.453 0-15.306-6.853-15.306-15.306v-11.446c0-115.67 94.631-212.168 210.301-212.225 116.066-.057 210.509 94.353 210.509 210.405v13.265c0 8.453-6.853 15.306-15.306 15.306-8.452 0-15.304-6.852-15.304-15.305z" fill="#fcc16d"/></g><path d="m370.743 67.84-14.224 27.285c-28.714-19.428-63.316-30.784-100.519-30.784s-71.805 11.357-100.518 30.785l-14.225-27.286c33.02-21.571 72.448-34.111 114.743-34.111s81.723 12.54 114.743 34.111z" fill="#fca62f"/><g><g><g><g><path d="m14.162 447.141c-2.045 0-4.083-.814-5.589-2.424-2.889-3.086-2.728-7.928.358-10.817l16.458-15.402c3.087-2.888 7.93-2.726 10.817.359 2.889 3.086 2.728 7.928-.358 10.817l-16.458 15.402c-1.476 1.381-3.355 2.065-5.228 2.065z" fill="#17998c"/></g><g><path d="m22.457 289.989c-1.661 0-3.333-.538-4.738-1.647l-14.809-11.694c-3.316-2.619-3.882-7.432-1.263-10.749s7.431-3.882 10.749-1.264l14.809 11.694c3.316 2.619 3.882 7.432 1.263 10.749-1.51 1.913-3.75 2.911-6.011 2.911z" fill="#17998c"/></g><path d="m128.245 460.38h-27.88c-54.086 0-97.931-43.845-97.931-97.931v-30.18c0-54.086 43.845-97.931 97.931-97.931h27.88z" fill="#20b69f"/><path d="m342.305 460.38h27.88c54.086 0 97.931-43.845 97.931-97.931v-30.18c0-54.086-43.845-97.931-97.931-97.931h-27.88z" fill="#20b69f"/><g><path d="m87.78 333.253h-14.712c-4.227 0-7.653-3.426-7.653-7.653s3.426-7.653 7.653-7.653h14.712c4.227 0 7.653 3.426 7.653 7.653 0 4.226-3.426 7.653-7.653 7.653z" fill="#72f4c3"/></g><g><path d="m85.738 486.527c-1.826 0-3.657-.649-5.12-1.967-3.141-2.829-3.393-7.668-.564-10.808l14.165-15.724c2.829-3.139 7.669-3.391 10.808-.564 3.141 2.829 3.393 7.668.564 10.808l-14.165 15.724c-1.511 1.678-3.596 2.531-5.688 2.531z" fill="#72f4c3"/></g><g><path d="m167.368 491.034c-1.958 0-3.917-.747-5.412-2.242l-12.57-12.571c-2.988-2.988-2.988-7.834 0-10.823 2.989-2.988 7.834-2.988 10.824 0l12.57 12.571c2.988 2.988 2.988 7.834 0 10.823-1.495 1.495-3.454 2.242-5.412 2.242z" fill="#27e19d"/></g><g><path d="m125.524 224.52c-3.449 0-6.58-2.348-7.431-5.847l-4.078-16.775c-.998-4.107 1.522-8.246 5.629-9.244 4.106-1 8.246 1.522 9.244 5.629l4.078 16.775c.998 4.107-1.522 8.246-5.629 9.244-.606.147-1.215.218-1.813.218z" fill="#27e19d"/></g><path d="m131.448 482.47c-25.244 0-45.708-20.464-45.708-45.708v-178.806c0-25.244 20.464-45.708 45.708-45.708 25.244 0 45.708 20.464 45.708 45.708v178.807c-.001 25.243-20.465 45.707-45.708 45.707z" fill="#9ff7d3"/><path d="m177.153 257.96v178.799c0 25.245-20.457 45.712-45.701 45.712-9.319 0-17.981-2.784-25.204-7.572 12.36-8.179 20.508-22.203 20.508-38.139v-178.8c0-12.627-5.117-24.053-13.388-32.324-2.168-2.168-4.552-4.12-7.12-5.815 7.223-4.788 15.884-7.572 25.204-7.572 12.628 0 24.053 5.117 32.314 13.388 8.27 8.27 13.387 19.696 13.387 32.323z" fill="#72f4c3"/></g><g id="XMLID_199_"><path d="m42.929 380.154h-.107c-4.227 0-7.653-3.426-7.653-7.653s3.426-7.653 7.653-7.653h.107c4.227 0 7.653 3.426 7.653 7.653s-3.426 7.653-7.653 7.653z" fill="#17998c"/></g><g id="XMLID_345_"><path d="m147.145 424.086c-.013 0-.024 0-.037 0h-.107c-4.226-.02-7.637-3.462-7.617-7.689.02-4.214 3.443-7.617 7.652-7.617h.037.107c4.226.02 7.637 3.462 7.617 7.689-.02 4.214-3.443 7.617-7.652 7.617z" fill="#27e19d"/></g></g><g><g><g><path d="m497.838 447.141c-1.873 0-3.751-.684-5.227-2.065l-16.458-15.402c-3.086-2.888-3.246-7.731-.358-10.817 2.886-3.087 7.729-3.248 10.817-.359l16.458 15.402c3.086 2.888 3.247 7.731.358 10.817-1.506 1.61-3.546 2.424-5.59 2.424z" fill="#169182"/></g><g><path d="m489.543 289.989c-2.261 0-4.501-.998-6.011-2.911-2.62-3.317-2.054-8.13 1.263-10.749l14.809-11.694c3.316-2.619 8.13-2.055 10.749 1.264 2.62 3.317 2.054 8.13-1.263 10.749l-14.809 11.694c-1.404 1.109-3.077 1.647-4.738 1.647z" fill="#169182"/></g><path d="m383.755 460.38h27.88c54.086 0 97.931-43.845 97.931-97.931v-30.18c0-54.086-43.845-97.931-97.931-97.931h-27.88z" fill="#20b69f"/><path d="m509.566 332.266v30.183c0 54.081-43.846 97.927-97.927 97.927h-27.887v-.939c47.673-6.602 84.366-47.509 84.366-96.988v-30.183c0-49.479-36.693-90.386-84.366-96.988v-.939h27.887c54.081.001 97.927 43.847 97.927 97.927z" fill="#17998c"/><g><path d="m344.632 491.034c-1.958 0-3.917-.747-5.411-2.242-2.989-2.988-2.989-7.834-.001-10.823l13.963-13.963c2.989-2.988 7.835-2.989 10.823 0 2.989 2.988 2.989 7.834.001 10.823l-13.963 13.963c-1.495 1.495-3.454 2.242-5.412 2.242z" fill="#72f4c3"/></g><g><path d="m438.932 333.253h-14.712c-4.227 0-7.653-3.426-7.653-7.653s3.426-7.653 7.653-7.653h14.713c4.227 0 7.653 3.426 7.653 7.653-.001 4.226-3.426 7.653-7.654 7.653z" fill="#27e19d"/></g><g><path d="m386.476 224.52c-.598 0-1.206-.071-1.814-.219-4.107-.998-6.628-5.137-5.629-9.244l4.078-16.775c.998-4.106 5.131-6.629 9.244-5.629 4.107.998 6.628 5.137 5.629 9.244l-4.078 16.775c-.85 3.5-3.981 5.848-7.43 5.848z" fill="#27e19d"/></g><g><path d="m426.262 486.527c-2.093 0-4.177-.853-5.688-2.531l-14.165-15.724c-2.829-3.14-2.577-7.979.564-10.808 3.139-2.828 7.979-2.577 10.808.564l14.165 15.724c2.829 3.14 2.577 7.979-.564 10.808-1.463 1.318-3.294 1.967-5.12 1.967z" fill="#27e19d"/></g><path d="m380.552 482.47c-25.244 0-45.708-20.464-45.708-45.708v-178.806c0-25.244 20.464-45.708 45.708-45.708 25.244 0 45.708 20.464 45.708 45.708v178.807c0 25.243-20.464 45.707-45.708 45.707z" fill="#9ff7d3"/><path d="m426.258 257.96v178.799c0 25.245-20.457 45.712-45.701 45.712-9.319 0-17.981-2.784-25.204-7.572 12.36-8.179 20.508-22.203 20.508-38.139v-178.8c0-12.627-5.117-24.053-13.388-32.324-2.168-2.168-4.552-4.12-7.12-5.815 7.223-4.788 15.884-7.572 25.204-7.572 12.628 0 24.053 5.117 32.314 13.388 8.27 8.27 13.387 19.696 13.387 32.323z" fill="#72f4c3"/></g><g id="XMLID_354_"><path d="m469.177 380.154h-.107c-4.227 0-7.653-3.426-7.653-7.653s3.426-7.653 7.653-7.653h.107c4.227 0 7.653 3.426 7.653 7.653s-3.426 7.653-7.653 7.653z" fill="#169182"/></g><g id="XMLID_352_"><path d="m394.213 380.154c-4.21 0-7.632-3.403-7.652-7.617-.02-4.227 3.391-7.669 7.617-7.689h.107.037c4.21 0 7.632 3.403 7.652 7.617.02 4.227-3.391 7.669-7.617 7.689l-.107.001c-.012-.001-.025-.001-.037-.001z" fill="#27e19d"/></g><g id="XMLID_347_"><path d="m380.727 402.205h-.107c-4.227 0-7.653-3.426-7.653-7.653s3.426-7.653 7.653-7.653h.107c4.227 0 7.653 3.426 7.653 7.653-.001 4.227-3.426 7.653-7.653 7.653z" fill="#27e19d"/></g></g></g></g><g><path d="m337.678 87.109c-2.515 4.823-8.352 6.784-13.31 4.55-21.472-9.675-44.425-14.572-68.368-14.572s-46.896 4.897-68.368 14.571c-4.959 2.234-10.796.273-13.31-4.55l-16.528-31.7c-2.686-5.152-.549-11.536 4.728-13.968 29.122-13.42 61.218-20.474 93.478-20.474s64.356 7.054 93.479 20.475c5.277 2.432 7.414 8.816 4.728 13.968z" fill="#20b69f"/></g><g><path d="m354.202 55.414-16.52 31.693c-2.52 4.826-8.357 6.786-13.316 4.551-8.102-3.653-16.418-6.622-24.928-8.908 2.418-.908 4.51-2.673 5.796-5.133l17.673-33.917c2.377-4.551 1.235-10.01-2.429-13.234 9.918 2.98 19.612 6.653 28.999 10.979 5.276 2.428 7.419 8.816 4.725 13.969z" fill="#17998c"/></g></g></svg>