<svg id="Capa_1" enable-background="new 0 0 512 512" height="512" viewBox="0 0 512 512" width="512" xmlns="http://www.w3.org/2000/svg"><g><g><g><g><path d="m102.119 93.496v-87.627l87.627 87.627z" fill="#fb5532"/><path d="m107.248 93.709h-55.017v-83.521c0-5.627 4.561-10.188 10.188-10.188h34.64c5.627 0 10.188 4.561 10.188 10.188v83.521z" fill="#fc7d4b"/><path d="m107.252 10.189v83.517h-29.67v-83.517c0-5.625-4.553-10.189-10.188-10.189h29.669c5.625 0 10.189 4.564 10.189 10.189z" fill="#fb6a3b"/><g><path d="m132.379 57.053c-1.977 0-3.955-.755-5.464-2.263-3.017-3.017-3.017-7.909 0-10.927l12.656-12.656c3.018-3.017 7.909-3.017 10.928 0 3.017 3.017 3.017 7.909 0 10.927l-12.656 12.656c-1.509 1.508-3.487 2.263-5.464 2.263z" fill="#ec462e"/></g></g><g><path d="m409.88 93.496v-87.627l-87.628 87.627z" fill="#fb5532"/><path d="m404.751 93.709h55.017v-83.521c0-5.627-4.562-10.188-10.188-10.188h-34.64c-5.627 0-10.188 4.561-10.188 10.188v83.521z" fill="#fc7d4b"/><path d="m459.769 10.189v83.517h-29.659v-83.517c0-5.625-4.563-10.189-10.188-10.189h29.659c5.625 0 10.188 4.564 10.188 10.189z" fill="#fb6a3b"/><g><path d="m379.62 57.053c-1.977 0-3.955-.755-5.464-2.263l-12.656-12.656c-3.017-3.017-3.017-7.909 0-10.927 3.018-3.017 7.909-3.017 10.928 0l12.656 12.656c3.017 3.017 3.017 7.909 0 10.927-1.51 1.508-3.487 2.263-5.464 2.263z" fill="#ec462e"/></g></g></g><g><g><path d="m102.119 418.504v87.627l87.627-87.627z" fill="#0857a0"/><path d="m107.248 418.291h-55.017v83.521c0 5.627 4.561 10.188 10.188 10.188h34.64c5.627 0 10.188-4.561 10.188-10.188v-83.521z" fill="#1475cb"/><path d="m107.252 418.295v83.517c0 5.625-4.564 10.189-10.189 10.189h-29.669c5.635 0 10.189-4.564 10.189-10.189v-83.517z" fill="#0e6ac2"/><g><path d="m145.035 483.056c-1.977 0-3.955-.755-5.464-2.263l-12.656-12.656c-3.017-3.017-3.017-7.909 0-10.927 3.018-3.017 7.909-3.017 10.928 0l12.656 12.656c3.017 3.017 3.017 7.909 0 10.927-1.509 1.508-3.487 2.263-5.464 2.263z" fill="#05447f"/></g></g><g><path d="m409.88 418.504v87.627l-87.628-87.627z" fill="#0857a0"/><path d="m404.751 418.291h55.017v83.521c0 5.627-4.561 10.188-10.188 10.188h-34.64c-5.627 0-10.188-4.561-10.188-10.188v-83.521z" fill="#1475cb"/><path d="m459.769 418.295v83.517c0 5.625-4.564 10.189-10.189 10.189h-29.659c5.625 0 10.188-4.564 10.188-10.189v-83.517z" fill="#0e6ac2"/><g><path d="m366.964 483.056c-1.977 0-3.955-.755-5.464-2.263-3.017-3.017-3.017-7.909 0-10.927l12.656-12.656c3.018-3.017 7.909-3.017 10.928 0 3.017 3.017 3.017 7.909 0 10.927l-12.656 12.656c-1.509 1.508-3.487 2.263-5.464 2.263z" fill="#05447f"/></g></g></g></g><path d="m475.932 436.231h-439.865c-5.69 0-10.302-4.612-10.302-10.302v-339.858c0-5.69 4.612-10.302 10.302-10.302h439.864c5.69 0 10.302 4.612 10.302 10.302v339.859c0 5.689-4.612 10.301-10.301 10.301z" fill="#fcc16d"/><path d="m486.235 86.072v339.857c0 5.687-4.615 10.302-10.302 10.302h-34.903c5.687 0 10.302-4.615 10.302-10.302v-339.857c0-5.687-4.615-10.302-10.302-10.302h34.903c5.686 0 10.302 4.615 10.302 10.302z" fill="#fca62f"/><g><g><g fill="#fff2e3"><g><path d="m122.738 238.836h-46.722c-5.69 0-10.302-4.612-10.302-10.302v-109.96c0-5.69 4.612-10.302 10.302-10.302h46.722c5.69 0 10.302 4.612 10.302 10.302v109.961c0 5.689-4.613 10.301-10.302 10.301z"/><path d="m122.738 403.728h-46.722c-5.69 0-10.302-4.612-10.302-10.302v-109.961c0-5.69 4.612-10.302 10.302-10.302h46.722c5.69 0 10.302 4.612 10.302 10.302v109.961c0 5.69-4.613 10.302-10.302 10.302z"/></g><g><path d="m227.153 238.836h-46.722c-5.69 0-10.302-4.612-10.302-10.302v-109.96c0-5.69 4.612-10.302 10.302-10.302h46.722c5.69 0 10.302 4.612 10.302 10.302v109.961c0 5.689-4.613 10.301-10.302 10.301z"/><path d="m227.153 403.728h-46.722c-5.69 0-10.302-4.612-10.302-10.302v-109.961c0-5.69 4.612-10.302 10.302-10.302h46.722c5.69 0 10.302 4.612 10.302 10.302v109.961c0 5.69-4.613 10.302-10.302 10.302z"/></g><g><path d="m331.568 238.836h-46.722c-5.69 0-10.302-4.612-10.302-10.302v-109.96c0-5.69 4.612-10.302 10.302-10.302h46.722c5.69 0 10.302 4.612 10.302 10.302v109.961c0 5.689-4.613 10.301-10.302 10.301z"/><path d="m331.568 403.728h-46.722c-5.69 0-10.302-4.612-10.302-10.302v-109.961c0-5.69 4.612-10.302 10.302-10.302h46.722c5.69 0 10.302 4.612 10.302 10.302v109.961c0 5.69-4.613 10.302-10.302 10.302z"/></g><path d="m435.983 238.836h-46.722c-5.69 0-10.302-4.612-10.302-10.302v-109.96c0-5.69 4.612-10.302 10.302-10.302h46.722c5.69 0 10.302 4.612 10.302 10.302v109.961c0 5.689-4.613 10.301-10.302 10.301z"/><path d="m435.983 403.728h-46.722c-5.69 0-10.302-4.612-10.302-10.302v-109.961c0-5.69 4.612-10.302 10.302-10.302h46.722c5.69 0 10.302 4.612 10.302 10.302v109.961c0 5.69-4.613 10.302-10.302 10.302z"/></g><g fill="#fee7c9"><g><path d="m133.037 118.574v109.962c0 5.686-4.605 10.302-10.302 10.302h-29.659c5.687 0 10.302-4.615 10.302-10.302v-109.962c0-5.686-4.615-10.302-10.302-10.302h29.659c5.697 0 10.302 4.615 10.302 10.302z"/><path d="m133.037 283.465v109.962c0 5.686-4.605 10.302-10.302 10.302h-29.659c5.687 0 10.302-4.615 10.302-10.302v-109.962c0-5.686-4.615-10.302-10.302-10.302h29.659c5.697 0 10.302 4.615 10.302 10.302z"/></g><g><path d="m237.456 118.574v109.962c0 5.686-4.615 10.302-10.302 10.302h-29.659c5.687 0 10.302-4.615 10.302-10.302v-109.962c0-5.686-4.615-10.302-10.302-10.302h29.659c5.687 0 10.302 4.615 10.302 10.302z"/><path d="m237.456 283.465v109.962c0 5.686-4.615 10.302-10.302 10.302h-29.659c5.687 0 10.302-4.615 10.302-10.302v-109.962c0-5.686-4.615-10.302-10.302-10.302h29.659c5.687 0 10.302 4.615 10.302 10.302z"/></g><g><path d="m341.865 118.574v109.962c0 5.686-4.605 10.302-10.302 10.302h-29.659c5.697 0 10.302-4.615 10.302-10.302v-109.962c0-5.686-4.605-10.302-10.302-10.302h29.659c5.697 0 10.302 4.615 10.302 10.302z"/><path d="m341.865 283.465v109.962c0 5.686-4.605 10.302-10.302 10.302h-29.659c5.697 0 10.302-4.615 10.302-10.302v-109.962c0-5.686-4.605-10.302-10.302-10.302h29.659c5.697 0 10.302 4.615 10.302 10.302z"/></g><g><path d="m446.284 118.574v109.962c0 5.686-4.615 10.302-10.302 10.302h-29.659c5.687 0 10.302-4.615 10.302-10.302v-109.962c0-5.686-4.615-10.302-10.302-10.302h29.659c5.687 0 10.302 4.615 10.302 10.302z"/><path d="m446.284 283.465v109.962c0 5.686-4.615 10.302-10.302 10.302h-29.659c5.687 0 10.302-4.615 10.302-10.302v-109.962c0-5.686-4.615-10.302-10.302-10.302h29.659c5.687 0 10.302 4.615 10.302 10.302z"/></g></g></g></g></g></svg>