<svg id="Capa_1" enable-background="new 0 0 512 512" height="512" viewBox="0 0 512 512" width="512" xmlns="http://www.w3.org/2000/svg"><g><g><g><g><g><path d="m172.748 252.242-.124-70.061c0-25.675-20.739-46.583-46.344-46.888h-.563v-.009c-.134 0-.267-.007-.401-.007-46.133-.002-83.077-38.475-83.077-84.608v-32.383c0-10.307 8.528-18.622 18.912-18.275 9.932.332 17.659 8.816 17.659 18.754v33.032c0 26.01 21.278 47.142 47.342 46.905.401-.004 20.413.021 20.413.021 21.338 0 39.394-14.322 45.061-33.858 2.302-7.936 9.847-13.22 18.135-13.045 11.976.253 20.261 12.216 16.854 23.7-5.734 19.33-18.299 35.746-34.881 46.456-2.576 1.664-3.124 5.175-1.202 7.565 11.667 14.509 18.663 32.997 18.663 52.958v69.742h-36.447z" fill="#9d552e"/><path d="m191.737 121.973c-2.578 1.666-3.131 5.177-1.208 7.569 11.666 14.512 18.669 32.994 18.669 52.955v69.743h-23.972v-69.743c0-19.961-6.994-38.443-18.667-52.955-1.924-2.392-1.371-5.904 1.208-7.57 16.58-10.713 29.15-27.126 34.879-46.449 2.143-7.232-.35-14.66-5.481-19.223 3.41-2.915 7.881-4.584 12.599-4.481 11.971.258 20.253 12.218 16.854 23.704-5.739 19.323-18.302 35.737-34.881 46.45z" fill="#8e4d29"/></g><g><path d="m339.25 252.242.124-70.061c0-25.675 20.739-46.583 46.344-46.888h.563v-.009c.134 0 .267-.007.401-.007 46.133-.002 83.077-38.475 83.077-84.608v-32.383c0-10.307-8.528-18.622-18.912-18.275-9.932.332-17.659 8.816-17.659 18.754v33.032c0 26.01-21.278 47.142-47.342 46.905-.401-.004-20.413.021-20.413.021-21.338 0-39.394-14.322-45.061-33.858-2.302-7.936-9.847-13.22-18.135-13.045-11.976.253-20.261 12.216-16.854 23.7 5.734 19.33 18.299 35.746 34.881 46.456 2.576 1.664 3.124 5.175 1.202 7.565-11.667 14.509-18.663 32.997-18.663 52.958v69.742h36.447z" fill="#9d552e"/><path d="m469.761 18.286v33.192c0 45.987-37.056 84.217-83.043 83.795-.144 0-.288.01-.433.01v.01h-.567c-25.61.299-46.348 21.211-46.348 46.884l-.124 70.063h-23.962l.124-70.063c0-25.672 20.737-46.585 46.337-46.884h.567v-.01c.144 0 .288-.01.433-.01 45.987.422 83.043-37.808 83.043-83.795v-33.192c0-5.481-2.411-10.395-6.222-13.743 2.967-2.637 6.789-4.327 11.023-4.523 10.498-.494 19.172 7.871 19.172 18.266z" fill="#8e4d29"/><path d="m353.396 84.013h40.591c6.474 0 11.723 5.248 11.723 11.723v76.6c0 8.383-6.442 15.596-14.816 15.99-8.94.421-16.32-6.703-16.32-15.55v-42.21c0-11.467-9.296-20.763-20.763-20.763-6.703 0-12.137-5.434-12.137-12.137v-1.93c-.001-6.475 5.248-11.723 11.722-11.723z" fill="#f2fbff"/></g></g><g><g><g><path d="m459.832 230.596v17.698c0 1.247-.041 2.472-.124 3.698h-19.285c-29.247 0-52.951 23.674-53.013 52.9h-21.407c-5.687 0-10.302-4.615-10.302-10.302v-21.294c0-29.278 23.725-53.013 53.013-53.013h40.805c5.687.001 10.313 4.616 10.313 10.313z" fill="#da875d"/><path d="m371.545 304.892c5.532 0 10.879-.793 15.927-2.277-.041.752-.062 1.514-.062 2.277z" fill="#d67f4f"/><path d="m459.832 230.596v17.698c0 1.247-.041 2.472-.124 3.698h-19.285c-4.316 0-8.499.515-12.517 1.494.155-1.71.237-3.441.237-5.192v-17.698c0-5.697-4.625-10.312-10.312-10.312h31.688c5.687 0 10.313 4.615 10.313 10.312z" fill="#d67f4f"/><path d="m459.828 246.84v1.454c0 31.26-25.342 56.602-56.592 56.602h-20.981v-5.042c0-29.281 23.734-53.014 53.014-53.014z" fill="#ffd1bf"/><path d="m459.832 246.842v1.453c0 31.256-25.342 56.598-56.598 56.598h-20.974v-1.02c26.136-5.007 45.884-27.99 45.884-55.578v-.979c2.328-.309 4.708-.474 7.129-.474z" fill="#ebbba5"/></g><g><path d="m156.299 273.297v21.294c0 5.687-4.615 10.302-10.312 10.302h-21.397c-.062-29.226-23.777-52.9-53.013-52.9h-19.285c-.082-1.226-.124-2.452-.124-3.698v-17.698c0-5.697 4.615-10.312 10.312-10.312h40.805c29.279-.001 53.014 23.734 53.014 53.012z" fill="#da875d"/><path d="m52.17 246.84v1.454c0 31.26 25.342 56.602 56.592 56.602h20.981v-5.042c0-29.281-23.734-53.014-53.014-53.014z" fill="#ffd1bf"/></g></g><g><path d="m397.413 323.559c0 55.558-32.049 127.433-78.665 164.293v-19.81c0-17.328-7.036-33.007-18.378-44.37-11.353-11.353-27.042-18.378-44.37-18.378-34.655 0-62.748 28.093-62.748 62.748v19.81c-46.616-36.86-78.665-108.736-78.665-164.293 0-25.775 6.892-49.943 18.945-70.753 15.463-26.692 44.226-42.855 75.069-42.855h94.797c30.844 0 59.606 16.164 75.069 42.855 12.044 20.81 18.946 44.978 18.946 70.753z" fill="#d67f4f"/><path d="m397.413 323.559c0 55.558-32.049 127.433-78.665 164.293v-19.81c0-5.748-.773-11.311-2.225-16.596 27.393-37.993 44.493-87.297 44.493-127.887 0-25.775-6.902-49.943-18.955-70.753-15.453-26.692-44.215-42.855-75.059-42.855h36.396c30.844 0 59.606 16.164 75.069 42.855 12.054 20.81 18.946 44.978 18.946 70.753z" fill="#c76d3d"/><path d="m325.592 468.285v13.826c-20.548 18.311-44.292 29.889-69.593 29.889s-49.045-11.578-69.593-29.889v-13.826c0-38.436 31.157-69.593 69.593-69.593 19.218 0 36.621 7.784 49.21 20.383 12.588 12.599 20.383 29.992 20.383 49.21z" fill="#ffd1bf"/><path d="m325.588 468.289v13.825c-20.542 18.307-44.288 29.886-69.589 29.886-6.119 0-12.146-.68-18.049-1.957-.052-.01-.103-.021-.144-.041 32.667-7.16 61.831-32.873 83.579-65.581 2.719 7.447 4.203 15.483 4.203 23.868z" fill="#ebbba5"/></g><g><path d="m291.454 458.526c-2.278-3.605-7.051-4.682-10.659-2.402-5.647 3.57-11.362 5.928-17.069 7.05v-39.926c0-4.268-3.459-7.726-7.726-7.726s-7.726 3.459-7.726 7.726v39.926c-5.707-1.122-11.422-3.479-17.069-7.05-3.607-2.28-8.379-1.203-10.659 2.402-2.28 3.607-1.205 8.379 2.402 10.66 10.709 6.77 21.829 10.202 33.052 10.202s22.344-3.433 33.052-10.202c3.606-2.281 4.682-7.053 2.402-10.66z" fill="#ebbba5"/><ellipse cx="255.999" cy="398.694" fill="#fb6a3b" rx="40.797" ry="28.675"/><path d="m296.794 398.69c0 15.844-18.265 28.68-40.795 28.68-10.075 0-19.306-2.565-26.414-6.83 1.35.093 2.709.144 4.09.144 22.53 0 40.805-12.836 40.805-28.67 0-8.757-5.584-16.596-14.381-21.85 20.604 1.443 36.695 13.661 36.695 28.526z" fill="#fb5532"/></g></g></g></g><g><g id="XMLID_497_"><path d="m311.138 368.533c-4.235 0-7.687-3.413-7.724-7.657l-.106-11.807c-.038-4.268 3.39-7.758 7.657-7.796h.07c4.235 0 7.687 3.413 7.724 7.657l.106 11.807c.038 4.268-3.39 7.758-7.657 7.796-.023 0-.047 0-.07 0z" fill="#8e4d29"/></g><g id="XMLID_499_"><path d="m200.965 368.533c-4.235 0-7.687-3.413-7.724-7.657l-.106-11.807c-.038-4.268 3.39-7.758 7.657-7.796h.07c4.235 0 7.687 3.413 7.724 7.657l.106 11.807c.038 4.268-3.39 7.758-7.657 7.796-.023 0-.047 0-.07 0z" fill="#8e4d29"/></g></g></g></svg>