<svg id="Capa_1" enable-background="new 0 0 512 512" height="512" viewBox="0 0 512 512" width="512" xmlns="http://www.w3.org/2000/svg"><g><g><g><g><g><g><path d="m477.728 93.393-38.168 21.387-31.69-31.689 14.927-8.365c16.504-9.251 19.605-31.689 6.233-45.071l-17.853-17.853c15.041-15.236 40.486-16.184 56.557-.113l18.698 18.698c18.699 18.698 14.361 50.077-8.704 63.006z" fill="#f2fbff"/><path d="m429.46 84.709-12.796 7.175-33.326-33.326 21.387-38.169c3.98-7.102 9.7-12.424 16.271-15.846l17.168 17.168c18.695 18.697 14.357 50.076-8.704 62.998z" fill="#fcac8d"/></g><g><path d="m104.16 83.06-31.719 31.72-38.169-21.387c-23.065-12.929-27.403-44.308-8.705-63.006l18.698-18.698c16.092-16.092 41.578-15.123 56.609.165l-17.801 17.801c-13.372 13.382-10.271 35.82 6.222 45.071z" fill="#f2fbff"/><path d="m82.536 84.709 12.796 7.175 33.326-33.326-21.387-38.168c-3.98-7.102-9.7-12.424-16.271-15.846l-17.168 17.168c-18.696 18.696-14.357 50.075 8.704 62.997z" fill="#fcac8d"/></g></g><path d="m356.081 461.262h-200.166c-78.892 0-142.846-63.954-142.846-142.846v-123.245c0-78.892 63.954-142.846 142.846-142.846h200.166c78.892 0 142.846 63.954 142.846 142.846v123.245c0 78.892-63.954 142.846-142.846 142.846z" fill="#f2fbff"/><path d="m498.932 195.171v123.247c0 78.894-63.964 142.847-142.847 142.847h-53.165c78.884 0 142.847-63.953 142.847-142.847v-123.247c0-78.894-63.964-142.847-142.847-142.847h53.165c78.883 0 142.847 63.953 142.847 142.847z" fill="#dff6fd"/></g><path d="m273.431 512h-34.869c-55.05 0-100.819-42.385-105.039-97.273l-4.044-52.595c-5.057-65.764 46.943-121.915 112.901-121.915h27.234c65.959 0 117.958 56.151 112.901 121.915l-4.044 52.595c-4.221 54.888-49.99 97.273-105.04 97.273z" fill="#b3cbea"/><path d="m382.517 362.133-4.047 52.596c-4.218 54.883-49.987 97.271-105.042 97.271h-34.864c-1.975 0-3.929-.054-5.871-.161 52.392-2.898 95.081-44.192 99.16-97.11l4.036-52.596c4.809-62.504-41.927-116.324-103.207-121.497 3.188-.279 6.43-.419 9.693-.419h27.243c65.949 0 117.955 56.149 112.899 121.916z" fill="#84aee1"/></g><g><path d="m307.458 437.667c-14.39 9.096-29.067 14.362-43.735 15.737v-89.924c0-4.268-3.459-7.726-7.726-7.726s-7.726 3.459-7.726 7.726v89.924c-14.668-1.375-29.345-6.642-43.735-15.737-3.609-2.28-8.38-1.203-10.66 2.403-2.28 3.607-1.204 8.379 2.403 10.659 19.428 12.279 39.519 18.505 59.718 18.505s40.29-6.226 59.718-18.505c3.607-2.28 4.683-7.052 2.403-10.659-2.281-3.606-7.052-4.682-10.66-2.403z" fill="#5591d6"/><path d="m288.259 370.222h-64.523c-12.883 0-23.327-10.444-23.327-23.327v-14.766c0-30.701 24.888-55.588 55.588-55.588 30.701 0 55.588 24.888 55.588 55.588v14.766c.001 12.883-10.443 23.327-23.326 23.327z" fill="#0857a0"/><path d="m311.589 332.133v14.759c0 12.881-10.444 23.325-23.325 23.325h-37.601c12.881 0 23.325-10.444 23.325-23.325v-14.759c0-15.35-6.226-29.25-16.273-39.308-5.743-5.743-12.72-10.229-20.513-13.02 5.871-2.115 12.204-3.263 18.795-3.263 15.35 0 29.25 6.215 39.308 16.283 10.058 10.058 16.284 23.959 16.284 39.308z" fill="#05447f"/></g></g><g fill="#0857a0"><path d="m385.302 238.264c-.038-4.243-3.489-7.657-7.724-7.657-.024 0-.047 0-.07 0-4.267.038-7.695 3.528-7.657 7.796l.106 11.807c.038 4.243 3.489 7.657 7.724 7.657h.07c4.267-.038 7.695-3.528 7.657-7.796z"/><path d="m134.32 230.607c-.024 0-.047 0-.07 0-4.267.038-7.695 3.528-7.657 7.796l.106 11.807c.038 4.243 3.489 7.657 7.724 7.657h.07c4.267-.038 7.695-3.528 7.657-7.796l-.106-11.807c-.038-4.244-3.49-7.657-7.724-7.657z"/></g></g></svg>