<svg id="Capa_1" enable-background="new 0 0 512 512" height="512" viewBox="0 0 512 512" width="512" xmlns="http://www.w3.org/2000/svg"><g><g><g><g><path d="m337.084 160.514c2.395-2.854 5.654-4.194 8.812-3.623l44.901 8.114s26.428 4.314 45.253 38.24c4.619 8.325.625 20.294-7.499 22.544-39.088 10.828-66.125 11.136-95.911 8.496-4.645-.412-8.347-4.71-9.01-10.51l-3.969-34.74c-.487-4.266.759-8.662 3.321-11.716z" fill="#fcb44d"/><path d="m428.55 225.793c-13.061 3.621-24.778 6.064-35.706 7.608 7.241-6.297 9.873-19.147 4.609-28.643-14.283-25.744-31.664-39.449-44.724-46.635l38.072 6.886s26.421 4.309 45.246 38.239c4.62 8.318.622 20.29-7.497 22.545z" fill="#fca62f"/></g></g><path d="m401.648 317.079c-53.796 11.806-142.557 55.383-163.088 194.921h-173.081c-2.845 0-5.151-2.306-5.151-5.151v-358.791c0-40.888 16.576-77.902 43.371-104.697 26.785-26.796 63.809-43.361 104.687-43.361 81.765 0 148.058 66.282 148.058 148.058v2.586c0 11.126.577 22.2 1.71 33.203l-8.035-2.194c-12.918-2.235-23.169-15.113-26.125-27.877-6.459-27.856-23.303-74.369-64.407-80.395-64.479-9.457-106.181 42.794-106.181 107.953 0 65.18 52.838 118.007 118.007 118.007 38.56 0 75.904-18.512 97.435-47.131.948-1.205 1.834-2.411 2.668-3.606 7.433 23.76 17.542 46.737 30.135 68.471-.002.002-.002.002-.003.004z" fill="#0857a0"/><path d="m350.118 181.652c-12.918-2.235-23.169-15.113-26.125-27.877-.031-.113-.052-.227-.082-.35-.01-.927-.01-1.854-.01-2.782v-2.586c0-76.264-57.669-139.074-131.781-147.172 5.336-.586 10.765-.885 16.266-.885 81.776 0 148.058 66.292 148.058 148.058v2.586c0 11.126.577 22.2 1.71 33.203z" fill="#05447f"/><path d="m401.638 317.09c-8.561 1.875-18.008 4.564-27.928 8.314-1.638-3.06-3.338-6.13-5.099-9.189-7.953-13.835-14.907-28.155-20.81-42.866 8.005-6.16 15.123-13.269 21.047-21.139.948-1.205 1.823-2.4 2.658-3.595 7.345 23.447 17.286 46.121 29.638 67.601.164.287.339.585.494.874z" fill="#05447f"/><path d="m446.52 512c2.851 0 5.156-2.309 5.152-5.16-.052-34.711-5.828-112.915-50.523-190.625-1.432-2.503-2.843-5.016-4.213-7.55-54.384 11.003-148.549 54.878-167.216 203.335z" fill="#f2fbff"/><path d="m419.099 512h27.419c2.851 0 5.156-2.309 5.152-5.16-.053-34.711-5.83-112.913-50.521-190.625-1.432-2.503-2.843-5.016-4.213-7.55-8.539 1.731-18.067 4.264-28.131 7.89 46.888 81.725 50.783 163.927 50.294 195.445z" fill="#dff6fd"/><path d="m374.48 257.666c-23.3 30.974-60.362 50.999-102.1 50.999-70.518 0-127.698-57.169-127.698-127.697 0-70.518 45.127-127.063 114.899-116.829 44.487 6.525 62.717 56.857 69.704 87.006 3.201 13.815 14.297 24.408 28.27 26.822l.044.008c2.301 27.2 8.012 53.95 16.881 79.691z" fill="#f2fbff"/><path d="m374.48 257.666c-6.706 8.91-14.545 16.914-23.31 23.784-17.8-41.213-27.266-85.65-27.266-130.808v-2.585c0-6.757-.453-13.411-1.339-19.932 2.946 8.22 5.12 16.141 6.716 23.022 3.203 13.813 14.297 24.402 28.275 26.823h.041c2.307 27.204 8.014 53.955 16.883 79.696z" fill="#dff6fd"/><path d="m258.022 507.52 19.84-151.025c.418-3.179-2.139-5.963-5.342-5.816l-142.586 6.519c-3.283.15-5.588 3.295-4.742 6.471l39.512 148.331h88.211c2.586 0 4.771-1.917 5.107-4.48z" fill="#0857a0"/><g fill="#05447f"><path d="m277.861 356.494-19.84 151.026c-.337 2.563-2.522 4.48-5.107 4.48h-35.628l17.235-131.297c2.163-16.473 15.834-29.02 32.43-29.772l5.821-.268c3.081.021 5.501 2.73 5.089 5.831z"/><path d="m172.701 512h-15.988l-27.063-101.576-21.726-4.904c-4.162-.938-6.768-5.069-5.831-9.23.938-4.162 5.069-6.779 9.23-5.841l13.835 3.121-9.076-34.089c-1.102-4.131 1.35-8.355 5.47-9.457 4.131-1.102 8.365 1.35 9.457 5.481z"/></g></g><g id="XMLID_460_"><path d="m287.974 175.464c-4.235 0-7.687-3.413-7.725-7.657l-.106-11.807c-.038-4.268 3.39-7.758 7.657-7.796h.07c4.235 0 7.687 3.413 7.725 7.657l.106 11.807c.038 4.268-3.39 7.758-7.657 7.796-.024 0-.047 0-.07 0z" fill="#05447f"/></g></g></svg>