<svg id="Capa_1" enable-background="new 0 0 512 512" height="512" viewBox="0 0 512 512" width="512" xmlns="http://www.w3.org/2000/svg"><g><g><g><path d="m164.016 263.069c-3.05-.246-6.026-.104-8.887.379-2.292.388-4.585-.727-5.574-2.83-8.696-18.48-27.482-31.273-49.258-31.273-19.425 0-36.472 10.18-46.1 25.495-.633 1.008-1.557 1.815-2.686 2.19-12.361 4.1-22.009 14.148-25.553 26.752-.288-.01-.576-.022-.867-.022-14.797 0-26.603 12.809-24.933 27.944 1.263 11.451 10.434 20.703 21.875 22.057 6.515.771 12.607-.96 17.446-4.354 1.597-1.121 3.692-1.314 5.4-.369 5.651 3.125 12.149 4.905 19.064 4.905 3.408 0 6.715-.433 9.87-1.246 1.104-.285 2.282-.173 3.314.313 7.03 3.313 14.884 5.166 23.171 5.166 12.533 0 24.075-4.239 33.274-11.359 1.829-1.416 4.378-1.349 6.228.04 5.93 4.45 13.298 7.087 21.282 7.087 20.407 0 36.792-17.221 35.415-37.923-1.158-17.389-15.113-31.55-32.481-32.952z" fill="#dff6fd"/></g><g><path d="m479.44 266.086c-3.05-.246-6.026-.104-8.887.379-2.292.388-4.585-.727-5.574-2.83-8.696-18.48-27.482-31.273-49.258-31.273-19.425 0-36.472 10.18-46.1 25.495-.633 1.008-1.557 1.815-2.686 2.19-12.361 4.1-22.009 14.148-25.553 26.752-.288-.01-.576-.022-.867-.022-14.797 0-26.603 12.809-24.933 27.944 1.263 11.451 10.434 20.703 21.875 22.057 6.515.771 12.607-.96 17.446-4.354 1.597-1.121 3.692-1.314 5.4-.369 5.651 3.125 12.149 4.905 19.064 4.905 3.408 0 6.715-.433 9.87-1.246 1.104-.285 2.282-.173 3.314.313 7.03 3.313 14.884 5.166 23.171 5.166 12.533 0 24.075-4.239 33.274-11.359 1.829-1.416 4.378-1.349 6.228.04 5.93 4.45 13.298 7.087 21.282 7.087 20.407 0 36.792-17.221 35.414-37.923-1.157-17.388-15.113-31.55-32.48-32.952z" fill="#dff6fd"/></g><path d="m373.37 208.705-86.995 129.979h190.996l-86.995-129.979c-4.052-6.055-12.954-6.055-17.006 0z" fill="#68dbf9"/><path d="m477.376 362.695h-457.782l176.542-181.806c7.077 3.564 11.929 10.91 11.929 19.388v8.437c0 7.067 5.728 12.795 12.795 12.795 3.523 0 6.727-1.432 9.045-3.75 2.308-2.308 3.74-5.511 3.74-9.045v-17.389c0-7.057 5.728-12.795 12.795-12.795 3.523 0 6.727 1.442 9.045 3.75 2.308 2.308 3.74 5.512 3.74 9.045v3.832c0 6.645 5.378 12.022 12.022 12.022 3.327 0 6.325-1.35 8.499-3.513 2.174-2.184 3.523-5.182 3.523-8.509 0-6.006 2.431-11.435 6.367-15.37 1.741-1.741 3.76-3.173 6.006-4.244z" fill="#5591d6"/><path d="m315.637 196.125-10.992 2.957c-.206.062-.391.175-.577.35-.34.34-.34.742-.34.876 0 8.654-3.369 16.792-9.478 22.942l-.072.072c-6.13 6.109-14.278 9.478-22.932 9.478-7.314 0-14.083-2.442-19.512-6.531-1.648 4.11-4.141 7.891-7.366 11.126-6.274 6.274-14.629 9.725-23.519 9.725-18.337 0-33.254-14.917-33.254-33.254v-8.437c0-.752-.567-1.123-.876-1.205l-10.281-3.049 19.697-20.284c7.077 3.564 11.929 10.91 11.929 19.388v8.437c0 7.067 5.728 12.795 12.795 12.795 3.523 0 6.727-1.432 9.045-3.75 2.308-2.308 3.74-5.511 3.74-9.045v-17.389c0-7.057 5.728-12.795 12.795-12.795 3.523 0 6.727 1.442 9.045 3.75 2.308 2.308 3.74 5.512 3.74 9.045v3.832c0 6.645 5.378 12.022 12.022 12.022 3.327 0 6.325-1.35 8.499-3.513 2.174-2.184 3.523-5.182 3.523-8.509 0-6.006 2.431-11.435 6.367-15.37 1.741-1.741 3.771-3.183 6.016-4.244z" fill="#1475cb"/><path d="m477.376 362.684h-45.709l-153.292-157.854c.494-.35.948-.742 1.37-1.164 2.174-2.184 3.523-5.182 3.523-8.509 0-6.006 2.431-11.435 6.367-15.37 1.741-1.741 3.771-3.183 6.016-4.244z" fill="#1475cb"/><path d="m299.323 179.326c-3.724 1.003-7.039 2.967-9.689 5.607-3.929 3.939-6.364 9.372-6.364 15.378 0 3.325-1.351 6.323-3.52 8.503-2.179 2.169-5.177 3.52-8.503 3.52-6.64 0-12.022-5.382-12.022-12.022v-3.837c0-3.53-1.432-6.733-3.745-9.045-2.312-2.312-5.515-3.745-9.045-3.745-7.06 0-12.79 5.73-12.79 12.79v17.394c0 3.53-1.432 6.732-3.745 9.045-2.312 2.312-5.515 3.745-9.045 3.745-7.06 0-12.79-5.73-12.79-12.79v-8.441c0-9.853-6.548-18.172-15.532-20.832l48.611-50.064c4.011-4.134 10.661-4.134 14.672 0z" fill="#f2fbff"/><path d="m299.32 179.326c-3.724 1.003-7.039 2.967-9.689 5.607-3.929 3.939-6.364 9.372-6.364 15.378 0 2.67-.87 5.136-2.353 7.132l-55.282-56.94 15.511-15.972c4.011-4.134 10.662-4.134 14.672 0h.01z" fill="#c9f0fd"/><path d="m407.33 306.165c-25.315 0-48.741 8.06-67.867 21.748-11.663 8.348-26.717 10.123-40.082 4.917-9.421-3.669-19.668-5.684-30.388-5.684-15.201 0-29.454 4.047-41.745 11.121-15.059 8.667-34.114 6.851-47.359-4.394-20.357-17.281-46.711-27.709-75.508-27.709-43.405 0-81.276 23.679-101.409 58.822-3.975 6.939 1.153 15.582 9.15 15.582h487.468c7.997 0 13.125-8.643 9.15-15.582-20.134-35.143-58.005-58.821-101.41-58.821z" fill="#27d1b3"/><path d="m499.586 380.564h-54.054c8.001 0 13.127-8.636 9.158-15.573-15.818-27.616-42.585-48.14-74.385-55.671 8.666-2.067 17.721-3.151 27.022-3.151 43.413 0 81.281 23.676 101.417 58.822 3.969 6.938-1.157 15.573-9.158 15.573z" fill="#20b69f"/><g id="XMLID_425_"><path d="m434.91 348.586h-.105c-4.268 0-7.726-3.459-7.726-7.726s3.459-7.726 7.726-7.726h.105c4.268 0 7.726 3.459 7.726 7.726s-3.458 7.726-7.726 7.726z" fill="#20b69f"/></g><g id="XMLID_426_"><path d="m404.946 359.723h-.105c-4.268 0-7.726-3.459-7.726-7.726s3.459-7.726 7.726-7.726h.105c4.268 0 7.726 3.459 7.726 7.726s-3.459 7.726-7.726 7.726z" fill="#20b69f"/></g><g id="XMLID_427_"><path d="m96.241 348.587c-.026 0-.05 0-.076 0l-.105-.001c-4.267-.041-7.692-3.533-7.652-7.801.041-4.241 3.493-7.652 7.724-7.652h.076l.105.001c4.267.041 7.692 3.533 7.652 7.801-.04 4.241-3.492 7.652-7.724 7.652z" fill="#20b69f"/></g></g></g></svg>