<svg id="Capa_1" enable-background="new 0 0 512 512" height="512" viewBox="0 0 512 512" width="512" xmlns="http://www.w3.org/2000/svg"><g><g><g><g><g><g><g><path d="m200.021 285.816c3.857-12.94 7.75-25.868 11.728-38.771 4.797-15.559 9.468-31.189 14.71-46.604 2.458-7.229 4.978-14.438 7.179-21.751-21.833-59.097-45.609-112.221-60.047-112.221-12.425 0-31.768 39.351-50.836 87.989 14.092 43.463 26.242 87.533 39.159 131.359h38.107z" fill="#f2fbff"/><path d="m233.638 178.686c-.175.587-.35 1.164-.536 1.751-8.355 3.822-18.183 6.809-28.969 8.684-15.813-43.731-33.028-85.732-47.203-107.417 6.284-9.612 11.96-15.236 16.658-15.236 14.444 0 38.22 53.127 60.05 112.218z" fill="#dff6fd"/></g></g></g></g><g><g><g><g><path d="m355.628 285.816c3.857-12.94 7.75-25.868 11.728-38.771 4.797-15.559 9.468-31.189 14.71-46.604 2.458-7.229 4.978-14.438 7.179-21.751-21.833-59.097-45.609-112.221-60.047-112.221-12.425 0-31.768 39.351-50.836 87.989 14.092 43.463 26.242 87.533 39.159 131.359h38.107z" fill="#f2fbff"/><path d="m389.244 178.686c-.175.587-.35 1.164-.536 1.751-8.355 3.822-18.183 6.809-28.969 8.684-15.813-43.731-33.028-85.732-47.203-107.417 6.284-9.612 11.96-15.236 16.658-15.236 14.444 0 38.221 53.127 60.05 112.218z" fill="#dff6fd"/></g></g></g></g></g><g><g><g><path d="m400.294 335.266h28.52v65.042h-28.52z" fill="#c76d3d"/><path d="m428.814 335.266v21.651c-4.158.614-8.676 1.035-13.589 1.219l-.667.026-.675-.026c-4.913-.184-9.431-.605-13.589-1.219v-21.651z" fill="#aa5e33"/><path d="m414.555 98.347c-23.863 0-73.237 145.114-97.184 222.472-.751 2.427.158 5.058 2.249 6.499 8.212 5.66 29.877 16.95 51.395-2.635 0 0 8.448 14.585 43.54 15.921 35.092-1.337 43.54-15.921 43.54-15.921 21.519 19.585 43.184 8.296 51.395 2.635 2.092-1.442 3-4.073 2.249-6.499-23.947-77.358-73.322-222.472-97.184-222.472z" fill="#27e19d"/><g fill="#26d192"><path d="m374.636 328.628c-2.647-2.266-3.616-3.946-3.616-3.946-21.521 19.584-43.185 8.293-51.396 2.637-2.091-1.442-3.008-4.069-2.256-6.501 7.17-23.148 16.617-52.364 26.97-81.941 12.259 33.966 23.117 67.128 30.298 89.751z"/><path d="m509.489 327.318c-6.913 4.764-23.362 13.519-41.232 4.483 3.272-1.483 5.974-3.141 7.922-4.483 2.088-1.439 3-4.071 2.246-6.501-19.23-62.138-54.874-167.982-80.526-207.232 6.281-9.615 11.966-15.238 16.66-15.238 23.862 0 73.236 145.111 97.177 222.47.753 2.43-.15 5.062-2.247 6.501z"/></g></g></g><g><g><path d="m83.184 335.266h28.52v65.042h-28.52z" fill="#c76d3d"/><path d="m111.705 335.266v21.651c-4.158.614-8.676 1.035-13.589 1.219l-.667.026-.675-.026c-4.913-.184-9.431-.605-13.589-1.219v-21.651z" fill="#aa5e33"/><path d="m97.445 98.347c-23.863 0-73.237 145.114-97.185 222.472-.751 2.427.158 5.058 2.249 6.499 8.212 5.66 29.877 16.95 51.395-2.635 0 0 8.448 14.585 43.54 15.921 35.092-1.337 43.54-15.921 43.54-15.921 21.519 19.585 43.184 8.296 51.395 2.635 2.092-1.442 3-4.073 2.249-6.499-23.945-77.358-73.32-222.472-97.183-222.472z" fill="#27e19d"/><g fill="#26d192"><path d="m194.632 320.819c.752 2.431-.165 5.058-2.256 6.501-8.211 5.656-29.875 16.946-51.396-2.637 0 0-.968 1.679-3.626 3.946 7.191-22.623 18.049-55.784 30.308-89.749 10.353 29.575 19.8 58.791 26.97 81.939z"/><path d="m192.38 327.318c-6.913 4.764-23.362 13.519-41.232 4.483 3.272-1.483 5.974-3.141 7.922-4.483 2.088-1.439 3-4.071 2.246-6.501-19.23-62.138-54.874-167.982-80.526-207.232 6.281-9.615 11.966-15.238 16.66-15.238 23.862 0 73.236 145.111 97.177 222.47.753 2.43-.151 5.062-2.247 6.501z"/></g></g></g><g><g><path d="m240.667 367.876h30.663v69.929h-30.663z" fill="#da875d"/><path d="m271.331 367.876v23.278c-4.471.66-9.328 1.113-14.61 1.311l-.717.028-.726-.028c-5.282-.198-10.139-.651-14.61-1.311v-23.278z" fill="#c76d3d"/><path d="m256 113.154c-25.656 0-78.741 156.018-104.487 239.189-.808 2.609.169 5.438 2.418 6.988 8.829 6.086 32.121 18.223 55.257-2.833 0 0 9.082 15.68 46.812 17.118 37.729-1.437 46.812-17.118 46.812-17.118 23.136 21.057 46.429 8.919 55.257 2.833 2.249-1.55 3.226-4.379 2.418-6.988-25.746-83.171-78.831-239.189-104.487-239.189z" fill="#23f1a8"/><path d="m358.068 359.33c-7.432 5.122-25.117 14.535-44.33 4.82 3.518-1.594 6.423-3.377 8.517-4.82 2.245-1.547 3.226-4.376 2.415-6.989-20.675-66.807-58.997-180.604-86.577-222.803 6.753-10.337 12.865-16.383 17.911-16.383 25.655 0 78.739 156.015 104.478 239.187.811 2.612-.16 5.442-2.414 6.988z" fill="#27e19d"/></g></g></g><g id="XMLID_202_"><path d="m217.827 308.366c-.013 0-.025 0-.037 0l-.107-.001c-4.267-.02-7.71-3.495-7.69-7.763.02-4.255 3.476-7.69 7.725-7.69h.037.107c4.267.02 7.71 3.495 7.69 7.763-.019 4.256-3.475 7.691-7.725 7.691z" fill="#f2fbff"/></g><g id="XMLID_203_"><path d="m243.95 293.543c-.013 0-.025 0-.037 0h-.107c-4.267-.02-7.71-3.495-7.69-7.763.02-4.255 3.476-7.69 7.725-7.69h.037l.107.001c4.267.02 7.71 3.495 7.69 7.763-.02 4.254-3.475 7.689-7.725 7.689z" fill="#f2fbff"/></g><g id="XMLID_206_"><path d="m414.608 215.072c-.013 0-.025 0-.037 0l-.107-.001c-4.267-.02-7.71-3.495-7.69-7.763.02-4.255 3.476-7.69 7.725-7.69h.037l.107.001c4.267.02 7.71 3.495 7.69 7.763-.02 4.255-3.475 7.69-7.725 7.69z" fill="#f2fbff"/></g><g id="XMLID_207_"><path d="m397.953 234.517c-.013 0-.025 0-.037 0l-.107-.001c-4.267-.02-7.71-3.495-7.69-7.763.02-4.255 3.476-7.69 7.725-7.69h.037l.107.001c4.267.02 7.71 3.495 7.69 7.763-.02 4.255-3.475 7.69-7.725 7.69z" fill="#f2fbff"/></g><g id="XMLID_208_"><path d="m444.524 261.199c-.013 0-.025 0-.037 0h-.107c-4.267-.02-7.71-3.495-7.69-7.763.02-4.255 3.476-7.69 7.725-7.69h.037l.107.001c4.267.02 7.71 3.495 7.69 7.763-.02 4.254-3.475 7.689-7.725 7.689z" fill="#f2fbff"/></g><g id="XMLID_210_"><path d="m94.652 278.614c-.013 0-.025 0-.037 0l-.107-.001c-4.267-.02-7.71-3.495-7.69-7.763.02-4.255 3.476-7.69 7.725-7.69h.037.107c4.267.02 7.71 3.495 7.69 7.763-.02 4.256-3.476 7.691-7.725 7.691z" fill="#f2fbff"/></g><g id="XMLID_211_"><path d="m118.639 290.235h-.107c-4.267 0-7.726-3.459-7.726-7.726s3.459-7.726 7.726-7.726h.107c4.267 0 7.726 3.459 7.726 7.726.001 4.267-3.459 7.726-7.726 7.726z" fill="#f2fbff"/></g><g id="XMLID_213_"><path d="m89.42 180.405c-.013 0-.025 0-.037 0l-.107-.001c-4.267-.02-7.71-3.495-7.69-7.763.02-4.255 3.476-7.69 7.725-7.69h.037l.107.001c4.267.02 7.71 3.495 7.69 7.763-.02 4.255-3.476 7.69-7.725 7.69z" fill="#f2fbff"/></g></g><g fill="#138b80"><path d="m501.861 392.582h-125.929l-2.084-8.137c-1.058-4.133-5.265-6.625-9.401-5.568-4.134 1.058-6.627 5.268-5.568 9.401l1.102 4.304h-32.732c-4.267 0-7.726 3.459-7.726 7.726s3.459 7.726 7.726 7.726h174.613c4.267 0 7.726-3.459 7.726-7.726s-3.46-7.726-7.727-7.726z"/><path d="m343.307 430.079h-34.72l1.549-9.065c.718-4.206-2.109-8.198-6.315-8.917-4.203-.714-8.198 2.109-8.917 6.315l-1.993 11.667h-124.218c-4.267 0-7.726 3.459-7.726 7.726s3.459 7.726 7.726 7.726h174.614c4.267 0 7.726-3.459 7.726-7.726s-3.459-7.726-7.726-7.726z"/><path d="m184.752 408.035c4.267 0 7.726-3.459 7.726-7.726s-3.459-7.726-7.726-7.726h-128.114l2.609-15.544c.706-4.208-2.132-8.193-6.341-8.899-4.211-.711-8.193 2.133-8.899 6.341l-3.039 18.103h-1.028l-2.485-8.41c-1.208-4.093-5.506-6.431-9.599-5.22-4.093 1.209-6.43 5.507-5.22 9.599l1.191 4.032h-13.69c-4.267 0-7.726 3.459-7.726 7.726s3.459 7.726 7.726 7.726h174.615z"/></g></g></svg>