<svg id="Capa_1" enable-background="new 0 0 512 512" height="512" viewBox="0 0 512 512" width="512" xmlns="http://www.w3.org/2000/svg"><g><g><path d="m378.544 311.644v-254.39c0-31.621-25.633-57.254-57.253-57.254-31.62 0-57.254 25.633-57.254 57.254v254.425c0 1.718-.88 3.302-2.307 4.259-29.045 19.479-48.029 52.796-47.503 90.516.805 57.668 47.87 104.732 105.538 105.535 59.835.833 108.601-47.42 108.601-107.064 0-37.122-18.894-69.828-47.588-89.037-1.41-.943-2.234-2.548-2.234-4.244z" fill="#5591d6"/><path d="m428.367 404.923c0 59.647-48.769 107.901-108.602 107.067-4.45-.062-8.829-.402-13.135-.999 52.168-7.16 92.366-51.921 92.366-106.067 0-35.789-17.566-67.473-44.545-86.916-3.322-2.394-5.285-6.243-5.285-10.338v-250.413c0-26.548-18.059-48.872-42.557-55.352 4.689-1.246 9.613-1.905 14.681-1.905 31.616 0 57.257 25.631 57.257 57.257v254.385c0 1.696.823 3.301 2.233 4.244 28.689 19.211 47.587 51.916 47.587 89.037z" fill="#1475cb"/><path d="m342.484 57.258v211.661h-42.392v-211.661c0-11.693 9.509-21.201 21.201-21.201 11.682-.001 21.191 9.508 21.191 21.201z" fill="#c9f0fd"/><path d="m342.494 57.258v211.661h-26.29v-211.661c0-6.727-3.152-12.743-8.056-16.627 3.616-2.864 8.18-4.574 13.145-4.574 11.692-.001 21.201 9.508 21.201 21.201z" fill="#9ce6fb"/><path d="m359.238 344.885-14.357-9.103c-1.49-.945-2.393-2.586-2.393-4.35v-76.547h-42.395v76.547c0 1.764-.903 3.406-2.393 4.35l-14.357 9.103c-21.015 13.324-33.376 36.113-33.066 60.96.477 38.118 31.873 69.56 69.988 70.09.342.005 1.03.008 1.032.008 18.967 0 36.8-7.387 50.211-20.799 13.412-13.413 20.8-31.248 20.8-50.219.001-24.465-12.362-46.91-33.07-60.04z" fill="#68dbf9"/><path d="m392.311 404.923c0 18.976-7.386 36.808-20.799 50.221s-31.245 20.799-50.211 20.799c0 0-.69 0-1.03-.01-4.1-.052-8.128-.474-12.043-1.216 13.938-2.606 26.764-9.333 37.004-19.573 13.403-13.413 20.799-31.245 20.799-50.221 0-24.467-12.372-46.904-33.079-60.039l-10.818-6.859c-3.694-2.342-5.933-6.412-5.933-10.787v-72.351h26.29v76.542c0 1.764.903 3.405 2.393 4.35l14.358 9.104c20.707 13.136 33.069 35.573 33.069 60.04z" fill="#24d1f8"/></g><g><g fill="#c9f0fd"><path d="m223.849 89.345h-3.969l.911-1.822c1.908-3.816.361-8.458-3.456-10.365-3.816-1.911-8.458-.362-10.365 3.456l-4.365 8.731h-16.421l2.919-9.02c1.168-3.61-.458-7.533-3.836-9.26l-8.441-4.313 11.611-11.611 9.26 3.087c.811.271 1.635.398 2.445.398 3.234 0 6.249-2.047 7.329-5.285 1.349-4.048-.838-8.424-4.886-9.774l-1.931-.644 2.806-2.806c3.017-3.018 3.017-7.909 0-10.928-3.017-3.015-7.908-3.017-10.928 0l-2.807 2.806-.644-1.932c-1.349-4.047-5.722-6.233-9.774-4.886-4.048 1.35-6.235 5.725-4.886 9.774l3.087 9.262-11.611 11.611-4.314-8.443c-1.726-3.379-5.652-5.002-9.261-3.836l-9.019 2.92v-16.42l8.732-4.367c3.816-1.908 5.363-6.549 3.455-10.366-1.908-3.816-6.547-5.36-10.366-3.455l-1.821.91v-3.966c0-4.268-3.459-7.726-7.726-7.726s-7.726 3.459-7.726 7.726v3.968l-1.82-.91c-3.819-1.906-8.457-.361-10.366 3.455-1.908 3.817-.362 8.458 3.455 10.366l8.731 4.366v16.42l-9.018-2.92c-3.612-1.166-7.533.458-9.261 3.836l-4.313 8.443-11.61-11.611 3.087-9.262c1.349-4.048-.839-8.424-4.887-9.773-4.051-1.353-8.424.839-9.773 4.887l-.644 1.931-2.806-2.806c-3.018-3.016-7.909-3.016-10.928 0-3.017 3.018-3.017 7.909 0 10.928l2.806 2.806-1.931.644c-4.048 1.35-6.235 5.725-4.886 9.774 1.079 3.237 4.095 5.285 7.329 5.285.81 0 1.634-.129 2.445-.398l9.26-3.087 11.611 11.611-8.442 4.313c-3.379 1.726-5.004 5.65-3.836 9.261l2.92 9.019h-16.42l-4.365-8.731c-1.907-3.818-6.549-5.363-10.365-3.456-3.817 1.907-5.364 6.549-3.456 10.365l.911 1.822h-3.969c-4.268 0-7.726 3.459-7.726 7.726 0 4.268 3.459 7.726 7.726 7.726h3.969l-.911 1.822c-1.908 3.816-.361 8.458 3.456 10.365 1.109.555 2.288.818 3.449.818 2.834 0 5.563-1.565 6.916-4.274l4.365-8.731h16.421l-2.92 9.019c-1.168 3.611.457 7.534 3.836 9.261l8.442 4.313-11.611 11.611-9.26-3.087c-4.051-1.352-8.425.838-9.774 4.886s.838 8.424 4.886 9.774l1.931.644-2.806 2.806c-3.017 3.018-3.017 7.909 0 10.928 1.509 1.508 3.486 2.263 5.464 2.263 1.977 0 3.955-.755 5.464-2.263l2.806-2.806.643 1.93c1.079 3.238 4.094 5.286 7.329 5.286.81 0 1.634-.129 2.444-.398 4.048-1.349 6.236-5.725 4.887-9.773l-3.087-9.261 11.612-11.612 4.313 8.442c1.726 3.379 5.651 5.004 9.26 3.836l9.019-2.92v16.421l-8.731 4.366c-3.817 1.908-5.363 6.549-3.455 10.366 1.909 3.817 6.548 5.362 10.366 3.455l1.82-.91v3.968c0 4.268 3.459 7.726 7.726 7.726s7.726-3.459 7.726-7.726v-3.969l1.821.91c1.11.555 2.289.818 3.45.818 2.834 0 5.563-1.565 6.916-4.273 1.908-3.817.361-8.458-3.455-10.366l-8.732-4.367v-16.421l9.02 2.92c.787.255 1.589.376 2.379.376 2.836 0 5.53-1.57 6.88-4.212l4.313-8.442 11.611 11.611-3.087 9.261c-1.349 4.048.838 8.424 4.886 9.774.811.271 1.635.398 2.445.398 3.234 0 6.249-2.047 7.329-5.285l.644-1.932 2.807 2.807c1.509 1.508 3.487 2.263 5.464 2.263s3.955-.755 5.464-2.263c3.017-3.018 3.017-7.909 0-10.928l-2.806-2.806 1.931-.644c4.048-1.35 6.235-5.725 4.886-9.774-1.35-4.048-5.724-6.231-9.774-4.886l-9.26 3.087-11.611-11.611 8.441-4.313c3.378-1.726 5.004-5.65 3.836-9.26l-2.92-9.02h16.421l4.365 8.731c1.353 2.708 4.082 4.274 6.917 4.274 1.161 0 2.34-.264 3.449-.818 3.817-1.907 5.364-6.549 3.456-10.365l-.911-1.822h3.969c4.268 0 7.726-3.459 7.726-7.726s-3.458-7.726-7.726-7.726zm-51.476-7.515-2.432 7.515h-15.708l11.108-11.108zm-21.553-21.553 3.593 7.033-11.108 11.108v-15.708zm-30.482 0 7.514 2.433v15.708l-11.107-11.108zm-21.553 21.553 7.033-3.592 11.108 11.107h-15.707zm0 30.482 2.432-7.514h15.708l-11.108 11.108zm21.553 21.554-3.593-7.033 11.107-11.107v15.708zm30.482 0-7.515-2.432v-15.709l11.108 11.108zm21.553-21.554-7.033 3.593-11.108-11.108h15.708z"/><path d="m425.652 58.624h39.039c4.268 0 7.726-3.459 7.726-7.726s-3.459-7.726-7.726-7.726h-39.039c-4.268 0-7.726 3.459-7.726 7.726s3.458 7.726 7.726 7.726z"/><path d="m425.652 109.621h14.316c4.268 0 7.726-3.459 7.726-7.726s-3.459-7.726-7.726-7.726h-14.316c-4.268 0-7.726 3.459-7.726 7.726s3.458 7.726 7.726 7.726z"/><path d="m425.652 160.618h14.316c4.268 0 7.726-3.459 7.726-7.726s-3.459-7.726-7.726-7.726h-14.316c-4.268 0-7.726 3.459-7.726 7.726s3.458 7.726 7.726 7.726z"/><path d="m425.652 211.615h14.316c4.268 0 7.726-3.459 7.726-7.726s-3.459-7.726-7.726-7.726h-14.316c-4.268 0-7.726 3.459-7.726 7.726s3.458 7.726 7.726 7.726z"/><path d="m464.691 247.159h-39.039c-4.268 0-7.726 3.459-7.726 7.726s3.459 7.726 7.726 7.726h39.039c4.268 0 7.726-3.459 7.726-7.726s-3.458-7.726-7.726-7.726z"/></g><path d="m134.999 248.274h-16.466c-4.268 0-7.726 3.459-7.726 7.726s3.459 7.726 7.726 7.726h16.466c4.268 0 7.726-3.459 7.726-7.726s-3.458-7.726-7.726-7.726z" fill="#1475cb"/><path d="m180.35 223.134h-9.209c-9.941 0-18.028 8.088-18.028 18.028v29.676c0 9.941 8.088 18.028 18.028 18.028h9.209c9.941 0 18.028-8.088 18.028-18.028v-29.676c0-9.941-8.087-18.028-18.028-18.028zm2.576 47.704c0 1.421-1.155 2.575-2.575 2.575h-9.209c-1.421 0-2.575-1.155-2.575-2.575v-29.676c0-1.421 1.155-2.575 2.575-2.575h9.209c1.421 0 2.575 1.155 2.575 2.575z" fill="#1475cb"/><path d="m213.85 222.473h-.107c-4.268 0-7.726 3.459-7.726 7.726 0 4.268 3.459 7.726 7.726 7.726h.107c4.268 0 7.726-3.459 7.726-7.726s-3.458-7.726-7.726-7.726z" fill="#1475cb"/></g></g></svg>