<svg id="Capa_1" enable-background="new 0 0 512 512" height="512" viewBox="0 0 512 512" width="512" xmlns="http://www.w3.org/2000/svg"><g><g><g><g><path d="m509.311 400.048c-18.007 48.594-124.559 85.907-253.311 85.907s-235.304-37.313-253.311-85.907c31.812-43.134 133.192-74.657 253.311-74.657s221.499 31.523 253.311 74.657z" fill="#9ce6fb"/><path d="m509.311 400.048c-18.007 48.583-124.559 85.897-253.311 85.897-8.952 0-17.801-.185-26.527-.536 128.917-5.202 229.473-47.965 229.473-99.958 0-9.272-3.194-18.244-9.189-26.764 27.371 11.63 48.027 25.733 59.554 41.361z" fill="#68dbf9"/><path d="m512 385.455c0 8.283-2.555 16.328-7.376 24.034-27.434-43.896-128.34-76.46-248.624-76.46s-221.19 32.564-248.624 76.46c-4.821-7.705-7.376-15.751-7.376-24.034 0-55.506 114.618-100.494 256-100.494s256 44.988 256 100.494z" fill="#84aee1"/><path d="m512 385.451c0 8.283-2.555 16.328-7.376 24.034-8.942-14.299-25.672-27.403-48.336-38.549-16.668-45.246-110.126-80.725-226.815-85.443.031 0 .062-.01.093-.01 8.695-.35 17.513-.525 26.434-.525 141.382-.001 256 44.987 256 100.493z" fill="#5591d6"/></g></g><path d="m346.316 365.496c0 13.506-2.967 26.311-8.283 37.818-23.529.34-26.496 9.828-46.049 11.94-2.452.268-5.161.412-8.211.412-27.784 0-27.784-12.362-55.568-12.362-24.766 0-27.454 9.828-47.44 11.96-9.828-14.773-15.422-32.564-15.061-51.54.206-10.93 2.359-21.376 6.119-31.019 21.716 8.52 51.416 13.763 84.176 13.763s62.46-5.244 84.176-13.763c3.967 10.168 6.141 21.222 6.141 32.791z" fill="#23f1a8"/><path d="m346.316 365.496c0 13.506-2.967 26.311-8.283 37.818-23.529.34-26.496 9.828-46.049 11.94 9.436-14.268 14.938-31.379 14.938-49.758 0-7.953-1.03-15.669-2.957-23.014 13.547-2.359 25.796-5.687 36.211-9.776 3.966 10.167 6.14 21.221 6.14 32.79z" fill="#27e19d"/><path d="m343.174 341.792c-21.933 9.23-52.879 14.979-87.174 14.979s-65.241-5.749-87.174-14.979c5.882-21.696 19.656-40.146 38.034-52.086 18.677-12.136 30.277-32.595 30.277-54.878v-55.29h37.725v54.816c0 22.51 11.682 43.185 30.514 55.506 18.266 11.951 31.936 30.34 37.798 51.932z" fill="#ffeed3"/><path d="m343.174 341.792c-10.518 4.43-23.138 8.066-37.19 10.632-3.791-26.156-18.801-48.697-40.002-62.563-15.834-10.364-26.62-26.61-29.659-44.906 0 0 .01 0 0-.01.536-3.307.814-6.696.814-10.116v-55.29h37.725v54.816c0 22.51 11.682 43.185 30.514 55.506 18.266 11.95 31.936 30.339 37.798 51.931z" fill="#fddaa9"/><g><path d="m394.924 423.397c-15.535 0-23.712-3.638-30.927-6.848-6.651-2.959-12.394-5.514-24.647-5.514-12.252 0-17.995 2.555-24.646 5.514-7.215 3.21-15.393 6.848-30.928 6.848-15.533 0-23.71-3.638-30.924-6.848-6.649-2.959-12.392-5.514-24.642-5.514-12.251 0-17.994 2.555-24.643 5.514-7.214 3.21-15.391 6.848-30.925 6.848-15.533 0-23.709-3.638-30.924-6.848-6.649-2.959-12.392-5.514-24.642-5.514-4.267 0-7.726-3.459-7.726-7.726s3.459-7.726 7.726-7.726c15.533 0 23.709 3.638 30.924 6.848 6.649 2.959 12.392 5.514 24.642 5.514 12.251 0 17.993-2.555 24.643-5.514 7.214-3.21 15.391-6.848 30.925-6.848 15.533 0 23.71 3.638 30.924 6.848 6.649 2.959 12.392 5.514 24.642 5.514 12.252 0 17.995-2.555 24.646-5.514 7.215-3.21 15.393-6.848 30.928-6.848s23.713 3.638 30.928 6.848c6.65 2.959 12.394 5.514 24.646 5.514 4.267 0 7.726 3.459 7.726 7.726s-3.459 7.726-7.726 7.726z" fill="#68dbf9"/></g><g><path d="m193.644 211.99c-4.267 0-7.726-3.459-7.726-7.726 0-22.286 18.131-40.417 40.416-40.417h13.692c4.267 0 7.726 3.459 7.726 7.726s-3.459 7.726-7.726 7.726h-13.692c-13.765 0-24.964 11.199-24.964 24.964 0 4.268-3.459 7.727-7.726 7.727z" fill="#5591d6"/></g><g><path d="m256 219.911c-10.416 0-18.859-8.444-18.859-18.859v-138.638c0-10.416 8.444-18.859 18.859-18.859 10.416 0 18.859 8.444 18.859 18.859v138.637c0 10.416-8.443 18.86-18.859 18.86z" fill="#fb5532"/></g><g><path d="m267.312 179.3h-4.101c-4.267 0-7.726-3.459-7.726-7.726s3.459-7.726 7.726-7.726h4.101c72.629 0 132.934-58.424 134.429-130.236.088-4.211 3.53-7.565 7.722-7.565.054 0 .109.001.164.002 4.266.089 7.652 3.619 7.564 7.885-.814 39.113-16.876 75.728-45.225 103.102-28.228 27.254-65.394 42.264-104.654 42.264z" fill="#84aee1"/></g></g><circle cx="356.459" cy="140.381" fill="#fcc16d" r="21.613"/><path d="m378.076 140.381c0 11.94-9.684 21.613-21.613 21.613-4.275 0-8.262-1.236-11.61-3.389 6.016-3.822 10.003-10.559 10.003-18.224s-3.987-14.402-10.003-18.224c3.348-2.153 7.335-3.389 11.61-3.389 11.93-.001 21.613 9.673 21.613 21.613z" fill="#fca62f"/></g></svg>