<svg id="Capa_1" enable-background="new 0 0 512 512" height="512" viewBox="0 0 512 512" width="512" xmlns="http://www.w3.org/2000/svg"><g><g><g><path d="m436.868 224.18c-3.425-13.995-6.844-27.992-10.269-41.987l-7.706-8.648c-31.599 10.045-52.201 23.082-59.309 34.194-15.138 23.665-32.75 59.386-36.558 103.744-.809 9.422 6.101 17.748 15.515 18.645l.131.012c8.466.807 16.23-4.698 18.323-12.941 5.634-22.19 19.161-63.876 44.124-79.779 10.182-6.485 22.883-10.621 35.749-13.24z" fill="#9d552e"/></g><g><path d="m417.268 144.218c-31.34-4.461-54.693-2.111-66.353 4.465-27.647 15.591-64.153 41.9-91.462 84.143-5.801 8.973-3.318 20.943 5.6 26.827l.124.082c8.02 5.292 18.684 3.914 25.141-3.202 17.382-19.156 52.972-53.583 86.31-56.22 18.248-1.444 38.776 3.725 56.976 10.524-5.429-22.21-10.857-44.421-16.336-66.619z" fill="#c76d3d"/><path d="m433.603 210.835c-12.579-4.698-26.249-8.612-39.518-10.106-13.063-14.526-25.899-24.755-37.231-29.515-5.357-2.246-12.29-3.389-20.614-3.389-5.439 0-11.085.484-16.71 1.298 11.033-8.262 21.747-14.999 31.379-20.439 11.662-6.573 35.016-8.932 66.354-4.471 5.482 22.201 10.911 44.411 16.34 66.622z" fill="#aa5e33"/></g><path d="m409.377 112.461c-18.241-10.917-33.53-16.053-43.718-15.68-30.491 1.115-73.278 7.476-115.241 31.503-8.913 5.103-12.075 16.422-7.055 25.383l.07.125c4.514 8.058 14.23 11.588 22.884 8.359 23.298-8.69 68.885-22.386 98.52-9.929 25.104 10.553 47.903 37.044 61.903 56.159 1.728-1.463 3.462-2.918 5.193-4.377-7.461-30.529-14.932-61.055-22.556-91.543z" fill="#d67f4f"/><path d="m431.934 204.005c-1.731 1.452-3.472 2.915-5.192 4.378-8.005-10.941-18.893-24.281-31.441-35.675-5.305-15.916-11.847-28.577-19.233-37.004-11.796-13.434-40.362-23.797-77.171-28.134 24.848-7.458 48.109-10.106 66.766-10.786 10.189-.371 25.476 4.76 43.711 15.679 7.623 30.483 15.102 61.007 22.56 91.542z" fill="#c76d3d"/><path d="m390.279 313.368c-2.235 16.748-12.434 75.923-51.196 144.299-1.952 3.443.511 7.712 4.468 7.712h155.099c2.546 0 4.72-1.863 5.098-4.381 34.024-226.375-45.574-372.863-86.025-390.735-29.235-12.917-72.454-26.524-122.991-23.113-10.735.725-18.9 9.939-18.277 20.68l.009.15c.562 9.659 8.097 17.434 17.729 18.358 25.929 2.486 75.148 10.465 97.359 35.776 19.729 22.483 29.048 60.324 33.208 84.749 2.184 12.825-8.471 24.24-21.398 22.775-22.493-2.551-57.382-11.437-91.16-39.935-7.928-6.689-19.072-8.039-28.419-3.542l-1.029.495c-14.583 7.018-19.449 25.34-10.364 38.733 18.833 27.763 55.699 69.205 113.92 82.299 2.594.584 4.32 3.044 3.969 5.68z" fill="#e09977"/><path d="m498.652 465.382h-33.762c35.716-228.865-44.648-377.129-85.361-395.116-22.046-9.745-52.045-19.883-87.143-22.818.762-.144 1.545-.247 2.339-.299 50.541-3.41 93.767 10.199 122.993 23.117 40.452 17.872 120.051 164.36 86.032 390.735-.379 2.518-2.553 4.381-5.098 4.381z" fill="#da875d"/><g><path d="m431.8 318.532c.124 4.265-3.224 7.819-7.489 7.953-1.01.031-2.04.041-3.08.041-11.116 0-24.189-1.607-32.574-2.843.773-4.327 1.288-7.798 1.617-10.312.361-2.637-1.37-5.099-3.966-5.687-.031-.01-.051-.01-.082-.021 7.314 1.185 24.941 3.76 37.622 3.379 4.244-.102 7.829 3.225 7.952 7.49z" fill="#da875d"/></g></g><g><g><g><path d="m244.547 67.712h-155.959c-4.267 0-7.726-3.459-7.726-7.726 0-4.268 3.459-7.726 7.726-7.726h155.959c4.267 0 7.726 3.459 7.726 7.726 0 4.268-3.459 7.726-7.726 7.726z" fill="#c9f0fd"/></g><g><path d="m189.966 229.436h-101.378c-4.267 0-7.726-3.459-7.726-7.726 0-4.268 3.459-7.726 7.726-7.726h101.378c4.267 0 7.726 3.459 7.726 7.726.001 4.267-3.459 7.726-7.726 7.726z" fill="#c9f0fd"/></g><g><path d="m227.174 197.99h-74.323c-4.267 0-7.726-3.459-7.726-7.726s3.459-7.726 7.726-7.726h74.323c4.267 0 7.726 3.459 7.726 7.726s-3.459 7.726-7.726 7.726z" fill="#c9f0fd"/></g><circle cx="88.588" cy="140.848" fill="#f2fbff" r="88.588"/><path d="m177.179 140.848c0 48.927-39.669 88.586-88.596 88.586-7.123 0-14.051-.842-20.692-2.443 38.94-9.309 67.884-44.339 67.884-86.143s-28.944-76.834-67.884-86.143c6.641-1.601 13.569-2.443 20.692-2.443 48.927.001 88.596 39.66 88.596 88.586z" fill="#dff6fd"/></g><g><path d="m200.413 101.835h-64.637c-4.267 0-7.726-3.459-7.726-7.726 0-4.268 3.459-7.726 7.726-7.726h64.637c4.267 0 7.726 3.459 7.726 7.726.001 4.267-3.458 7.726-7.726 7.726z" fill="#c9f0fd"/></g><g id="XMLID_343_"><path d="m57.319 189.744h-.105c-4.267 0-7.726-3.459-7.726-7.726s3.459-7.726 7.726-7.726h.105c4.267 0 7.726 3.459 7.726 7.726s-3.458 7.726-7.726 7.726z" fill="#c9f0fd"/></g><g id="XMLID_375_"><path d="m122.207 189.957h-.105c-4.267 0-7.726-3.459-7.726-7.726 0-4.268 3.459-7.726 7.726-7.726h.105c4.267 0 7.726 3.459 7.726 7.726.001 4.267-3.459 7.726-7.726 7.726z" fill="#c9f0fd"/></g><g id="XMLID_376_"><path d="m64.012 164.153h-.105c-4.267 0-7.726-3.459-7.726-7.726s3.459-7.726 7.726-7.726h.105c4.267 0 7.726 3.459 7.726 7.726s-3.459 7.726-7.726 7.726z" fill="#c9f0fd"/></g></g></g></svg>