<svg id="Capa_1" enable-background="new 0 0 512 512" height="512" viewBox="0 0 512 512" width="512" xmlns="http://www.w3.org/2000/svg"><g><circle cx="256" cy="138.864" fill="#f2fbff" r="87.089"/><path d="m343.086 138.861c0 48.099-38.988 87.096-87.086 87.096-20.775 0-39.845-7.275-54.808-19.413 7.547 2.129 15.508 3.269 23.742 3.269 48.099 0 87.086-38.998 87.086-87.096 0-27.324-12.582-51.711-32.278-67.673 36.555 10.342 63.344 43.952 63.344 83.817z" fill="#dff6fd"/><path d="m114.736 158.799 22.077-31.133c2.432-3.429 1.623-8.179-1.806-10.611-3.429-2.431-8.18-1.624-10.612 1.807l-16.735 23.598-12.394-28.621c-1.67-3.857-6.151-5.63-10.009-3.96-3.857 1.671-5.63 6.153-3.96 10.01l7.599 17.549-20.523-4.189-4.78-15.815 7.034-11.191c2.237-3.559 1.166-8.258-2.393-10.495-3.559-2.238-8.258-1.166-10.495 2.393l-5.317 8.458-7.02-3.245c-3.817-1.767-8.339-.101-10.103 3.715s-.101 8.339 3.715 10.103l9.993 4.62 6.108 20.208c.809 2.678 3.023 4.696 5.764 5.256l35.398 7.226 43.623 100.735c1.244 2.872 4.046 4.589 6.989 4.589 1.009 0 2.035-.202 3.021-.628 3.857-1.671 5.63-6.153 3.96-10.01z" fill="#c76d3d"/><circle cx="256" cy="338.77" fill="#f2fbff" r="153.862"/><path d="m205.754 209.258v29.828c0 3.373 3.246 5.796 6.48 4.836l31.432-9.328c1.727 3.08 5.019 5.165 8.802 5.165h7.063c3.753 0 7.021-2.054 8.759-5.094l31.475 9.341c3.234.96 6.48-1.463 6.48-4.836v-29.911h-100.491z" fill="#dff6fd"/><path d="m409.861 338.772c0 84.977-68.884 153.861-153.861 153.861-57.906 0-108.336-31.985-134.6-79.256 25.134 17.849 55.858 28.353 89.034 28.353 84.967 0 153.861-68.884 153.861-153.861 0-27.071-6.992-52.518-19.282-74.615 39.24 27.878 64.848 73.707 64.848 125.518z" fill="#dff6fd"/><g><path d="m428.078 504.388c-40.838-30.896-102.757-50.603-172.078-50.603s-131.241 19.707-172.078 50.604h344.156z" fill="#f2fbff"/><path d="m428.073 504.388h-62.144c-34.618-26.193-84.402-44.345-140.997-49.259 10.151-.888 20.523-1.342 31.067-1.342 69.318.001 131.24 19.706 172.074 50.601z" fill="#c9f0fd"/><path d="m489.246 496.777h-409.527l4.626-29.208c.65-4.151-2.182-8.048-6.333-8.707-4.151-.65-8.048 2.172-8.708 6.333l-3.72 23.49-2.461-6.075c-1.583-3.887-6.018-5.775-9.915-4.192s-5.775 6.018-4.202 9.915l3.423 8.444h-29.675c-4.204 0-7.611 3.407-7.611 7.611s3.408 7.612 7.611 7.612h466.491c4.204 0 7.611-3.407 7.611-7.612s-3.406-7.611-7.61-7.611z" fill="#dff6fd"/></g><g><path d="m334.2 109.696c3.855 1.116 7.969-.188 10.55-3.261.848-1.01 1.678-2.045 2.489-3.104 21.043-27.49 23.204-63.327 8.365-91.261-.67-1.262-1.867-2.178-3.261-2.496-30.839-7.031-64.873 4.408-85.916 31.898-1.007 1.315-1.97 2.65-2.89 4.003-2.022 2.973-2.282 6.805-.707 10.037 3.49 7.159 11.334 20.316 25.962 31.718 16.641 12.972 35.807 19.687 45.408 22.466z" fill="#fb6a3b"/><path d="m347.243 103.334c-.807 1.049-1.634 2.078-2.482 3.077-2.583 3.087-6.71 4.399-10.574 3.279-3.774-1.1-9.041-2.805-15.054-5.257.293-.363.585-.726.868-1.1 21.035-27.492 23.196-63.332 8.364-91.265-.67-1.261-1.866-2.177-3.258-2.494-1.483-.338-2.974-.634-4.47-.884 10.514-1.754 21.293-1.49 31.71.883 1.394.318 2.592 1.235 3.263 2.498 14.829 27.933 12.667 63.773-8.367 91.263z" fill="#fb5532"/><g><circle cx="372.734" cy="17.687" fill="#fcb44d" r="17.686"/></g><g><path d="m386.78 28.44c-5.94 7.75-17.04 9.23-24.8 3.29-.02-.02-.04-.03-.06-.05 4.04-.82 7.81-3.05 10.51-6.58 5.91-7.73 4.47-18.78-3.23-24.74 4.83-.99 10.05.05 14.28 3.28 7.76 5.94 9.24 17.04 3.3 24.8z" fill="#fca62f"/></g></g><g><g id="XMLID_440_"><path d="m288.717 125.052h-.104c-4.204 0-7.611-3.407-7.611-7.611s3.407-7.611 7.611-7.611h.104c4.204 0 7.612 3.407 7.612 7.611s-3.408 7.611-7.612 7.611z" fill="#c76d3d"/></g><g id="XMLID_444_"><path d="m223.386 125.052h-.103c-4.204 0-7.611-3.407-7.611-7.611s3.408-7.611 7.611-7.611h.103c4.204 0 7.611 3.407 7.611 7.611s-3.408 7.611-7.611 7.611z" fill="#c76d3d"/></g></g><g><path d="m219.811 154.745c-2.993 0-5.831-1.776-7.041-4.716-1.601-3.887.253-8.336 4.14-9.937l34.306-14.126c3.886-1.599 8.334.253 9.937 4.141 1.6 3.887-.254 8.336-4.141 9.937l-34.306 14.126c-.948.39-1.93.575-2.895.575z" fill="#fb5532"/></g><g><path d="m273.021 163.448c-3.395 0-6.491-2.289-7.369-5.731l-1.776-6.958c-1.04-4.072 1.419-8.217 5.493-9.257 4.07-1.041 8.218 1.419 9.257 5.493l1.776 6.958c1.04 4.072-1.419 8.217-5.493 9.257-.632.161-1.265.238-1.888.238z" fill="#c76d3d"/></g><g><g><g fill="#23f1a8"><path d="m249.406 187.448-37.171-11.031c-3.234-.96-6.48 1.463-6.48 4.836v38.134c0 3.373 3.246 5.796 6.48 4.836l37.171-11.031z"/><path d="m262.594 187.531 37.171-11.031c3.234-.96 6.48 1.463 6.48 4.836v38.134c0 3.373-3.246 5.796-6.48 4.836l-37.171-11.031z"/></g><path d="m259.531 220.061h-7.063c-5.572 0-10.09-4.517-10.09-10.09v-19.301c0-5.572 4.517-10.09 10.09-10.09h7.063c5.572 0 10.09 4.517 10.09 10.09v19.301c0 5.572-4.517 10.09-10.09 10.09z" fill="#20b69f"/></g><g><circle cx="253.147" cy="264.896" fill="#fb5532" r="16.474"/></g><g><circle cx="253.147" cy="328.232" fill="#fb5532" r="16.474"/></g></g><g><path d="m469.217 184.208c-1.82-3.789-6.366-5.387-10.157-3.566l-14.603 7.013-3.253-8.888 5.88-12.542c1.784-3.807.145-8.338-3.661-10.123-3.806-1.784-8.339-.146-10.123 3.661l-7.225 15.412c-.861 1.837-.953 3.942-.256 5.847l4.851 13.253-14.206 6.822c-.004.002-.008.004-.013.006l-82.217 39.482c-3.789 1.82-5.386 6.367-3.566 10.157 1.309 2.726 4.031 4.318 6.866 4.318 1.105 0 2.227-.242 3.29-.752l78.922-37.899 27.934 13.138c1.048.493 2.15.725 3.235.725 2.857 0 5.596-1.617 6.893-4.374 1.789-3.804.156-8.338-3.648-10.128l-16.714-7.861 28.206-13.545c3.788-1.819 5.384-6.366 3.565-10.156z" fill="#c76d3d"/></g></g></svg>