<svg id="Capa_1" enable-background="new 0 0 512 512" height="512" viewBox="0 0 512 512" width="512" xmlns="http://www.w3.org/2000/svg"><g><path d="m2.277 10.41v19.472c0 2.761 1.097 5.409 3.049 7.361l43.674 43.675c.966.966 1.509 2.276 1.509 3.642v138.527c0 2.761 1.097 5.409 3.049 7.361l40.769 40.769c.671.671 1.144 1.515 1.366 2.438l53.462 222.428c2.243 9.334 10.592 15.913 20.191 15.913h1.472c11.469 0 20.766-9.297 20.766-20.766v-395.82c0-5.522 2.194-10.818 6.098-14.722l18.193-18.193c3.905-3.905 9.2-6.098 14.722-6.098h54.55c11.499 0 20.82 9.322 20.82 20.82v82.702c0 11.044 4.387 21.635 12.196 29.444l23.192 23.192c.966.966 1.509 2.276 1.509 3.642v90.153c0 1.366-.543 2.676-1.509 3.642l-25.571 25.571c-1.952 1.952-3.049 4.6-3.049 7.361v148.309c0 11.469 9.297 20.766 20.766 20.766 9.212 0 17.324-6.069 19.923-14.908l51.406-174.82c.28-.954.423-1.943.423-2.937v-121.212c0-1.366.543-2.676 1.509-3.642l41.738-41.738c1.952-1.952 3.049-4.6 3.049-7.361v-84.073c0-2.761 1.097-5.409 3.049-7.361l14.921-14.921c1.952-1.952 4.6-3.049 7.361-3.049h22.431c5.749 0 10.41-4.661 10.41-10.41v-15.157c0-5.749-4.661-10.41-10.41-10.41h-486.624c-5.749 0-10.41 4.661-10.41 10.41z" fill="#b3cbea"/><path d="m509.723 10.415v15.154c0 5.746-4.658 10.405-10.405 10.405h-22.438c-2.761 0-5.408 1.102-7.366 3.049l-14.917 14.928c-1.947 1.947-3.049 4.595-3.049 7.355v84.073c0 2.761-1.092 5.408-3.05 7.366l-41.738 41.738c-.966.966-1.509 2.276-1.509 3.642v121.21c0 .999-.144 1.988-.422 2.936l-51.406 174.822c-1.298 4.419-3.977 8.149-7.479 10.765-3.513 2.627-7.84 4.141-12.445 4.141-9.642 0-17.75-6.572-20.089-15.484l51.241-174.245c.278-.948.422-1.937.422-2.936v-121.21c0-1.366.543-2.676 1.509-3.642l41.738-41.738c1.957-1.957 3.05-4.605 3.05-7.366v-84.072c0-2.761 1.102-5.408 3.049-7.355l14.917-14.928c1.957-1.947 4.605-3.049 7.366-3.049h22.427c5.752 0 10.415-4.663 10.415-10.415v-15.144c.002-5.759-4.665-10.415-10.413-10.415h40.177c5.752 0 10.415 4.663 10.415 10.415z" fill="#84aee1"/><path d="m230.595 56.392c-5.522 0-10.817 2.194-14.721 6.099l-18.193 18.193c-3.904 3.904-6.099 9.199-6.099 14.721v395.826c0 11.466-9.292 20.769-20.768 20.769h-1.473c-8.643 0-16.287-5.347-19.347-13.238.917-2.339 1.411-4.873 1.411-7.531v-395.826c0-5.522 2.194-10.817 6.099-14.721l18.193-18.193c3.904-3.904 9.199-6.099 14.721-6.099z" fill="#84aee1"/><g><path d="m420.705 123.107v57.433l-13.938 13.938c-.968.968-1.514 2.277-1.514 3.647v-75.018c0-4.265 3.461-7.726 7.726-7.726 4.265-.001 7.726 3.461 7.726 7.726z" fill="#75a3d1"/></g><g><path d="m141.217 163.974v81.456c0 2.05-.814 4.018-2.256 5.47l-38.148 38.137c-.371.371-.773.7-1.185.979l-3.935-16.359c-.082-.34-.206-.68-.361-.989l30.432-30.431v-78.263c0-4.275 3.461-7.726 7.726-7.726 4.276-.001 7.727 3.451 7.727 7.726z" fill="#84aee1"/></g><g><path d="m149.335 68.291-25.785 25.775c-1.452 1.452-3.41 2.266-5.46 2.266h-67.58v-11.775c0-1.36-.546-2.678-1.514-3.636l-.041-.041h65.932l23.519-23.519c3.018-3.018 7.912-3.018 10.93 0 3.007 3.018 3.007 7.911-.001 10.93z" fill="#84aee1"/></g><g><path d="m352.301 326.166c-1.514 1.504-3.492 2.256-5.46 2.256-1.978 0-3.956-.752-5.47-2.256l-8.097-8.097 8.087-8.077c.958-.968 1.504-2.277 1.504-3.636v-.556l9.436 9.436c3.019 3.018 3.019 7.911 0 10.93z" fill="#84aee1"/></g><g><path d="m354.671 64.118c0 4.275-3.462 7.726-7.726 7.726h-41.681c-2.359-8.901-10.467-15.453-20.119-15.453h61.801c4.263.001 7.725 3.462 7.725 7.727z" fill="#84aee1"/></g><g id="XMLID_446_"><path d="m362.37 130.833h-.106c-4.268 0-7.726-3.459-7.726-7.726 0-4.268 3.459-7.726 7.726-7.726h.106c4.268 0 7.726 3.459 7.726 7.726.001 4.267-3.458 7.726-7.726 7.726z" fill="#84aee1"/></g><g id="XMLID_447_"><path d="m346.998 148.346h-.106c-4.268 0-7.726-3.459-7.726-7.726s3.459-7.726 7.726-7.726h.106c4.268 0 7.726 3.459 7.726 7.726s-3.458 7.726-7.726 7.726z" fill="#84aee1"/></g><g id="XMLID_457_"><path d="m82.028 217.235c-.026 0-.05 0-.075 0l-.106-.001c-4.268-.041-7.693-3.533-7.653-7.8.04-4.241 3.492-7.653 7.724-7.653h.075l.106.001c4.267.041 7.693 3.533 7.653 7.8-.04 4.242-3.491 7.653-7.724 7.653z" fill="#84aee1"/></g></g></svg>