<svg id="Capa_1" enable-background="new 0 0 512 512" height="512" viewBox="0 0 512 512" width="512" xmlns="http://www.w3.org/2000/svg"><g><g><g><path d="m223.737 122.383h61.684v336.773h-61.684z" fill="#c76d3d"/><path d="m285.421 239.204v119.612c-8.261-1.167-14.614-8.261-14.614-16.837v-31.857h-47.07v-59.542h47.07v-1.228c0-5.602 4.547-10.149 10.159-10.149h4.455z" fill="#aa5e33"/><path d="m223.733 122.385h61.686v60.407h-61.686z" fill="#aa5e33"/><path d="m494.067 93.084-46.234 63.093c-2.149 2.922-5.547 4.65-9.174 4.65h-362.561c-6.275 0-11.368-5.093-11.368-11.368v-126.187c0-6.275 5.093-11.368 11.368-11.368h362.562c3.627 0 7.025 1.728 9.174 4.65l46.234 63.093c2.932 4.001 2.932 9.435-.001 13.437z" fill="#fcb44d"/><g><path d="m239.616 11.904v24.339c0 14.187-11.448 25.703-25.612 25.794-14.29.102-25.988 11.516-25.988 25.806v72.983h-38.083v-45.086c0-10.947-8.867-19.815-19.814-19.815h-42.676c-8.39 0-16.2-2.501-22.713-6.798v-65.855c0-6.275 5.093-11.368 11.368-11.368z" fill="#fca62f"/></g><path d="m320.511 74.622v21.975c0 6.278-5.09 11.368-11.368 11.368h-122.4c-6.278 0-11.368-5.09-11.368-11.368v-21.975c0-6.278 5.09-11.368 11.368-11.368h122.4c6.279 0 11.368 5.09 11.368 11.368z" fill="#fb6a3b"/><g><path d="m206.228 63.254c-10.527 3.308-18.212 13.005-18.212 24.589v20.121h-1.273c-6.278 0-11.368-5.09-11.368-11.368v-21.974c0-6.278 5.09-11.368 11.368-11.368z" fill="#fb5532"/></g><path d="m494.067 93.084-46.234 63.093c-2.149 2.922-5.547 4.65-9.174 4.65h-44.29c3.626 0 7.025-1.728 9.174-4.65l46.234-63.093c2.933-4.001 2.933-9.435 0-13.437l-46.234-63.093c-2.149-2.922-5.548-4.65-9.174-4.65h44.29c3.627 0 7.025 1.728 9.174 4.65l46.234 63.093c2.933 4.001 2.933 9.435 0 13.437z" fill="#fca62f"/><g><g><path d="m228.246 0h-170.773c-6.278 0-11.368 5.09-11.368 11.368v18.598c0 22.832 18.509 41.34 41.34 41.34h42.678c10.941 0 19.811 8.869 19.811 19.81v85.372c0 10.516 8.525 19.042 19.042 19.042 10.516 0 19.041-8.525 19.041-19.042v-113.265c0-14.29 11.693-25.7 25.983-25.8 14.164-.099 25.615-11.611 25.615-25.798v-.257c-.001-6.278-5.091-11.368-11.369-11.368z" fill="#f2fbff"/></g></g></g><g><path d="m433.258 504.388c-42.067-31.827-105.85-52.127-177.258-52.127s-135.192 20.3-177.258 52.127z" fill="#f2fbff"/><path d="m433.254 504.388h-64.015c-35.661-26.982-86.943-45.68-145.241-50.742 10.456-.915 21.141-1.382 32.002-1.382 71.405 0 135.191 20.299 177.254 52.124z" fill="#c9f0fd"/></g></g><path d="m378.91 239.001v39.245c0 5.602-4.547 10.149-10.149 10.149h-225.523c-5.602 0-10.149-4.547-10.149-10.149v-39.245c0-5.602 4.547-10.149 10.149-10.149h225.523c5.603 0 10.149 4.547 10.149 10.149z" fill="#fcb44d"/><path d="m378.91 239.001v39.245c0 5.602-4.547 10.149-10.149 10.149h-29.705c5.602 0 10.149-4.547 10.149-10.149v-39.245c0-5.602-4.547-10.149-10.149-10.149h29.705c5.603 0 10.149 4.547 10.149 10.149z" fill="#fca62f"/><path d="m350.9 228.852v18.349c0 6.363-2.578 12.118-6.749 16.289s-9.925 6.749-16.288 6.749c-11.052 0-20.277 7.774-22.52 18.156h-34.536v-59.542h80.093z" fill="#fca62f"/><g><path d="m271.822 266.233h-94.928c-4.204 0-7.611-3.407-7.611-7.612 0-4.204 3.407-7.611 7.611-7.611h94.928c4.204 0 7.612 3.407 7.612 7.611-.001 4.205-3.408 7.612-7.612 7.612z" fill="#fb6a3b"/></g><g><g><path d="m270.811 227.625v92.627c0 9.391 7.613 17.005 17.005 17.005 9.391 0 17.005-7.613 17.005-17.005v-46.32c0-12.724 10.315-23.039 23.039-23.039 12.724 0 23.039-10.315 23.039-23.039v-.229c0-5.607-4.545-10.152-10.152-10.152h-59.784c-5.607 0-10.152 4.545-10.152 10.152z" fill="#f2fbff"/></g></g><g><path d="m355.29 115.889c1.487 1.486 3.434 2.229 5.383 2.229 1.947 0 3.896-.743 5.383-2.229l.374-.374c1.331.971 2.901 1.466 4.476 1.466 1.947 0 3.896-.743 5.383-2.23 2.687-2.687 2.936-6.881.763-9.857l8.52-8.519 8.52 8.519c-2.173 2.977-1.924 7.17.763 9.857 1.487 1.487 3.434 2.23 5.383 2.23 1.574 0 3.145-.495 4.476-1.466l.374.374c1.487 1.486 3.435 2.229 5.383 2.229 1.947 0 3.896-.743 5.383-2.229 2.972-2.973 2.972-7.792 0-10.765l-.373-.373c2.173-2.977 1.924-7.17-.764-9.857-2.688-2.688-6.881-2.937-9.858-.765l-8.52-8.52 19.515-19.514c2.972-2.973 2.972-7.792 0-10.765-2.972-2.97-7.791-2.972-10.765 0l-19.519 19.515-19.514-19.515c-2.973-2.971-7.792-2.971-10.765 0-2.972 2.973-2.972 7.792 0 10.765l19.515 19.514-8.52 8.52c-2.976-2.172-7.17-1.924-9.858.765-2.687 2.687-2.936 6.88-.764 9.857l-.373.373c-2.973 2.973-2.973 7.792-.001 10.765z" fill="#fb6a3b"/><path d="m496.268 496.777h-422.121l4.802-30.353c.657-4.152-2.176-8.051-6.329-8.708-4.147-.651-8.051 2.177-8.708 6.329l-3.961 25.035-2.851-7.036c-1.579-3.895-6.015-5.776-9.913-4.196-3.896 1.579-5.775 6.016-4.196 9.913l3.652 9.016h-30.911c-4.204 0-7.611 3.407-7.611 7.611s3.407 7.612 7.611 7.612h480.535c4.204 0 7.612-3.407 7.612-7.612s-3.407-7.611-7.611-7.611z" fill="#c9f0fd"/></g></g></svg>