<svg id="Capa_1" enable-background="new 0 0 512 512" height="512" viewBox="0 0 512 512" width="512" xmlns="http://www.w3.org/2000/svg"><g><g><g><path d="m110.451 127.265h291.099v274h-291.099z" fill="#0857a0"/><path d="m110.451 127.265h291.099v29.156h-291.099z" fill="#05447f"/><path d="m352.465 127.265h49.084v274h-49.084z" fill="#05447f"/><path d="m390.82 127.267h73.287v273.997h-73.287z" fill="#fc7d4b"/><path d="m424.96 127.267h39.149v273.997h-39.149z" fill="#fb6a3b"/><path d="m390.82 127.267h73.287v29.154h-73.287z" fill="#fb6a3b"/><path d="m47.893 127.267h73.287v273.997h-73.287z" fill="#fc7d4b"/><path d="m47.893 127.267h73.287v29.154h-73.287z" fill="#fb6a3b"/></g><g><path d="m343.628 328.794c-.484-3.735-4.928-5.455-7.797-3.016-1.509 1.283-3.063 2.516-4.657 3.696-3.522 2.608-8.443-.053-8.233-4.43 2.832-59.016-41.608-104.005-80.335-104.182-16.153-.074 20.87 39.059-21.304 79.084-2.991 2.839-5.684 5.569-8.11 8.193-2.239 2.423-6.184 2.122-8.02-.619-4.275-6.382-7.742-13.35-10.251-20.762-1.198-3.538-5.835-4.343-8.158-1.418-12.414 15.627-19.642 35.55-19.102 57.177 1.145 45.811 37.734 83.527 83.495 85.969 50.999 2.721 93.21-37.826 93.21-88.232-.001-3.883-.252-7.709-.738-11.46z" fill="#fb6a3b"/><path d="m344.367 340.255c0 48.33-38.81 87.597-86.961 88.347-4.996.079-9.892-.257-14.666-.965 42.569-6.347 75.218-43.055 75.218-87.382 0-3.895-.257-7.726-.743-11.493-.486-3.745-4.917-5.432-7.798-2.988-1.518 1.293-3.08 2.534-4.684 3.721-3.501 2.592-8.414-.075-8.204-4.426 2.312-47.961-26.592-86.66-58.292-99.585-.036-2.988 1.036-4.639 4.367-4.624 38.73.176 83.168 45.17 80.336 104.184-.21 4.377 4.711 7.037 8.233 4.43 1.595-1.181 3.149-2.414 4.66-3.7 2.87-2.44 7.314-.717 7.795 3.019.484 3.758.739 7.578.739 11.462z" fill="#fb5532"/><g><path d="m289.936 387.581c8.86-35.254-2.081-60.513-10.44-73.509-2.61-4.058-8.671-3.52-10.514.94-3.69 8.928-12.401 21.864-32.967 33.183-23.621 13-23.272 30.945-21.499 39.387h75.42z" fill="#fcc16d"/><path d="m289.938 387.583h-20.91c6.97-27.725 1.688-49.271-4.956-63.531 2.222-3.274 3.797-6.34 4.908-9.044 1.842-4.456 7.903-4.997 10.517-.939 8.356 13.002 19.301 38.261 10.441 73.514z" fill="#fcb44d"/></g></g><g><path d="m501.62 464.718h-491.24c-5.733 0-10.38-4.647-10.38-10.38v-57.734c0-5.733 4.647-10.38 10.38-10.38h491.24c5.733 0 10.38 4.647 10.38 10.38v57.734c0 5.732-4.647 10.38-10.38 10.38z" fill="#23f1a8"/><path d="m512 396.599v57.738c0 5.73-4.65 10.38-10.38 10.38h-39.443c5.73 0 10.38-4.65 10.38-10.38v-57.738c0-5.73-4.65-10.38-10.38-10.38h39.443c5.73 0 10.38 4.65 10.38 10.38z" fill="#27e19d"/></g><g><path d="m494.621 73.316v52.199c0 5.687-4.615 10.302-10.302 10.302h-456.638c-5.687 0-10.302-4.615-10.302-10.302v-52.199z" fill="#fcb44d"/><g fill="#fb9927"><path d="m494.621 73.316v52.199c0 5.687-4.615 10.302-10.302 10.302h-39.147c5.687 0 10.302-4.615 10.302-10.302v-52.199z"/><path d="m17.379 73.316h477.242v31.019h-477.242z"/></g></g><path d="m501.698 83.729h-491.396c-5.69 0-10.302-4.612-10.302-10.301v-15.844c0-5.69 4.612-10.302 10.302-10.302h491.396c5.69 0 10.302 4.612 10.302 10.302v15.843c0 5.69-4.612 10.302-10.302 10.302z" fill="#23f1a8"/><path d="m512 57.585v15.844c0 5.687-4.615 10.302-10.302 10.302h-39.147c5.687 0 10.302-4.615 10.302-10.302v-15.844c0-5.687-4.615-10.302-10.302-10.302h39.147c5.687 0 10.302 4.616 10.302 10.302z" fill="#27e19d"/></g><g><g fill="#fb5532"><path d="m97.867 190.017c0 4.265-3.461 7.726-7.726 7.726h-4.471v16.936c0 4.265-3.461 7.726-7.726 7.726s-7.726-3.461-7.726-7.726v-16.936h-22.325v-15.453h42.248c4.265 0 7.726 3.452 7.726 7.727z"/><path d="m121.18 263.613v15.453h-46.327c-4.265 0-7.726-3.451-7.726-7.726 0-4.265 3.461-7.726 7.726-7.726h12.352v-11.044c0-4.265 3.451-7.726 7.726-7.726 4.265 0 7.726 3.462 7.726 7.726v11.044h18.523z"/><path d="m78.809 332.306c0 4.265-3.461 7.726-7.726 7.726h-23.19v-15.453h23.189c4.265 0 7.727 3.451 7.727 7.727z"/><path d="m451.559 203.471c0 4.265-3.451 7.726-7.726 7.726h-53.013v-15.453h25.209c-.155-.608-.247-1.236-.247-1.896v-17.801h-24.962v-15.453h41.001c4.265 0 7.726 3.461 7.726 7.726 0 4.275-3.461 7.726-7.726 7.726h-.587v17.801c0 .659-.093 1.288-.247 1.896h12.846c4.275.002 7.726 3.453 7.726 7.728z"/><path d="m464.107 330.091v15.453h-24.91v7.984c0 4.265-3.451 7.726-7.726 7.726-4.265 0-7.726-3.461-7.726-7.726v-7.984h-7.376c-4.275 0-7.726-3.451-7.726-7.726 0-4.265 3.451-7.726 7.726-7.726h47.738z"/><path d="m439.547 276.016c0 4.265-3.461 7.726-7.726 7.726h-41.001v-15.452h18.78v-15.721c0-4.265 3.461-7.726 7.726-7.726s7.726 3.462 7.726 7.726v15.721h6.768c4.266 0 7.727 3.461 7.727 7.726z"/></g><path d="m29.711 432.339-.106-.001c-.025 0-.05 0-.075 0-4.232 0-7.684 3.411-7.724 7.653-.041 4.267 3.385 7.759 7.652 7.8l.106.001h.075c4.232 0 7.684-3.411 7.724-7.653.041-4.267-3.385-7.759-7.652-7.8z" fill="#27e19d"/><path d="m482.542 432.339-.106-.001c-.025 0-.05 0-.075 0-4.232 0-7.684 3.411-7.724 7.653-.041 4.267 3.385 7.759 7.652 7.8l.106.001h.075c4.232 0 7.684-3.411 7.724-7.653.041-4.267-3.385-7.759-7.652-7.8z" fill="#20d38a"/><path d="m29.637 403.15h-.106c-4.267 0-7.726 3.459-7.726 7.726s3.459 7.726 7.726 7.726h.106c4.267 0 7.726-3.459 7.726-7.726s-3.459-7.726-7.726-7.726z" fill="#27e19d"/><path d="m482.363 418.603h.106c4.267 0 7.726-3.459 7.726-7.726s-3.459-7.726-7.726-7.726h-.106c-4.267 0-7.726 3.459-7.726 7.726s3.459 7.726 7.726 7.726z" fill="#20d38a"/><path d="m193.302 229.741c-2.813-3.208-7.696-3.53-10.903-.714-3.208 2.813-3.529 7.695-.715 10.903l6.696 7.636c1.527 1.741 3.664 2.632 5.812 2.632 1.808 0 3.625-.631 5.091-1.918 3.208-2.813 3.529-7.695.715-10.903z" fill="#fb6a3b"/><path d="m320.381 195.281-7.636 6.696c-3.208 2.813-3.529 7.695-.715 10.903 1.527 1.741 3.664 2.632 5.812 2.632 1.808 0 3.625-.631 5.091-1.917l7.636-6.696c3.208-2.813 3.529-7.695.715-10.903-2.813-3.209-7.695-3.531-10.903-.715z" fill="#fb6a3b"/><path d="m270.169 173.731-9.6 3.315c-4.033 1.392-6.174 5.792-4.781 9.825 1.105 3.198 4.099 5.206 7.303 5.206.837 0 1.687-.137 2.523-.426l9.6-3.315c4.033-1.392 6.174-5.792 4.781-9.825s-5.791-6.174-9.826-4.78z" fill="#fb6a3b"/></g></g></svg>