<svg id="Capa_1" enable-background="new 0 0 512 512" height="512" viewBox="0 0 512 512" width="512" xmlns="http://www.w3.org/2000/svg"><g><path d="m256 93.025c2.633 0 5.078-1.361 6.467-3.598 4.298-6.925 25.739-42.227 25.739-57.221 0-17.758-14.447-32.206-32.206-32.206s-32.206 14.448-32.206 32.206c0 14.994 21.441 50.296 25.739 57.221 1.389 2.237 3.834 3.598 6.467 3.598zm0-77.802c9.365 0 16.983 7.618 16.983 16.983 0 6.219-8.579 23.558-16.984 38.301-8.404-14.738-16.982-32.075-16.982-38.301 0-9.365 7.618-16.983 16.983-16.983z" fill="#fb5532"/><path d="m328.696 156.012h-145.392v-50.301c0-11.21 9.087-20.297 20.297-20.297h104.797c11.21 0 20.297 9.087 20.297 20.297v50.301z" fill="#1475cb"/><path d="m328.695 105.708v50.307h-34.505v-50.307c0-11.204-9.083-20.297-20.297-20.297h34.505c11.214 0 20.297 9.093 20.297 20.297z" fill="#0e6ac2"/><path d="m444.105 323.894c0 3.725-.112 7.429-.325 11.093h-375.561c-.213-3.664-.325-7.368-.325-11.093 0-103.882 84.214-188.105 188.105-188.105s188.106 84.224 188.106 188.105z" fill="#23f1a8"/><path d="m444.105 323.894c0 3.725-.112 7.429-.325 11.093h-35.175c.203-3.674.315-7.368.315-11.093 0-97.945-74.867-178.424-170.508-187.293 5.795-.538 11.661-.812 17.588-.812 103.892 0 188.105 84.224 188.105 188.105z" fill="#27e19d"/><path d="m444.105 323.895c0 103.888-84.218 188.105-188.105 188.105s-188.105-84.217-188.105-188.105z" fill="#17998c"/><path d="m444.105 323.894c0 103.892-84.213 188.106-188.105 188.106-5.927 0-11.793-.274-17.588-.812 95.641-8.87 170.508-89.339 170.508-187.294z" fill="#138b80"/><path d="m444.105 323.894c0 17.304-2.334 34.059-6.708 49.972h-44.613c-20.439 55.757-74.034 95.641-136.784 95.641s-116.344-39.884-136.784-95.641h-44.613c-4.374-15.913-6.708-32.669-6.708-49.972z" fill="#138b80"/><path d="m447.302 353.573h-382.604c-5.605 0-10.149-4.544-10.149-10.149v-39.057c0-5.605 4.544-10.149 10.149-10.149h382.605c5.605 0 10.149 4.544 10.149 10.149v39.057c-.001 5.605-4.545 10.149-10.15 10.149z" fill="#fb5532"/><path d="m457.451 304.368v39.052c0 5.612-4.547 10.149-10.149 10.149h-35.185c5.612 0 10.149-4.537 10.149-10.149v-39.052c0-5.602-4.537-10.149-10.149-10.149h35.185c5.602.001 10.149 4.547 10.149 10.149z" fill="#ec462e"/><circle cx="256" cy="323.895" fill="#fcb44d" r="125.32"/><path d="m381.316 323.894c0 69.214-56.102 125.316-125.316 125.316-6.536 0-12.95-.497-19.211-1.461 60.09-9.245 106.104-61.176 106.104-123.854s-46.014-114.609-106.104-123.854c6.262-.964 12.676-1.461 19.211-1.461 69.214-.001 125.316 56.101 125.316 125.314z" fill="#fb9927"/><g><path d="m342.958 316.283h-3.91l.896-1.793c1.88-3.76.356-8.332-3.404-10.212-3.76-1.883-8.332-.357-10.212 3.403l-4.301 8.602h-16.176l2.876-8.885c1.151-3.556-.45-7.421-3.779-9.122l-8.317-4.25 11.438-11.438 9.124 3.041c.799.267 1.61.392 2.408.392 3.187 0 6.157-2.018 7.22-5.207 1.329-3.988-.827-8.298-4.814-9.627l-1.903-.634 2.764-2.764c2.973-2.973 2.973-7.792 0-10.765-2.972-2.971-7.792-2.971-10.764 0l-2.765 2.765-.634-1.903c-1.33-3.988-5.642-6.14-9.628-4.814-3.988 1.329-6.143 5.64-4.814 9.628l3.041 9.123-11.438 11.438-4.249-8.316c-1.7-3.329-5.564-4.93-9.122-3.779l-8.886 2.877v-16.177l8.602-4.301c3.76-1.879 5.284-6.452 3.404-10.211-1.881-3.76-6.452-5.284-10.212-3.404l-1.794.897v-3.911c0-4.204-3.408-7.611-7.612-7.611s-7.611 3.407-7.611 7.611v3.911l-1.794-.897c-3.76-1.881-8.332-.357-10.212 3.404-1.88 3.759-.355 8.332 3.404 10.211l8.602 4.301v16.176l-8.886-2.876c-3.555-1.151-7.422.451-9.122 3.779l-4.249 8.317-11.439-11.439 3.041-9.123c1.329-3.988-.826-8.299-4.814-9.628-3.991-1.332-8.299.826-9.628 4.814l-.634 1.903-2.765-2.765c-2.972-2.971-7.792-2.971-10.764 0-2.973 2.973-2.973 7.792 0 10.765l2.764 2.764-1.903.634c-3.988 1.329-6.143 5.639-4.814 9.627 1.063 3.19 4.033 5.207 7.22 5.207.798 0 1.609-.127 2.408-.392l9.124-3.041 11.438 11.438-8.317 4.25c-3.328 1.701-4.929 5.566-3.778 9.122l2.876 8.885h-16.177l-4.301-8.602c-1.88-3.759-6.451-5.283-10.212-3.403-3.76 1.88-5.284 6.452-3.404 10.212l.896 1.793h-3.91c-4.204 0-7.611 3.407-7.611 7.612s3.408 7.611 7.611 7.611h3.91l-.897 1.795c-1.88 3.759-.355 8.332 3.404 10.211 1.093.547 2.254.806 3.398.806 2.792 0 5.481-1.542 6.814-4.21l4.3-8.602h16.177l-2.877 8.886c-1.152 3.556.45 7.421 3.779 9.122l8.316 4.249-11.438 11.439-9.123-3.041c-3.99-1.333-8.299.826-9.628 4.814s.826 8.298 4.814 9.628l1.903.634-2.764 2.764c-2.973 2.973-2.973 7.792 0 10.765 1.486 1.486 3.434 2.229 5.382 2.229s3.896-.743 5.382-2.229l2.765-2.765.634 1.903c1.063 3.189 4.033 5.206 7.22 5.206.798 0 1.61-.127 2.408-.392 3.988-1.329 6.143-5.64 4.814-9.628l-3.041-9.124 11.438-11.438 4.249 8.317c1.33 2.604 3.984 4.15 6.778 4.15.779 0 1.569-.12 2.344-.371l8.885-2.877v16.177l-8.602 4.301c-3.76 1.879-5.284 6.452-3.404 10.211 1.881 3.761 6.452 5.283 10.212 3.404l1.794-.897v3.91c0 4.204 3.408 7.611 7.611 7.611s7.612-3.407 7.612-7.611v-3.91l1.794.897c1.093.547 2.254.806 3.398.806 2.792 0 5.481-1.542 6.814-4.21 1.88-3.759.355-8.332-3.404-10.211l-8.602-4.301v-16.177l8.886 2.877c3.556 1.152 7.422-.451 9.122-3.779l4.249-8.317 11.438 11.438-3.041 9.124c-1.329 3.988.826 8.299 4.814 9.628.799.267 1.61.392 2.408.392 3.187 0 6.157-2.017 7.22-5.206l.634-1.903 2.765 2.765c1.486 1.486 3.434 2.229 5.382 2.229s3.896-.743 5.382-2.229c2.973-2.973 2.973-7.792 0-10.765l-2.764-2.764 1.903-.634c3.988-1.33 6.143-5.64 4.814-9.628-1.33-3.987-5.637-6.141-9.628-4.814l-9.123 3.041-11.438-11.439 8.316-4.249c3.329-1.701 4.93-5.566 3.779-9.122l-2.876-8.886h16.177l4.3 8.602c1.334 2.668 4.022 4.21 6.814 4.21 1.144 0 2.305-.26 3.398-.806 3.76-1.879 5.284-6.452 3.404-10.211l-.897-1.795h3.91c4.204 0 7.612-3.407 7.612-7.611s-3.403-7.612-7.607-7.612zm-50.71-7.402-2.396 7.402h-15.476l10.943-10.943zm-21.234-21.234 3.54 6.929-10.943 10.943v-15.475zm-30.028 0 7.402 2.396v15.476l-10.943-10.943zm-21.233 21.234 6.928-3.54 10.943 10.943h-15.475zm0 30.029 2.397-7.403h15.474l-10.943 10.943zm21.233 21.233-3.54-6.929 10.943-10.943v15.475zm30.028 0-7.403-2.397v-15.475l10.943 10.943zm21.234-21.233-6.929 3.54-10.943-10.943h15.475z" fill="#f2fbff"/></g></g></svg>