<svg id="Capa_1" enable-background="new 0 0 512 512" height="512" viewBox="0 0 512 512" width="512" xmlns="http://www.w3.org/2000/svg"><g><g><path d="m409.789 255.064h-307.578v-146.322c0-6.247 5.064-11.311 11.311-11.311h284.957c6.247 0 11.311 5.064 11.311 11.311v146.322z" fill="#17998c"/><path d="m409.785 108.746v146.317h-38.457v-146.317c0-6.253-5.068-11.312-11.311-11.312h38.457c6.253 0 11.311 5.059 11.311 11.312z" fill="#138b80"/><g><g><path d="m226.293 120.006h31.224v125.915h-31.224z" fill="#fca62f"/><g><path d="m288.74 120.006h31.224v125.915h-31.224z" fill="#fca62f"/></g><g><path d="m319.963 120.006h31.223v125.915h-31.223z" fill="#fcc16d"/></g><g><path d="m214.757 102.934c0-19.99 12.154-32.802 27.147-32.802s27.147 12.812 27.147 32.802-12.154 39.588-27.147 39.588-27.147-19.598-27.147-39.588z" fill="#fb5532"/><path d="m269.051 102.937c0 19.987-12.148 39.588-27.146 39.588-4.479 0-8.709-1.753-12.442-4.751 8.732-7.001 14.704-20.823 14.704-34.838 0-14.014-5.972-24.5-14.704-29.499 3.721-2.16 7.952-3.303 12.442-3.303 14.998.001 27.146 12.805 27.146 32.803z" fill="#ec462e"/></g><g><g><path d="m257.516 86.073h31.224v159.848h-31.224z" fill="#fcc16d"/></g><g><path d="m245.98 69.001c0-19.99 12.154-32.802 27.147-32.802s27.147 12.812 27.147 32.802-12.154 39.588-27.147 39.588c-14.992 0-27.147-19.598-27.147-39.588z" fill="#fb5532"/><path d="m300.274 69.004c0 19.987-12.148 39.588-27.146 39.588-4.479 0-8.709-1.753-12.442-4.751 8.732-7.001 14.704-20.823 14.704-34.838 0-14.014-5.972-24.5-14.704-29.499 3.721-2.16 7.952-3.303 12.442-3.303 14.998.001 27.146 12.805 27.146 32.803z" fill="#ec462e"/></g></g><g><path d="m277.204 102.934c0-19.99 12.154-32.802 27.147-32.802s27.147 12.812 27.147 32.802-12.154 39.588-27.147 39.588-27.147-19.598-27.147-39.588z" fill="#fb6a3b"/><path d="m331.498 102.937c0 19.987-12.148 39.588-27.146 39.588-4.479 0-8.709-1.753-12.442-4.751 8.732-7.001 14.704-20.823 14.704-34.838 0-14.014-5.972-24.5-14.704-29.499 3.721-2.16 7.952-3.303 12.442-3.303 14.998.001 27.146 12.805 27.146 32.803z" fill="#fb5532"/></g><g><path d="m308.428 102.934c0-19.99 12.154-32.802 27.147-32.802s27.147 12.812 27.147 32.802-12.154 39.588-27.147 39.588-27.147-19.598-27.147-39.588z" fill="#fb6a3b"/><path d="m362.721 102.937c0 19.987-12.148 39.588-27.146 39.588-4.479 0-8.709-1.753-12.442-4.751 8.732-7.001 14.704-20.823 14.704-34.838 0-14.014-5.972-24.5-14.704-29.499 3.721-2.16 7.952-3.303 12.442-3.303 14.998.001 27.146 12.805 27.146 32.803z" fill="#fb5532"/></g></g><g><path d="m158.945 49.874h31.224v196.047h-31.224z" fill="#fcc16d"/><path d="m147.409 32.802c0-19.99 12.155-32.802 27.148-32.802s27.147 12.812 27.147 32.802-12.154 39.588-27.147 39.588-27.148-19.598-27.148-39.588z" fill="#fb6a3b"/><path d="m201.703 32.805c0 19.987-12.148 39.588-27.146 39.588-4.479 0-8.709-1.753-12.442-4.751 8.732-7.001 14.704-20.823 14.704-34.838 0-14.014-5.972-24.5-14.704-29.499 3.721-2.16 7.952-3.303 12.442-3.303 14.998.002 27.146 12.806 27.146 32.803z" fill="#fb5532"/></g></g><path d="m422.261 223.549v277.139c0 6.247-5.064 11.311-11.311 11.311h-309.9c-6.247 0-11.311-5.064-11.311-11.311v-277.139c0-6.247 5.064-11.311 11.311-11.311h22.005c2.845 0 5.151 2.306 5.151 5.151v23.21c0 2.845 2.306 5.151 5.151 5.151h245.286c2.845 0 5.151-2.306 5.151-5.151v-23.21c0-2.845 2.306-5.151 5.151-5.151h22.005c6.247 0 11.311 5.064 11.311 11.311z" fill="#23f1a8"/><path d="m422.261 223.549v277.139c0 6.247-5.064 11.311-11.311 11.311h-38.467c6.243 0 11.311-5.068 11.311-11.311v-283.3c0-2.845 2.306-5.151 5.151-5.151h22.005c6.247.001 11.311 5.065 11.311 11.312z" fill="#27e19d"/></g><g><path d="m344.271 373.577h-3.969l.91-1.821c1.908-3.817.362-8.458-3.455-10.366-3.819-1.911-8.459-.362-10.366 3.455l-4.366 8.732h-16.42l2.919-9.02c1.168-3.61-.458-7.533-3.836-9.26l-8.442-4.313 11.611-11.611 9.261 3.087c.811.271 1.635.398 2.445.398 3.234 0 6.249-2.047 7.329-5.285 1.349-4.048-.838-8.424-4.886-9.774l-1.931-.644 2.806-2.806c3.017-3.018 3.017-7.909 0-10.928-3.018-3.016-7.909-3.016-10.928 0l-2.806 2.806-.644-1.931c-1.349-4.047-5.722-6.232-9.774-4.886-4.048 1.35-6.235 5.725-4.886 9.774l3.087 9.261-11.611 11.611-4.313-8.442c-1.726-3.38-5.652-5.003-9.261-3.836l-9.019 2.921v-16.421l8.731-4.365c3.817-1.907 5.364-6.549 3.456-10.365-1.906-3.817-6.549-5.361-10.365-3.456l-1.822.911v-3.969c0-4.268-3.459-7.726-7.726-7.726s-7.726 3.459-7.726 7.726v3.969l-1.822-.911c-3.815-1.91-8.458-.362-10.365 3.456-1.908 3.816-.361 8.458 3.456 10.365l8.731 4.365v16.421l-9.019-2.92c-3.613-1.166-7.534.458-9.261 3.836l-4.313 8.442-11.611-11.611 3.087-9.261c1.349-4.048-.838-8.424-4.886-9.774-4.049-1.353-8.424.838-9.774 4.886l-.644 1.931-2.806-2.806c-3.018-3.016-7.909-3.016-10.928 0-3.017 3.018-3.017 7.909 0 10.928l2.806 2.806-1.931.644c-4.048 1.35-6.235 5.725-4.886 9.774 1.079 3.237 4.095 5.285 7.329 5.285.81 0 1.634-.129 2.445-.398l9.261-3.087 11.612 11.612-8.442 4.313c-3.378 1.726-5.004 5.65-3.836 9.26l2.92 9.02h-16.421l-4.366-8.732c-1.908-3.815-6.547-5.362-10.366-3.455-3.817 1.908-5.363 6.549-3.455 10.366l.91 1.821h-3.969c-4.268 0-7.726 3.459-7.726 7.726s3.459 7.726 7.726 7.726h3.969l-.91 1.821c-1.908 3.817-.362 8.458 3.455 10.366 1.11.555 2.289.818 3.45.818 2.834 0 5.563-1.565 6.917-4.273l4.366-8.732h16.42l-2.92 9.019c-1.168 3.61.457 7.533 3.836 9.26l8.442 4.313-11.612 11.612-9.262-3.087c-4.049-1.354-8.424.839-9.773 4.887s.839 8.424 4.887 9.773l1.931.644-2.806 2.806c-3.017 3.018-3.017 7.909 0 10.928 1.509 1.508 3.487 2.263 5.464 2.263s3.955-.755 5.464-2.263l2.806-2.806.644 1.931c1.079 3.237 4.095 5.285 7.329 5.285.81 0 1.634-.129 2.445-.398 4.048-1.35 6.235-5.725 4.886-9.774l-3.087-9.26 11.611-11.611 4.313 8.442c1.35 2.643 4.043 4.212 6.88 4.212.791 0 1.593-.122 2.379-.376l9.02-2.92v16.421l-8.731 4.365c-3.817 1.907-5.364 6.549-3.456 10.365 1.907 3.818 6.55 5.365 10.365 3.456l1.822-.911v3.97c0 4.268 3.459 7.726 7.726 7.726s7.726-3.459 7.726-7.726v-3.97l1.822.911c1.109.555 2.288.818 3.449.818 2.834 0 5.563-1.565 6.917-4.274 1.908-3.816.361-8.458-3.456-10.365l-8.731-4.365v-16.421l9.02 2.92c3.609 1.169 7.533-.458 9.26-3.836l4.313-8.441 11.611 11.611-3.087 9.26c-1.349 4.048.838 8.424 4.886 9.774.811.271 1.635.398 2.445.398 3.234 0 6.25-2.047 7.329-5.285l.644-1.931 2.806 2.806c1.509 1.508 3.487 2.263 5.464 2.263s3.955-.755 5.464-2.263c3.017-3.018 3.017-7.909 0-10.928l-2.806-2.806 1.931-.644c4.048-1.349 6.236-5.724 4.887-9.773-1.35-4.049-5.728-6.233-9.773-4.887l-9.262 3.087-11.611-11.611 8.443-4.314c3.378-1.726 5.003-5.65 3.835-9.26l-2.919-9.019h16.42l4.366 8.732c1.354 2.707 4.082 4.273 6.917 4.273 1.161 0 2.34-.264 3.45-.818 3.817-1.908 5.363-6.549 3.455-10.366l-.91-1.821h3.969c4.268 0 7.726-3.459 7.726-7.726s-3.462-7.729-7.729-7.729zm-51.476-7.514-2.432 7.514h-15.708l11.108-11.108zm-21.554-21.554 3.593 7.033-11.108 11.108v-15.708zm-30.481 0 7.514 2.433v15.708l-11.108-11.108zm-21.555 21.554 7.033-3.593 11.107 11.107h-15.708zm0 30.481 2.433-7.514h15.708l-11.108 11.108zm21.555 21.555-3.593-7.033 11.108-11.108v15.708zm30.481 0-7.515-2.433v-15.708l11.108 11.108zm21.554-21.555-7.033 3.593-11.108-11.108h15.709z" fill="#f2fbff"/><g fill="#27e19d"><path d="m167.528 277.222c0-4.268-3.459-7.726-7.726-7.726h-31.596c-4.268 0-7.726 3.459-7.726 7.726 0 4.268 3.459 7.726 7.726 7.726h31.596c4.267.001 7.726-3.458 7.726-7.726z"/><path d="m383.794 269.496h-31.596c-4.268 0-7.726 3.459-7.726 7.726 0 4.268 3.459 7.726 7.726 7.726h31.596c4.268 0 7.726-3.459 7.726-7.726s-3.459-7.726-7.726-7.726z"/></g></g></g></svg>