<svg id="Capa_1" enable-background="new 0 0 512 512" height="512" viewBox="0 0 512 512" width="512" xmlns="http://www.w3.org/2000/svg"><g><g><g><path d="m346.562 417.826c-2.287 0-4.607-.527-6.783-1.639-7.344-3.753-10.256-12.748-6.503-20.092l19.044-37.272c1.429-2.798 3.705-5.074 6.503-6.503l37.272-19.044c7.343-3.75 16.339-.842 20.092 6.503 3.753 7.344.841 16.34-6.503 20.092l-32.968 16.845-16.845 32.968c-2.64 5.169-7.879 8.142-13.309 8.142z" fill="#5591d6"/></g><g><path d="m423.912 310.758c-6.301 0-12.158-4.019-14.204-10.337l-12.892-39.821c-.968-2.99-.968-6.209 0-9.199l12.892-39.821c2.54-7.847 10.961-12.151 18.806-9.607 7.847 2.54 12.148 10.96 9.607 18.806l-11.402 35.221 11.403 35.222c2.54 7.846-1.761 16.266-9.607 18.806-1.528.495-3.079.73-4.603.73z" fill="#5591d6"/></g><g><path d="m256 115.91c-1.552 0-3.105-.242-4.599-.726l-39.821-12.892c-7.846-2.54-12.148-10.96-9.607-18.806 2.54-7.847 10.96-12.149 18.806-9.607l35.221 11.402 35.222-11.403c7.848-2.542 16.266 1.761 18.806 9.607s-1.761 16.266-9.607 18.806l-39.821 12.892c-1.496.485-3.047.727-4.6.727z" fill="#5591d6"/></g><g><path d="m109.122 180.363c-5.432 0-10.669-2.972-13.31-8.142-3.752-7.344-.841-16.339 6.503-20.092l32.968-16.845 16.845-32.968c3.752-7.344 12.748-10.256 20.092-6.503s10.256 12.748 6.503 20.092l-19.044 37.272c-1.43 2.798-3.706 5.074-6.503 6.503l-37.272 19.044c-2.175 1.112-4.495 1.639-6.782 1.639z" fill="#5591d6"/></g><g><path d="m88.088 310.758c-1.524 0-3.074-.235-4.602-.73-7.846-2.54-12.148-10.96-9.607-18.806l11.402-35.222-11.403-35.222c-2.54-7.846 1.761-16.266 9.607-18.806 7.849-2.54 16.266 1.761 18.806 9.607l12.892 39.821c.968 2.99.968 6.209 0 9.199l-12.892 39.821c-2.045 6.318-7.903 10.338-14.203 10.338z" fill="#5591d6"/></g><g><path d="m165.439 417.826c-5.432 0-10.669-2.973-13.31-8.142l-16.845-32.968-32.968-16.845c-7.344-3.753-10.256-12.748-6.503-20.092s12.746-10.256 20.092-6.504l37.272 19.044c2.798 1.43 5.074 3.706 6.503 6.503l19.044 37.272c3.752 7.344.841 16.339-6.503 20.092-2.175 1.113-4.496 1.64-6.782 1.64z" fill="#5591d6"/></g><g><path d="m295.824 438.852c-1.524 0-3.074-.235-4.602-.73l-35.222-11.403-35.222 11.403c-7.845 2.54-16.266-1.76-18.806-9.607-2.54-7.846 1.761-16.266 9.607-18.806l39.821-12.892c2.99-.968 6.209-.968 9.199 0l39.821 12.892c7.847 2.54 12.148 10.96 9.607 18.806-2.045 6.318-7.902 10.337-14.203 10.337z" fill="#5591d6"/></g><g><path d="m402.878 180.363c-2.287 0-4.607-.527-6.783-1.639l-37.272-19.044c-2.798-1.43-5.074-3.706-6.503-6.503l-19.044-37.272c-3.753-7.344-.841-16.339 6.503-20.092 7.343-3.751 16.339-.842 20.092 6.503l16.845 32.968 32.968 16.845c7.344 3.753 10.256 12.748 6.503 20.092-2.64 5.169-7.878 8.142-13.309 8.142z" fill="#5591d6"/></g></g><path d="m462.751 241.067h-170.7l121.034-121.034c5.832-5.832 5.832-15.286 0-21.118-5.831-5.832-15.287-5.832-21.118 0l-121.034 121.034v-170.7c0-8.067-6.198-15.031-14.257-15.386-8.555-.377-15.609 6.447-15.609 14.918v171.168l-121.034-121.034c-5.99-5.991-15.803-5.828-21.585.489-5.447 5.951-4.905 15.257.8 20.962l120.702 120.702h-170.7c-8.067 0-15.031 6.198-15.386 14.257-.377 8.555 6.447 15.609 14.918 15.609h171.168l-120.698 120.696c-5.877 5.877-6.226 15.536-.364 21.428 2.919 2.934 6.752 4.401 10.586 4.401 3.822 0 7.643-1.458 10.559-4.374l121.034-121.034v170.7c0 8.067 6.198 15.031 14.257 15.386 8.555.377 15.609-6.447 15.609-14.918v-171.168l121.034 121.034c2.916 2.916 6.737 4.374 10.559 4.374s7.643-1.458 10.559-4.374c5.832-5.832 5.832-15.286 0-21.118l-121.034-121.034h171.168c8.471 0 15.295-7.054 14.918-15.609-.355-8.059-7.319-14.257-15.386-14.257z" fill="#9ce6fb"/><g fill="#68dbf9"><path d="m270.938 49.201v22.746c-4.698 1.566-9.725 2.41-14.938 2.41s-10.24-.845-14.938-2.41v-23.168c0-8.489 7.088-15.319 15.659-14.917 8.036.381 14.217 7.304 14.217 15.339z"/><path d="m270.938 440.052v23.169c0 8.489-7.088 15.319-15.659 14.917-8.035-.381-14.216-7.304-14.216-15.339v-22.746c4.698-1.566 9.725-2.41 14.938-2.41s10.239.843 14.937 2.409z"/><path d="m413.082 120.037-16.4 16.4c-4.471-2.246-8.612-5.233-12.249-8.87-3.636-3.637-6.624-7.778-8.87-12.249l16.4-16.4c5.831-5.831 15.288-5.831 21.119 0s5.831 15.288 0 21.119z"/><path d="m136.427 396.692-16.39 16.39c-2.915 2.915-6.737 4.378-10.559 4.378-3.843 0-7.685-1.473-10.611-4.42-5.841-5.893-5.501-15.525.361-21.387l16.091-16.091c4.471 2.246 8.612 5.233 12.249 8.87 3.687 3.689 6.644 7.84 8.859 12.26z"/><path d="m478.138 255.279c.402 8.571-6.428 15.659-14.917 15.659h-23.169c-1.566-4.698-2.41-9.725-2.41-14.938s.845-10.24 2.41-14.938h22.746c8.036 0 14.959 6.181 15.34 14.217z"/><path d="m74.358 256c0 5.213-.845 10.24-2.411 14.938h-23.168c-8.489 0-15.319-7.088-14.917-15.659.381-8.035 7.304-14.217 15.339-14.217h22.746c1.567 4.698 2.411 9.725 2.411 14.938z"/><path d="m413.082 413.082c-2.915 2.915-6.737 4.378-10.559 4.378s-7.644-1.463-10.559-4.378l-16.4-16.4c2.246-4.471 5.233-8.612 8.87-12.249 3.637-3.636 7.778-6.624 12.249-8.87l16.4 16.4c5.83 5.831 5.83 15.288-.001 21.119z"/><path d="m136.427 115.308c-2.215 4.42-5.172 8.571-8.86 12.259-3.637 3.636-7.778 6.624-12.249 8.87l-16.102-16.102c-5.687-5.687-6.212-14.948-.804-20.902 5.779-6.346 15.618-6.521 21.623-.515z"/><path d="m376.758 256 4.832-14.938h-73.72c-.33 0-.649-.021-.958-.072l-1.308 4.059c-2.328 7.16-2.328 14.742-.01 21.891l1.319 4.069c.309-.052.628-.072.958-.072h73.73zm-73.524 26.125c-.237-.237-.443-.484-.628-.731l-3.791 1.937c-6.706 3.42-12.063 8.777-15.484 15.473l-1.937 3.801c.247.185.494.391.731.628l52.127 52.127 7.139-13.969 13.969-7.139zm-74.565 16.679c-3.42-6.696-8.777-12.053-15.473-15.473l-3.801-1.937c-.185.247-.391.494-.628.731l-52.127 52.127 13.969 7.139 7.139 13.969 52.127-52.127c.237-.237.484-.443.731-.628zm1.206-90.038-52.127-52.127-7.139 13.969-13.969 7.139 52.127 52.127c.237.237.443.484.628.731l3.801-1.937c6.696-3.42 12.053-8.777 15.473-15.473l1.937-3.801c-.247-.185-.494-.391-.731-.628zm111.517-38.158-7.139-13.969-52.127 52.127c-.237.237-.484.443-.731.628l1.937 3.801c3.42 6.696 8.777 12.053 15.473 15.473l3.801 1.947c.175-.258.391-.505.628-.742l52.127-52.127zm-70.454-40.208-14.938 4.842-14.938-4.831v73.72c0 .33-.021.649-.072.958l4.069 1.319c3.544 1.143 7.222 1.72 10.941 1.72s7.397-.577 10.941-1.72l4.069-1.319c-.051-.309-.072-.629-.072-.958zm-64.531 114.659-1.319-4.069c-.309.052-.628.072-.958.072h-73.73l4.842 14.938-4.842 14.938h73.73c.33 0 .649.021.958.072l1.319-4.069c2.318-7.16 2.318-14.722 0-21.882zm60.534 60.534c-3.544-1.143-7.222-1.72-10.941-1.72s-7.397.577-10.941 1.72l-4.069 1.319c.051.309.072.629.072.958v73.73l14.938-4.842 14.938 4.832v-73.72c0-.33.021-.649.072-.958z"/></g><g><g><circle cx="256" cy="26.879" fill="#f2fbff" r="26.879"/><g><path d="m282.877 26.878c0 14.845-12.033 26.877-26.877 26.877-4.492 0-8.736-1.102-12.455-3.06 8.571-4.481 14.423-13.464 14.423-23.818s-5.852-19.336-14.423-23.817c3.719-1.958 7.963-3.06 12.455-3.06 14.845 0 26.877 12.032 26.877 26.878z" fill="#c9f0fd"/></g><circle cx="256" cy="485.121" fill="#f2fbff" r="26.879"/><path d="m282.877 485.122c0 14.846-12.032 26.878-26.877 26.878-4.492 0-8.736-1.102-12.455-3.06 8.571-4.481 14.423-13.465 14.423-23.818s-5.851-19.336-14.423-23.818c3.719-1.957 7.963-3.06 12.455-3.06 14.845.001 26.877 12.034 26.877 26.878z" fill="#c9f0fd"/></g></g><g><g><circle cx="418.013" cy="93.987" fill="#f2fbff" r="26.879"/><path d="m437.023 112.99c-8.52 8.52-21.325 10.127-31.462 4.821 2.349-1.236 4.564-2.843 6.542-4.821 10.497-10.497 10.497-27.516 0-38.014-1.978-1.978-4.193-3.585-6.542-4.821 10.137-5.305 22.942-3.698 31.462 4.821 10.498 10.498 10.498 27.517 0 38.014z" fill="#c9f0fd"/><circle cx="93.987" cy="418.013" fill="#f2fbff" r="26.879"/><path d="m112.99 437.023c-8.52 8.52-21.325 10.127-31.462 4.821 2.359-1.236 4.574-2.843 6.552-4.821 10.498-10.497 10.498-27.516 0-38.014-1.978-1.978-4.193-3.585-6.552-4.821 10.137-5.305 22.942-3.698 31.462 4.821 10.498 10.498 10.498 27.517 0 38.014z" fill="#c9f0fd"/></g></g><g><g><circle cx="485.121" cy="256" fill="#f2fbff" r="26.879"/><path d="m512 256c0 14.845-12.032 26.878-26.878 26.878-4.502 0-8.736-1.102-12.455-3.06 8.571-4.481 14.423-13.464 14.423-23.818s-5.852-19.337-14.423-23.818c3.719-1.957 7.953-3.06 12.455-3.06 14.846 0 26.878 12.033 26.878 26.878z" fill="#c9f0fd"/><circle cx="26.879" cy="256" fill="#f2fbff" r="26.879"/><g><path d="m53.755 256c0 14.845-12.033 26.878-26.877 26.878-4.502 0-8.736-1.102-12.455-3.06 8.571-4.481 14.423-13.464 14.423-23.818s-5.851-19.337-14.423-23.818c3.719-1.957 7.953-3.06 12.455-3.06 14.844 0 26.877 12.033 26.877 26.878z" fill="#c9f0fd"/></g></g></g><g><g><circle cx="418.013" cy="418.013" fill="#f2fbff" r="26.879"/><path d="m437.023 437.023c-8.52 8.52-21.325 10.127-31.462 4.821 2.349-1.236 4.564-2.843 6.542-4.821 10.497-10.497 10.497-27.516 0-38.014-1.978-1.978-4.193-3.585-6.542-4.821 10.137-5.305 22.942-3.698 31.462 4.821 10.498 10.498 10.498 27.517 0 38.014z" fill="#c9f0fd"/><circle cx="93.987" cy="93.987" fill="#f2fbff" r="26.879"/><g><path d="m112.99 112.99c-8.52 8.52-21.325 10.127-31.462 4.821 2.359-1.236 4.574-2.843 6.552-4.821 10.498-10.497 10.498-27.516 0-38.014-1.978-1.978-4.193-3.585-6.552-4.821 10.137-5.305 22.942-3.698 31.462 4.821 10.498 10.498 10.498 27.517 0 38.014z" fill="#c9f0fd"/></g></g></g><g><path d="m216.104 367.254c-5.483 0-10.689-3.034-13.299-8.141l-16.879-33.039-33.039-16.879c-6.53-3.337-9.672-10.921-7.413-17.897l11.426-35.298-11.427-35.298c-2.258-6.976.883-14.561 7.413-17.897l33.039-16.879 16.879-33.039c3.337-6.53 10.922-9.67 17.897-7.413l35.299 11.426 35.297-11.427c6.98-2.257 14.561.884 17.897 7.413l16.88 33.04 33.038 16.88c6.53 3.336 9.671 10.92 7.413 17.897l-11.424 35.297 11.425 35.298c2.258 6.976-.883 14.561-7.413 17.897l-33.038 16.88-16.88 33.039c-3.336 6.53-10.918 9.671-17.897 7.413l-35.298-11.427-35.298 11.427c-1.52.492-3.07.727-4.598.727zm39.896-42.782c1.552 0 3.104.242 4.599.726l27.789 8.996 13.29-26.012c1.429-2.798 3.705-5.074 6.504-6.503l26.01-13.289-8.995-27.79c-.968-2.99-.968-6.208 0-9.198l8.995-27.79-26.01-13.289c-2.799-1.43-5.075-3.706-6.504-6.503l-13.29-26.012-27.789 8.996c-2.991.967-6.21.967-9.198 0l-27.79-8.996-13.289 26.012c-1.43 2.798-3.706 5.074-6.504 6.504l-26.012 13.289 8.996 27.79c.968 2.99.968 6.208 0 9.198l-8.996 27.79 26.012 13.289c2.798 1.43 5.074 3.706 6.504 6.504l13.289 26.012 27.79-8.996c1.495-.486 3.047-.728 4.599-.728z" fill="#f2fbff"/></g><path d="m256 255.144.164.46.442-.21-.21.442.461.164-.461.164.21.442-.442-.21-.164.461-.164-.461-.442.21.21-.442-.46-.164.46-.164-.21-.442.442.21z" fill="#f2fbff"/></g></svg>