<svg id="Capa_1" enable-background="new 0 0 512 512" height="512" viewBox="0 0 512 512" width="512" xmlns="http://www.w3.org/2000/svg"><g><g><path d="m418.1 136.801h-106.06c-4.607 0-6.894-5.582-3.611-8.813 14.088-13.87 22.699-33.286 22.291-54.711-.758-39.78-33.142-72.319-72.918-73.255-42.099-.991-76.538 32.839-76.538 74.714 0 20.861 8.549 39.724 22.333 53.281 3.27 3.216.944 8.786-3.643 8.786h-106.057c-20.758 0-38.142 16.988-37.745 37.742.384 20.113 16.809 36.299 37.014 36.299h89.284c3.203 0 5.629 2.891 5.073 6.045l-45.408 257.523c-3.59 20.361 10.388 37.02 31.064 37.02 20.135 3.551 39.336-9.894 42.887-30.03l21.356-121.113c3.665-20.786 33.492-20.786 37.157 0l21.229 120.394c3.605 20.443 23.353 34.612 43.723 30.617 19.74-3.872 32.828-22.857 29.32-42.754l-44.374-251.657c-.556-3.154 1.87-6.045 5.073-6.045h89.284c20.205 0 36.629-16.186 37.014-36.299.394-20.756-16.99-37.744-37.748-37.744z" fill="#d67f4f"/><g fill="#c76d3d"><path d="m204.698 152.296v35.115c0 3.444 3.315 5.918 6.616 4.938l32.092-9.524c1.764 3.145 5.125 5.273 8.987 5.273h7.211c3.832 0 7.168-2.097 8.943-5.201l32.136 9.537c3.302.98 6.616-1.494 6.616-4.938v-35.2z"/><path d="m455.854 173.822c0 20.449-16.576 37.025-37.025 37.025h-30.875c20.449 0 37.025-16.575 37.025-37.025s-16.576-37.025-37.025-37.025h30.875c20.449.001 37.025 16.576 37.025 37.025z"/><path d="m339.527 511.302c-7.829 1.535-15.576.381-22.345-2.781 14.824-6.902 23.766-23.107 20.789-39.971l-43.309-245.607c-1.113-6.315 3.74-12.094 10.147-12.094h24.56c-3.121.093-5.439 2.946-4.893 6.037l44.37 251.664c3.513 19.892-9.58 38.878-29.319 42.752z"/><path d="m330.739 74.74c0 25.857-13.145 48.645-33.1 62.058h-30.875c19.955-13.413 33.089-36.201 33.089-62.058 0-35.984-25.435-66.035-59.297-73.143 4.976-1.051 10.148-1.597 15.443-1.597 41.279 0 74.74 33.46 74.74 74.74z"/></g><g><g><path d="m406.922 192.325c0 .587.268.999 3.039 3.111 3.42 2.596 9.138 6.943 9.138 15.401h-15.453c0-.577-.258-.989-3.039-3.101-3.41-2.596-9.138-6.943-9.138-15.412 0-8.458 5.718-12.805 9.138-15.401 2.781-2.112 3.039-2.524 3.039-3.111 0-.577-.258-.989-3.039-3.101-3.41-2.596-9.138-6.943-9.138-15.401 0-8.468 5.728-12.815 9.138-15.412 2.781-2.112 3.039-2.524 3.039-3.101h14.454c.33 0 .67 0 .999.01 0 8.447-5.718 12.795-9.138 15.391-2.771 2.112-3.039 2.534-3.039 3.111s.268.989 3.039 3.101c3.42 2.596 9.138 6.943 9.138 15.401 0 8.468-5.718 12.815-9.138 15.412-2.771 2.113-3.039 2.525-3.039 3.102z" fill="#fff2e3"/></g><g><path d="m120.52 192.336c0 8.458-5.718 12.805-9.127 15.401-2.782 2.112-3.039 2.524-3.039 3.101h-15.453c0-8.458 5.718-12.805 9.138-15.401 2.771-2.112 3.029-2.524 3.029-3.101 0-.587-.258-.999-3.029-3.111-3.42-2.596-9.138-6.943-9.138-15.401 0-8.468 5.718-12.815 9.138-15.412 2.771-2.112 3.029-2.524 3.029-3.101s-.258-.999-3.029-3.101c-3.42-2.596-9.138-6.954-9.138-15.401.33-.01.67-.01.999-.01h14.453c0 .577.258.999 3.039 3.111 3.41 2.596 9.127 6.943 9.127 15.401s-5.718 12.805-9.127 15.401c-2.782 2.112-3.039 2.534-3.039 3.111s.258.989 3.039 3.101c3.411 2.596 9.128 6.943 9.128 15.412z" fill="#fff2e3"/></g></g><g><g><g><path d="m223.23 440.754-2.833 16.04c-.525.402-1.226 1.01-2.246 1.958-2.812 2.596-7.273 6.717-14.01 6.717-.968 0-1.988-.083-3.049-.268-8.468-1.494-11.827-8.005-13.825-11.899-1.7-3.297-2.091-3.637-2.771-3.76-.68-.113-1.164.062-3.894 2.586-3.214 2.967-8.592 7.943-17.06 6.449s-11.816-8.005-13.825-11.899c-1.113-2.163-1.659-3.049-2.102-3.441l2.709-15.391c7.963 1.71 11.177 7.974 13.135 11.765 1.7 3.297 2.091 3.626 2.771 3.75s1.164-.062 3.884-2.575c3.214-2.977 8.592-7.963 17.06-6.459 8.468 1.494 11.827 8.005 13.825 11.898 1.7 3.297 2.091 3.637 2.771 3.76.68.113 1.164-.062 3.894-2.586 3.018-2.791 7.953-7.345 15.566-6.645z" fill="#fff2e3"/></g></g><g><g><path d="m364.375 443.186c-.464.319-.989 1.133-2.215 3.513-1.999 3.884-5.347 10.384-13.794 11.868-8.448 1.494-13.805-3.472-17.008-6.428-2.709-2.504-3.183-2.679-3.843-2.565-.67.113-1.051.453-2.74 3.719-1.999 3.884-5.347 10.374-13.784 11.868-1.071.185-2.081.268-3.049.268-6.717 0-11.167-4.11-13.969-6.696-1.133-1.051-1.875-1.69-2.4-2.071l-2.802-15.896c7.696-.793 12.661 3.801 15.69 6.614 2.699 2.503 3.173 2.668 3.843 2.565.67-.124 1.051-.453 2.74-3.729 1.999-3.874 5.336-10.374 13.784-11.858 8.448-1.494 13.815 3.472 17.019 6.429 2.699 2.503 3.173 2.678 3.843 2.565.659-.113 1.051-.453 2.73-3.719 1.957-3.801 5.202-10.106 13.258-11.765z" fill="#fff2e3"/></g></g></g></g><g><g fill="#23f1a8"><path d="m249.266 134.688-37.952-11.263c-3.302-.98-6.616 1.494-6.616 4.938v38.935c0 3.444 3.315 5.918 6.616 4.938l37.952-11.263z"/><path d="m262.732 134.773 37.952-11.263c3.302-.98 6.616 1.494 6.616 4.938v38.935c0 3.444-3.315 5.918-6.616 4.938l-37.952-11.263z"/></g><path d="m259.605 167.986h-7.211c-5.69 0-10.302-4.612-10.302-10.302v-19.706c0-5.69 4.612-10.302 10.302-10.302h7.211c5.69 0 10.302 4.612 10.302 10.302v19.706c-.001 5.69-4.613 10.302-10.302 10.302z" fill="#20b69f"/></g><g><g id="XMLID_404_"><path d="m228.347 54.6c-.025 0-.05 0-.075 0l-.106-.001c-4.267-.041-7.693-3.533-7.652-7.8s3.555-7.659 7.799-7.653l.106.001c4.267.041 7.693 3.533 7.652 7.8-.04 4.241-3.491 7.653-7.724 7.653z" fill="#c76d3d"/></g><g id="XMLID_407_"><path d="m283.759 54.6c-.025 0-.05 0-.075 0l-.106-.001c-4.267-.041-7.693-3.533-7.652-7.8.04-4.241 3.492-7.653 7.724-7.653h.075l.106.001c4.267.041 7.693 3.533 7.652 7.8-.04 4.241-3.492 7.653-7.724 7.653z" fill="#c76d3d"/></g></g><g><path d="m255.999 109.385c-19.13 0-35.047-14.948-36.237-34.03-.266-4.26 2.972-7.927 7.231-8.192 4.251-.247 7.927 2.971 8.192 7.23.683 10.957 9.826 19.539 20.814 19.539 10.989 0 20.131-8.583 20.814-19.538.265-4.26 3.939-7.482 8.192-7.231 4.259.266 7.496 3.933 7.231 8.191-1.189 19.083-17.106 34.031-36.237 34.031z" fill="#c76d3d"/></g><g><circle cx="253.086" cy="213.763" fill="#fb5532" r="16.82"/></g><g><circle cx="253.086" cy="278.429" fill="#fb5532" r="16.82"/></g></g></svg>