<svg id="Capa_1" enable-background="new 0 0 512 512" height="512" viewBox="0 0 512 512" width="512" xmlns="http://www.w3.org/2000/svg"><g><g><path d="m444.007 107.778c-2.514-.215-4.503-2.304-4.595-4.826-.174-4.792-2.031-9.542-5.598-13.289-7.752-8.142-20.637-8.458-28.779-.706-6.737 6.414-5.688 18.892-.734 27.62 1.159 2.041.753 4.61-.947 6.229l-21.01 20.004 19.054 20.012 21.01-20.004c1.7-1.618 4.286-1.897 6.268-.64 8.475 5.376 20.886 7.035 27.623.621 8.142-7.752 8.458-20.637.706-28.779-3.567-3.746-8.22-5.834-12.998-6.242z" fill="#f9eadc"/><path d="m404.185 137.733c-9.335-9.805-38.834 2.194-62.636 17.659-9.468 6.151-19.332 11.696-29.687 16.196-11.385 4.948-22.526 12.248-32.558 21.8-35.207 33.522-43.411 82.056-18.323 108.405 25.087 26.349 73.966 20.533 109.172-12.988 21.728-20.688 33.168-47.093 32.847-70.472-.251-18.248 1.888-36.392 6.101-54.148 2.51-10.582 1.081-20.153-4.916-26.452z" fill="#fb5532"/></g><g><path d="m115.677 326.021-12.489-13.931c-21.764-24.276-24.386-60.188-6.378-87.368l17.216-25.986c4.049-6.112 12.685-6.975 17.864-1.786 2.452 2.456 3.673 5.882 3.329 9.335l-5.113 51.33 27.366 13.764c21.341 10.734 25.9 39.218 8.975 56.076-14.211 14.154-37.383 13.499-50.77-1.434z" fill="#fb5532"/></g><path d="m440.393 305.863c0 65.01-81.147 117.711-181.247 117.711s-207.725 10.287-207.725-54.723 107.624-180.699 207.725-180.699 181.247 52.701 181.247 117.711z" fill="#fc7d4b"/><path d="m440.392 305.864c0 65.015-81.147 117.708-181.25 117.708-30.885 0-62.491.979-91.439.433 15.442-.185 31.132-.433 46.636-.433 100.103 0 181.25-52.694 181.25-117.708 0-59.174-67.23-108.148-154.795-116.452 6.13-.824 12.249-1.257 18.348-1.257 100.103 0 181.25 52.694 181.25 117.709z" fill="#fb6a3b"/><g><path d="m490.255 428.656h-468.511c-12.009 0-21.744-9.736-21.744-21.745 0-5.788 4.692-10.48 10.48-10.48h491.04c5.788 0 10.48 4.692 10.48 10.48 0 12.009-9.736 21.745-21.745 21.745z" fill="#b3cbea"/><path d="m512 406.907c0 6.005-2.431 11.444-6.372 15.374-3.93 3.94-9.369 6.372-15.374 6.372h-33.808c6.005 0 11.444-2.431 15.374-6.372 3.94-3.93 6.372-9.369 6.372-15.374 0-5.785-4.695-10.48-10.48-10.48h33.808c5.785 0 10.48 4.695 10.48 10.48z" fill="#84aee1"/></g><g><path d="m493.558 158.828c-2.393-.8-3.836-3.298-3.332-5.771.958-4.699.269-9.752-2.318-14.232-5.621-9.736-18.07-13.072-27.806-7.451-8.056 4.651-9.969 17.026-7.206 26.674.646 2.256-.352 4.658-2.384 5.832l-25.123 14.505 13.816 23.93 25.123-14.505c2.032-1.173 4.612-.837 6.242.851 6.974 7.217 18.647 11.747 26.703 7.096 9.736-5.621 13.072-18.07 7.451-27.806-2.586-4.479-6.618-7.603-11.166-9.123z" fill="#fff2e3"/><path d="m447.81 178.583c-6.769-11.724-38.262-6.996-65.032 2.44-10.649 3.753-21.539 6.824-32.662 8.764-12.229 2.134-24.774 6.61-36.77 13.536-42.1 24.307-61.483 69.553-43.292 101.06s67.066 37.345 109.167 13.038c25.982-15.001 43.309-37.977 48.492-60.776 4.045-17.795 10.389-34.928 18.658-51.197 4.927-9.693 5.788-19.332 1.439-26.865z" fill="#fc7d4b"/><path d="m446.367 205.452c-8.262 16.267-14.608 33.399-18.657 51.19-5.182 22.808-22.509 45.781-48.491 60.781-12.271 7.085-25.118 11.61-37.613 13.682-4.957.822-7.29-5.83-2.932-8.331l.204-.117c25.981-14.999 43.309-37.983 48.491-60.781 4.049-17.791 10.395-34.923 18.657-51.2 4.934-9.694 5.79-19.326 1.442-26.857-2.133-3.708-6.737-5.759-12.877-6.552 23.54-6.696 47.43-8.715 53.219 1.319 4.347 7.529 3.492 17.172-1.443 26.866z" fill="#fb6a3b"/><g><path d="m326.516 196.559c-4.811 1.978-9.55 4.316-14.186 6.995-20.377 11.765-36.056 28.66-44.154 47.574-7.778 18.152-7.562 35.943.618 50.098 2.132 3.698.865 8.417-2.833 10.549-1.216.711-2.544 1.04-3.853 1.04-2.668 0-5.264-1.38-6.696-3.863-10.673-18.481-11.177-41.176-1.442-63.912 9.096-21.242 26.208-40.156 48.346-53.518 8.315 1.307 16.391 2.997 24.2 5.037z" fill="#fb6a3b"/></g></g><g><path d="m77.086 341.266-12.489-13.931c-21.764-24.276-24.386-60.188-6.378-87.368l17.216-25.986c4.049-6.112 12.685-6.975 17.864-1.786 2.452 2.456 3.673 5.882 3.329 9.335l-4.762 47.808c-.211 2.122.906 4.154 2.811 5.112l24.204 12.173c21.341 10.734 25.9 39.218 8.975 56.076-14.211 14.155-37.383 13.5-50.77-1.433z" fill="#fc7d4b"/><path d="m127.856 342.703c-4.203 4.183-9.179 7.067-14.464 8.664 4.729-15.566-1.854-33.46-17.781-41.475l-24.2-12.173c-1.905-.958-3.022-2.99-2.811-5.112l4.759-47.812c.041-.392.062-.773.062-1.164 0-3.049-1.216-5.995-3.389-8.169-1.885-1.896-4.234-2.977-6.645-3.307l12.043-18.172c4.059-6.109 12.692-6.974 17.863-1.782 2.184 2.184 3.389 5.141 3.389 8.2 0 .371-.01.752-.051 1.133l-4.769 47.801c-.212 2.122.906 4.155 2.812 5.113l24.209 12.173c21.335 10.733 25.899 39.218 8.973 56.082z" fill="#fb6a3b"/><g><path d="m77.768 353.929c-1.463 1.277-3.276 1.906-5.068 1.906-2.163 0-4.306-.906-5.831-2.658l-10.271-11.806c1.782-5.182 4.007-10.508 6.645-15.916l15.277 17.575c2.802 3.224 2.463 8.107-.752 10.899z" fill="#fb6a3b"/></g></g><g id="XMLID_428_"><path d="m304.421 267.99c-.026 0-.05 0-.075 0l-.106-.001c-4.268-.041-7.693-3.533-7.653-7.8.04-4.241 3.492-7.653 7.724-7.653h.075l.106.001c4.267.041 7.693 3.533 7.653 7.8-.04 4.241-3.492 7.653-7.724 7.653z" fill="#fb6a3b"/></g><g id="XMLID_463_"><path d="m328.419 275.149c-.026 0-.05 0-.075 0l-.106-.001c-4.268-.041-7.693-3.533-7.653-7.8.04-4.241 3.492-7.653 7.724-7.653h.075l.106.001c4.267.041 7.693 3.533 7.653 7.8-.04 4.241-3.492 7.653-7.724 7.653z" fill="#fb6a3b"/></g><g id="XMLID_465_"><path d="m221.78 301.992c-.025 0-.05 0-.075 0l-.106-.001c-4.267-.041-7.693-3.533-7.652-7.8.04-4.241 3.492-7.653 7.724-7.653h.075l.106.001c4.267.041 7.693 3.533 7.652 7.8-.04 4.241-3.491 7.653-7.724 7.653z" fill="#fb6a3b"/></g></g></svg>