<svg id="Capa_1" enable-background="new 0 0 512 512" height="512" viewBox="0 0 512 512" width="512" xmlns="http://www.w3.org/2000/svg"><g><g><g><g><g><g><path d="m450.394 373.837h-74.776c-9.783 0-17.714-7.931-17.714-17.714s7.931-17.714 17.714-17.714h74.776c14.434 0 26.178-11.744 26.178-26.178s-11.744-26.178-26.178-26.178h-36.793c-9.783 0-17.714-7.931-17.714-17.714s7.931-17.714 17.714-17.714h36.793c33.969 0 61.606 27.637 61.606 61.606s-27.637 61.606-61.606 61.606z" fill="#5591d6"/></g><path d="m82.276 241.284c-1.741 9.734-2.651 19.756-2.65 29.99.006 92.645 75.456 168.588 168.1 169.166 93.932.586 170.261-75.381 170.261-169.177 0-10.231-.91-20.249-2.651-29.98-.876-4.898-5.167-8.448-10.143-8.448h-312.774c-4.976.001-9.267 3.551-10.143 8.449z" fill="#f2fbff"/><path d="m417.983 271.265c0 93.798-76.331 169.758-170.263 169.17-6.503-.041-12.912-.453-19.229-1.206 83.854-10.027 148.859-81.401 148.859-167.965 0-10.233-.907-20.25-2.649-29.978-.876-4.905-5.163-8.45-10.14-8.45h40.633c4.978 0 9.264 3.545 10.14 8.45 1.743 9.729 2.649 19.746 2.649 29.979z" fill="#dff6fd"/></g><path d="m398.143 476.552h-296.419c-13.044 0-23.619-10.574-23.619-23.619v-15.083c0-6.522 5.287-11.809 11.809-11.809h320.038c6.522 0 11.809 5.287 11.809 11.809v15.083c.001 13.044-10.574 23.619-23.618 23.619z" fill="#5591d6"/><path d="m421.758 437.847v15.087c0 13.046-10.573 23.62-23.62 23.62h-35.821c13.047 0 23.62-10.573 23.62-23.62v-15.087c0-6.523-5.287-11.81-11.81-11.81h35.821c6.523 0 11.81 5.287 11.81 11.81z" fill="#1475cb"/></g><g><g><path d="m114.157 476.552h-102.348c-6.522 0-11.809-5.287-11.809-11.809v-140.13c0-6.522 5.287-11.809 11.809-11.809h102.348c6.522 0 11.809 5.287 11.809 11.809v140.13c.001 6.522-5.286 11.809-11.809 11.809z" fill="#c76d3d"/><path d="m125.967 324.611v140.13c0 6.523-5.286 11.81-11.81 11.81h-32.183c6.523 0 11.81-5.287 11.81-11.81v-140.13c0-6.523-5.286-11.81-11.81-11.81h32.183c6.523 0 11.81 5.287 11.81 11.81z" fill="#aa5e33"/></g><path d="m125.971 386.946v15.453h-55.259v74.152h-15.453v-74.152h-55.259v-15.453h55.259v-74.142h15.453v74.142z" fill="#aa5e33"/></g></g><g><path d="m158.745 232.687v84.251c0 9.533 7.728 17.261 17.261 17.261 9.533 0 17.261-7.728 17.261-17.261v-16.113c0-12.916 10.471-23.387 23.387-23.387 12.916 0 23.387-10.471 23.387-23.387v-21.364z" fill="#dff6fd"/><g><path d="m158.745 234.18v63.12c0 9.533 7.728 17.261 17.261 17.261 9.533 0 17.261-7.728 17.261-17.261v-16.113c0-12.916 10.471-23.387 23.387-23.387 12.916 0 23.387-10.471 23.387-23.387v-.233c0-5.691-4.614-10.305-10.305-10.305h-60.686c-5.691 0-10.305 4.614-10.305 10.305z" fill="#c76d3d"/></g></g></g><path d="m321.607 100.348h-111.54c-7.101 0-12.877-5.777-12.877-12.877 0-7.101 5.777-12.877 12.877-12.877h18.136c15.621 0 28.33-12.709 28.33-28.33v-3.091c0-4.268-3.459-7.726-7.726-7.726s-7.726 3.459-7.726 7.726v3.091c0 7.101-5.777 12.877-12.877 12.877h-48.854c-15.621 0-28.33 12.709-28.33 28.33s12.709 28.33 28.33 28.33h111.285c8.236 0 14.938 6.701 14.938 14.938s-6.701 14.938-14.938 14.938h-41.538c-15.621 0-28.33 12.709-28.33 28.33v12.362c0 4.268 3.459 7.726 7.726 7.726 4.268 0 7.726-3.459 7.726-7.726v-12.362c0-7.101 5.777-12.877 12.877-12.877h72.512c16.758 0 30.39-13.633 30.39-30.39s-13.634-30.392-30.391-30.392zm-155.136-12.877c0-7.101 5.777-12.877 12.877-12.877h5.497c-1.982 3.867-3.109 8.242-3.109 12.877 0 4.636 1.127 9.011 3.109 12.877h-5.497c-7.101 0-12.877-5.777-12.877-12.877zm155.136 58.205h-4.524c2.503-4.415 3.94-9.51 3.94-14.938s-1.437-10.523-3.94-14.938h4.524c8.236 0 14.938 6.701 14.938 14.938s-6.702 14.938-14.938 14.938z" fill="#c9f0fd"/></g></svg>