<svg id="Capa_1" enable-background="new 0 0 512 512" height="512" viewBox="0 0 512 512" width="512" xmlns="http://www.w3.org/2000/svg"><g><g><path d="m396.516 79.727h-90.612v-69.433c0-5.685 4.609-10.294 10.294-10.294h70.023c5.685 0 10.294 4.609 10.294 10.294v69.433z" fill="#ffc5b0"/><path d="m396.515 10.299v69.424h-37.059v-69.424c0-5.693-4.612-10.294-10.294-10.294h37.059c5.682 0 10.294 4.601 10.294 10.294z" fill="#fcac8d"/><path d="m431.724 107.341h-161.028v-39.281c0-5.685 4.609-10.294 10.294-10.294h140.44c5.685 0 10.294 4.609 10.294 10.294z" fill="#fc7d4b"/><path d="m431.721 68.06v39.283h-37.059v-39.283c0-5.682-4.602-10.294-10.294-10.294h37.059c5.693 0 10.294 4.612 10.294 10.294z" fill="#fb6a3b"/><path d="m457.081 151.333v330.441c0 5.687-4.605 10.302-10.292 10.302h-191.16c-5.676 0-10.292-4.615-10.292-10.302l.01-330.441z" fill="#fc7d4b"/><path d="m457.081 151.333v34.079h-211.743l.01-34.079z" fill="#fb6a3b"/><path d="m457.081 151.333v330.441c0 5.697-4.605 10.292-10.302 10.292h-37.056c5.687 0 10.291-4.595 10.291-10.292v-330.441z" fill="#fb6a3b"/><path d="m457.076 106.066v55.568h-211.732v-55.568c0-5.693 4.602-10.294 10.294-10.294h191.144c5.693 0 10.294 4.602 10.294 10.294z" fill="#ffc5b0"/><path d="m457.076 106.066v55.568h-37.059v-55.568c0-5.693-4.602-10.294-10.294-10.294h37.059c5.693 0 10.294 4.602 10.294 10.294z" fill="#fcac8d"/><path d="m435.046 511.995h-167.673c-17.056 0-30.883-13.827-30.883-30.883v-27.392c0-5.685 4.609-10.294 10.294-10.294h208.85c5.685 0 10.294 4.609 10.294 10.294v27.393c.001 17.055-13.826 30.882-30.882 30.882z" fill="#ffc5b0"/><path d="m465.929 453.724v27.393c0 17.047-13.825 30.883-30.883 30.883h-37.059c17.058 0 30.883-13.835 30.883-30.883v-27.393c0-5.693-4.612-10.294-10.294-10.294h37.059c5.682 0 10.294 4.601 10.294 10.294z" fill="#fcac8d"/><path d="m391.446 242.924 7.261-23.485c.804-2.602-.548-5.376-3.096-6.339-8.149-3.079-26.205-9.01-44.401-9.01-17.931 0-36.153 5.947-44.377 9.023-2.558.957-3.921 3.737-3.114 6.346l7.255 23.466c.667 2.158 2.662 3.629 4.921 3.629h70.63c2.258-.001 4.254-1.472 4.921-3.63z" fill="#ec462e"/></g><g><path d="m226.902 512h-149.926c-17.069 0-30.905-13.837-30.905-30.905v-114.866c0-5.69 4.612-10.302 10.302-10.302h191.133c5.69 0 10.302 4.612 10.302 10.302v114.865c0 17.069-13.837 30.906-30.906 30.906z" fill="#ffc5b0"/><path d="m257.805 366.229v114.865c0 17.07-13.835 30.905-30.905 30.905h-39.044c17.07 0 30.905-13.835 30.905-30.905v-114.865c0-5.687-4.615-10.302-10.302-10.302h39.044c5.697.001 10.302 4.616 10.302 10.302z" fill="#fcac8d"/></g><g><path d="m362.58 266.048h-22.741c-4.268 0-7.726 3.459-7.726 7.726s3.459 7.726 7.726 7.726h22.741c4.268 0 7.726-3.459 7.726-7.726s-3.458-7.726-7.726-7.726z" fill="#fb6a3b"/><path d="m224.236 378.757h-144.594c-4.268 0-7.726 3.459-7.726 7.726 0 4.268 3.459 7.726 7.726 7.726h144.595c4.268 0 7.726-3.459 7.726-7.726 0-4.268-3.459-7.726-7.727-7.726z" fill="#fcac8d"/><path d="m146.937 246.346c8.236 0 14.938 6.701 14.938 14.938 0 8.236-6.701 14.938-14.938 14.938h-1.362c-15.621 0-28.33 12.709-28.33 28.33v12.362c0 4.268 3.459 7.726 7.726 7.726s7.726-3.459 7.726-7.726v-12.362c0-7.101 5.777-12.877 12.877-12.877h32.335c16.758 0 30.39-13.633 30.39-30.39 0-16.758-13.633-30.39-30.39-30.39h-55.91c-7.101 0-12.877-5.777-12.877-12.877s5.777-12.877 12.877-12.877h18.136c15.621 0 28.33-12.709 28.33-28.33v-3.091c0-4.268-3.459-7.726-7.726-7.726s-7.726 3.459-7.726 7.726v3.091c0 7.101-5.777 12.877-12.877 12.877h-48.854c-15.621 0-28.33 12.709-28.33 28.33s12.709 28.33 28.33 28.33h55.655zm45.91 14.938c0 8.236-6.701 14.938-14.938 14.938h-4.523c2.503-4.415 3.94-9.51 3.94-14.938s-1.437-10.523-3.94-14.938h4.523c8.237 0 14.938 6.701 14.938 14.938zm-114.443-43.268c0-7.101 5.777-12.877 12.877-12.877h5.496c-1.982 3.867-3.109 8.242-3.109 12.877s1.127 9.011 3.109 12.877h-5.496c-7.1 0-12.877-5.776-12.877-12.877z" fill="#c9f0fd"/></g></g></svg>