<svg id="Capa_1" enable-background="new 0 0 512 512" height="512" viewBox="0 0 512 512" width="512" xmlns="http://www.w3.org/2000/svg"><g><g><path d="m512 138.921v330.595c0 5.687-4.615 10.302-10.302 10.302h-491.396c-5.687 0-10.302-4.615-10.302-10.302v-330.595z" fill="#c9f0fd"/><path d="m512 138.921v330.595c0 5.687-4.615 10.302-10.302 10.302h-50.685c5.697 0 10.302-4.615 10.302-10.302v-330.595z" fill="#9ce6fb"/><path d="m512 85.899v63.325h-512v-63.325c0-11.384 9.22-20.604 20.604-20.604h470.793c11.383.001 20.603 9.221 20.603 20.604z" fill="#fb6a3b"/><g fill="#fb5532"><g><path d="m140.362 65.296v49.593c0 5.687-4.615 10.302-10.302 10.302h-48.243c-5.687 0-10.302-4.615-10.302-10.302v-49.593z"/><path d="m440.485 65.296v49.593c0 5.687-4.615 10.302-10.302 10.302h-48.243c-5.687 0-10.302-4.615-10.302-10.302v-49.593z"/></g><path d="m512 85.899v63.325h-50.685v-63.325c0-11.384-9.22-20.604-20.604-20.604h50.685c11.384.001 20.604 9.221 20.604 20.604z"/></g></g><g><path d="m223.172 307.837h-3.969l.91-1.821c1.908-3.817.362-8.458-3.455-10.366-3.817-1.911-8.458-.361-10.366 3.455l-4.366 8.732h-16.421l2.92-9.02c1.168-3.61-.457-7.533-3.836-9.26l-8.442-4.313 11.611-11.611 9.26 3.087c.811.271 1.634.398 2.445.398 3.234 0 6.249-2.047 7.329-5.285 1.349-4.048-.839-8.424-4.886-9.774l-1.931-.644 2.806-2.806c3.018-3.018 3.018-7.909 0-10.928-3.017-3.015-7.909-3.017-10.927 0l-2.807 2.807-.644-1.932c-1.35-4.048-5.723-6.229-9.774-4.886-4.048 1.35-6.235 5.725-4.886 9.774l3.087 9.262-11.611 11.611-4.314-8.443c-1.726-3.379-5.651-5.005-9.26-3.836l-9.02 2.921v-16.421l8.732-4.366c3.816-1.907 5.364-6.549 3.456-10.365-1.908-3.818-6.549-5.363-10.366-3.456l-1.821.911v-3.969c0-4.268-3.459-7.726-7.726-7.726s-7.726 3.459-7.726 7.726v3.969l-1.821-.91c-3.814-1.909-8.456-.362-10.366 3.456-1.908 3.816-.361 8.457 3.456 10.365l8.731 4.365v16.421l-9.019-2.92c-3.608-1.169-7.534.459-9.26 3.836l-4.313 8.443-11.611-11.611 3.087-9.262c1.349-4.048-.839-8.425-4.887-9.774-4.051-1.349-8.424.838-9.773 4.886l-.644 1.932-2.806-2.806c-3.017-3.016-7.909-3.016-10.927 0-3.018 3.018-3.018 7.909 0 10.928l2.806 2.806-1.932.644c-4.048 1.35-6.235 5.725-4.886 9.774 1.079 3.237 4.094 5.285 7.329 5.285.81 0 1.634-.129 2.445-.398l9.261-3.087 11.611 11.611-8.442 4.313c-3.379 1.726-5.005 5.65-3.836 9.26l2.92 9.02h-16.421l-4.366-8.732c-1.908-3.816-6.548-5.362-10.366-3.455-3.817 1.908-5.364 6.549-3.455 10.366l.91 1.821h-3.969c-4.267 0-7.726 3.459-7.726 7.726s3.459 7.726 7.726 7.726h3.97l-.91 1.821c-1.908 3.817-.362 8.458 3.455 10.366 1.109.555 2.288.818 3.449.818 2.834 0 5.563-1.565 6.916-4.273l4.366-8.732h16.421l-2.92 9.02c-1.169 3.61.457 7.533 3.836 9.26l8.442 4.313-11.611 11.611-9.262-3.087c-4.049-1.353-8.424.839-9.773 4.887s.839 8.424 4.887 9.773l1.931.644-2.806 2.806c-3.018 3.018-3.018 7.909 0 10.928 1.509 1.508 3.486 2.263 5.463 2.263s3.955-.755 5.463-2.263l2.807-2.807.644 1.931c1.079 3.237 4.094 5.285 7.329 5.285.81 0 1.634-.129 2.444-.398 4.048-1.349 6.236-5.725 4.887-9.774l-3.087-9.261 11.611-11.611 4.313 8.442c1.725 3.379 5.651 5.004 9.26 3.836l9.02-2.92v16.42l-8.731 4.365c-3.817 1.908-5.364 6.549-3.456 10.365 1.908 3.817 6.549 5.364 10.366 3.456l1.821-.91v3.97c0 4.268 3.459 7.726 7.726 7.726s7.726-3.459 7.726-7.726v-3.97l1.821.911c1.11.555 2.288.818 3.449.818 2.834 0 5.563-1.565 6.917-4.274 1.908-3.816.361-8.458-3.456-10.365l-8.732-4.366v-16.421l9.02 2.92c.787.255 1.588.376 2.379.376 2.837 0 5.531-1.57 6.881-4.212l4.314-8.442 11.611 11.611-3.087 9.261c-1.349 4.048.839 8.424 4.886 9.774.811.271 1.634.398 2.445.398 3.234 0 6.249-2.047 7.329-5.285l.644-1.932 2.807 2.807c1.509 1.508 3.486 2.263 5.463 2.263s3.955-.755 5.463-2.263c3.018-3.018 3.018-7.909 0-10.928l-2.806-2.806 1.931-.644c4.048-1.349 6.236-5.724 4.887-9.773s-5.726-6.234-9.773-4.887l-9.261 3.087-11.611-11.611 8.442-4.313c3.379-1.726 5.004-5.65 3.836-9.26l-2.919-9.02h16.42l4.366 8.732c1.354 2.707 4.082 4.273 6.917 4.273 1.161 0 2.34-.264 3.449-.818 3.817-1.908 5.364-6.549 3.455-10.366l-.91-1.821h3.969c4.267 0 7.726-3.459 7.726-7.726s-3.46-7.726-7.727-7.726zm-51.476-7.515-2.433 7.515h-15.708l11.108-11.108zm-21.554-21.554 3.594 7.033-11.109 11.109v-15.708zm-30.482 0 7.514 2.433v15.708l-11.108-11.107zm-21.553 21.554 7.033-3.593 11.108 11.108h-15.708zm0 30.483 2.433-7.515h15.708l-11.108 11.108zm21.553 21.553-3.593-7.034 11.107-11.107v15.708zm30.482 0-7.515-2.433v-15.709l11.108 11.108zm21.554-21.553-7.033 3.593-11.108-11.108h15.709z" fill="#84aee1"/><g fill="#17998c"><path d="m332.83 225.806h-10.552c-4.267 0-7.726 3.459-7.726 7.726s3.459 7.726 7.726 7.726h10.552c4.267 0 7.726-3.459 7.726-7.726s-3.459-7.726-7.726-7.726z"/><path d="m377.01 225.806h-10.551c-4.267 0-7.726 3.459-7.726 7.726s3.459 7.726 7.726 7.726h10.551c4.267 0 7.726-3.459 7.726-7.726s-3.459-7.726-7.726-7.726z"/><path d="m421.19 225.806h-10.552c-4.267 0-7.726 3.459-7.726 7.726s3.459 7.726 7.726 7.726h10.552c4.267 0 7.726-3.459 7.726-7.726s-3.459-7.726-7.726-7.726z"/><path d="m454.818 241.258h10.552c4.267 0 7.726-3.459 7.726-7.726s-3.459-7.726-7.726-7.726h-10.552c-4.267 0-7.726 3.459-7.726 7.726s3.459 7.726 7.726 7.726z"/></g><path d="m288.65 266.822h-10.552c-4.267 0-7.726 3.459-7.726 7.726s3.459 7.726 7.726 7.726h10.552c4.267 0 7.726-3.459 7.726-7.726s-3.459-7.726-7.726-7.726z" fill="#fb6a3b"/><path d="m332.83 266.822h-10.552c-4.267 0-7.726 3.459-7.726 7.726s3.459 7.726 7.726 7.726h10.552c4.267 0 7.726-3.459 7.726-7.726s-3.459-7.726-7.726-7.726z" fill="#17998c"/><path d="m377.01 266.822h-10.551c-4.267 0-7.726 3.459-7.726 7.726s3.459 7.726 7.726 7.726h10.551c4.267 0 7.726-3.459 7.726-7.726s-3.459-7.726-7.726-7.726z" fill="#17998c"/><path d="m421.19 266.822h-10.552c-4.267 0-7.726 3.459-7.726 7.726s3.459 7.726 7.726 7.726h10.552c4.267 0 7.726-3.459 7.726-7.726s-3.459-7.726-7.726-7.726z" fill="#17998c"/><path d="m465.37 266.822h-10.552c-4.267 0-7.726 3.459-7.726 7.726s3.459 7.726 7.726 7.726h10.552c4.267 0 7.726-3.459 7.726-7.726s-3.459-7.726-7.726-7.726z" fill="#17998c"/><path d="m288.65 307.837h-10.552c-4.267 0-7.726 3.459-7.726 7.726s3.459 7.726 7.726 7.726h10.552c4.267 0 7.726-3.459 7.726-7.726s-3.459-7.726-7.726-7.726z" fill="#fb6a3b"/><path d="m332.83 307.837h-10.552c-4.267 0-7.726 3.459-7.726 7.726s3.459 7.726 7.726 7.726h10.552c4.267 0 7.726-3.459 7.726-7.726s-3.459-7.726-7.726-7.726z" fill="#17998c"/><path d="m377.01 307.837h-10.551c-4.267 0-7.726 3.459-7.726 7.726s3.459 7.726 7.726 7.726h10.551c4.267 0 7.726-3.459 7.726-7.726s-3.459-7.726-7.726-7.726z" fill="#17998c"/><path d="m421.19 307.837h-10.552c-4.267 0-7.726 3.459-7.726 7.726s3.459 7.726 7.726 7.726h10.552c4.267 0 7.726-3.459 7.726-7.726s-3.459-7.726-7.726-7.726z" fill="#17998c"/><path d="m465.37 307.837h-10.552c-4.267 0-7.726 3.459-7.726 7.726s3.459 7.726 7.726 7.726h10.552c4.267 0 7.726-3.459 7.726-7.726s-3.459-7.726-7.726-7.726z" fill="#17998c"/><path d="m288.65 348.852h-10.552c-4.267 0-7.726 3.459-7.726 7.726s3.459 7.726 7.726 7.726h10.552c4.267 0 7.726-3.459 7.726-7.726s-3.459-7.726-7.726-7.726z" fill="#fb6a3b"/><path d="m332.83 348.852h-10.552c-4.267 0-7.726 3.459-7.726 7.726s3.459 7.726 7.726 7.726h10.552c4.267 0 7.726-3.459 7.726-7.726s-3.459-7.726-7.726-7.726z" fill="#17998c"/><path d="m377.01 348.852h-10.551c-4.267 0-7.726 3.459-7.726 7.726s3.459 7.726 7.726 7.726h10.551c4.267 0 7.726-3.459 7.726-7.726s-3.459-7.726-7.726-7.726z" fill="#17998c"/><path d="m421.19 348.852h-10.552c-4.267 0-7.726 3.459-7.726 7.726s3.459 7.726 7.726 7.726h10.552c4.267 0 7.726-3.459 7.726-7.726s-3.459-7.726-7.726-7.726z" fill="#17998c"/><path d="m465.37 348.852h-10.552c-4.267 0-7.726 3.459-7.726 7.726s3.459 7.726 7.726 7.726h10.552c4.267 0 7.726-3.459 7.726-7.726s-3.459-7.726-7.726-7.726z" fill="#17998c"/><path d="m288.65 389.867h-10.552c-4.267 0-7.726 3.459-7.726 7.726s3.459 7.726 7.726 7.726h10.552c4.267 0 7.726-3.459 7.726-7.726s-3.459-7.726-7.726-7.726z" fill="#fb6a3b"/><path d="m332.83 389.867h-10.552c-4.267 0-7.726 3.459-7.726 7.726s3.459 7.726 7.726 7.726h10.552c4.267 0 7.726-3.459 7.726-7.726s-3.459-7.726-7.726-7.726z" fill="#17998c"/><path d="m377.01 389.867h-10.551c-4.267 0-7.726 3.459-7.726 7.726s3.459 7.726 7.726 7.726h10.551c4.267 0 7.726-3.459 7.726-7.726s-3.459-7.726-7.726-7.726z" fill="#17998c"/></g><g><g><path d="m130.057 101.026h-48.24c-5.69 0-10.302-4.612-10.302-10.302v-48.24c0-5.69 4.612-10.302 10.302-10.302h48.24c5.69 0 10.302 4.612 10.302 10.302v48.24c0 5.69-4.612 10.302-10.302 10.302z" fill="#23f1a8"/><path d="m140.362 42.487v48.233c0 5.697-4.615 10.302-10.302 10.302h-32.832c5.687 0 10.302-4.605 10.302-10.302v-48.233c0-5.697-4.615-10.302-10.302-10.302h32.832c5.687 0 10.302 4.605 10.302 10.302z" fill="#27e19d"/></g><g><path d="m430.183 101.026h-48.24c-5.69 0-10.302-4.612-10.302-10.302v-48.24c0-5.69 4.612-10.302 10.302-10.302h48.24c5.69 0 10.302 4.612 10.302 10.302v48.24c0 5.69-4.612 10.302-10.302 10.302z" fill="#23f1a8"/><path d="m440.485 42.487v48.233c0 5.697-4.615 10.302-10.302 10.302h-32.832c5.697 0 10.302-4.605 10.302-10.302v-48.233c0-5.697-4.605-10.302-10.302-10.302h32.832c5.687 0 10.302 4.605 10.302 10.302z" fill="#27e19d"/></g></g></g></svg>