<svg id="Capa_1" enable-background="new 0 0 512 512" height="512" viewBox="0 0 512 512" width="512" xmlns="http://www.w3.org/2000/svg"><g><g><g><path d="m111.27 120.252v37.014h-92.764c-10.22 0-18.506-8.286-18.506-18.507v-.001c0-10.221 8.286-18.506 18.506-18.506z" fill="#b3cbea"/><path d="m85.515 120.252h25.755v37.014h-25.755z" fill="#84aee1"/></g><g><path d="m512 125.403v26.713c0 2.845-2.306 5.151-5.151 5.151h-41.825v-37.014h41.825c2.845-.001 5.151 2.305 5.151 5.15z" fill="#b3cbea"/><path d="m465.024 120.252h25.755v37.014h-25.755z" fill="#84aee1"/></g><g><path d="m36.427 295.877h74.843v37.015h-74.843z" fill="#b3cbea"/><path d="m85.515 295.877h25.755v37.015h-25.755z" fill="#84aee1"/></g><g><path d="m54.929 329.028v95.147c0 2.845-2.306 5.151-5.151 5.151h-26.712c-2.845 0-5.151-2.306-5.151-5.151v-95.147z" fill="#b3cbea"/><path d="m54.929 329.028v39.301c-5.8 1.998-12.022 3.08-18.502 3.08s-12.702-1.082-18.512-3.08v-39.301z" fill="#84aee1"/></g><g><path d="m512 301.028v26.713c0 2.845-2.306 5.151-5.151 5.151h-41.825v-37.015h41.825c2.845 0 5.151 2.306 5.151 5.151z" fill="#b3cbea"/><path d="m465.024 295.877h25.755v37.015h-25.755z" fill="#84aee1"/></g><g><g><path d="m132.123 429.324c-14.362 0-26.004-11.642-26.004-26.004v-294.643c0-14.362 11.642-26.004 26.004-26.004 14.362 0 26.004 11.642 26.004 26.004h5.151v294.643h-5.151c0 14.362-11.643 26.004-26.004 26.004z" fill="#fcc16d"/><path d="m158.124 108.681h5.151v294.645h-5.151c0 14.355-11.64 25.995-25.996 25.995-4.741 0-9.181-1.269-13.009-3.483 7.779-4.485 13.009-12.887 13.009-22.512v-294.645c0-7.178-2.916-13.688-7.623-18.395-1.602-1.603-3.416-2.994-5.386-4.129 3.828-2.214 8.268-3.483 13.009-3.483 7.178 0 13.677 2.916 18.384 7.612 4.696 4.707 7.612 11.217 7.612 18.395z" fill="#fcb44d"/></g><g><path d="m184.131 429.324c-14.362 0-26.004-11.642-26.004-26.004v-294.643c0-14.362 11.642-26.004 26.004-26.004 14.362 0 26.004 11.642 26.004 26.004h5.151v294.643h-5.151c0 14.362-11.643 26.004-26.004 26.004z" fill="#fca62f"/><path d="m210.131 108.681h5.151v294.645h-5.151c0 14.355-11.64 25.995-25.996 25.995-4.741 0-9.181-1.269-13.009-3.483 7.779-4.485 13.009-12.887 13.009-22.512v-294.645c0-7.178-2.916-13.688-7.623-18.395-1.602-1.603-3.416-2.994-5.386-4.129 3.828-2.214 8.268-3.483 13.009-3.483 7.178 0 13.677 2.916 18.384 7.612 4.697 4.707 7.612 11.217 7.612 18.395z" fill="#fb9927"/></g><g><path d="m236.139 429.324c-14.362 0-26.004-11.642-26.004-26.004v-294.643c0-14.362 11.642-26.004 26.004-26.004 14.362 0 26.004 11.642 26.004 26.004h5.151v294.643h-5.151c-.001 14.362-11.643 26.004-26.004 26.004z" fill="#fcc16d"/><path d="m262.139 108.681h5.151v294.645h-5.151c0 14.355-11.64 25.995-25.996 25.995-4.741 0-9.181-1.269-13.009-3.483 7.779-4.485 13.009-12.887 13.009-22.512v-294.645c0-7.178-2.916-13.688-7.623-18.395-1.602-1.603-3.416-2.994-5.386-4.129 3.828-2.214 8.268-3.483 13.009-3.483 7.178 0 13.677 2.916 18.384 7.612 4.697 4.707 7.612 11.217 7.612 18.395z" fill="#fcb44d"/></g><g><path d="m288.146 429.324c-14.362 0-26.004-11.642-26.004-26.004v-294.643c0-14.362 11.642-26.004 26.004-26.004 14.362 0 26.004 11.642 26.004 26.004h5.151v294.643h-5.151c0 14.362-11.642 26.004-26.004 26.004z" fill="#fca62f"/><path d="m314.147 108.681h5.151v294.645h-5.151c0 14.355-11.64 25.995-25.996 25.995-4.741 0-9.181-1.269-13.009-3.483 7.779-4.485 13.009-12.887 13.009-22.512v-294.645c0-7.178-2.916-13.688-7.623-18.395-1.602-1.603-3.416-2.994-5.386-4.129 3.828-2.214 8.268-3.483 13.009-3.483 7.178 0 13.677 2.916 18.384 7.612 4.696 4.707 7.612 11.217 7.612 18.395z" fill="#fb9927"/></g><g><path d="m340.154 429.324c-14.362 0-26.004-11.642-26.004-26.004v-294.643c0-14.362 11.642-26.004 26.004-26.004 14.362 0 26.004 11.642 26.004 26.004h5.151v294.643h-5.151c0 14.362-11.642 26.004-26.004 26.004z" fill="#fcc16d"/><path d="m366.155 108.681h5.151v294.645h-5.151c0 14.355-11.64 25.995-25.996 25.995-4.741 0-9.181-1.269-13.009-3.483 7.779-4.485 13.009-12.887 13.009-22.512v-294.645c0-7.178-2.916-13.688-7.623-18.395-1.602-1.603-3.416-2.994-5.386-4.129 3.828-2.214 8.268-3.483 13.009-3.483 7.178 0 13.677 2.916 18.384 7.612 4.696 4.707 7.612 11.217 7.612 18.395z" fill="#fcb44d"/></g><g><path d="m392.162 429.324c-14.362 0-26.004-11.642-26.004-26.004v-294.643c0-14.362 11.642-26.004 26.004-26.004 14.362 0 26.004 11.642 26.004 26.004h5.151v294.643h-5.151c0 14.362-11.642 26.004-26.004 26.004z" fill="#fca62f"/><path d="m418.163 108.681h5.151v294.645h-5.151c0 14.355-11.64 25.995-25.996 25.995-4.741 0-9.181-1.269-13.009-3.483 7.779-4.485 13.009-12.887 13.009-22.512v-294.645c0-7.178-2.916-13.688-7.623-18.395-1.602-1.603-3.416-2.994-5.386-4.129 3.828-2.214 8.268-3.483 13.009-3.483 7.178 0 13.677 2.916 18.384 7.612 4.696 4.707 7.612 11.217 7.612 18.395z" fill="#fb9927"/></g><g><path d="m444.17 429.324c-14.362 0-26.004-11.642-26.004-26.004v-294.643c0-14.362 11.642-26.004 26.004-26.004 14.362 0 26.004 11.642 26.004 26.004v294.643c0 14.362-11.643 26.004-26.004 26.004z" fill="#fcc16d"/><path d="m470.17 108.681v294.645c0 14.355-11.64 25.995-25.996 25.995-4.741 0-9.181-1.269-13.009-3.483 7.779-4.485 13.009-12.887 13.009-22.512v-294.645c0-7.178-2.916-13.688-7.623-18.395-1.602-1.603-3.416-2.994-5.386-4.129 3.828-2.214 8.268-3.483 13.009-3.483 7.178 0 13.677 2.916 18.384 7.612 4.697 4.707 7.612 11.217 7.612 18.395z" fill="#fcb44d"/></g></g><circle cx="36.423" cy="314.387" fill="#fb6a3b" r="36.423"/><path d="m72.844 314.389c0 20.109-16.308 36.417-36.417 36.417-5.058 0-9.869-1.03-14.247-2.895 13.032-5.543 22.169-18.471 22.169-33.522 0-15.061-9.138-27.99-22.169-33.532 4.378-1.864 9.189-2.895 14.247-2.895 20.109 0 36.417 16.308 36.417 36.427z" fill="#fb5532"/></g><g><path d="m36.424 322.113c-4.267 0-7.726-3.459-7.726-7.726v-9.626c0-4.268 3.459-7.726 7.726-7.726s7.726 3.459 7.726 7.726v9.626c0 4.267-3.459 7.726-7.726 7.726z" fill="#fb5532"/></g></g></svg>