<svg id="Capa_1" enable-background="new 0 0 512 512" height="512" viewBox="0 0 512 512" width="512" xmlns="http://www.w3.org/2000/svg"><g><g><g><path d="m66.173 77.137c7.235-.362 14.241.385 20.868 2.078 1.279.327 2.584-.373 3.082-1.596 15.915-39.06 54.258-66.596 99.038-66.596 39.54 0 74.064 21.468 92.559 53.382 25.855 7.31 46.219 27.699 53.495 53.569.566-.019 1.132-.043 1.703-.043 27.266 0 49.362 22.136 49.296 49.418-.064 26.342-21.29 48.272-47.618 49.147-13.522.449-25.87-4.554-35.028-12.974-12.301 8.211-27.081 13.002-42.981 13.002-7.912 0-15.545-1.188-22.735-3.391-14.603 7.484-31.154 11.707-48.69 11.707-27.482 0-52.539-10.374-71.478-27.414-12.498 11.837-29.373 19.099-47.945 19.099-39.557 0-71.422-32.935-69.669-72.879 1.566-35.695 30.42-64.725 66.103-66.509z" fill="#9ce6fb"/><path d="m386.215 167.222c0 27.228-22.067 49.305-49.294 49.305-2.905 0-5.738-.247-8.499-.731 8.798-8.901 14.227-21.15 14.227-34.645 0-27.228-22.077-49.294-49.304-49.294-.567 0-1.133.021-1.7.041-7.273-25.868-27.64-46.255-53.497-53.569-18.492-31.915-53.013-53.384-92.551-53.384-3.379 0-6.717.154-10.013.464 15.752-9.148 34.058-14.381 53.58-14.381 39.538 0 74.06 21.469 92.562 53.374 25.847 7.314 46.214 27.701 53.487 53.569.567-.011 1.133-.041 1.71-.041 27.225-.002 49.292 22.075 49.292 49.292z" fill="#68dbf9"/></g><g><path d="m432.231 124.706c-8.466-.337-16.662.599-24.419 2.623-1.286.335-2.603-.368-3.1-1.6-18.874-46.789-64.702-79.812-118.25-79.812-46.773 0-87.659 25.195-109.835 62.751-.339.574-.882.995-1.522 1.184-29.689 8.759-53.156 32.024-62.199 61.59-.351 1.148-1.394 1.942-2.595 1.941h-.02c-32.13 0-58.238 25.78-58.768 57.784-.532 32.155 25.347 59.077 57.499 59.755 15.107.319 28.947-5.069 39.525-14.15.904-.776 2.191-.878 3.196-.238 14.322 9.116 31.322 14.401 49.557 14.401 9.07 0 17.833-1.31 26.114-3.745.64-.188 1.322-.128 1.918.171 17.184 8.63 36.589 13.488 57.129 13.488 31.911 0 61.08-11.731 83.439-31.11 1.004-.871 2.499-.894 3.488-.007 14.714 13.183 34.151 21.202 55.461 21.202 47.333 0 85.429-39.551 83.042-87.408-2.127-42.701-36.937-77.12-79.66-78.82z" fill="#dff6fd"/><path d="m511.937 204.509c1.526 39.694-24.786 73.495-60.967 83.452 15.646-15.704 25.067-37.641 24.202-61.751-1.512-42.123-34.861-76.782-76.898-79.863-4.995-.366-9.909-.285-14.705.204-8.73.889-17.096-3.573-21.207-11.325-21.398-40.348-63.821-67.833-112.68-67.833-15.797 0-30.928 2.872-44.89 8.135 22.116-18.484 50.598-29.612 81.674-29.612 53.546 0 99.378 33.023 118.246 79.811.506 1.255 1.852 1.923 3.162 1.583 6.996-1.819 14.352-2.747 21.938-2.662 44.04.493 80.433 35.849 82.125 79.861z" fill="#c9f0fd"/></g></g><g fill="#c9f0fd"><path d="m335.389 406.135h-2.311l.256-.512c1.908-3.817.362-8.458-3.455-10.366-3.818-1.907-8.458-.361-10.366 3.455l-3.712 7.424h-13.219l2.296-7.096c1.168-3.61-.458-7.533-3.836-9.26l-6.64-3.392 9.348-9.348 7.873 2.624c.811.27 1.635.398 2.445.398 3.235 0 6.249-2.047 7.329-5.285 1.349-4.048-.838-8.425-4.886-9.774l-.543-.181 1.634-1.634c3.017-3.018 3.017-7.909 0-10.928-3.018-3.015-7.909-3.017-10.928 0l-1.635 1.635-.181-.544c-1.349-4.048-5.723-6.229-9.774-4.886-4.048 1.35-6.235 5.725-4.886 9.774l2.625 7.873-9.347 9.347-3.393-6.641c-1.726-3.379-5.651-5.002-9.26-3.836l-7.096 2.297v-13.219l7.424-3.712c3.816-1.908 5.363-6.549 3.455-10.366-1.907-3.816-6.547-5.361-10.366-3.455l-.512.256v-2.311c0-4.268-3.459-7.726-7.726-7.726s-7.726 3.459-7.726 7.726v2.312l-.513-.257c-3.815-1.908-8.458-.362-10.366 3.456-1.908 3.816-.361 8.457 3.456 10.365l7.424 3.712v13.219l-7.095-2.297c-3.611-1.166-7.534.458-9.26 3.836l-3.393 6.641-9.347-9.347 2.624-7.873c1.349-4.048-.839-8.425-4.887-9.774-4.049-1.352-8.425.839-9.773 4.886l-.181.544-1.635-1.635c-3.017-3.016-7.909-3.016-10.927 0-3.018 3.018-3.018 7.909 0 10.928l1.634 1.634-.543.181c-4.048 1.349-6.236 5.725-4.887 9.774 1.079 3.237 4.094 5.285 7.329 5.285.81 0 1.634-.129 2.444-.398l7.873-2.624 9.348 9.348-6.641 3.392c-3.379 1.726-5.005 5.65-3.836 9.26l2.297 7.096h-13.219l-3.712-7.424c-1.908-3.816-6.548-5.363-10.366-3.455-3.817 1.908-5.364 6.549-3.455 10.366l.256.512h-2.312c-4.267 0-7.726 3.459-7.726 7.726 0 4.268 3.459 7.726 7.726 7.726h2.312l-.257.514c-1.908 3.816-.361 8.458 3.456 10.365 1.11.555 2.288.818 3.449.818 2.834 0 5.563-1.565 6.917-4.274l3.711-7.424h13.219l-2.297 7.095c-1.169 3.611.457 7.534 3.836 9.261l6.641 3.393-9.348 9.348-7.873-2.624c-4.047-1.353-8.423.838-9.773 4.886-1.349 4.048.839 8.425 4.887 9.774l.543.181-1.634 1.634c-3.018 3.018-3.018 7.909 0 10.928 1.509 1.508 3.486 2.263 5.463 2.263s3.955-.755 5.463-2.263l1.635-1.635.181.544c1.079 3.237 4.094 5.285 7.329 5.285.81 0 1.634-.129 2.444-.398 4.048-1.349 6.236-5.725 4.887-9.774l-2.624-7.873 9.348-9.347 3.393 6.641c1.35 2.643 4.044 4.212 6.881 4.212.79 0 1.592-.122 2.379-.376l7.095-2.297v13.219l-7.424 3.712c-3.817 1.908-5.364 6.549-3.456 10.365 1.909 3.817 6.548 5.364 10.366 3.456l.513-.257v2.312c0 4.268 3.459 7.726 7.726 7.726 4.268 0 7.726-3.459 7.726-7.726v-2.311l.512.256c1.11.555 2.289.818 3.45.818 2.834 0 5.563-1.565 6.916-4.273 1.908-3.817.361-8.458-3.455-10.366l-7.424-3.712v-13.214l7.096 2.292c3.609 1.168 7.533-.458 9.26-3.836l3.393-6.641 9.347 9.347-2.625 7.873c-1.349 4.048.838 8.424 4.886 9.774.811.271 1.635.398 2.445.398 3.234 0 6.25-2.047 7.329-5.285l.181-.544 1.635 1.635c1.509 1.508 3.487 2.263 5.464 2.263s3.955-.755 5.464-2.263c3.017-3.018 3.017-7.909 0-10.928l-1.634-1.634.543-.181c4.048-1.349 6.235-5.725 4.886-9.774-1.35-4.048-5.723-6.231-9.774-4.886l-7.873 2.624-9.348-9.348 6.64-3.393c3.379-1.726 5.004-5.65 3.836-9.26l-2.297-7.096h13.22l3.713 7.425c1.354 2.707 4.082 4.273 6.916 4.273 1.161 0 2.34-.264 3.45-.818 3.817-1.908 5.363-6.549 3.455-10.366l-.257-.513h2.312c4.268 0 7.726-3.459 7.726-7.726.001-4.267-3.458-7.726-7.726-7.726zm-47.24-5.59-1.809 5.59h-11.686l8.263-8.263zm-18.832-18.833 2.673 5.232-8.264 8.264v-11.686zm-26.633 0 5.59 1.81v11.686l-8.263-8.263zm-18.833 18.833 5.232-2.673 8.263 8.263h-11.685zm0 26.633 1.81-5.591h11.686l-8.264 8.264zm18.833 18.833-2.673-5.233 8.263-8.263v11.686zm26.633 0-5.591-1.81v-11.686l8.264 8.264zm18.832-18.833-5.232 2.673-8.264-8.264h11.686z"/><path d="m440.706 216.42c-3.989-1.494-8.448.525-9.948 4.521-1.728 4.609-6.197 7.705-11.12 7.705-4.108 0-7.894-2.161-10.042-5.554 7.643-6.09 13.713-14.2 17.276-23.696 1.499-3.995-.525-8.45-4.52-9.949-3.994-1.496-8.449.525-9.949 4.52-5.784 15.417-20.733 25.776-37.198 25.776-16.466 0-31.414-10.358-37.197-25.776-1.499-3.994-5.951-6.016-9.949-4.52-3.995 1.499-6.018 5.953-4.52 9.949 8.033 21.412 28.796 35.8 51.666 35.8 7.372 0 14.521-1.503 21.1-4.246 4.898 8.018 13.733 13.148 23.333 13.148 11.327 0 21.61-7.126 25.589-17.731 1.498-3.995-.525-8.448-4.521-9.947z"/></g></g></svg>