<svg id="Capa_1" enable-background="new 0 0 512 512" height="512" viewBox="0 0 512 512" width="512" xmlns="http://www.w3.org/2000/svg"><g><g fill="#5591d6"><path d="m71.598 282.248h63.184v40.877h-63.184z"/><path d="m355.977 282.248h63.184v40.877h-63.184z"/></g><path d="m486.277 351.495h-460.554c-11.805 0-21.375-9.57-21.375-21.375 0-5.69 4.612-10.302 10.302-10.302h482.701c5.69 0 10.302 4.612 10.302 10.302-.001 11.805-9.571 21.375-21.376 21.375z" fill="#b3cbea"/><path d="m507.653 330.116c0 5.903-2.39 11.25-6.264 15.113-3.863 3.873-9.21 6.264-15.113 6.264h-33.234c5.903 0 11.25-2.39 15.113-6.264 3.874-3.863 6.264-9.21 6.264-15.113 0-5.687-4.615-10.302-10.302-10.302h33.234c5.686 0 10.302 4.615 10.302 10.302z" fill="#84aee1"/><path d="m384.686 206.402h-281.409c-4.268 0-7.726 3.459-7.726 7.726s3.459 7.726 7.726 7.726h39.762v23.911c0 4.268 3.459 7.726 7.726 7.726s7.726-3.459 7.726-7.726v-23.911h173.368v23.911c0 4.268 3.459 7.726 7.726 7.726s7.726-3.459 7.726-7.726v-23.911h37.374c4.268 0 7.726-3.459 7.726-7.726s-3.457-7.726-7.725-7.726z" fill="#b3cbea"/><g><path d="m452.216 288.375h-429.222c-12.7 0-22.994-10.295-22.994-22.994 0-12.7 10.294-22.994 22.994-22.994h429.222c7.608 0 13.796-6.189 13.796-13.796v-8.301c0-7.608-6.189-13.796-13.796-13.796-12.7 0-22.994-10.294-22.994-22.994s10.294-22.994 22.994-22.994c32.965 0 59.784 26.819 59.784 59.784v8.301c0 32.965-26.819 59.784-59.784 59.784z" fill="#fb6a3b"/></g><g><path d="m512 220.288v8.303c0 32.966-26.816 59.781-59.781 59.781h-33.244c32.966 0 59.792-26.816 59.792-59.781v-8.303c0-25.682-16.277-47.625-39.064-56.073 3.595-2.349 7.891-3.709 12.517-3.709 32.964.001 59.78 26.816 59.78 59.782z" fill="#fb5532"/></g></g></svg>