<svg id="Capa_1" enable-background="new 0 0 512 512" height="512" viewBox="0 0 512 512" width="512" xmlns="http://www.w3.org/2000/svg"><g><g><path d="m200.777 134.002h-3.969l.91-1.821c1.908-3.817.361-8.458-3.456-10.366-3.815-1.907-8.458-.361-10.365 3.456l-4.365 8.731h-48.372l34.204-34.203 9.261 3.087c.811.27 1.635.398 2.445.398 3.234 0 6.249-2.048 7.329-5.285 1.349-4.048-.839-8.424-4.886-9.773l-1.931-.644 2.807-2.807c3.017-3.017 3.017-7.909 0-10.927s-7.908-3.018-10.928 0l-2.806 2.806-.644-1.931c-1.35-4.048-5.727-6.237-9.773-4.887-4.048 1.349-6.236 5.725-4.887 9.773l3.087 9.262-34.203 34.203v-48.371l8.731-4.366c3.816-1.908 5.363-6.549 3.455-10.366-1.908-3.816-6.547-5.363-10.366-3.455l-1.82.91v-3.968c0-4.267-3.459-7.726-7.726-7.726s-7.726 3.459-7.726 7.726v3.969l-1.821-.91c-3.819-1.909-8.459-.361-10.366 3.455-1.908 3.816-.361 8.458 3.455 10.366l8.732 4.366v48.372l-34.207-34.205 3.087-9.262c1.349-4.048-.839-8.424-4.887-9.773-4.051-1.351-8.424.839-9.773 4.887l-.644 1.931-2.806-2.806c-3.018-3.017-7.909-3.017-10.928 0-3.017 3.017-3.017 7.909 0 10.927l2.807 2.807-1.931.644c-4.047 1.35-6.235 5.725-4.886 9.773 1.079 3.238 4.094 5.285 7.329 5.285.81 0 1.634-.128 2.445-.398l9.261-3.087 34.204 34.203h-48.373l-4.365-8.731c-1.907-3.817-6.549-5.363-10.365-3.456-3.817 1.908-5.364 6.549-3.456 10.366l.91 1.821h-3.969c-4.268 0-7.726 3.459-7.726 7.726s3.459 7.726 7.726 7.726h3.969l-.911 1.821c-1.908 3.817-.361 8.458 3.456 10.366 1.109.554 2.288.817 3.449.817 2.834 0 5.563-1.565 6.917-4.273l4.366-8.732h48.372l-34.204 34.204-9.261-3.087c-4.052-1.349-8.425.839-9.774 4.887s.839 8.424 4.886 9.773l1.931.644-2.807 2.807c-3.017 3.017-3.017 7.909 0 10.927 1.509 1.509 3.486 2.263 5.464 2.263 1.977 0 3.955-.755 5.464-2.263l2.806-2.806.644 1.931c1.079 3.237 4.094 5.285 7.329 5.285.81 0 1.634-.128 2.444-.398 4.048-1.349 6.236-5.725 4.887-9.773l-3.087-9.262 34.204-34.204v48.372l-8.732 4.366c-3.816 1.908-5.363 6.549-3.455 10.366 1.907 3.817 6.548 5.365 10.366 3.455l1.821-.91v3.969c0 4.267 3.459 7.726 7.726 7.726s7.726-3.459 7.726-7.726v-3.968l1.82.91c1.11.555 2.289.817 3.45.817 2.834 0 5.563-1.565 6.916-4.272 1.908-3.817.361-8.458-3.455-10.366l-8.731-4.366v-48.371l34.203 34.203-3.087 9.262c-1.349 4.048.839 8.424 4.887 9.773.811.27 1.634.398 2.444.398 3.234 0 6.249-2.048 7.329-5.285l.644-1.931 2.806 2.806c1.509 1.509 3.486 2.263 5.464 2.263 1.977 0 3.955-.755 5.464-2.263 3.017-3.017 3.017-7.909 0-10.927l-2.807-2.807 1.931-.644c4.047-1.35 6.235-5.725 4.886-9.773-1.35-4.049-5.724-6.235-9.774-4.887l-9.261 3.087-34.204-34.204h48.372l4.366 8.732c1.353 2.708 4.082 4.273 6.917 4.273 1.161 0 2.34-.263 3.449-.817 3.817-1.908 5.364-6.549 3.456-10.366l-.911-1.821h3.969c4.268 0 7.726-3.459 7.726-7.726s-3.457-7.727-7.724-7.727z" fill="#9ce6fb"/><g><g><path d="m93.381 195.629c-2.836 0-5.53-1.57-6.88-4.212l-7.847-15.36c-.106-.206-.27-.37-.475-.474l-15.361-7.849c-3.379-1.726-5.004-5.65-3.836-9.26l5.313-16.41c.071-.22.071-.452 0-.672l-5.313-16.41c-1.168-3.61.457-7.534 3.836-9.26l15.36-7.848c.206-.106.37-.27.476-.475l7.847-15.36c1.726-3.379 5.653-5.004 9.26-3.836l16.409 5.312c.219.07.454.07.675-.001l16.408-5.311c3.609-1.169 7.533.456 9.26 3.836l7.847 15.36c.105.205.269.369.475.474l15.36 7.849c3.379 1.726 5.004 5.65 3.836 9.26l-5.312 16.41c-.071.22-.071.452 0 .672l5.312 16.41c1.168 3.61-.457 7.533-3.836 9.26l-15.359 7.848c-.207.106-.371.27-.476.475l-7.847 15.36c-1.726 3.379-5.651 5.006-9.26 3.836l-16.41-5.312c-.213-.068-.455-.07-.678.002l-16.404 5.31c-.787.254-1.589.376-2.38.376zm19.126-21.194c1.731 0 3.445.27 5.092.803l10.149 3.285 4.852-9.496c1.595-3.121 4.087-5.612 7.207-7.206l9.495-4.851-3.285-10.146c-1.078-3.333-1.078-6.857 0-10.19l3.285-10.145-9.496-4.852c-3.12-1.593-5.612-4.085-7.206-7.205l-4.852-9.497-10.146 3.284c-3.333 1.078-6.855 1.079-10.188.001l-10.148-3.285-4.851 9.496c-1.594 3.121-4.087 5.613-7.207 7.207l-9.495 4.851 3.285 10.145c1.078 3.333 1.078 6.857 0 10.191l-3.285 10.145 9.496 4.852c3.12 1.593 5.613 4.085 7.206 7.206l4.851 9.495 10.146-3.284c1.652-.534 3.365-.804 5.095-.804z" fill="#f2fbff"/></g></g></g><g><path d="m443.372 298.627h-427.794c-8.603 0-15.578-6.975-15.578-15.578s6.975-15.578 15.578-15.578h427.794c20.662 0 37.472-16.81 37.472-37.472s-16.809-37.472-37.472-37.472h-17.806c-8.603 0-15.578-6.975-15.578-15.578s6.975-15.578 15.578-15.578h17.806c37.842 0 68.628 30.786 68.628 68.627 0 37.842-30.786 68.629-68.628 68.629z" fill="#5591d6"/></g><g><path d="m319.751 329.013h-304.173c-8.603 0-15.578 6.974-15.578 15.578 0 8.603 6.975 15.578 15.578 15.578h304.173c20.662 0 37.472 16.81 37.472 37.472s-16.809 37.472-37.472 37.472h-79.617c-8.603 0-15.578 6.975-15.578 15.578s6.975 15.578 15.578 15.578h79.617c37.842 0 68.628-30.786 68.628-68.627 0-37.843-30.786-68.629-68.628-68.629z" fill="#9ce6fb"/></g><path d="m137.585 466.268h30.399c8.638 0 15.64-7.002 15.64-15.64 0-8.638-7.002-15.64-15.64-15.64h-30.399c-8.638 0-15.64 7.002-15.64 15.64 0 8.638 7.002 15.64 15.64 15.64z" fill="#dff6fd"/><g><path d="m396.211 239.95h-171.921c-4.268 0-7.726-3.459-7.726-7.726s3.459-7.726 7.726-7.726h171.922c4.268 0 7.726 3.459 7.726 7.726 0 4.266-3.459 7.726-7.727 7.726z" fill="#9ce6fb"/></g><g><path d="m464.097 340.177h-58.72c-4.268 0-7.726-3.459-7.726-7.726s3.459-7.726 7.726-7.726h58.72c4.268 0 7.726 3.459 7.726 7.726s-3.459 7.726-7.726 7.726z" fill="#5591d6"/></g><g><path d="m110.158 404.112h-78.302c-4.268 0-7.726-3.459-7.726-7.726s3.459-7.726 7.726-7.726h78.302c4.268 0 7.726 3.459 7.726 7.726s-3.458 7.726-7.726 7.726z" fill="#9ce6fb"/></g></g></svg>