<svg id="Capa_1" enable-background="new 0 0 512 512" height="512" viewBox="0 0 512 512" width="512" xmlns="http://www.w3.org/2000/svg"><g><g><g><path d="m91.035 30.993c-8.613 7.92-31.438 32.868-31.438 74.844h146.169s-21.126-75.285-107.482-77.555c-2.677-.07-5.278.899-7.249 2.711z" fill="#fb5532"/><path d="m256 105.837h-154.264c0-53.872 30.13-85.267 40.104-94.184 1.948-1.742 4.487-2.666 7.099-2.613 53.208 1.095 86.712 24.331 107.06 47.761v49.036z" fill="#20b69f"/><g><path d="m205.774 106.186c-2.613 0-5.161-1.325-6.614-3.721-.219-.358-14.563-23.488-41.094-38.304-3.725-2.08-5.058-6.787-2.978-10.513 2.08-3.724 6.786-5.058 10.513-2.978 30.307 16.925 46.119 42.703 46.778 43.792 2.207 3.652 1.036 8.402-2.616 10.61-1.25.755-2.628 1.114-3.989 1.114z" fill="#17998c"/></g></g><g><path d="m420.965 30.993c8.613 7.92 31.438 32.868 31.438 74.844h-146.169s21.126-75.285 107.482-77.555c2.677-.07 5.278.899 7.249 2.711z" fill="#ec462e"/><path d="m256 105.837h154.264c0-53.872-30.13-85.267-40.104-94.184-1.948-1.742-4.487-2.666-7.099-2.613-53.208 1.096-86.713 24.332-107.061 47.761z" fill="#20b69f"/><path d="m410.259 105.837h-36.819c0-53.013-29.175-84.259-39.61-93.736 9.014-1.772 18.739-2.843 29.226-3.06 2.617-.052 5.151.865 7.108 2.617 9.973 8.911 40.095 40.311 40.095 94.179z" fill="#17998c"/><path d="m280.381 105.837h-48.762v-67.256c0-5.69 4.612-10.302 10.302-10.302h28.158c5.69 0 10.302 4.612 10.302 10.302z" fill="#26d192"/><g><path d="m306.225 106.179c-1.364 0-2.745-.362-3.997-1.121-3.643-2.211-4.812-6.949-2.608-10.597.659-1.089 16.471-26.867 46.778-43.792 3.73-2.08 8.434-.746 10.513 2.978 2.08 3.726.747 8.433-2.978 10.513-26.603 14.856-40.953 38.073-41.095 38.306-1.456 2.391-4.003 3.713-6.613 3.713z" fill="#17998c"/></g></g></g><g><g><path d="m22.685 149.479h118.965v353.476h-108.664c-5.697 0-10.302-4.605-10.302-10.302v-343.174z" fill="#fb5532"/><path d="m489.315 149.479v343.174c0 5.697-4.605 10.302-10.302 10.302h-106.963v-353.476z" fill="#fb5532"/><g fill="#ec462e"><path d="m489.315 149.486v343.174c0 5.687-4.605 10.302-10.302 10.302h-43.268c5.697 0 10.302-4.615 10.302-10.302v-343.174z"/><path d="m22.685 149.479h118.965v51.818h-118.965z"/><path d="m372.05 149.479h117.266v51.818h-117.266z"/></g></g><g><path d="m119.673 149.484h272.655v353.475h-272.655z" fill="#26d192"/><g fill="#1ec186"><path d="m354.554 149.484h37.773v353.475h-37.773z"/><path d="m119.673 149.484h272.654v51.816h-272.654z"/></g></g><path d="m344.271 331.517h-3.969l.91-1.821c1.908-3.817.362-8.458-3.455-10.366-3.818-1.911-8.459-.362-10.366 3.455l-4.366 8.732h-16.42l2.919-9.02c1.168-3.61-.458-7.533-3.836-9.26l-8.441-4.313 11.611-11.611 9.261 3.087c.811.271 1.635.398 2.445.398 3.234 0 6.249-2.047 7.329-5.285 1.349-4.048-.838-8.424-4.886-9.774l-1.932-.644 2.806-2.806c3.017-3.018 3.017-7.909 0-10.928-3.018-3.016-7.909-3.016-10.928 0l-2.806 2.806-.644-1.931c-1.349-4.048-5.723-6.232-9.774-4.886-4.048 1.35-6.235 5.725-4.886 9.774l3.087 9.26-11.611 11.611-4.313-8.441c-1.726-3.38-5.652-5.005-9.26-3.836l-9.02 2.92v-16.421l8.732-4.366c3.816-1.908 5.363-6.549 3.455-10.366-1.908-3.816-6.546-5.36-10.366-3.455l-1.821.91v-3.969c0-4.268-3.459-7.726-7.726-7.726s-7.726 3.459-7.726 7.726v3.969l-1.821-.91c-3.818-1.91-8.459-.361-10.366 3.455-1.908 3.817-.361 8.458 3.455 10.366l8.732 4.366v16.421l-9.02-2.92c-3.608-1.168-7.533.457-9.26 3.836l-4.313 8.441-11.611-11.611 3.087-9.26c1.349-4.048-.838-8.424-4.886-9.774-4.05-1.355-8.425.837-9.774 4.886l-.644 1.931-2.806-2.806c-3.018-3.016-7.909-3.016-10.928 0-3.017 3.018-3.017 7.909 0 10.928l2.806 2.806-1.932.644c-4.048 1.35-6.235 5.725-4.886 9.774 1.079 3.237 4.095 5.285 7.329 5.285.81 0 1.634-.129 2.445-.398l9.261-3.087 11.612 11.612-8.442 4.313c-3.378 1.726-5.004 5.65-3.836 9.26l2.92 9.02h-16.421l-4.366-8.732c-1.908-3.815-6.546-5.362-10.366-3.455-3.817 1.908-5.363 6.549-3.455 10.366l.91 1.821h-3.969c-4.268 0-7.726 3.459-7.726 7.726s3.459 7.726 7.726 7.726h3.969l-.91 1.821c-1.908 3.817-.362 8.458 3.455 10.366 1.11.555 2.289.818 3.45.818 2.834 0 5.563-1.565 6.917-4.273l4.366-8.732h16.421l-2.92 9.02c-1.168 3.61.458 7.533 3.836 9.26l8.442 4.313-11.612 11.612-9.261-3.087c-4.051-1.352-8.425.838-9.774 4.886s.838 8.424 4.886 9.774l1.931.644-2.806 2.806c-3.017 3.018-3.017 7.909 0 10.928 1.509 1.508 3.487 2.263 5.464 2.263s3.955-.755 5.464-2.263l2.806-2.806.644 1.932c1.079 3.237 4.095 5.285 7.329 5.285.81 0 1.634-.129 2.445-.398 4.048-1.35 6.235-5.725 4.886-9.774l-3.087-9.261 11.611-11.611 4.313 8.442c1.35 2.643 4.043 4.212 6.88 4.212.791 0 1.593-.122 2.379-.376l9.02-2.92v16.421l-8.732 4.366c-3.816 1.908-5.363 6.549-3.455 10.366 1.909 3.817 6.549 5.363 10.366 3.455l1.821-.91v3.969c0 4.268 3.459 7.726 7.726 7.726s7.726-3.459 7.726-7.726v-3.969l1.821.91c1.11.555 2.289.818 3.45.818 2.834 0 5.563-1.565 6.917-4.273 1.908-3.817.361-8.458-3.455-10.366l-8.732-4.366v-16.421l9.02 2.92c3.609 1.168 7.533-.457 9.26-3.836l4.313-8.441 11.611 11.611-3.087 9.261c-1.349 4.048.838 8.424 4.886 9.774.811.271 1.635.398 2.445.398 3.234 0 6.25-2.047 7.329-5.285l.644-1.932 2.806 2.806c1.509 1.508 3.487 2.263 5.464 2.263s3.955-.755 5.464-2.263c3.017-3.018 3.017-7.909 0-10.928l-2.806-2.806 1.932-.644c4.048-1.35 6.235-5.725 4.886-9.774s-5.722-6.229-9.774-4.886l-9.261 3.087-11.611-11.611 8.442-4.313c3.378-1.726 5.004-5.65 3.836-9.26l-2.92-9.02h16.42l4.366 8.732c1.354 2.707 4.082 4.273 6.917 4.273 1.161 0 2.34-.264 3.45-.818 3.817-1.908 5.363-6.549 3.455-10.366l-.91-1.821h3.969c4.268 0 7.726-3.459 7.726-7.726s-3.46-7.729-7.727-7.729zm-51.476-7.514-2.432 7.514h-15.709l11.108-11.108zm-21.554-21.554 3.593 7.033-11.108 11.108v-15.708zm-30.481 0 7.514 2.432v15.709l-11.108-11.108zm-21.555 21.554 7.033-3.594 11.108 11.108h-15.708zm0 30.481 2.432-7.514h15.709l-11.108 11.108zm21.555 21.554-3.593-7.033 11.108-11.108v15.708zm30.481 0-7.515-2.433v-15.708l11.108 11.108zm21.554-21.554-7.033 3.594-11.108-11.108h15.709z" fill="#f2fbff"/><path d="m10.302 92.706h117.08v82.744h-117.08c-5.687 0-10.302-4.605-10.302-10.302v-62.141c0-5.696 4.615-10.301 10.302-10.301z" fill="#fc7d4b"/><path d="m512 103.008v62.141c0 5.697-4.615 10.302-10.302 10.302h-116.925v-82.745h116.926c5.686 0 10.301 4.605 10.301 10.302z" fill="#fc7d4b"/><path d="m512 103.004v62.151c0 5.687-4.615 10.302-10.302 10.302h-43.268c5.687 0 10.302-4.615 10.302-10.302v-62.151c0-5.687-4.615-10.302-10.302-10.302h43.268c5.687 0 10.302 4.616 10.302 10.302z" fill="#fb6a3b"/><path d="m107.311 92.701h297.379v82.752h-297.379z" fill="#23f1a8"/><path d="m364.856 92.701h39.834v82.752h-39.834z" fill="#26d192"/></g></g></svg>