<svg id="Capa_1" enable-background="new 0 0 512 512" height="512" viewBox="0 0 512 512" width="512" xmlns="http://www.w3.org/2000/svg"><g><g><path d="m495.844 100.878c-7.233.097-13.421 5.153-15.543 12.069-5.173 16.859-20.887 29.152-39.42 29.152-6.365 0-11.524-5.159-11.524-11.524v-62.564c0-9.132-7.618-16.485-16.846-16.051-8.643.407-15.292 7.852-15.292 16.505v120.145c0 22.779-18.474 41.212-41.252 41.221-5.485.002-10.831.611-15.974 1.761-13.02 2.913-25.37-7.035-25.37-20.377v-31.175c0-19.42-7.534-37.252-19.831-50.511 16.784-9.222 29.597-24.813 35.141-43.503 2.993-10.092-4.287-20.605-14.811-20.827-7.284-.154-13.915 4.489-15.937 11.464-4.98 17.168-20.847 29.755-39.6 29.755 0 0-17.586-.021-17.939-.018-22.904.209-41.604-18.363-41.604-41.22v-37.15c0-8.652-6.649-16.098-15.292-16.505-9.228-.435-16.846 6.919-16.846 16.051v37.326c0 40.412 32.567 74.008 72.977 73.64.128-.001.255.006.383.006v.008h.495c22.501.268 40.727 18.642 40.727 41.205l.109 92.475c.024 20.109-16.271 36.423-36.38 36.423-20.092 0-36.38-16.288-36.38-36.38v-51.801c0-40.413-32.567-74.01-72.978-73.642-22.904.208-41.604-18.363-41.604-41.22v-37.15c0-8.653-6.649-16.098-15.292-16.505-9.228-.434-16.846 6.919-16.846 16.051v37.324c0 40.413 32.567 74.01 72.978 73.642 22.904-.208 41.604 18.363 41.604 41.22 0 23.609-19.139 42.747-42.747 42.747h-61.59c-22.766 0-41.222-18.456-41.222-41.222v-37.15c0-8.652-6.649-16.098-15.292-16.505-9.228-.436-16.846 6.917-16.846 16.049v37.604c0 40.516 32.844 73.36 73.36 73.36h67.985c20.089 0 36.375 16.282 36.38 36.371l.041 161.316h137.01v-189.577c0-22.842 18.689-41.128 41.531-41.223 40.309-.167 73.051-33.011 73.051-73.359v-2.849c0-6.365 5.159-11.524 11.524-11.524 33.371 0 61.608-22.397 70.471-52.948 2.981-10.277-4.766-20.553-15.509-20.41z" fill="#da875d"/><path d="m511.358 121.284c-4.43 15.278-13.711 28.515-26.053 37.931-12.331 9.416-27.743 15.02-44.421 15.02-6.366 0-11.528 5.161-11.528 11.528v2.843c0 40.352-32.739 73.194-73.05 73.359-22.839.103-41.526 18.389-41.526 41.228v189.573h-31.812v-189.574c0-22.839 18.688-41.125 41.526-41.228 40.311-.165 73.05-33.007 73.05-73.359v-2.843c0-6.367 5.161-11.528 11.528-11.528 16.678 0 32.09-5.604 44.421-15.02 12.341-9.416 21.623-22.654 26.053-37.931.711-2.462.814-4.924.391-7.242.134-.361.247-.721.361-1.092 2.122-6.923 8.314-11.971 15.545-12.074 10.745-.143 18.492 10.138 15.515 20.409z" fill="#c76d3d"/><path d="m435.46 485.042h-37.618l3.37-15.841c.888-4.174-1.776-8.277-5.95-9.165-4.172-.886-8.277 1.776-9.165 5.95l-4.054 19.056h-4.594l-1.508-6.372c-.984-4.153-5.144-6.724-9.299-5.739-4.152.982-6.721 5.145-5.739 9.298l.666 2.814h-216.794l2.497-10.266c1.009-4.146-1.534-8.325-5.681-9.334-4.15-1.012-8.325 1.535-9.333 5.681l-3.386 13.918h-5.337l-2.353-18.427c-.54-4.233-4.41-7.228-8.643-6.686-4.232.54-7.225 4.41-6.685 8.642l2.103 16.47h-31.421c-4.268 0-7.726 3.459-7.726 7.726s3.459 7.726 7.726 7.726h358.924c4.268 0 7.726-3.459 7.726-7.726 0-4.266-3.459-7.725-7.726-7.725z" fill="#f2fbff"/><g fill="#c76d3d"><path d="m280.465 100.722v21.252c0 2.936-1.195 5.604-3.121 7.541-1.937 1.927-4.595 3.121-7.541 3.121-6.336 0-11.919 3.224-15.195 8.128-4.038-1.391-8.355-2.163-12.846-2.215h-.494c-.134 0-.258-.01-.381-.01-5.748.052-11.342-.587-16.699-1.834v-34.016c5.316 2.431 11.239 3.76 17.462 3.709.35 0 17.935.021 17.935.021 7.611 0 14.761-2.071 20.88-5.697z"/><path d="m244.507 420.65c-8.25 0-14.938-6.688-14.938-14.938v-91.102h29.875v91.103c0 8.249-6.687 14.937-14.937 14.937z"/></g></g><g><path d="m147.048 266.951v75.46c0 9.53-7.726 17.255-17.255 17.255-9.53 0-17.255-7.725-17.255-17.255v-23.357c0-8.908-7.222-16.13-16.13-16.13-16.915 0-30.628-13.713-30.628-30.628v-5.346c0-5.689 4.612-10.302 10.302-10.302h60.665c5.689.002 10.301 4.614 10.301 10.303z" fill="#f2fbff"/></g><g fill="#f2fbff"><path d="m351.289 294.519c-8.25 0-14.938-6.688-14.938-14.938v-49.896c0-5.689 4.612-10.302 10.302-10.302h9.272c5.689 0 10.302 4.612 10.302 10.302v49.896c0 8.25-6.688 14.938-14.938 14.938z"/><path d="m244.507 393.196c-8.25 0-14.938-6.688-14.938-14.938v-80.801c0-5.69 4.612-10.302 10.302-10.302h9.272c5.689 0 10.302 4.612 10.302 10.302v80.801c-.001 8.251-6.688 14.938-14.938 14.938z"/><path d="m270.163 93.49h-35.671c-5.689 0-10.302 4.612-10.302 10.302v67.316c0 7.367 5.661 13.705 13.02 14.052 7.857.37 14.342-5.89 14.342-13.666v-37.094c0-10.077 8.169-18.246 18.246-18.246 5.891 0 10.666-4.775 10.666-10.666v-1.696c.001-5.69-4.611-10.302-10.301-10.302z"/></g></g></svg>