<svg id="Capa_1" enable-background="new 0 0 512 512" height="512" viewBox="0 0 512 512" width="512" xmlns="http://www.w3.org/2000/svg"><g><g><g><path d="m254.776 345.443-128.165-127.225c-21.433-21.276-56.055-21.148-77.33.285-21.276 21.433-21.148 56.055.285 77.33l128.166 127.226z" fill="#fca62f"/><path d="m254.774 345.444-30.246 30.47-128.158-127.229c-16.03-15.901-39.441-19.851-59.118-11.856 2.647-6.671 6.649-12.919 12.03-18.329 21.27-21.427 55.895-21.555 77.334-.285z" fill="#f98824"/><path d="m154.352 185.299.217 58.894h294.043l-.216-58.863-.062-15.453-.082-23.406c-.299-81.003-66.065-146.471-147.007-146.471h-.556c-81.189.299-146.77 66.364-146.471 147.563l.082 22.345z" fill="#fb6a3b"/><path d="m402.214 146.642.359 97.55h46.04l-.36-97.72c-.149-40.593-16.742-77.285-43.45-103.798-26.697-26.501-63.522-42.822-104.115-42.673-7.829.029-15.518.67-23.007 1.877 31.394 4.823 59.539 19.58 81.094 40.966 26.697 26.513 43.289 63.205 43.439 103.798z" fill="#fb5532"/><path d="m448.947 337.384-.443-120.444h-294.032l.441 120.444z" fill="#fcb44d"/><path d="m449.36 449.789h-.231l-45.795.162-.868-233.011h46.038z" fill="#fca62f"/><path d="m449.36 449.789v.52h-.231l-293.801.567-.856-121.428h294.032z" fill="#24d1f8"/><path d="m449.36 449.789h-.231l-45.795.162-.451-120.503h45.621z" fill="#21c1f8"/><g><path d="m159.21 512c-21.836.08-39.602-17.556-39.683-39.391l-.116-31.41c-.08-21.836 17.556-39.602 39.391-39.682 21.836-.08 39.602 17.556 39.682 39.391l.116 31.41c.082 21.835-17.554 39.601-39.39 39.682z" fill="#20b69f"/><path d="m198.48 440.913.116 31.399c.08 21.846-17.549 39.605-39.383 39.686-7.193.026-13.954-1.868-19.784-5.212 11.783-6.89 19.692-19.687 19.638-34.328l-.116-31.399c-.04-10.917-4.506-20.789-11.691-27.921-2.438-2.42-5.198-4.526-8.2-6.261 5.805-3.387 12.552-5.331 19.745-5.358 10.917-.04 20.81 4.353 27.995 11.474 7.186 7.131 11.64 17.003 11.68 27.92z" fill="#17998c"/></g><g><path d="m229.208 511.742c-21.836.08-39.602-17.556-39.683-39.391l-.116-31.41c-.08-21.836 17.556-39.602 39.391-39.682 21.836-.08 39.602 17.556 39.682 39.391l.116 31.41c.082 21.835-17.554 39.602-39.39 39.682z" fill="#9ff7d3"/><path d="m268.482 440.655.116 31.399c.08 21.846-17.549 39.605-39.395 39.686-7.205.027-13.954-1.868-19.784-5.224 11.794-6.878 19.692-19.675 19.638-34.316l-.116-31.399c-.04-10.917-4.494-20.789-11.679-27.921-2.449-2.42-5.198-4.526-8.211-6.25 5.805-3.387 12.54-5.343 19.745-5.37 10.917-.04 20.822 4.353 28.007 11.474 7.174 7.132 11.639 17.004 11.679 27.921z" fill="#72f4c3"/></g><g><path d="m299.206 511.484c-21.836.08-39.602-17.556-39.683-39.391l-.116-31.41c-.08-21.836 17.556-39.602 39.391-39.682 21.836-.08 39.602 17.556 39.682 39.391l.116 31.41c.082 21.836-17.554 39.602-39.39 39.682z" fill="#20b69f"/><path d="m338.485 440.397.116 31.399c.08 21.846-17.56 39.605-39.395 39.686-7.193.026-13.954-1.868-19.784-5.212 11.783-6.89 19.692-19.687 19.638-34.328l-.116-31.399c-.04-10.917-4.506-20.789-11.679-27.921-2.449-2.42-5.209-4.526-8.211-6.261 5.805-3.387 12.552-5.332 19.745-5.358 10.917-.04 20.822 4.353 27.995 11.474 7.185 7.132 11.65 17.003 11.691 27.92z" fill="#17998c"/></g><g><path d="m369.204 511.227c-21.836.08-39.602-17.556-39.683-39.391l-.116-31.41c-.08-21.836 17.556-39.602 39.391-39.682 21.836-.08 39.602 17.556 39.682 39.391l.116 31.41c.082 21.835-17.554 39.601-39.39 39.682z" fill="#9ff7d3"/><path d="m408.475 440.14.116 31.399c.08 21.846-17.549 39.605-39.383 39.686-7.193.026-13.954-1.868-19.784-5.212 11.783-6.89 19.692-19.687 19.638-34.328l-.116-31.399c-.04-10.917-4.506-20.789-11.691-27.921-2.438-2.42-5.198-4.526-8.2-6.261 5.805-3.387 12.552-5.332 19.745-5.358 10.917-.04 20.81 4.353 27.995 11.474 7.186 7.131 11.64 17.003 11.68 27.92z" fill="#72f4c3"/></g><g><path d="m439.202 510.969c-21.836.08-39.602-17.556-39.683-39.391l-.116-31.41c-.08-21.836 17.556-39.602 39.391-39.682 21.836-.08 39.602 17.556 39.682 39.391l.116 31.41c.082 21.835-17.554 39.602-39.39 39.682z" fill="#20b69f"/><path d="m478.478 439.882.116 31.399c.08 21.846-17.56 39.605-39.395 39.686-7.205.027-13.954-1.868-19.784-5.224 11.794-6.878 19.692-19.675 19.638-34.316l-.116-31.399c-.04-10.917-4.494-20.789-11.679-27.921-2.449-2.42-5.198-4.526-8.211-6.25 5.805-3.387 12.54-5.343 19.745-5.37 10.917-.04 20.822 4.353 28.007 11.474 7.173 7.132 11.638 17.004 11.679 27.921z" fill="#17998c"/></g></g><g><g><path d="m180.904 307.634-21.308 17.951c-2.455 2.068-2.441 5.853.029 7.903l21.439 17.794c1.918 1.592 4.702 1.582 6.608-.024l21.308-17.951c2.455-2.068 2.441-5.853-.029-7.903l-21.439-17.794c-1.918-1.593-4.701-1.583-6.608.024z" fill="#f2fbff"/><path d="m239.711 307.417-21.308 17.951c-2.455 2.068-2.441 5.853.029 7.903l21.439 17.794c1.918 1.592 4.702 1.582 6.608-.024l21.308-17.951c2.455-2.068 2.441-5.853-.029-7.903l-21.439-17.794c-1.918-1.592-4.701-1.582-6.608.024z" fill="#68dbf9"/><path d="m298.518 307.201-21.308 17.951c-2.455 2.068-2.441 5.853.029 7.903l21.439 17.794c1.918 1.592 4.702 1.582 6.608-.024l21.308-17.951c2.455-2.068 2.441-5.853-.029-7.903l-21.44-17.794c-1.917-1.593-4.701-1.583-6.607.024z" fill="#f2fbff"/><path d="m357.324 306.984-21.308 17.951c-2.455 2.068-2.441 5.853.029 7.903l21.439 17.794c1.918 1.592 4.702 1.582 6.608-.024l21.308-17.951c2.455-2.068 2.441-5.853-.029-7.903l-21.439-17.794c-1.918-1.592-4.701-1.582-6.608.024z" fill="#68dbf9"/><path d="m416.131 306.768-21.308 17.951c-2.455 2.068-2.441 5.853.029 7.903l21.439 17.794c1.918 1.592 4.702 1.582 6.608-.024l21.308-17.951c2.455-2.068 2.441-5.853-.029-7.903l-21.439-17.794c-1.918-1.593-4.701-1.583-6.608.024z" fill="#f2fbff"/></g></g><g id="XMLID_215_"><path d="m184.115 273.373h-.12c-4.267 0-7.726-3.459-7.726-7.726s3.459-7.726 7.726-7.726h.12c4.267 0 7.726 3.459 7.726 7.726s-3.459 7.726-7.726 7.726z" fill="#fb5532"/></g><g id="XMLID_218_"><path d="m242.921 273.157h-.12c-4.267 0-7.726-3.459-7.726-7.726s3.459-7.726 7.726-7.726h.12c4.267 0 7.726 3.459 7.726 7.726s-3.459 7.726-7.726 7.726z" fill="#fb5532"/></g><g id="XMLID_220_"><path d="m301.727 272.94h-.12c-4.267 0-7.726-3.459-7.726-7.726s3.459-7.726 7.726-7.726h.12c4.267 0 7.726 3.459 7.726 7.726.001 4.267-3.459 7.726-7.726 7.726z" fill="#fb5532"/></g><g id="XMLID_221_"><path d="m360.534 272.724h-.119c-4.267 0-7.726-3.459-7.726-7.726s3.459-7.726 7.726-7.726h.119c4.267 0 7.726 3.459 7.726 7.726s-3.459 7.726-7.726 7.726z" fill="#fb5532"/></g><g id="XMLID_222_"><path d="m419.22 272.508c-4.253 0-7.708-3.438-7.726-7.694-.018-4.267 3.427-7.741 7.694-7.759l.12-.001h.033c4.253 0 7.708 3.438 7.726 7.694.018 4.267-3.427 7.741-7.694 7.759h-.12c-.011.001-.022.001-.033.001z" fill="#fb5532"/></g></g><g><path d="m448.396 185.33h-293.508c-.175 0-.361-.01-.536-.031l-.051-15.391c.196-.021.391-.031.587-.031h293.447z" fill="#fb5532"/></g></g></svg>