<svg id="Capa_1" enable-background="new 0 0 512 512" height="512" viewBox="0 0 512 512" width="512" xmlns="http://www.w3.org/2000/svg"><g><g><g><path d="m185.163 366.688c-4.267 0-7.726-3.459-7.726-7.726v-28.348c0-4.267 3.459-7.726 7.726-7.726s7.726 3.459 7.726 7.726v28.348c0 4.267-3.459 7.726-7.726 7.726z" fill="#27e19d"/></g><g><path d="m213.331 366.688c-4.267 0-7.726-3.459-7.726-7.726v-28.348c0-4.267 3.459-7.726 7.726-7.726s7.726 3.459 7.726 7.726v28.348c0 4.267-3.459 7.726-7.726 7.726z" fill="#27e19d"/></g><g><path d="m241.499 366.688c-4.267 0-7.726-3.459-7.726-7.726v-28.348c0-4.267 3.459-7.726 7.726-7.726s7.726 3.459 7.726 7.726v28.348c0 4.267-3.459 7.726-7.726 7.726z" fill="#27e19d"/></g><g><path d="m269.667 366.688c-4.268 0-7.726-3.459-7.726-7.726v-28.348c0-4.267 3.459-7.726 7.726-7.726s7.726 3.459 7.726 7.726v28.348c0 4.267-3.458 7.726-7.726 7.726z" fill="#27e19d"/></g></g><g><g><path d="m309.094 448.138c-4.268 0-7.726-3.459-7.726-7.726v-28.348c0-4.267 3.459-7.726 7.726-7.726s7.726 3.459 7.726 7.726v28.348c0 4.267-3.459 7.726-7.726 7.726z" fill="#72f4c3"/></g><g><path d="m337.261 448.138c-4.268 0-7.726-3.459-7.726-7.726v-28.348c0-4.267 3.459-7.726 7.726-7.726s7.726 3.459 7.726 7.726v28.348c0 4.267-3.459 7.726-7.726 7.726z" fill="#72f4c3"/></g><g><path d="m365.429 448.138c-4.268 0-7.726-3.459-7.726-7.726v-28.348c0-4.267 3.459-7.726 7.726-7.726 4.268 0 7.726 3.459 7.726 7.726v28.348c0 4.267-3.459 7.726-7.726 7.726z" fill="#72f4c3"/></g><g><path d="m393.597 448.138c-4.268 0-7.726-3.459-7.726-7.726v-28.348c0-4.267 3.459-7.726 7.726-7.726s7.726 3.459 7.726 7.726v28.348c0 4.267-3.459 7.726-7.726 7.726z" fill="#72f4c3"/></g><g><path d="m421.765 448.138c-4.268 0-7.726-3.459-7.726-7.726v-28.348c0-4.267 3.459-7.726 7.726-7.726s7.726 3.459 7.726 7.726v28.348c0 4.267-3.459 7.726-7.726 7.726z" fill="#72f4c3"/></g></g><path d="m174.861 178.616v141.696c0 5.689 4.612 10.302 10.302 10.302h116.281c5.69 0 10.302-4.612 10.302-10.302v-141.696z" fill="#21c1f8"/><path d="m278.098 178.616v141.694c0 5.687-4.615 10.302-10.302 10.302h33.646c5.687 0 10.302-4.615 10.302-10.302v-141.694z" fill="#1faaee"/><path d="m311.743 178.613v141.701c0 5.687-4.605 10.302-10.302 10.302h-116.276c-5.687 0-10.302-4.615-10.302-10.302v-141.701z" fill="#fb5532"/><g><path d="m311.743 284.928v15.453h-136.86c-.01 0-.01 0-.021 0v-15.453h.021z" fill="#1faaee"/></g><g><path d="m311.743 259.266v15.453h-136.86c-.01 0-.01 0-.021 0v-15.453h.021z" fill="#1faaee"/></g><path d="m311.743 178.613v141.701c0 5.687-4.615 10.302-10.302 10.302h-33.646c5.687 0 10.302-4.615 10.302-10.302v-141.701z" fill="#ec462e"/><g><path d="m278.097 284.928h33.646v15.453h-33.646z" fill="#1891cd"/></g><g><path d="m278.097 259.266h33.646v15.453h-33.646z" fill="#1891cd"/></g><path d="m63.356 75.255h256.753v136.89h-256.753z" fill="#1faaee"/><path d="m278.19 75.255h178.087v136.89h-178.087z" fill="#1891cd"/><path d="m10.302 75.261h66.004v136.88h-66.004c-5.687 0-10.302-4.605-10.302-10.301v-116.277c0-5.687 4.615-10.302 10.302-10.302z" fill="#72f4c3"/><path d="m512 85.567v116.277c0 5.697-4.615 10.302-10.302 10.302h-66.004v-136.88h66.004c5.687 0 10.302 4.615 10.302 10.301z" fill="#72f4c3"/><path d="m435.694 75.266h20.583v136.88h-20.583z" fill="#27e19d"/><path d="m512 85.567v116.277c0 5.697-4.615 10.302-10.302 10.302h-33.656c5.686 0 10.302-4.605 10.302-10.302v-116.277c0-5.686-4.615-10.302-10.302-10.302h33.656c5.687.001 10.302 4.616 10.302 10.302z" fill="#27e19d"/><path d="m435.676 169.96v-95.795c0-5.69-4.612-10.302-10.302-10.302h-116.281c-5.69 0-10.302 4.612-10.302 10.302v95.796h136.885z" fill="#21c1f8"/><path d="m402.028 74.163v95.797h33.646v-95.797c0-5.687-4.615-10.302-10.302-10.302h-33.646c5.687.001 10.302 4.616 10.302 10.302z" fill="#1faaee"/><path d="m435.674 193.087v208.673c0 5.687-4.615 10.302-10.302 10.302h-116.276c-5.697 0-10.302-4.615-10.302-10.302v-208.673z" fill="#fc7d4b"/><g><path d="m435.674 366.374v15.453h-136.86c-.01 0-.01 0-.021 0v-15.453h.021z" fill="#21c1f8"/></g><g><path d="m298.794 340.722h.021 136.86v15.453h-136.86c-.01 0-.01 0-.021 0z" fill="#21c1f8"/></g><path d="m435.674 193.087v208.673c0 5.687-4.615 10.302-10.302 10.302h-33.646c5.687 0 10.302-4.615 10.302-10.302v-208.673z" fill="#fb6a3b"/><path d="m298.791 160.89h136.885v51.255h-136.885z" fill="#fcc16d"/><path d="m402.028 160.894h33.646v51.252h-33.646z" fill="#fca62f"/><g><path d="m318.399 253.09-14.405 11.339c-2.632 2.072-2.618 6.066.03 8.118l14.488 11.233c1.869 1.449 4.484 1.439 6.342-.023l14.405-11.339c2.632-2.072 2.618-6.066-.03-8.118l-14.488-11.233c-1.868-1.449-4.484-1.44-6.342.023z" fill="#f2fbff"/><path d="m364.027 252.922-14.405 11.339c-2.632 2.072-2.618 6.066.03 8.118l14.488 11.233c1.869 1.449 4.484 1.439 6.342-.023l14.405-11.339c2.632-2.072 2.618-6.066-.03-8.118l-14.488-11.233c-1.869-1.449-4.484-1.44-6.342.023z" fill="#24d1f8"/><path d="m409.654 252.754-14.405 11.339c-2.632 2.072-2.618 6.066.03 8.118l14.488 11.233c1.869 1.449 4.484 1.439 6.342-.023l14.405-11.339c2.632-2.072 2.618-6.066-.03-8.118l-14.488-11.233c-1.868-1.449-4.484-1.44-6.342.023z" fill="#f2fbff"/></g><g><g><g id="XMLID_251_"><path d="m40.877 114.017h-.12c-4.267 0-7.726-3.459-7.726-7.726s3.459-7.726 7.726-7.726h.12c4.267 0 7.726 3.459 7.726 7.726.001 4.266-3.459 7.726-7.726 7.726z" fill="#f2fbff"/></g><g id="XMLID_250_"><path d="m40.757 150.417c-4.253 0-7.708-3.438-7.726-7.694-.018-4.267 3.427-7.741 7.694-7.759l.12-.001h.033c4.253 0 7.708 3.438 7.726 7.694.018 4.267-3.427 7.741-7.694 7.759l-.12.001c-.011 0-.022 0-.033 0z" fill="#f2fbff"/></g><g id="XMLID_249_"><path d="m40.877 186.816h-.12c-4.267 0-7.726-3.459-7.726-7.726s3.459-7.726 7.726-7.726h.12c4.267 0 7.726 3.459 7.726 7.726s-3.459 7.726-7.726 7.726z" fill="#f2fbff"/></g></g><g><g id="XMLID_277_"><path d="m471.242 114.017h-.12c-4.268 0-7.726-3.459-7.726-7.726s3.459-7.726 7.726-7.726h.12c4.268 0 7.726 3.459 7.726 7.726.001 4.266-3.458 7.726-7.726 7.726z" fill="#f2fbff"/></g><g id="XMLID_271_"><path d="m471.122 150.417c-4.252 0-7.707-3.438-7.725-7.694-.018-4.267 3.427-7.741 7.694-7.759l.12-.001h.033c4.251 0 7.707 3.438 7.725 7.694.018 4.267-3.427 7.741-7.694 7.759l-.12.001c-.011 0-.022 0-.033 0z" fill="#f2fbff"/></g><g id="XMLID_252_"><path d="m471.242 186.816h-.12c-4.268 0-7.726-3.459-7.726-7.726s3.459-7.726 7.726-7.726h.12c4.268 0 7.726 3.459 7.726 7.726s-3.458 7.726-7.726 7.726z" fill="#f2fbff"/></g></g></g><g><path d="m402.028 366.374h33.646v15.453h-33.646z" fill="#1faaee"/></g><g><path d="m402.028 340.722h33.646v15.453h-33.646z" fill="#1faaee"/></g></g></svg>