<svg id="Capa_1" enable-background="new 0 0 512 512" height="512" viewBox="0 0 512 512" width="512" xmlns="http://www.w3.org/2000/svg"><g><g><path d="m105.478 428.463h15.453v38.46h-15.453z" fill="#fcc16d"/></g><g><path d="m391.069 428.463h15.453v38.46h-15.453z" fill="#fcc16d"/></g><g><path d="m334.294 75.151h-10.869c-4.268 0-7.726-3.459-7.726-7.726s3.459-7.726 7.726-7.726h10.869c4.268 0 7.726 3.459 7.726 7.726s-3.459 7.726-7.726 7.726z" fill="#fb9927"/></g><g><circle cx="256" cy="67.424" fill="#fcc16d" r="67.424"/><path d="m323.425 67.425c0 37.241-30.184 67.425-67.425 67.425-5.985 0-11.796-.783-17.317-2.246 28.845-7.634 50.108-33.924 50.108-65.18s-21.263-57.546-50.108-65.18c5.521-1.461 11.332-2.244 17.317-2.244 37.241 0 67.425 30.184 67.425 67.425z" fill="#fca62f"/><g><g><path d="m161.94 314.562v-69.37c0-30.133 24.515-54.648 54.647-54.648h78.826c30.133 0 54.647 24.515 54.647 54.648v69.37h97.472v-69.37c0-83.879-68.24-152.119-152.119-152.119h-78.826c-83.879 0-152.119 68.241-152.119 152.119v69.37z" fill="#21c1f8"/></g><g><path d="m447.531 245.193v141.248c0 26.919-21.819 48.738-48.738 48.738-5.635 0-11.044-.958-16.081-2.72 19.007-6.655 32.636-24.745 32.636-46.018v-141.248c0-83.877-68.239-152.117-152.116-152.117h32.183c83.877.001 152.116 68.24 152.116 152.117z" fill="#1faaee"/></g><g><path d="m64.468 319.871v66.572c0 26.916 21.82 48.736 48.736 48.736s48.736-21.82 48.736-48.736v-66.572z" fill="#fc7d4b"/><path d="m350.06 319.871v66.572c0 26.916 21.82 48.736 48.736 48.736s48.736-21.82 48.736-48.736v-66.572z" fill="#fc7d4b"/><g><path d="m447.531 301.266v85.175c0 26.919-21.819 48.738-48.738 48.738-5.635 0-11.044-.958-16.081-2.72 19.007-6.655 32.636-24.745 32.636-46.018v-85.175z" fill="#fb6a3b"/></g></g><g><path d="m64.468 301.263h97.472v30.447h-97.472z" fill="#fcc16d"/></g><g><path d="m350.056 301.266h97.476v30.442h-97.476z" fill="#fcc16d"/><path d="m415.348 301.266h32.183v30.442h-32.183z" fill="#fca62f"/><g fill="#fcc16d"><path d="m64.468 301.263h97.472"/><path d="m350.06 301.263h97.472"/></g></g><g><path d="m332.027 162.995h-152.054c-21.531 0-38.992 17.462-38.992 38.992v57.031c0 5.378 4.368 9.746 9.746 9.746h45.607v-53.097h118.666v53.097h46.274c5.377 0 9.746-4.368 9.746-9.746v-57.031c0-21.53-17.462-38.992-38.993-38.992z" fill="#72f4c3"/><path d="m371.02 201.988v57.031c0 5.378-4.368 9.746-9.746 9.746h-29.092c5.378 0 9.745-4.368 9.745-9.746v-57.031c0-21.531-17.462-38.992-38.992-38.992h29.092c21.531-.001 38.993 17.461 38.993 38.992z" fill="#27e19d"/><path d="m331.08 219.037v49.727h-150.16v-49.727c0-9.447 7.654-17.101 17.101-17.101h115.957c9.447 0 17.102 7.654 17.102 17.101z" fill="#fcc16d"/></g><g><circle cx="113.204" cy="487.794" fill="#72f4c3" r="24.206"/><path d="m137.406 487.791c0 13.372-10.838 24.209-24.199 24.209-4.481 0-8.674-1.216-12.269-3.338 7.149-4.203 11.94-11.981 11.94-20.871s-4.79-16.658-11.94-20.861c3.595-2.122 7.788-3.338 12.269-3.338 13.361 0 24.199 10.837 24.199 24.199z" fill="#27e19d"/></g><g><circle cx="398.796" cy="487.794" fill="#72f4c3" r="24.206"/><path d="m423.003 487.791c0 13.372-10.837 24.209-24.209 24.209-4.481 0-8.664-1.216-12.259-3.338 7.15-4.203 11.94-11.981 11.94-20.871s-4.79-16.658-11.94-20.861c3.595-2.122 7.778-3.338 12.259-3.338 13.371 0 24.209 10.837 24.209 24.199z" fill="#27e19d"/></g></g><g><g id="XMLID_223_"><path d="m304.25 236.304c-.013 0-.026 0-.039 0-4.268-.022-7.76-3.498-7.738-7.765.021-4.254 3.427-7.688 7.675-7.688h.039l.101.001c4.268.022 7.709 3.498 7.688 7.765-.022 4.253-3.478 7.687-7.726 7.687z" fill="#21c1f8"/></g><g id="XMLID_224_"><path d="m207.853 236.304c-.013 0-.026 0-.039 0-4.268-.022-7.76-3.498-7.738-7.765.021-4.254 3.427-7.688 7.675-7.688h.039l.101.001c4.268.022 7.709 3.498 7.688 7.765-.022 4.253-3.477 7.687-7.726 7.687z" fill="#21c1f8"/></g></g></g><g><g><path d="m198.422 38.569c-1.458 0-2.932-.412-4.24-1.273l-9.037-5.947c-3.564-2.346-4.552-7.137-2.206-10.702 2.344-3.564 7.136-4.552 10.701-2.207l9.037 5.947c3.564 2.346 4.552 7.137 2.206 10.702-1.485 2.256-3.949 3.48-6.461 3.48z" fill="#fca62f"/></g><g><path d="m300.683 33.149c-1.977 0-3.955-.755-5.464-2.263-3.017-3.017-3.017-7.909 0-10.927l12.542-12.542c3.018-3.017 7.909-3.017 10.928 0 3.017 3.017 3.017 7.909 0 10.927l-12.542 12.542c-1.51 1.509-3.487 2.263-5.464 2.263z" fill="#fca62f"/></g></g><g id="XMLID_225_"><path d="m221.371 66.275c-.013 0-.025 0-.037 0l-.107-.001c-4.268-.02-7.71-3.495-7.69-7.763.02-4.255 3.476-7.69 7.725-7.69h.037l.107.001c4.268.02 7.71 3.495 7.69 7.763-.02 4.255-3.475 7.69-7.725 7.69z" fill="#fca62f"/></g><g id="XMLID_226_"><path d="m243.081 49.792c-.013 0-.025 0-.037 0l-.107-.001c-4.268-.02-7.71-3.495-7.69-7.763.02-4.255 3.476-7.69 7.725-7.69h.037l.107.001c4.268.02 7.71 3.495 7.69 7.763-.019 4.255-3.475 7.69-7.725 7.69z" fill="#fca62f"/></g><g><path d="m86.464 360.815-15.23 10.946c-2.873 2.065-2.857 6.344.031 8.387l15.31 10.834c1.794 1.27 4.197 1.261 5.981-.022l15.23-10.946c2.873-2.065 2.857-6.344-.031-8.387l-15.31-10.834c-1.794-1.27-4.196-1.261-5.981.022z" fill="#f2fbff"/><path d="m134.747 360.637-15.23 10.946c-2.873 2.065-2.857 6.344.031 8.387l15.31 10.834c1.794 1.27 4.197 1.261 5.981-.022l15.23-10.946c2.873-2.065 2.857-6.344-.031-8.387l-15.31-10.834c-1.794-1.269-4.196-1.26-5.981.022z" fill="#24d1f8"/></g><g><path d="m371.155 360.815-15.23 10.946c-2.873 2.065-2.857 6.344.031 8.387l15.31 10.834c1.794 1.27 4.197 1.261 5.981-.022l15.23-10.946c2.873-2.065 2.857-6.344-.031-8.387l-15.31-10.834c-1.793-1.27-4.196-1.261-5.981.022z" fill="#f2fbff"/><path d="m419.438 360.637-15.23 10.946c-2.873 2.065-2.857 6.344.031 8.387l15.31 10.834c1.794 1.27 4.197 1.261 5.981-.022l15.23-10.946c2.873-2.065 2.857-6.344-.031-8.387l-15.31-10.834c-1.794-1.269-4.196-1.26-5.981.022z" fill="#24d1f8"/></g></g></svg>